<svg xmlns="http://www.w3.org/2000/svg" viewBox="0 0 328.39 469.66"><defs><style>.cls-1{isolation:isolate;}.cls-2{fill:#fff;}.cls-3{fill:#ff9e61;}.cls-4{fill:#f44a1c;}.cls-5{fill:#e6e7e8;}.cls-6{fill:#386a7f;}.cls-7{fill:#345a6f;}.cls-8{fill:#213945;}.cls-9{fill:#869ca9;}.cls-10{fill:#231f20;}.cls-11{fill:#e84215;}.cls-12{fill:#d1d3d4;}.cls-13{fill:#ffc27d;}.cls-14{fill:#732926;opacity:0.3;mix-blend-mode:multiply;}.cls-15{fill:#ffc88d;}.cls-16,.cls-17{fill:none;stroke-linecap:round;stroke-linejoin:round;}.cls-16{stroke:#3c2415;stroke-width:9.82px;}.cls-17{stroke:#d82432;stroke-width:9.01px;}.cls-18{fill:#423a2f;}.cls-19{fill:#de7540;}.cls-20{fill:#ed1c24;}</style></defs><title>boss-char</title><g class="cls-1"><g id="Layer_1" data-name="Layer 1"><path class="cls-2" d="M110.75,223.17l-5.66,54.4c-.13,25.77,59.78,171.35,59.78,171.35s64.42-143,64.56-169.47l-9.71-55.71Z"/><path class="cls-3" d="M120.84,231.83l-.24,44.27c-.1,21,24.26,31.12,41,31.21l6.41,0c16.73.08,41.18-8.19,41.3-29.71l.24-45.35Z"/><polygon class="cls-4" points="181.21 417.39 169.49 333.32 178.01 318.64 164.56 307.34 151.11 318.64 159.64 333.32 147.91 417.39 164.87 447.93 181.21 417.39"/><polygon class="cls-5" points="219.72 279.56 164.56 306.43 109.4 279.56 137.93 333.09 164.56 309.05 191.2 333.09 219.72 279.56"/><path class="cls-6" d="M12.28,430.63s-15.7-9.3-11.6-32.21c4.65-25.95,55-104,62.61-108.31,7.34-4.17,39.1-23,39.1-23l-1.55,140.1Z"/><path class="cls-6" d="M72.74,446.33s-58.51-2.94-65-20.95C2.85,412,40.05,378.71,40.05,378.71L97.21,400l-1.45,4.24Z"/><path class="cls-7" d="M316.11,430.63s15.69-9.3,11.59-32.21c-4.64-25.95-55-104-62.6-108.31-7.35-4.17-39.1-23-39.1-23l1.53,130.39Z"/><path class="cls-7" d="M255.64,446.33s58.52-2.94,65.05-20.95c4.84-13.35-32.35-46.67-32.35-46.67L231.17,400l1.45,4.24Z"/><path class="cls-8" d="M105,408.53s-6.22,8-10.79,6.4c-.89-.3,1.29-9.71.3-10A203.23,203.23,0,0,0,69.09,398c-12.79-2.43-39.37-2.25-39.32-6.34,0-2.15,33.83-.83,40.06-4.63,7.58-4.62,7-49.41,8.36-59.3,1.07-7.76,9.09-9.89,8.47,2.32-.38,7.53-1.28,29.09-1.73,40.87-.17,4.64.45,18.84-.15,23.61-.4,3.23,23.25,9.72,23.25,9.72Z"/><polygon class="cls-9" points="108.08 259.92 79.29 301.55 101.68 311.12 94.48 340.01 164.87 448.93 108.08 259.92"/><path class="cls-3" d="M127.93,394.35c.24,3.49,7.6,5.84,16.44,5.25s15.94-2.16,15.58-7.41c-.32-4.83-7.59-5.84-16.43-5.25S127.7,390.85,127.93,394.35Z"/><path class="cls-10" d="M171,428.64a1,1,0,0,1,1.4.16l3.3,4.15a1,1,0,0,1-.16,1.41h0a1,1,0,0,1-1.4-.17L170.83,430a1,1,0,0,1,.17-1.4Z"/><path class="cls-2" d="M92.66,330.19a3.75,3.75,0,0,1,5.27.6l7.4,9.3a3.74,3.74,0,0,1-.6,5.26h0a3.74,3.74,0,0,1-5.26-.6l-7.4-9.3a3.74,3.74,0,0,1,.59-5.26Z"/><rect class="cls-11" x="145.77" y="384.82" width="11.58" height="38.79" transform="matrix(0.78, -0.62, 0.62, 0.78, -218.7, 182.25)"/><rect class="cls-2" x="114.14" y="333.04" width="11.58" height="62.83" transform="translate(-200.84 153.93) rotate(-38.51)"/><rect class="cls-11" x="92.82" y="334.83" width="11.58" height="5.66" transform="translate(-188.69 134.69) rotate(-38.48)"/><polygon class="cls-5" points="172.93 433.27 159.11 423 168.17 415.79 175.07 431.56 172.93 433.27"/><path class="cls-11" d="M85.68,337.59a1.89,1.89,0,0,1,2.64.3l28.62,36a1.86,1.86,0,0,1-.3,2.63h0a1.86,1.86,0,0,1-2.63-.3l-28.63-36a1.89,1.89,0,0,1,.3-2.64Z"/><rect class="cls-11" x="89.18" y="342.04" width="7.13" height="3.43" transform="translate(-193.81 132.43) rotate(-38.49)"/><path class="cls-12" d="M94.14,408.37s-7,2.3-10.74,19.55c-4,18.52,3.26,19.14,3.26,19.14s6-3.13,8.75-19.35C97.38,416.26,94.14,408.37,94.14,408.37Z"/><path class="cls-13" d="M92.09,409c3.5.25,9.5,2.75,14.25-3.25s0,11.25-3.5,17-11.75,10.25-15,10.5-9.75,4.75-9.25.25,1-11.25,3.25-14.25S92.09,409,92.09,409Z"/><path class="cls-13" d="M94.36,425.79c2.23-13.61,10.33-17.42,10.33-17.42S114.31,395,120.8,392c7.83-3.63,25.54-4.76,32.74,0,1.9,1.26,3.73,6.27,3.32,8.52-.24,1.3-3.53,3.95-3.53,3.95s2,5.91,1.66,7.89c-.3,1.59-3.53,5.41-3.53,5.41s1.33,7.5.41,9.76c-.56,1.4-4.36,4.16-4.36,4.16s1.11,4.53.21,5.61c-4.82,5.75-22.38,2.6-29.72,4.16-5.92,1.25-18.16,6.36-23.27,3.12C90.94,442.14,93.64,430.21,94.36,425.79Z"/><polygon class="cls-3" points="153.33 404.43 130.35 404.43 131.02 401.38 155.61 402.33 153.33 404.43"/><polygon class="cls-3" points="128.01 413.98 128.01 417.2 151.46 417.73 153.22 415.47 128.01 413.98"/><polygon class="cls-3" points="128.01 427.92 128.57 430.71 147.51 431.65 149.83 429.79 128.01 427.92"/><path class="cls-2" d="M94.14,408.37S87.83,411.71,84,430.78c-1.1,5.48,0,14.06,2.87,14.69l-.22,1.59-14.6-1.26s-5.15-8.61-1.16-22c2.75-9.23,12.47-17.68,12.47-17.68Z"/><path class="cls-8" d="M224.76,409.53s6.22,8,10.79,6.4c.89-.3-1.29-9.71-.3-10,9.18-3,15.17-6.89,22.39-7.41,13-.94,42.44-1.74,42.39-5.83,0-2.15-33.83-.83-40.07-4.63-7.57-4.62-7-49.41-8.35-59.3-1.08-7.76-9.09-9.89-8.47,2.32.38,7.53,1.28,29.09,1.72,40.87.18,4.64-.44,14.81.16,19.58.4,3.23-31.93,11-31.93,11Z"/><path class="cls-12" d="M234.68,400.32s6.8,2.95,8.86,20.48c2.2,18.8-5,18.75-5,18.75s-5.64-3.68-6.89-20.09C230.71,407.88,234.68,400.32,234.68,400.32Z"/><path class="cls-13" d="M220.59,407.25c4.5-3.25,1.73-5.55,6.37-4.4s13.63,3.9,17.13,4.4,9.25,27.75,5,32.5-27-.25-27-.25Z"/><polygon class="cls-9" points="221.05 259.92 249.83 301.55 227.45 311.12 234.97 339.5 164.87 448.93 221.05 259.92"/><path class="cls-14" d="M175.44,306.5h14.92c23.81.38,45.3-2.92,63.73-23.5-5.19-3.32-7.4-4.1-15.15-9.16l-5.68-13.92-2.68,8.46L230,268l-7-44.26-98.51-.57-5.11,54.4a25.37,25.37,0,0,0,.13,2.61L116.9,272l0-4.8-1.31.86-2.58-8.09-5.44,13.33c-2.75,1.79.42-.77-2.69,1.25C122,299.59,150,306.1,175.44,306.5Z"/><path class="cls-15" d="M60.54,112.44,59,217.32c-.7,49.68,56.78,74.23,96.41,74.8l15.2.21c39.62.57,97.73-18.51,98.46-69.49l1.53-107.41-100-69.14Z"/><path class="cls-16" d="M98.93,180.15c10.64-10.78,29.72-10.47,38.6.55"/><path class="cls-16" d="M195,181.52c10.64-10.78,29.72-10.47,38.6.55"/><path class="cls-17" d="M126.81,231c-.28,19.24,76.7,20.34,77,1.1"/><path class="cls-18" d="M59,104c.31-34.65,27-54.8,56.59-64.16C104,20.45,88.14,16.1,98.4,16.19c16.77.14,41.39,19.89,41.76,17.12,3-22.33,39-40.57,33.78-30.44-3.69,7.22-7.44,21.51-9.62,30.64l8.87.08c40,.36,98,24.81,97.59,74.91l-.55,60s-5.21-68-41.52-68.32C200.78,100,195.05,138.3,161.53,138S125.36,99.3,94.64,99c-35.17-.3-36.2,65.39-36.23,67.55Z"/><path class="cls-19" d="M58.41,166.59v0Z"/><path class="cls-15" d="M78.37,192.91a20.88,20.88,0,0,1-21.18,20.58h0A20.89,20.89,0,0,1,36.6,192.31l.26-17.72A20.89,20.89,0,0,1,58,154h0a20.89,20.89,0,0,1,20.58,21.19Z"/><path class="cls-15" d="M250.5,195.36a20.89,20.89,0,0,0,20.59,21.18h0A20.88,20.88,0,0,0,292.27,196l.25-17.72a20.89,20.89,0,0,0-20.59-21.19h0a20.88,20.88,0,0,0-21.17,20.59Z"/><path class="cls-3" d="M59.65,174.51a8.6,8.6,0,0,0-1.9-.25,8.23,8.23,0,0,0-8.35,8.11l-.09,6.32A8.23,8.23,0,0,0,57.42,197a7.91,7.91,0,0,0,1.9-.19Z"/><path class="cls-3" d="M271.65,177.3a8.37,8.37,0,0,0-3.18.59l-.31,21.52a8.32,8.32,0,0,0,3.16.68,8.22,8.22,0,0,0,8.34-8.11l.1-6.33A8.24,8.24,0,0,0,271.65,177.3Z"/><path class="cls-2" d="M234.68,400.32s6,3.92,8,23.27c.57,5.55-1.35,14-4.24,14.35l.06,1.61,14.66.11s5.94-8.09,3.22-21.78c-1.87-9.44-10.76-18.76-10.76-18.76Z"/><path class="cls-13" d="M227,402.85a61.47,61.47,0,0,0-8.9-.85,107.09,107.09,0,0,0-21.54,5.29c-7.08,2.53-14.65,5.54-16.58,6.24a45.53,45.53,0,0,0-13.27,7.76c-1.66,1.45-1.12,5.45,2.39,6.18a29.45,29.45,0,0,0,3.75.22s.56,4.22,1.62,5c1.59,1.15,7.85,0,7.85,0s1.12,4.82,2.43,5.61c2,1.23,30.07-.37,45.89-.19,0,0,3.81-2.8,2.81-15.89C232.7,413,228.2,403.06,227,402.85Z"/><polygon class="cls-3" points="182.28 432.68 195.97 427.79 209.35 425.2 215.46 425.2 215.46 427.48 209.35 428.13 196.29 430.83 182.72 434.32 182.28 432.68"/><polygon class="cls-3" points="172.81 427.69 185.36 422.25 200.62 419.28 215.63 417.36 215.63 414.44 200.38 416.65 184.87 419.45 168.49 427.31 172.81 427.69"/><path class="cls-20" d="M280.52,449.22c1.2,1.91,9.73,16,7.61,16L157.06,447.43a3.84,3.84,0,0,1-3.84-3.84h0a3.84,3.84,0,0,1,3.84-3.84l119.62,5.63c2.12,0,2.91,1.7,3.84,3.84Z"/><path class="cls-2" d="M152.92,447.17l127,8-7.61-15.7s-73.25-11.41-90.59-12.19-21.65,4.8-21.65,4.8a20.23,20.23,0,0,0-6-7.14c-4-2.83-11.25-3.84-11.25-3.84Z"/><path class="cls-20" d="M169,449.37a3.84,3.84,0,0,1-3.84,3.84L34.09,465.67c-2.12,0,6.67-14,7.61-16.3h0c1.39-2.53,2.44-3.83,4.56-3.83H165.15a3.83,3.83,0,0,1,3.84,3.83Z"/><path class="cls-2" d="M143.28,421.1c-19.93-4.13-70.45,2.44-80.95,6.34-2.73,1-24.19,32.1-24.74,34.73l123.19-16.63C160.78,432,163.2,425.24,143.28,421.1Z"/><path class="cls-20" d="M288.47,465.4a4.09,4.09,0,0,1-4.09,4.09l-127.59-6a4.09,4.09,0,0,1-4.09-4.09h0a4.1,4.1,0,0,1,4.09-4.1l127.59,6a4.1,4.1,0,0,1,4.09,4.1Z"/><path class="cls-12" d="M152.7,455.3l127,6V455s-78.12-12.16-96.62-13S160,447.12,160,447.12a21.55,21.55,0,0,0-6.41-7.62c-4.28-3-12-4.09-12-4.09Z"/><path class="cls-20" d="M169.52,465.56a4.11,4.11,0,0,1-4.1,4.1H37.84a4.1,4.1,0,0,1-4.09-4.1h0a4.09,4.09,0,0,1,4.09-4.09H165.42a4.1,4.1,0,0,1,4.1,4.09Z"/><path class="cls-12" d="M142.09,435.41C120.84,431,67,438,55.76,442.17c-2.92,1.08-16.84,16.5-17.42,19.3H160.76C160.76,447.08,163.34,439.82,142.09,435.41Z"/><path class="cls-8" d="M151.09,461.47s5.49-9.47,7.33-9.47,2.84,3.5,2.84,3.5l-.5,6Z"/></g></g></svg>