<svg id="Layer_1" data-name="Layer 1" xmlns="http://www.w3.org/2000/svg" viewBox="0 0 338.25 237.53"><defs><style>.cls-1{fill:#7d4429;}.cls-2{fill:#a86245;}.cls-3{fill:#b36e4f;}.cls-4{fill:#965538;}.cls-5{fill:#c7866a;}</style></defs><title>boss-desk</title><rect class="cls-1" y="35.82" width="338.25" height="24.87"/><polygon class="cls-2" points="311.32 170.91 300.37 237.53 297.9 170.91 42.83 170.91 37.83 237.53 26.93 170.91 8.35 60.68 329.9 60.68 311.32 170.91"/><polygon class="cls-1" points="102.24 148.22 107.37 181.62 117.62 181.62 112.49 148.22 102.24 148.22"/><polygon class="cls-1" points="225.71 148.22 220.58 181.62 230.83 181.62 235.96 148.22 225.71 148.22"/><polygon class="cls-3" points="300.37 237.53 312.05 79.39 26.2 79.39 37.83 237.53 37.83 237.53 59.63 237.53 48.73 170.91 289.47 170.91 278.57 237.53 300.37 237.53 300.37 237.53"/><polygon class="cls-4" points="332.8 54.65 5.45 54.65 0 35.82 338.25 35.82 332.8 54.65"/><polygon class="cls-5" points="289.85 0 48.4 0 0 35.82 338.25 35.82 289.85 0"/></svg>