<svg id="Layer_1" data-name="Layer 1" xmlns="http://www.w3.org/2000/svg" viewBox="0 0 144.29 115.88"><defs><style>.cls-1{fill:#ff4172;}.cls-2{fill:#ff9763;}.cls-3{fill:#fff;}</style></defs><title>dialog-box-3</title><path class="cls-1" d="M39.07,114.63C17,110.69,2.89,89.64,2.82,67.84,2.72,36.77,33.2,18.36,59.93,12.36c1.64-.37,1.35-1.38-.28-1C32.21,17.5,3.34,34.62.23,65.32c-2.37,23.39,14,46.43,37.09,50.55.67.12,3.2-1,1.75-1.24Z"/><path class="cls-1" d="M125.73,21.06c10.57,8.18,16.25,19.72,15.71,33.1a34.05,34.05,0,0,1-14.07,26.48c-7.47,5.47-16.81,8-25.77,9.73a153.21,153.21,0,0,1-34.73,2.88c-.66,0-3.17,1.2-1.75,1.24,20.25.64,44.13-1.33,62-12.06a35,35,0,0,0,16.72-25.11c2.29-14.66-3.95-28.29-15.51-37.24-.65-.5-3.1.58-2.58,1Z"/><path class="cls-2" d="M39.47,109.66a1.66,1.66,0,0,1-.32,0c-8.48-1.45-23.69-7.14-30.25-29C5.34,68.75,7.23,56.67,14.35,45.66,24,30.77,42.13,21.52,61,17.42c46.9-10.19,76.19,8.27,76.19,33.72,0,31.51-33.93,33.57-50.35,36.46s-43.5-4-51.73,6.31c-2.75,3.43,2.49,9.38,5.68,12.49a1.89,1.89,0,0,1,.37,2.22A1.91,1.91,0,0,1,39.47,109.66Z"/><path class="cls-3" d="M13.92,79.15C9,61.58,17.38,45.23,31.52,34.85,46.69,23.72,66.94,19.4,85.44,19.24c1.14,0,2.88-1.76,1-1.74-19.34.17-39.38,4.7-55.59,15.58C15.42,43.45,6,61.3,11.16,79.88c.31,1.1,3.06.35,2.76-.73Z"/><path class="cls-1" d="M92.72,11.37,90.4,2.9a2.29,2.29,0,1,1,4.42-1.21,2.39,2.39,0,0,1,.06.92l-1.22,8.7a.48.48,0,0,1-.54.41A.48.48,0,0,1,92.72,11.37Z"/><path class="cls-1" d="M97.59,11.78,97.87,3a2.29,2.29,0,1,1,4.58.15,2.42,2.42,0,0,1-.21.89l-3.72,8a.5.5,0,0,1-.65.24A.51.51,0,0,1,97.59,11.78Z"/><path class="cls-1" d="M102.3,13.29l3.94-7.84a2.29,2.29,0,1,1,3.53,2.78L103,13.88a.48.48,0,0,1-.68-.06A.47.47,0,0,1,102.3,13.29Z"/></svg>