<svg id="Layer_1" data-name="Layer 1" xmlns="http://www.w3.org/2000/svg" viewBox="0 0 135.89 114.92"><defs><style>.cls-1{fill:#9f548a;}.cls-2{fill:#ff4172;}.cls-3{fill:#fff;}</style></defs><title>dialog-box-2</title><path class="cls-1" d="M31.51,86.42C15.53,86-.06,66.93,7.34,51.3a.79.79,0,0,0-.06-.81c-4.78-6.42-6-13.9-1.55-20.9A24.06,24.06,0,0,1,24.88,18.85c.49,0,1.28-.34,1.43-.88,2.37-8.36,9.55-13,18.19-12.75,1.61,0,2.07-2.06.21-2.12-9.67-.31-18.38,5.07-21,14.5l1.43-.87c-8.79.29-16.5,5-21.69,12A17.31,17.31,0,0,0,.09,40.45,22.63,22.63,0,0,0,2,47.3C2.8,49,4.76,50.66,4,52.59.53,60.93,4.32,70.1,9.17,77A27.57,27.57,0,0,0,31.3,88.54c1.61,0,2.07-2.07.21-2.12Z"/><path class="cls-1" d="M133.14,63.3c-3,6.87-8.18,11.41-15.64,12.74a1.39,1.39,0,0,0-1.13,1.08c-.78,11.41-11,19-21.93,19.87-.72.06-1.64.58-1.48,1.43A29.66,29.66,0,0,0,97,109.27c.71,1.11,3.32,0,2.51-1.24a28.27,28.27,0,0,1-3.82-10.35l-1.48,1.43c12.14-1,24.06-9.33,24.93-22.17L118,78c8.33-1.48,14.38-6.69,17.76-14.36.65-1.48-2.13-1.55-2.65-.37Z"/><path class="cls-1" d="M96,13.82c7.34-1,14.77-.53,21.08,3.66,5.74,3.8,8.35,10.49,9.34,17,.21,1.34,3,.64,2.75-.74-1.09-7.17-4-13.55-10-17.94-6.48-4.79-15.31-5.16-23-4.13-1.56.21-2.08,2.37-.22,2.12Z"/><path class="cls-2" d="M92.05,114.92a1.69,1.69,0,0,1-.38,0c-7-1.45-19.23-5.69-22.74-17.85a45.5,45.5,0,0,1-8.61.82c-13.41,0-21.39-6.09-22.46-17.13a19.49,19.49,0,0,1-6.46,1.06c-4.79,0-11.65-1.71-17.12-9.84-9.53-14.18-.93-21.2-.84-21.27-.24-.2-5.83-4.79-6.29-11-.23-3.22,1-6.29,3.58-9.14,5.35-5.82,10.86-7,14.55-7a14.35,14.35,0,0,1,4.89.78c-.4-3.65.59-10.48,7-13a17.78,17.78,0,0,1,6.41-1.44,6.07,6.07,0,0,1,4.36,1.37l.11.13,0-.09C48,10.77,49.48,0,65.79,0a42,42,0,0,1,4.5.25C90.91,2.41,91.75,18.84,91.78,19.54A38.92,38.92,0,0,1,102.47,18c12.35,0,19.24,6.8,19.93,19.67a15.33,15.33,0,0,1,7.74,7.77c1.88,4.42,1.56,9.77-.95,15.92-2.71,6.61-8,10.25-14.91,10.25a16.12,16.12,0,0,1-3.06-.27c.18.43,3.89,10.28-5.91,16.92a21.67,21.67,0,0,1-12.14,4.15,12.82,12.82,0,0,1-5.11-.93c0,.49-.18,12.32,5.55,20.48a1.9,1.9,0,0,1-1.56,3Z"/><path class="cls-3" d="M12.32,39c.13-6.53,7.49-11.37,13.52-11,2.19.12,3.81,1.12,6,.26,5.09-1.94,2.49-7.89,5.27-11.65s8.17-.52,11.76-1.06a5.71,5.71,0,0,0,4-3c.87-1.47.65-3,1.82-4.49C57.94,3.93,64.36,4.24,69,4.66c.68.06,3.19-1.13,1.75-1.26-6.43-.57-14.59-.32-18.95,5.25-1.77,2.26-1,6.35-5.44,4.71-2.63-1-6.25,0-8.67,1.17a8.79,8.79,0,0,0-5.1,7.29,10.69,10.69,0,0,0,0,2.4c.4,4.31-5,2.37-6.72,2.43-7,.23-16.12,5.32-16.28,13.11,0,.58,2.73.16,2.75-.74Z"/></svg>