<svg id="Layer_1" data-name="Layer 1" xmlns="http://www.w3.org/2000/svg" viewBox="0 0 126.3 132.98"><defs><style>.cls-1{fill:#9f548a;}.cls-2{fill:#fff;}.cls-3{fill:#ff9763;}</style></defs><title>dialog-box-1</title><path class="cls-1" d="M62,133a1.9,1.9,0,0,1-1.68-2.79l7.88-14.79-11.43-3.34a1.9,1.9,0,0,1-1-3l6.93-9.3L40.35,101c-1.25.06-2.5.09-3.7.09-16.73,0-26.27-6.11-27.59-17.67C7.67,71.21,5.69,46,5.33,32.2,5,19.38,15.72,16.63,27.37,15.58c8.74-.79,40.21-2.11,57.12-2.82l7.9-.33c.74,0,1.45,0,2.15,0,9.94,0,14.8,3.51,16.23,11.75l.74,4.26c2.4,13.78,8.78,39.92,9.56,50.48.85,11.3-4.5,14.82-12.79,16.63-5.29,1.14-18.53,2.41-25.95,3.06l-7.12,6.25,8.19,5.58a1.89,1.89,0,0,1,.24,3L63.29,132.47A1.91,1.91,0,0,1,62,133Z"/><path class="cls-2" d="M84.52,17.52c7.41-.31,18.64-2.68,20.94,6.69,2,8,3.09,16.34,4.79,24.42.26,1.22,3,.51,2.76-.73-1.35-6.4-2.72-12.79-3.87-19.23-.51-2.85-.77-5.82-2.08-8.45-3.62-7.31-15.88-4.89-22.28-4.62-1.52.06-2.15,2-.26,1.92Z"/><path class="cls-3" d="M123.47,78.71c.49,9.26-2.88,16.21-12,19-8.68,2.61-18.41,2.8-27.38,3.61-1.5.13-2.16,2.07-.27,1.9,10.21-.92,21.32-1.13,31-4.72,8.74-3.23,11.91-11.17,11.44-20-.07-1.39-2.84-.91-2.78.24Z"/><path class="cls-3" d="M63.44,116.85l-14.81-4.33.33,1.25,7-9.39c.62-.83-.16-1.36-1-1.32-13.87.72-31.83,3.76-42.71-7.24C5.63,89.14,6.1,78.59,5.33,69.93,4.72,63,4.21,56.1,3.76,49.18S2.39,35.24,3.1,28.46C4.35,16.42,17,13.65,26.9,12.75c1.5-.14,2.15-2.08.27-1.91-9.34.85-19.76,2.82-24.88,11.6-3.48,6-2,14-1.7,20.52C1,51.32,1.66,59.67,2.35,68c.85,10.14.26,21.82,7.94,29.58C21.42,108.84,40.6,105.7,54.68,105l-1-1.32-7,9.39c-.36.48-.32,1.07.34,1.26l14.81,4.32c1.11.33,3.26-1.29,1.61-1.77Z"/><path class="cls-3" d="M100.87,11.24l-.74-8.76a2.29,2.29,0,0,1,4.57-.38,2.5,2.5,0,0,1-.11.91l-2.77,8.34a.5.5,0,0,1-.62.31A.51.51,0,0,1,100.87,11.24Z"/><path class="cls-3" d="M105.59,12.53,107.46,4a2.29,2.29,0,1,1,4.48,1,2.22,2.22,0,0,1-.38.84l-5.1,7.15a.48.48,0,0,1-.87-.38Z"/><path class="cls-3" d="M110,14.87l5.3-7a2.29,2.29,0,1,1,3.65,2.77,2.35,2.35,0,0,1-.69.61l-7.64,4.33a.49.49,0,0,1-.66-.18A.47.47,0,0,1,110,14.87Z"/></svg>