<svg id="Layer_1" data-name="Layer 1" xmlns="http://www.w3.org/2000/svg" viewBox="0 0 143.82 123.71"><defs><style>.cls-1{fill:#9f548a;}.cls-2{fill:#ff9763;}.cls-3{fill:#fff;}</style></defs><title>dialog-box-5</title><path class="cls-1" d="M128.17,50.79l5.93,6.72c2.77,3.15,6.86,6.49,7.05,11C141.39,74,134,75.39,130,76.82l-9,3.28c-.54.19-1.28.58-1.13,1.28,1,4.89,4,11.93,2,16.77-2.71,6.5-15.4.38-19.33-.81-.65-.2-2.19.08-2.19,1,0,4.69.73,10.9-6.08,11.47-1.52.12-2.14,2.11-.26,2,8.06-.67,9.12-6.91,9.12-13.66l-2.19,1c5.41,1.64,15.08,6.74,20.43,2.67,6.85-5.21,2.78-14.2,1.3-21.19l-1.13,1.29,11.52-4.2c3.29-1.19,7.79-2.15,9.59-5.5,2.76-5.11.24-8.81-3.09-12.6l-8.85-10c-.81-.92-3.43.17-2.53,1.2Z"/><path class="cls-1" d="M83.13,1.85c5.87,1.59,7.24,9.66,9.14,14.68.32.87,1.69.73,2.28.24l9.66-8.06,5.14-4.28C114.48.16,120.72,3.7,120.42,10c-.06,1.4,2.73,1,2.79-.23C123.64.53,113.76-2,107.53,3.23L92.74,15.56,95,15.8C92.82,10,91.56,1.88,84.73,0c-1.15-.31-3.26,1.37-1.6,1.81Z"/><path class="cls-1" d="M6,116.57a137.42,137.42,0,0,0,13.39-14.12.77.77,0,0,0-.34-1.3c-8.53-3.08-3.61-12.37-1.7-18.3a.75.75,0,0,0-.52-1L9.24,80.11c-5.66-1.26-8.12-6.77-4.58-11.62l9.81-13.42c.19-.27.4-.68.11-1-2.93-3.12-7.35-6.47-8.8-10.6C2.48,34.11,15.92,35.32,21,35.32c.68,0,1.63-.58,1.5-1.35L19.77,17.19c-.65-4,2.79-11.22,9.49-6.47l3.34,2.37,7.08,5c1,.69,3.4-.66,2.13-1.56-6.65-4.71-15.36-13.67-23-5.58-3,3.18-1.6,7.91-1,11.69l2,12.05,1.5-1.35c-3.45,0-7.65-.69-11,.18-5,1.29-9.62,6.77-6.68,12.1,2,3.64,5.61,6.58,8.44,9.58-.39-.41.49-1.33-.39-.12L9.65,57.76l-4.83,6.6C2.67,67.3-.87,71,.2,75c1.59,6,6.36,6.74,11.63,7.91l2.9.65c.61.23.59-.05-.07-.85l-.4,1.25-2.25,7C10.29,96.22,11.84,101,17.42,103l-.35-1.3A137.52,137.52,0,0,1,3.68,115.8c-1.26,1.15,1.43,1.57,2.29.77Z"/><path class="cls-2" d="M9.93,123.71a1.89,1.89,0,0,1-1.27-3.3,123,123,0,0,0,22.4-26.72L20.62,96.54a2.08,2.08,0,0,1-.5.07A1.89,1.89,0,0,1,18.75,96a1.92,1.92,0,0,1-.44-1.9l5-15.62L8.66,75.23a1.91,1.91,0,0,1-1.12-3l13.18-18-10.35-11A1.9,1.9,0,0,1,11.76,40H27.84L24,16.4a1.9,1.9,0,0,1,.87-1.92,1.9,1.9,0,0,1,2.11.06L42.19,25.33,56.25,4.71a1.89,1.89,0,0,1,1.57-.83H58A1.9,1.9,0,0,1,59.53,5l8.34,17.68L81.16,7.19a1.9,1.9,0,0,1,1.44-.66l.33,0a1.89,1.89,0,0,1,1.45,1.2l6.76,17.91L113.07,7.4A1.84,1.84,0,0,1,114.28,7a1.89,1.89,0,0,1,.92.24,1.91,1.91,0,0,1,1,1.92l-3,22.38,17.66.59A1.9,1.9,0,0,1,132.35,35l-10,15.74,14,15.95a1.91,1.91,0,0,1,.42,1.73,1.89,1.89,0,0,1-1.19,1.31l-20.93,7.62,3.62,17a1.88,1.88,0,0,1-.58,1.79,1.86,1.86,0,0,1-1.28.5,1.81,1.81,0,0,1-.56-.08L96,90.56v12.65a1.92,1.92,0,0,1-1,1.67,1.91,1.91,0,0,1-2-.08L74.93,92.94l-11.71,15a1.9,1.9,0,0,1-1.46.73h0a1.91,1.91,0,0,1-1.44-.67L51.5,97.63c-7.81,7.79-23.54,21.51-41.09,26A2,2,0,0,1,9.93,123.71Z"/><path class="cls-3" d="M80.57,12.47l4.88,12.9c1.61,4.27,4.66,5.89,8.93,3.45,3.18-1.83,6-4.95,8.82-7.28l9.8-8.18-2.61.31-2,14.8c-.55,4.09,0,7.29,4.9,7.45l8.32.28,3.71.12c1.42,0,.76-.47.35.19l-7.91,12.42c-.25.4,2.28.24,2.72-.46l8.24-12.94c.17-.26-.35-.36-.48-.36-3.63-.13-18.29,1.52-17.49-4.49l2.36-17.47c.12-.93-2.3,0-2.62.31l-17,14.13c-3.75,3.14-5.5-3.46-6.43-5.93l-3.77-10c-.27-.72-3,.13-2.76.74Z"/></svg>