<svg id="Layer_1" data-name="Layer 1" xmlns="http://www.w3.org/2000/svg" viewBox="0 0 100.84 109.94"><defs><style>.cls-1{fill:#9f548a;}.cls-2{fill:#ff4172;}.cls-3{fill:#fff;}</style></defs><title>dialog-box-4</title><path class="cls-1" d="M95.89,41c3.38,15.33,3.57,31.79-5.07,45.47C81.61,101,64.27,105.35,48,104.09c-1.17-.09-2.89,1.6-1,1.74,16.47,1.27,33.16-2.79,44-16,11.37-13.8,11.28-33.06,7.63-49.64-.24-1.09-3-.38-2.76.73Z"/><path class="cls-1" d="M11.57,103.31a93,93,0,0,0,6.93-9,.53.53,0,0,0,0-.64C3.65,80.24-.51,59.31,5.61,40.62,12.2,20.46,30.44,8.16,51.35,7.89c1.14,0,2.89-1.76,1-1.74C30.8,6.43,12.56,17.71,4,37.72A53,53,0,0,0,1.8,71.8,49.75,49.75,0,0,0,9.08,87.16a44.35,44.35,0,0,0,5.78,6.68c1.7,1.65-4.54,7.73-5.54,8.88s1.56,1.38,2.25.59Z"/><path class="cls-2" d="M16.14,109.94a1.9,1.9,0,0,1-1.42-3.15,80.21,80.21,0,0,0,10-14C16.53,87.54,10.28,78,8,67.22,5.42,54.93,8,42.05,15.39,31,23,19.54,36.59,12.72,51.87,12.72s34.92,7.63,39.84,29.14c4.23,18.43,2.06,33.7-6.27,44.15-7,8.85-18,13.53-31.79,13.53A66.4,66.4,0,0,1,45.57,99c-7.25,7-17.15,10.71-29.39,10.91Z"/><path class="cls-3" d="M51.38,17.49c13,.15,25.48,5.63,32.12,17.16,4.28,7.46,5.19,17.43,5.11,25.83-.07,8.16-2.31,16.27-7.29,22.79-1.06,1.38,1.56,1.72,2.29.76C93.81,70.68,93.72,49.6,86.72,34.8,80.61,21.86,66,15.71,52.35,15.55c-1.28,0-2.83,1.92-1,1.94Z"/><path class="cls-1" d="M71,11.24l-.75-8.76A2.29,2.29,0,1,1,74.67,3L71.9,11.35a.48.48,0,0,1-.94-.11Z"/><path class="cls-1" d="M75.68,12.53,77.54,4a2.29,2.29,0,1,1,4.48,1,2.22,2.22,0,0,1-.38.84l-5.1,7.15a.48.48,0,0,1-.67.12A.5.5,0,0,1,75.68,12.53Z"/><path class="cls-1" d="M80,14.87l5.3-7A2.29,2.29,0,1,1,89,10.64a2.35,2.35,0,0,1-.69.61l-7.64,4.33A.49.49,0,0,1,80,15.4.47.47,0,0,1,80,14.87Z"/></svg>