<svg id="Layer_1" data-name="Layer 1" xmlns="http://www.w3.org/2000/svg" viewBox="0 0 89.53 56.25"><defs><style>.cls-1{fill:#f5f0e1;}.cls-2{fill:#598060;}</style></defs><title>finance-cash</title><path class="cls-1" d="M0,21.33,8.48,55.21C39.06,62.67,59,27.46,89.53,34.92Q85.29,18,81.05,1.05C50.47-6.42,30.58,28.8,0,21.33Z"/><path class="cls-2" d="M2,23.12l7.76,31c29.14,5.77,48.69-26.77,77.83-21q-3.89-15.5-7.76-31C50.66-3.65,31.11,28.89,2,23.12ZM43.18,44.58c-7.57,4-15.27,7.57-23.66,8.31C18.45,48.6,14,45.63,9.33,45l-3-11.9c4.7.67,7.39-3.27,6.33-7.51l0-.1c8.39-.75,16.09-4.28,23.66-8.32a20.46,20.46,0,0,0-4,17.42C33.84,40.68,38.25,44.58,43.18,44.58Zm40-21.28c-4.7-.67-7.38,3.27-6.32,7.51-8.4.74-16.1,4.27-23.67,8.31a20.43,20.43,0,0,0,4-17.42c-1.53-6.13-5.95-10-10.88-10,7.58-4,15.27-7.56,23.67-8.31a.43.43,0,0,1,0,.11c1.08,4.29,5.49,7.26,10.19,7.93Q81.7,17.34,83.2,23.3Z"/></svg>