<svg id="Layer_1" data-name="Layer 1" xmlns="http://www.w3.org/2000/svg" viewBox="0 0 85.21 41.01"><defs><style>.cls-1{fill:#f5f0e1;}.cls-2{fill:#598060;}</style></defs><title>finance-cash-flip</title><path class="cls-1" d="M1.77.94,0,35.82C27.07,51.88,56.37,24,83.44,40.06L85.21,5.19C58.14-10.88,28.84,17,1.77.94Z"/><path class="cls-2" d="M3.14,3.23q-.83,16-1.63,31.93c26.19,14,54.38-11.41,80.57,2.62L83.7,5.85C57.51-8.17,29.32,17.25,3.14,3.23ZM36.29,35.78c-8.41,1.65-16.81,2.78-25,1,.22-4.42-3.14-8.55-7.44-10.56L4.43,14c4.3,2,8-1,8.24-5.34V8.57c8.25,1.74,16.64.61,25.06-1.05A20.45,20.45,0,0,0,28.81,23C28.49,29.32,31.58,34.34,36.29,35.78Zm44.49-8.69c-4.3-2-8,1-8.24,5.34-8.25-1.73-16.64-.6-25.06,1A20.43,20.43,0,0,0,56.4,18c.32-6.31-2.77-11.32-7.48-12.76C57.34,3.58,65.73,2.44,74,4.18c0,0,0,.07,0,.11-.22,4.42,3.13,8.55,7.43,10.55Q81.08,21,80.78,27.09Z"/></svg>