<svg xmlns="http://www.w3.org/2000/svg" viewBox="0 0 117.51 149.39"><defs><style>.cls-1{isolation:isolate;}.cls-2{fill:#ffd46b;}.cls-3{fill:#f0bb3e;}.cls-4{fill:#f2f2f2;mix-blend-mode:multiply;}</style></defs><title>finance-coins</title><g class="cls-1"><g id="Layer_1" data-name="Layer 1"><path class="cls-2" d="M54.32,46h.11c.74,0,1.49.05,2.25.05a49.22,49.22,0,0,0,8.78-.75v.44a2.75,2.75,0,0,0,.24,1.12,62,62,0,0,1-9,.63,61,61,0,0,1-10.94-.94V45.44A62.4,62.4,0,0,0,54.32,46Z"/><path class="cls-3" d="M34.24,37.06c-.89-.17-1.83-.32-2.79-.46V33.34C31.45,34.69,32.46,36,34.24,37.06Z"/><path class="cls-3" d="M66.18,38.91a62.4,62.4,0,0,1-9.5.7h-.11c-.74,0-1.49,0-2.25,0-7.29,0-13.58-1.42-16.64-3.49-2.44-1.24-3.86-2.72-3.86-4.32V29.39c-2-1.15-3.16-2.5-3.16-3.94v-4.9c0,4.29,10.24,7.77,22.87,7.77,8.62,0,16.13-1.62,20-4a50.84,50.84,0,0,1-16.88,2.53h-.79c-.77,0-1.56.06-2.36.06-9,0-16.57-2.19-18.26-5.09a3.75,3.75,0,0,1-1.45-2.73v-4.9c0,4.29,10.24,7.77,22.86,7.77,10.74,0,19.74-2.51,22.2-5.9-3.58,2.53-11.08,4.29-19.83,4.4-.77,0-1.56.05-2.37.05a41.53,41.53,0,0,1-13.53-2C38.4,17.07,35.4,15,35.4,12.67V7.77c0,4.29,10.23,7.76,22.86,7.76s22.87-3.47,22.87-7.76v4.9a3.84,3.84,0,0,1-1.58,2.83v3.56c0,1.44-1.15,2.78-3.16,3.94h0v2.44a3.75,3.75,0,0,1-1.45,2.73c-1.69,2.9-9.22,5.09-18.26,5.09-.8,0-1.59,0-2.36-.06h-.79A50.87,50.87,0,0,1,36.65,30.7c3.9,2.39,11.41,4,20,4,12.63,0,22.87-3.47,22.87-7.76v4.9a3.22,3.22,0,0,1-.71,1.93C72.63,34.75,67.9,36.63,66.18,38.91Z"/><path class="cls-2" d="M56.68,34.71c-8.62,0-16.13-1.62-20-4a50.87,50.87,0,0,0,16.88,2.52h.79c.77,0,1.56.06,2.36.06,9,0,16.57-2.19,18.26-5.09a3.75,3.75,0,0,0,1.45-2.73V23c2,1.15,3.16,2.5,3.16,3.94C79.55,31.24,69.31,34.71,56.68,34.71Z"/><path class="cls-2" d="M35.27,21.79c1.69,2.9,9.22,5.09,18.26,5.09.8,0,1.59,0,2.36-.06h.79A50.84,50.84,0,0,0,73.56,24.3c-3.9,2.4-11.41,4-20,4-12.63,0-22.87-3.48-22.87-7.77,0-1.43,1.15-2.78,3.16-3.93v2.44A3.75,3.75,0,0,0,35.27,21.79Z"/><path class="cls-2" d="M43.15,18.49a41.53,41.53,0,0,0,13.53,2c.81,0,1.6,0,2.37-.05,8.75-.11,16.25-1.87,19.83-4.4-2.46,3.39-11.46,5.9-22.2,5.9-12.62,0-22.86-3.48-22.86-7.77a3.82,3.82,0,0,1,1.58-2.83v1.34C35.4,15,38.4,17.07,43.15,18.49Z"/><polygon class="cls-3" points="81.13 7.77 81.13 7.77 81.13 7.77 81.13 7.77"/><polygon class="cls-3" points="35.4 7.77 35.4 7.77 35.4 7.77 35.4 7.77"/><path class="cls-2" d="M81.13,7.77h0C81.13,3.48,70.89,0,58.26,0S35.4,3.48,35.4,7.77h0c0,4.29,10.23,7.76,22.86,7.76S81.13,12.06,81.13,7.77Zm-4.25,0a2.43,2.43,0,0,1-.08.53h0C76,11.54,68,14.09,58.26,14.09S40.52,11.54,39.73,8.3h0a2.43,2.43,0,0,1-.08-.53c0-3.49,8.33-6.33,18.61-6.33S76.88,4.28,76.88,7.77Z"/><ellipse class="cls-3" cx="58.26" cy="8.3" rx="18.54" ry="5.79"/><path class="cls-4" d="M86.62,123.67c1.57.11,3.2.18,4.87.18,12.63,0,22.86-3.48,22.86-7.77v3.16c0,4.29-10.23,7.77-22.86,7.77-1.76,0-3.47-.07-5.11-.2a2.83,2.83,0,0,0,.24-1.13Z"/><path class="cls-4" d="M64.55,146.23c12.63,0,22.86-3.48,22.86-7.77v3.16c0,4.29-10.23,7.77-22.86,7.77s-22.87-3.48-22.87-7.77v-3.16C41.68,142.75,51.92,146.23,64.55,146.23Z"/><path class="cls-4" d="M26,126.8a56.17,56.17,0,0,0,14.06-1.65,3.25,3.25,0,0,0-.78,2v1.34A57.46,57.46,0,0,1,26,130c-12.63,0-22.87-3.48-22.87-7.77V119C3.16,123.32,13.4,126.8,26,126.8Z"/><path class="cls-2" d="M23.66,120.41h.11c.74,0,1.49.06,2.26.06,7.28,0,13.57-1.43,16.63-3.5a12.93,12.93,0,0,0,1.67-1c.16.13.33.25.51.37v3a2.92,2.92,0,0,0,.33,1.31,1.48,1.48,0,0,0,0,.19c0,3.49,8.34,6.32,18.62,6.32.86,0,1.71,0,2.54-.07l1.41,0a54.8,54.8,0,0,0,14.91-1.88c-4.12,2-11,3.37-18.86,3.37-12.63,0-22.87-3.47-22.87-7.76A2.94,2.94,0,0,1,41,120a54.65,54.65,0,0,1-15,1.9c-9.6,0-17.81-2-21.21-4.86C9,119.07,15.84,120.41,23.66,120.41Z"/><path class="cls-2" d="M10.13,112.07a41.72,41.72,0,0,0,13.53,2q1.2,0,2.37-.06a49,49,0,0,0,16.44-2.65v.8c-4.13,2-11,3.36-18.81,3.36C11,115.51.79,112,.79,107.74h0a3.86,3.86,0,0,1,1.58-2.84v1.34C2.37,108.57,5.37,110.65,10.13,112.07Z"/><path class="cls-2" d="M6.65,101.16c0,.06,0,.12,0,.19,0,3.49,8.34,6.32,18.62,6.32.86,0,1.71,0,2.54-.07l1.41,0a61.11,61.11,0,0,0,10.14-.81,3.2,3.2,0,0,0,.15.61,55.88,55.88,0,0,1-14.24,1.69c-12.63,0-22.87-3.47-22.87-7.76,0-1.62,1.46-3.12,4-4.37v2.87A2.92,2.92,0,0,0,6.65,101.16Z"/><path class="cls-2" d="M8,97.86c4.13,2,11,3.36,18.84,3.36h.11c.74,0,1.49,0,2.26,0a47.64,47.64,0,0,0,10.51-1.1,5.26,5.26,0,0,1,1.19-1.41v1.34c0,2.32,3,4.4,7.75,5.83a41.83,41.83,0,0,0,13.54,2c.8,0,1.59,0,2.37-.06,8.74-.1,16.24-1.87,19.82-4.39-2.46,3.38-11.46,5.89-22.19,5.89-12.63,0-22.87-3.47-22.87-7.76v.32a62,62,0,0,1-10.12.8C19.59,102.72,11.38,100.71,8,97.86Z"/><path class="cls-2" d="M38.92,95.15a59.62,59.62,0,0,1-12.1,1.17c-8.63,0-16.14-1.62-20-4a50.85,50.85,0,0,0,16.87,2.52h.79c.78,0,1.56.06,2.37.06a45.31,45.31,0,0,0,11.7-1.41v.24A3,3,0,0,0,38.92,95.15Z"/><path class="cls-2" d="M10.13,86.5a41.72,41.72,0,0,0,13.53,2c.8,0,1.59,0,2.37-.06A55.39,55.39,0,0,0,39.3,86.79a8.27,8.27,0,0,1,2.38-1.92v2.44A3.75,3.75,0,0,0,43.13,90c1.69,2.9,9.22,5.09,18.26,5.09.8,0,1.59,0,2.36-.06h.8a50.85,50.85,0,0,0,16.87-2.52c-3.9,2.39-11.41,4-20,4-12.63,0-22.87-3.47-22.87-7.76a3,3,0,0,1,.11-.78,54.65,54.65,0,0,1-15,1.9C11,89.93.79,86.45.79,82.17h0a3.84,3.84,0,0,1,1.58-2.83v1.34C2.37,83,5.37,85.07,10.13,86.5Z"/><path class="cls-2" d="M22.87,82H23c.74,0,1.49,0,2.26,0,7.28,0,13.57-1.42,16.63-3.49a12.11,12.11,0,0,0,1.25-.72c.29.2.6.39.93.58v2.46c0,1.6,1.42,3.09,3.86,4.32,3.06,2.07,9.35,3.5,16.64,3.5.76,0,1.51,0,2.25,0h.12c7.81,0,14.7-1.34,18.83-3.37-3.39,2.85-11.6,4.86-21.2,4.86-12.63,0-22.87-3.48-22.87-7.77A3,3,0,0,1,42,81a51.1,51.1,0,0,1-16.8,2.5c-9.6,0-17.81-2-21.21-4.86C8.16,80.71,15.05,82,22.87,82Z"/><path class="cls-2" d="M4.61,70.61c1.69,2.9,9.22,5.09,18.26,5.09q1.2,0,2.37-.06H26a54.94,54.94,0,0,0,14.86-1.87v.38c-4.19,1.81-10.7,3-18,3C10.24,77.14,0,73.67,0,69.38c0-1.44,1.15-2.79,3.16-3.94v2.44A3.79,3.79,0,0,0,4.61,70.61Z"/><path class="cls-2" d="M9.4,65.81c3,2.07,9.34,3.49,16.63,3.49.76,0,1.51,0,2.25,0h.12a62.25,62.25,0,0,0,10.14-.8,2.94,2.94,0,0,0,.3,1A58.37,58.37,0,0,1,26,70.75C13.4,70.75,3.16,67.27,3.16,63c0-1.23.85-2.4,2.37-3.44v2C5.53,63.09,7,64.57,9.4,65.81Z"/><path class="cls-3" d="M5.53,59v2.46c0,1.6,1.42,3.08,3.87,4.32,3,2.07,9.34,3.49,16.63,3.49.76,0,1.51,0,2.25,0h.12a62.25,62.25,0,0,0,10.14-.8,2.94,2.94,0,0,0,.3,1A58.37,58.37,0,0,1,26,70.75C13.4,70.75,3.16,67.27,3.16,63v4.9a3.79,3.79,0,0,0,1.45,2.73c1.69,2.9,9.22,5.09,18.26,5.09q1.2,0,2.37-.06H26a54.94,54.94,0,0,0,14.86-1.87v.38c-4.19,1.81-10.7,3-18,3C10.24,77.14,0,73.67,0,69.38v4.9c0,1.23.86,2.4,2.37,3.44v3c0,2.32,3,4.4,7.76,5.83a41.72,41.72,0,0,0,13.53,2c.8,0,1.59,0,2.37-.06A55.39,55.39,0,0,0,39.3,86.79a8.27,8.27,0,0,1,2.38-1.92v2.44A3.75,3.75,0,0,0,43.13,90c1.69,2.9,9.22,5.09,18.26,5.09.8,0,1.59,0,2.36-.06h.8a50.85,50.85,0,0,0,16.87-2.52c-3.9,2.39-11.41,4-20,4-12.63,0-22.87-3.47-22.87-7.76a3,3,0,0,1,.11-.78,54.65,54.65,0,0,1-15,1.9C11,89.93.79,86.45.79,82.17v4.89C.79,88.5,1.94,89.85,4,91v2.46c0,1.23.86,2.4,2.37,3.44v2.95a2.92,2.92,0,0,0,.33,1.31c0,.06,0,.12,0,.19,0,3.49,8.34,6.32,18.62,6.32.86,0,1.71,0,2.54-.07l1.41,0a61.11,61.11,0,0,0,10.14-.81,3.2,3.2,0,0,0,.15.61,55.88,55.88,0,0,1-14.24,1.69c-12.63,0-22.87-3.47-22.87-7.76v4.89c0,2.33,3,4.41,7.76,5.83a41.72,41.72,0,0,0,13.53,2q1.2,0,2.37-.06a49,49,0,0,0,16.44-2.65v.8c-4.13,2-11,3.36-18.81,3.36C11,115.51.79,112,.79,107.74v4.9c0,1.24.86,2.4,2.37,3.44v3h0c0,4.29,10.24,7.77,22.87,7.77a56.17,56.17,0,0,0,14.06-1.65,6.13,6.13,0,0,1,.8-.82v1.35c0,2.32,3,4.4,7.75,5.82a41.55,41.55,0,0,0,13.54,2c.8,0,1.59,0,2.37-.05,8.74-.11,16.24-1.87,19.82-4.4-2.46,3.39-11.46,5.9-22.19,5.9-12.63,0-22.87-3.48-22.87-7.77v4.9c0,1.24.85,2.41,2.37,3.44v3c0,4.29,10.24,7.77,22.87,7.77s22.86-3.48,22.86-7.77v-4.9h0c0,4.29-10.23,7.77-22.86,7.77-9.6,0-17.82-2-21.21-4.86,4.13,2,11,3.37,18.84,3.37h.11c.74,0,1.49,0,2.26,0,7.28,0,13.57-1.43,16.63-3.5,2.44-1.23,3.86-2.72,3.86-4.32v-3.56a4.9,4.9,0,0,0,1.34-1.7,2.83,2.83,0,0,0,.24-1.13v-2c1.57.11,3.2.18,4.87.18,12.63,0,22.86-3.48,22.86-7.77v-4.9c0,4.29-10.23,7.77-22.86,7.77h-.92v-1.45h.92c7.28,0,13.57-1.42,16.63-3.49,2.44-1.24,3.87-2.72,3.87-4.32v-3.56a3.88,3.88,0,0,0,1.57-2.84v-2c2.5-1.24,4-2.74,4-4.36V92h0c0,4.29-10.23,7.77-22.86,7.77a63.49,63.49,0,0,1-8-.5V98c1.81.16,3.71.24,5.66.24h.11c.74,0,1.49,0,2.26,0,7.28,0,13.57-1.42,16.63-3.49,2.44-1.24,3.86-2.73,3.86-4.32v-4.9c0,4.29-10.23,7.76-22.86,7.76a65.17,65.17,0,0,1-6.55-.32,3.31,3.31,0,0,1,.89,2.15c0,4.29-10.23,7.77-22.86,7.77-9.6,0-17.82-2-21.21-4.86,4.13,2,11,3.36,18.84,3.36h.11c.74,0,1.49,0,2.26,0,7.28,0,13.57-1.42,16.63-3.49,2.44-1.24,3.86-2.72,3.86-4.32v-2c1.57.12,3.2.18,4.87.18h.79c.78,0,1.56.06,2.37.06,9,0,16.56-2.19,18.25-5.09A3.77,3.77,0,0,0,112,84.11V80.55a3.86,3.86,0,0,0,1.57-2.83v-4.9c0,4.29-10.23,7.77-22.86,7.77h-.92V79.12l.92,0c7.28,0,13.57-1.42,16.63-3.49,2.44-1.24,3.87-2.73,3.87-4.33V68.87c2-1.16,3.15-2.5,3.15-3.94V62c1.52-1,2.37-2.21,2.37-3.44v-4.9c0,4.29-10.23,7.76-22.86,7.76a61.15,61.15,0,0,1-11.16-1,3.83,3.83,0,0,1,1.55,2.81C84.25,67.52,74,71,61.39,71s-22.87-3.48-22.87-7.77v.32a60.86,60.86,0,0,1-10.12.81c-8.63,0-16.14-1.63-20-4a50.85,50.85,0,0,0,16.87,2.52H26c.78,0,1.56.06,2.37.06A47,47,0,0,0,38.91,61.8c1-1.89,4.11-3.55,8.41-4.69a3.24,3.24,0,0,0,.79-2V52a52.86,52.86,0,0,0,7,.46c.8,0,1.59,0,2.36-.06a60,60,0,0,0,10.36-1v.72a2.18,2.18,0,0,0,0,.44A58.61,58.61,0,0,1,55.11,53.9c-1.91,0-3.76-.08-5.52-.23a4.19,4.19,0,0,1,1.65,2.6,62.29,62.29,0,0,1,10.15-.8c8.22,0,15.42,1.47,19.45,3.68a61.51,61.51,0,0,0,9.86.76h.79c.78,0,1.56.06,2.37.06,9,0,16.56-2.19,18.25-5.09a3.75,3.75,0,0,0,1.45-2.73v-4.9c0,4.29-10.23,7.77-22.86,7.77-9.6,0-17.82-2-21.21-4.86,4.13,2,11,3.37,18.84,3.37h.11c.74,0,1.49.06,2.26.06,7.28,0,13.57-1.43,16.63-3.5,2.44-1.24,3.87-2.72,3.87-4.32v-4.9h0c0,4.29-10.24,7.77-22.87,7.77s-22.87-3.48-22.87-7.77a2.78,2.78,0,0,1,.11-.75,60.29,60.29,0,0,1-11.25,1,60.49,60.49,0,0,1-11.38-1c1.78,1.1,2.8,2.37,2.8,3.72,0,4.29-10.24,7.77-22.87,7.77S0,48.09,0,43.8v4.9c0,1.24.86,2.41,2.37,3.44v3C2.37,56.53,3.52,57.88,5.53,59ZM45.74,45.44a62.4,62.4,0,0,0,8.58.57h.11c.74,0,1.49.05,2.25.05a49.22,49.22,0,0,0,8.78-.75v.44a2.75,2.75,0,0,0,.24,1.12,62,62,0,0,1-9,.63,61,61,0,0,1-10.94-.94ZM25.24,58C15.64,58,7.43,56,4,53.1c4.13,2,11,3.37,18.84,3.37H23c.74,0,1.49.05,2.26.05,7.28,0,13.57-1.43,16.63-3.5,2.44-1.23,3.87-2.72,3.87-4.32v-2c1.51,1,2.37,2.21,2.37,3.45C48.11,54.48,37.87,58,25.24,58Zm87.45,5c-3.39,2.85-11.6,4.86-21.2,4.86-2,0-3.87-.09-5.69-.24a3.28,3.28,0,0,1,.82,2.07c0,4.29-10.23,7.76-22.86,7.76-9.6,0-17.82-2-21.21-4.85,4.13,2,11,3.36,18.84,3.36h.11c.74,0,1.49,0,2.26,0,7.28,0,13.57-1.43,16.63-3.5,2.44-1.23,3.86-2.72,3.86-4.32V65.86a51.3,51.3,0,0,0,7.24.49c.76,0,1.51,0,2.25,0h.12C101.67,66.3,108.56,65,112.69,62.94ZM4,78.68c4.13,2,11,3.36,18.84,3.36H23c.74,0,1.49,0,2.26,0,7.28,0,13.57-1.42,16.63-3.49a12.11,12.11,0,0,0,1.25-.72c.29.2.6.39.93.58v2.46c0,1.6,1.42,3.09,3.86,4.32,3.06,2.07,9.35,3.5,16.64,3.5.76,0,1.51,0,2.25,0h.12c7.81,0,14.7-1.34,18.83-3.37-3.39,2.85-11.6,4.86-21.2,4.86-12.63,0-22.87-3.48-22.87-7.77A3,3,0,0,1,42,81a51.1,51.1,0,0,1-16.8,2.5C15.64,83.54,7.43,81.53,4,78.68Zm62.89,5.11c-8.63,0-16.14-1.63-20-4a51,51,0,0,0,16.88,2.52h.79c.78,0,1.56,0,2.37,0,9,0,16.56-2.19,18.25-5.09a3.74,3.74,0,0,0,1.45-2.72V72.08a10,10,0,0,1,1,.66h.69c.8,0,1.59,0,2.36-.06h.8a50.82,50.82,0,0,0,16.87-2.53c-3.77,2.32-10.94,3.92-19.22,4A3.16,3.16,0,0,1,89.78,76C89.78,80.31,79.55,83.79,66.92,83.79ZM89.12,87l-1.71,0V85.51l1.71,0c.8,0,1.59,0,2.37,0,8.74-.1,16.24-1.87,19.82-4.4C108.85,84.47,99.85,87,89.12,87ZM8,97.86c4.13,2,11,3.36,18.84,3.36h.11c.74,0,1.49,0,2.26,0a47.64,47.64,0,0,0,10.51-1.1,5.26,5.26,0,0,1,1.19-1.41v1.34c0,2.32,3,4.4,7.75,5.83a41.83,41.83,0,0,0,13.54,2c.8,0,1.59,0,2.37-.06,8.74-.1,16.24-1.87,19.82-4.39-2.46,3.38-11.46,5.89-22.19,5.89-12.63,0-22.87-3.47-22.87-7.76v.32a62,62,0,0,1-10.12.8C19.59,102.72,11.38,100.71,8,97.86Zm57.36,17.9c-8.63,0-16.14-1.63-20-4a51,51,0,0,0,16.88,2.52H63q1.16.06,2.37.06c9,0,16.56-2.19,18.25-5.09A3.75,3.75,0,0,0,85,106.49v-2.44c.25.14.48.29.7.43,1.58.15,3.24.24,5,.24.86,0,1.71,0,2.54-.07l1.41,0a54.38,54.38,0,0,0,14.91-1.89c-4.12,2-11,3.38-18.86,3.38-1.09,0-2.15,0-3.19-.08A3.2,3.2,0,0,1,88.2,108C88.2,112.28,78,115.76,65.34,115.76Zm2.37,6.39c-9.6,0-17.82-2-21.21-4.86,4.13,2,11,3.37,18.84,3.37h.11c.74,0,1.49.06,2.26.06,7.28,0,13.57-1.43,16.63-3.5,2.44-1.24,3.86-2.72,3.86-4.32v-2a1.88,1.88,0,0,1,.23.16h.69q1.2,0,2.37-.06c8.74-.1,16.24-1.86,19.82-4.39-2.4,3.3-11,5.76-21.38,5.89a3.13,3.13,0,0,1,.64,1.83C90.57,118.67,80.34,122.15,67.71,122.15ZM26,121.9c-9.6,0-17.81-2-21.21-4.86,4.13,2,11,3.37,18.84,3.37h.11c.74,0,1.49.06,2.26.06,7.28,0,13.57-1.43,16.63-3.5a12.93,12.93,0,0,0,1.67-1c.16.13.33.25.51.37v3a2.92,2.92,0,0,0,.33,1.31,1.48,1.48,0,0,0,0,.19c0,3.49,8.34,6.32,18.62,6.32.86,0,1.71,0,2.54-.07l1.41,0a54.8,54.8,0,0,0,14.91-1.88c-4.12,2-11,3.37-18.86,3.37-12.63,0-22.87-3.47-22.87-7.76A2.94,2.94,0,0,1,41,120,54.65,54.65,0,0,1,26,121.9ZM38.52,93.47v.24a3,3,0,0,0,.4,1.44,59.62,59.62,0,0,1-12.1,1.17c-8.63,0-16.14-1.62-20-4a50.85,50.85,0,0,0,16.87,2.52h.79c.78,0,1.56.06,2.37.06A45.31,45.31,0,0,0,38.52,93.47Z"/><path class="cls-2" d="M25.24,58C15.64,58,7.43,56,4,53.1c4.13,2,11,3.37,18.84,3.37H23c.74,0,1.49.05,2.26.05,7.28,0,13.57-1.43,16.63-3.5,2.44-1.23,3.87-2.72,3.87-4.32v-2c1.51,1,2.37,2.21,2.37,3.45C48.11,54.48,37.87,58,25.24,58Z"/><path class="cls-3" d="M22.87,38.54c9.75,0,17.74,2.55,18.53,5.79-.79,3.24-8.78,5.79-18.53,5.79S5.13,47.57,4.33,44.33C5.13,41.09,13.11,38.54,22.87,38.54Z"/><path class="cls-2" d="M91.49,119h-.92v-1.45h.92c7.28,0,13.57-1.42,16.63-3.49,2.44-1.24,3.87-2.72,3.87-4.32v-2c1.51,1,2.36,2.2,2.36,3.44C114.35,115.47,104.12,119,91.49,119Z"/><path class="cls-2" d="M94.65,99.77a63.49,63.49,0,0,1-8-.5V98c1.81.16,3.71.24,5.66.24h.11c.74,0,1.49,0,2.26,0,7.28,0,13.57-1.42,16.63-3.49,2.44-1.24,3.86-2.73,3.86-4.32v-2c1.52,1,2.37,2.2,2.37,3.44C117.51,96.29,107.28,99.77,94.65,99.77Z"/><polygon class="cls-3" points="115.14 85.61 115.14 85.61 115.14 85.61 115.14 85.61"/><path class="cls-2" d="M92.28,93.37a65.17,65.17,0,0,1-6.55-.32,3.31,3.31,0,0,1,.89,2.15c0,4.29-10.23,7.77-22.86,7.77-9.6,0-17.82-2-21.21-4.86,4.13,2,11,3.36,18.84,3.36h.11c.74,0,1.49,0,2.26,0,7.28,0,13.57-1.42,16.63-3.49,2.44-1.24,3.86-2.72,3.86-4.32v-2c1.57.12,3.2.18,4.87.18h.79c.78,0,1.56.06,2.37.06,9,0,16.56-2.19,18.25-5.09A3.77,3.77,0,0,0,112,84.11V81.67c2,1.15,3.15,2.5,3.15,3.94h0C115.14,89.9,104.91,93.37,92.28,93.37Z"/><path class="cls-2" d="M89.12,87l-1.71,0V85.51l1.71,0c.8,0,1.59,0,2.37,0,8.74-.1,16.24-1.87,19.82-4.4C108.85,84.47,99.85,87,89.12,87Z"/><path class="cls-2" d="M90.7,80.59h-.92V79.12l.92,0c7.28,0,13.57-1.42,16.63-3.49,2.44-1.24,3.87-2.73,3.87-4.33V69.38c1.51,1,2.36,2.2,2.36,3.44C113.56,77.11,103.33,80.59,90.7,80.59Z"/><path class="cls-2" d="M91.49,67.8c-2,0-3.87-.09-5.69-.24a3.28,3.28,0,0,1,.82,2.07c0,4.29-10.23,7.76-22.86,7.76-9.6,0-17.82-2-21.21-4.85,4.13,2,11,3.36,18.84,3.36h.11c.74,0,1.49,0,2.26,0,7.28,0,13.57-1.43,16.63-3.5,2.44-1.23,3.86-2.72,3.86-4.32V65.86a51.3,51.3,0,0,0,7.24.49c.76,0,1.51,0,2.25,0h.12c7.81,0,14.7-1.33,18.83-3.36C109.3,65.79,101.09,67.8,91.49,67.8Z"/><polygon class="cls-3" points="116.72 53.64 116.72 53.64 116.72 53.64 116.72 53.64"/><path class="cls-2" d="M116.72,53.64h0c0-1.44-1.15-2.79-3.16-3.94v2.44a3.75,3.75,0,0,1-1.45,2.73c-1.69,2.9-9.22,5.09-18.25,5.09-.81,0-1.59,0-2.37-.06H90.7a61.51,61.51,0,0,1-9.86-.76c-4-2.21-11.23-3.68-19.45-3.68a62.29,62.29,0,0,0-10.15.8,4.19,4.19,0,0,0-1.65-2.6c1.76.15,3.61.23,5.52.23a58.61,58.61,0,0,0,12.76-1.32,2.18,2.18,0,0,1,0-.44v-.72a60,60,0,0,1-10.36,1c-.77,0-1.56.06-2.36.06a52.86,52.86,0,0,1-7-.46v3.1a3.24,3.24,0,0,1-.79,2C43,58.25,40,59.91,38.91,61.8A47,47,0,0,1,28.4,62.91c-.81,0-1.59,0-2.37-.06h-.79A50.85,50.85,0,0,1,8.37,60.34c3.89,2.39,11.4,4,20,4a60.86,60.86,0,0,0,10.12-.81v-.32h0c0,4.29,10.24,7.77,22.87,7.77s22.86-3.48,22.86-7.77a3.83,3.83,0,0,0-1.55-2.81,61.15,61.15,0,0,0,11.16,1C106.49,61.4,116.72,57.93,116.72,53.64ZM42.85,63.76h0a2.34,2.34,0,0,1-.08-.53c0-3.49,8.34-6.32,18.62-6.32S80,59.74,80,63.23a2.34,2.34,0,0,1-.08.53h0c-.79,3.25-8.78,5.79-18.53,5.79S43.65,67,42.85,63.76Z"/><path class="cls-2" d="M90.7,55c-9.6,0-17.82-2-21.21-4.86,4.13,2,11,3.37,18.84,3.37h.11c.74,0,1.49.06,2.26.06,7.28,0,13.57-1.43,16.63-3.5,2.44-1.24,3.87-2.72,3.87-4.32v-2c1.51,1,2.36,2.21,2.36,3.44C113.56,51.53,103.33,55,90.7,55Z"/><path class="cls-2" d="M111.2,40.85h0c0-4.29-10.24-7.77-22.87-7.77a62.17,62.17,0,0,0-9.49.7c-6.21,1-10.94,2.85-12.66,5.13a62.4,62.4,0,0,1-9.5.7h-.11c-.74,0-1.49,0-2.25,0-7.29,0-13.58-1.42-16.64-3.49-2.44-1.24-3.86-2.72-3.86-4.32v-2c-1.52,1-2.37,2.2-2.37,3.44s1,2.62,2.79,3.72c-.89-.17-1.83-.32-2.79-.46A64.13,64.13,0,0,0,22.87,36C10.24,36,0,39.51,0,43.8s10.24,7.77,22.87,7.77,22.87-3.48,22.87-7.77c0-1.35-1-2.62-2.8-3.72a60.49,60.49,0,0,0,11.38,1,60.29,60.29,0,0,0,11.25-1,2.78,2.78,0,0,0-.11.75c0,4.29,10.24,7.77,22.87,7.77S111.2,45.14,111.2,40.85ZM41.48,43.8a1.89,1.89,0,0,1-.08.53h0c-.79,3.24-8.78,5.79-18.53,5.79S5.13,47.57,4.33,44.33h0a2.34,2.34,0,0,1-.08-.53c0-3.49,8.34-6.32,18.62-6.32S41.48,40.31,41.48,43.8Zm65.46-2.95a2,2,0,0,1-.08.53h0c-.79,3.24-8.78,5.79-18.53,5.79s-17.74-2.55-18.54-5.79h0a2.43,2.43,0,0,1-.08-.53c0-3.49,8.34-6.32,18.62-6.32S106.94,37.36,106.94,40.85Z"/><path class="cls-3" d="M88.33,35.59c9.75,0,17.74,2.55,18.53,5.79-.79,3.24-8.78,5.79-18.53,5.79s-17.74-2.55-18.54-5.79C70.59,38.14,78.57,35.59,88.33,35.59Z"/><path class="cls-2" d="M64.55,141.33c-9.6,0-17.82-2-21.21-4.86,4.13,2,11,3.37,18.84,3.37h.11c.74,0,1.49,0,2.26,0,7.28,0,13.57-1.43,16.63-3.5,2.44-1.23,3.86-2.72,3.86-4.32v-1.95c1.52,1,2.37,2.21,2.37,3.44C87.41,137.85,77.18,141.33,64.55,141.33Z"/><path class="cls-2" d="M40.89,124.33v1.35c0,2.32,3,4.4,7.75,5.82a41.55,41.55,0,0,0,13.54,2c.8,0,1.59,0,2.37-.05,8.74-.11,16.24-1.87,19.82-4.4-2.46,3.39-11.46,5.9-22.19,5.9-12.63,0-22.87-3.48-22.87-7.77a3.25,3.25,0,0,1,.78-2A6.13,6.13,0,0,1,40.89,124.33Z"/><path class="cls-2" d="M67.71,122.15c-9.6,0-17.82-2-21.21-4.86,4.13,2,11,3.37,18.84,3.37h.11c.74,0,1.49.06,2.26.06,7.28,0,13.57-1.43,16.63-3.5,2.44-1.24,3.86-2.72,3.86-4.32v-2a1.88,1.88,0,0,1,.23.16h.69q1.2,0,2.37-.06c8.74-.1,16.24-1.86,19.82-4.39-2.4,3.3-11,5.76-21.38,5.89a3.13,3.13,0,0,1,.64,1.83C90.57,118.67,80.34,122.15,67.71,122.15Z"/><path class="cls-2" d="M65.34,115.76c-8.63,0-16.14-1.63-20-4a51,51,0,0,0,16.88,2.52H63q1.16.06,2.37.06c9,0,16.56-2.19,18.25-5.09A3.75,3.75,0,0,0,85,106.49v-2.44c.25.14.48.29.7.43,1.58.15,3.24.24,5,.24.86,0,1.71,0,2.54-.07l1.41,0a54.38,54.38,0,0,0,14.91-1.89c-4.12,2-11,3.38-18.86,3.38-1.09,0-2.15,0-3.19-.08A3.2,3.2,0,0,1,88.2,108C88.2,112.28,78,115.76,65.34,115.76Z"/><path class="cls-2" d="M66.92,83.79c-8.63,0-16.14-1.63-20-4a51,51,0,0,0,16.88,2.52h.79c.78,0,1.56,0,2.37,0,9,0,16.56-2.19,18.25-5.09a3.74,3.74,0,0,0,1.45-2.72V72.08a10,10,0,0,1,1,.66h.69c.8,0,1.59,0,2.36-.06h.8a50.82,50.82,0,0,0,16.87-2.53c-3.77,2.32-10.94,3.92-19.22,4A3.16,3.16,0,0,1,89.78,76C89.78,80.31,79.55,83.79,66.92,83.79Z"/><polygon class="cls-3" points="38.52 63.23 38.52 63.23 38.52 63.23 38.52 63.23"/><ellipse class="cls-3" cx="61.39" cy="63.76" rx="18.54" ry="5.79"/><path class="cls-2" d="M39.73,8.3a2.43,2.43,0,0,1-.08-.53,2.43,2.43,0,0,0,.08.53Z"/><path class="cls-4" d="M39.73,8.3a2.43,2.43,0,0,1-.08-.53,2.43,2.43,0,0,0,.08.53Z"/><path class="cls-2" d="M76.8,8.3h0a2.43,2.43,0,0,0,.08-.53A2.43,2.43,0,0,1,76.8,8.3Z"/><path class="cls-4" d="M76.8,8.3h0a2.43,2.43,0,0,0,.08-.53A2.43,2.43,0,0,1,76.8,8.3Z"/><path class="cls-3" d="M76.8,8.3C76,5.05,68,2.5,58.26,2.5S40.52,5.05,39.73,8.3a2.43,2.43,0,0,1-.08-.53c0-3.49,8.33-6.33,18.61-6.33S76.88,4.28,76.88,7.77A2.43,2.43,0,0,1,76.8,8.3Z"/><path class="cls-4" d="M76.8,8.3C76,5.05,68,2.5,58.26,2.5S40.52,5.05,39.73,8.3a2.43,2.43,0,0,1-.08-.53c0-3.49,8.33-6.33,18.61-6.33S76.88,4.28,76.88,7.77A2.43,2.43,0,0,1,76.8,8.3Z"/><path class="cls-2" d="M4.33,44.33a2.34,2.34,0,0,1-.08-.53,2.34,2.34,0,0,0,.08.53Z"/><path class="cls-4" d="M4.33,44.33a2.34,2.34,0,0,1-.08-.53,2.34,2.34,0,0,0,.08.53Z"/><path class="cls-2" d="M41.4,44.33h0a1.89,1.89,0,0,0,.08-.53A1.89,1.89,0,0,1,41.4,44.33Z"/><path class="cls-4" d="M41.4,44.33h0a1.89,1.89,0,0,0,.08-.53A1.89,1.89,0,0,1,41.4,44.33Z"/><path class="cls-3" d="M41.48,43.8a1.89,1.89,0,0,1-.08.53c-.79-3.24-8.78-5.79-18.53-5.79S5.13,41.09,4.33,44.33a2.34,2.34,0,0,1-.08-.53c0-3.49,8.34-6.32,18.62-6.32S41.48,40.31,41.48,43.8Z"/><path class="cls-4" d="M41.48,43.8a1.89,1.89,0,0,1-.08.53c-.79-3.24-8.78-5.79-18.53-5.79S5.13,41.09,4.33,44.33a2.34,2.34,0,0,1-.08-.53c0-3.49,8.34-6.32,18.62-6.32S41.48,40.31,41.48,43.8Z"/><path class="cls-2" d="M106.86,41.38h0a2,2,0,0,0,.08-.53A2,2,0,0,1,106.86,41.38Z"/><path class="cls-4" d="M106.86,41.38h0a2,2,0,0,0,.08-.53A2,2,0,0,1,106.86,41.38Z"/><path class="cls-2" d="M69.79,41.38a2.43,2.43,0,0,1-.08-.53,2.43,2.43,0,0,0,.08.53Z"/><path class="cls-4" d="M69.79,41.38a2.43,2.43,0,0,1-.08-.53,2.43,2.43,0,0,0,.08.53Z"/><path class="cls-3" d="M106.94,40.85a2,2,0,0,1-.08.53c-.79-3.24-8.78-5.79-18.53-5.79s-17.74,2.55-18.54,5.79a2.43,2.43,0,0,1-.08-.53c0-3.49,8.34-6.32,18.62-6.32S106.94,37.36,106.94,40.85Z"/><path class="cls-4" d="M106.94,40.85a2,2,0,0,1-.08.53c-.79-3.24-8.78-5.79-18.53-5.79s-17.74,2.55-18.54,5.79a2.43,2.43,0,0,1-.08-.53c0-3.49,8.34-6.32,18.62-6.32S106.94,37.36,106.94,40.85Z"/><path class="cls-2" d="M42.85,63.76a2.34,2.34,0,0,1-.08-.53,2.34,2.34,0,0,0,.08.53Z"/><path class="cls-4" d="M42.85,63.76a2.34,2.34,0,0,1-.08-.53,2.34,2.34,0,0,0,.08.53Z"/><path class="cls-2" d="M79.92,63.76h0a2.34,2.34,0,0,0,.08-.53A2.34,2.34,0,0,1,79.92,63.76Z"/><path class="cls-4" d="M79.92,63.76h0a2.34,2.34,0,0,0,.08-.53A2.34,2.34,0,0,1,79.92,63.76Z"/><path class="cls-3" d="M61.39,58c-9.76,0-17.74,2.55-18.54,5.79a2.34,2.34,0,0,1-.08-.53c0-3.49,8.34-6.32,18.62-6.32S80,59.74,80,63.23a2.34,2.34,0,0,1-.08.53C79.13,60.52,71.14,58,61.39,58Z"/><path class="cls-4" d="M61.39,58c-9.76,0-17.74,2.55-18.54,5.79a2.34,2.34,0,0,1-.08-.53c0-3.49,8.34-6.32,18.62-6.32S80,59.74,80,63.23a2.34,2.34,0,0,1-.08.53C79.13,60.52,71.14,58,61.39,58Z"/></g></g></svg>