<svg xmlns="http://www.w3.org/2000/svg" viewBox="0 0 303.74 300.92"><defs><style>.cls-1{isolation:isolate;}.cls-2{fill:#f5f5f5;}.cls-3{fill:#fddcbe;}.cls-4{fill:#f5f0e1;}.cls-5{fill:none;}.cls-6{fill:#598060;}.cls-7,.cls-9{fill:#f2f2f2;}.cls-7{mix-blend-mode:multiply;}.cls-8{fill:#574939;}.cls-10{fill:#eb7d86;}</style></defs><title>finance-man-w-knees-bent</title><g class="cls-1"><g id="Layer_1" data-name="Layer 1"><path class="cls-2" d="M235.52,165.1l-12.69-2.76s1.68-5,4.16-14.71l12.23,3C238.06,155.24,236.84,160.05,235.52,165.1Z"/><path class="cls-3" d="M227,147.63c4.16-16.22,12-62.14,16.53-102.5l14.55,4.35c-1.21,5.67-5.38,47.27-18.85,101.14Z"/><path class="cls-4" d="M279.09,6.12q12.81,11.61,24.65,21.5c-20,6.94-35.72,19.8-45.65,36.33l-7.17-6.08q-3.69-5.17-7.8-10.86A92.19,92.19,0,0,1,279.09,6.12Z"/><path class="cls-5" d="M248.64,42.62a91.23,91.23,0,0,1,8.54-12.4,12.36,12.36,0,0,0,2.6,10.65,8.86,8.86,0,0,0,9.57,3.05,83.14,83.14,0,0,0-10.24,12.34l0-.06c-1.64-2.15-4.19-2.12-5.5.19-1.4-1.92-2.86-3.9-4.36-5.93A7.84,7.84,0,0,0,248.64,42.62Z"/><path class="cls-5" d="M272.27,28.22c-3-3.07-7.28-4.31-10.48-3.21a90.13,90.13,0,0,1,12.44-10.83,8,8,0,0,0,9.07,1q3.69,3.34,7.29,6.52c-3,1.5-3.19,4.77-.61,7.08l.07.06a87.53,87.53,0,0,0-15.14,10.06C276.3,35.56,275.46,31.45,272.27,28.22Z"/><path class="cls-6" d="M252.87,58.48c.65.9,1.28,1.78,1.9,2.66l2.3,2c1-1.63,2-3.22,3-4.78a84.29,84.29,0,0,1,32.49-28c2.5-1.23,5.08-2.37,7.73-3.39q-3.44-2.93-7-6-4.12-3.59-8.36-7.38-3-2.67-6-5.43-3.14,1.95-6.07,4.11a91.19,91.19,0,0,0-25.67,29.19q-1.49,2.67-2.79,5.43l3.61,5C249.73,54.12,251.33,56.34,252.87,58.48Zm19.4-30.26c-3-3.07-7.28-4.31-10.48-3.21a90.13,90.13,0,0,1,12.44-10.83,8,8,0,0,0,9.07,1q3.69,3.34,7.29,6.52c-3,1.5-3.19,4.77-.61,7.08l.07.06a87.53,87.53,0,0,0-15.14,10.06C276.3,35.56,275.46,31.45,272.27,28.22Zm-18.7,28.17c-1.4-1.92-2.86-3.9-4.36-5.93a7.84,7.84,0,0,0-.57-7.84,91.23,91.23,0,0,1,8.54-12.4,12.36,12.36,0,0,0,2.6,10.65,8.86,8.86,0,0,0,9.57,3.05,83.14,83.14,0,0,0-10.24,12.34l0-.06C257.43,54.05,254.88,54.08,253.57,56.39Z"/><path class="cls-4" d="M274.08,2.71q13.95,10,27.39,19.15A90.32,90.32,0,0,0,257.8,63.71l-6.34-5.38L242.82,49A104,104,0,0,1,274.08,2.71Z"/><path class="cls-6" d="M268.81,9.73a103.19,103.19,0,0,0-22.4,33c-.83,1.94-1.6,3.9-2.32,5.9l3.81,4c1.75,1.87,3.46,3.67,5.11,5.42q2.09,2.23,4.07,4.33c1-2,2.05-4,3.18-5.86a90.47,90.47,0,0,1,30.41-31c2.35-1.46,4.78-2.81,7.28-4.07q-3.9-2.65-7.84-5.41-4.61-3.21-9.28-6.54c-2.19-1.55-4.39-3.13-6.6-4.72Q271.43,7.17,268.81,9.73ZM253.59,55.91l-4.66-4.84c1-2.47.63-5.8-1.09-7.51a103.84,103.84,0,0,1,7.37-13.68,11.26,11.26,0,0,0,3.49,9.94,9,9,0,0,0,9.9,1.5,92,92,0,0,0-9.47,13.43l0,0C257.29,52.92,254.74,53.42,253.59,55.91ZM287.46,17c-2.77,1.83-2.55,5.1.36,7.15l.08.05a90.92,90.92,0,0,0-14.13,11.49c1.07-3.37-.25-7.31-3.8-10.07C266.61,23,262.3,22.43,259.25,24a100.1,100.1,0,0,1,11.07-12.55,7.92,7.92,0,0,0,9.05-.18Q283.43,14.2,287.46,17Z"/><path class="cls-4" d="M256.85,62.82q-7-5.8-15.08-12.73A117.76,117.76,0,0,1,268.93,0q14.69,8.61,29.26,17A96.71,96.71,0,0,0,256.85,62.82Z"/><path class="cls-6" d="M264.45,7.67a116.33,116.33,0,0,0-19.53,35.59c-.7,2-1.34,4.1-1.94,6.18,1.33,1.13,2.64,2.22,3.93,3.3l5.31,4.41,4.28,3.53q1.38-3.1,3-6.09a97.25,97.25,0,0,1,28.36-33.16q3.3-2.43,6.81-4.59-4.23-2.43-8.45-4.9l-9.92-5.77-7-4.09C267.61,3.88,266,5.75,264.45,7.67ZM252.7,55l-4.86-4c.91-2.57.31-5.75-1.47-7.15a118.52,118.52,0,0,1,6.35-14.52,10.39,10.39,0,0,0,4.16,9.27,9.48,9.48,0,0,0,10.08.27A100.55,100.55,0,0,0,258.22,53l-.05,0C256.25,51.52,253.73,52.38,252.7,55Zm30.95-41.82c-2.55,2.08-2,5.33,1.16,7.14l.08.05a96.89,96.89,0,0,0-13.13,12.56c.79-3.4-.92-7.17-4.7-9.52-3.59-2.24-7.91-2.32-10.79-.36a111.52,111.52,0,0,1,9.84-13.79A7.81,7.81,0,0,0,275,8.11Q279.34,10.66,283.65,13.16Z"/><path class="cls-3" d="M242.48,47.52s-3.53-8.09-.61-9.61,9.25-3.46,9.78-.49c.58,3.26-7.44,4.55-7.44,4.55Z"/><path class="cls-7" d="M227,147.63c1.39-5.42,3.2-14.17,5.15-24.92,1.86,5.12,5.29,14.93,7.9,24.59-.27,1.11-.54,2.21-.82,3.32-1.16,4.62-2.38,9.43-3.7,14.48l-12.69-2.76S224.51,157.3,227,147.63Z"/><path class="cls-3" d="M234.61,152.15S227.54,16.78,127.89,68.93c0,0-16.27,34.27-10.17,98.07C198,174.7,234.61,152.15,234.61,152.15Z"/><path class="cls-8" d="M207.82,11.78S265,87.31,140.35,93.91l.71,24.35s-11.81-9.1-13.39,2.55,13.21,5.91,13.21,5.91-9.75,30.94-22.72,40.32c0,0-49.6-99.83-2.69-103.55,0,0-.39-18,24.26-29.79C174.89,16.92,198.53,55.68,207.82,11.78Z"/><path class="cls-8" d="M135.3,234.21l8.86,26.55-7.58,36.29s41.74,11.11,31-4.34c-9.91-14.26-24.82-2.76-24.82-2.76l10.37-28.13-2.9-20.23s42.16,2.25,78-7.7l11.46,21.8-15,38.55s38.68,12.63,27.75-4.21c-6.05-9.34-20.47-3.76-20.47-3.76l16.69-30.44-7.92-32.44Z"/><path class="cls-2" d="M234.61,152.15l6.19,71.24s-43.25,13.73-106,13.35l-17-69.74S190.42,172,234.61,152.15Z"/><polygon class="cls-9" points="209.68 166 212.25 169.84 209.69 174.91 216.48 217.08 205.82 227.59 195.02 218.44 203.76 176.01 199.71 171.32 201.24 167.82 209.68 166"/><polygon class="cls-8" points="209.68 166 212.25 169.84 209.69 174.91 218.94 216.1 208.28 226.61 197.48 217.47 203.76 176.01 199.71 171.32 201.24 167.82 209.68 166"/><path class="cls-10" d="M209.5,129.71S187.81,132,175.2,138c0,0,1.23,17.75,21.38,13.47C216.53,147.27,209.5,129.71,209.5,129.71Z"/><path class="cls-2" d="M121.43,182.76l10.13-8.12s-3.74-3.77-10.26-11.33l-9.62,8.12Q116.3,176.86,121.43,182.76Z"/><path class="cls-3" d="M121.3,163.31C110.36,150.63,84,115.41,62,81.26L50.93,91.62c3.6,4.54,24.73,37.54,60.75,79.81Z"/><path class="cls-8" d="M168.22,117.75c.91,4.25-.12,8.08-2.31,8.55s-4.7-2.6-5.61-6.85.12-8.08,2.31-8.55S167.31,113.5,168.22,117.75Z"/><path class="cls-8" d="M217.69,107.14c.91,4.25-.12,8.08-2.31,8.55s-4.7-2.6-5.61-6.85.12-8.07,2.31-8.54S216.78,102.89,217.69,107.14Z"/><path class="cls-4" d="M20.47,46.78Q9.91,60.46,0,72.28C20.89,75.6,38.64,85.48,51.34,100l6-7.25c1.81-3.83,3.73-7.84,5.76-12.06A92.07,92.07,0,0,0,20.47,46.78Z"/><path class="cls-5" d="M56.88,77.34A91.57,91.57,0,0,0,46.29,66.63a12.38,12.38,0,0,1-.69,11,8.85,8.85,0,0,1-8.87,4.69A83.69,83.69,0,0,1,49,92.61l0-.06c1.23-2.42,3.75-2.83,5.44-.79q1.57-3.21,3.25-6.6A7.82,7.82,0,0,1,56.88,77.34Z"/><path class="cls-5" d="M30.33,65.81c2.44-3.55,6.4-5.52,9.75-5a90.49,90.49,0,0,0-14.16-8.47,8,8,0,0,1-8.76,2.55q-3,3.95-6,7.7c3.21.95,4,4.14,1.85,6.87l-.06.07A87.59,87.59,0,0,1,29.6,76.77C27.65,73.75,27.75,69.56,30.33,65.81Z"/><path class="cls-6" d="M59.07,86.31l2.67-5.52C60.56,79.13,59.32,77.52,58,76A91.17,91.17,0,0,0,27.62,51.73c-2.18-1.07-4.41-2.07-6.69-3-1.66,2.17-3.32,4.3-5,6.4-2.33,3-4.65,5.9-6.93,8.74Q6.12,67.53,3.24,71q4.2.81,8.21,2A84.45,84.45,0,0,1,48.37,94.8q2,2,3.82,4.17l1.91-2.32c.46-1,.93-2,1.41-3C56.65,91.31,57.83,88.85,59.07,86.31Zm-28.71-8A87.87,87.87,0,0,0,13.69,71l.05-.07c2.13-2.73,1.37-5.92-1.85-6.86q3-3.77,6-7.71a8,8,0,0,0,8.75-2.55,90.34,90.34,0,0,1,14.16,8.47c-3.35-.51-7.3,1.45-9.75,5C28.51,71.07,28.41,75.27,30.36,78.28ZM49,92.55l0,.06A83.69,83.69,0,0,0,36.73,82.27a8.85,8.85,0,0,0,8.87-4.69,12.38,12.38,0,0,0,.69-11A91.57,91.57,0,0,1,56.88,77.34a7.82,7.82,0,0,0,.82,7.82q-1.68,3.39-3.25,6.6C52.76,89.72,50.24,90.13,49,92.55Z"/><path class="cls-4" d="M24.8,42.54q-12,12.33-23.58,23.67a90.33,90.33,0,0,1,50.36,33.5l5.29-6.41c2.17-3.39,4.46-6.94,6.87-10.69A104,104,0,0,0,24.8,42.54Z"/><path class="cls-6" d="M25,44.6c-1.89,2-3.78,3.89-5.66,5.81q-4,4.1-8,8.07Q8,61.89,4.61,65.19c2.68.8,5.31,1.7,7.88,2.72a90.34,90.34,0,0,1,35.4,25.17q2.18,2.52,4.16,5.21l3.25-5,4.08-6.24,3-4.65Q60.82,79.66,59.09,77A103.09,103.09,0,0,0,31.23,48.52Q28.2,46.45,25,44.6Zm23.7,46.47,0,.05A92.25,92.25,0,0,0,37,79.58a9.08,9.08,0,0,0,9.48-3.22A11.3,11.3,0,0,0,48.17,66a104.91,104.91,0,0,1,9.66,12.17c-1.39,2-1.21,5.34.26,7.58l-3.74,5.59C52.77,89.05,50.18,89,48.72,91.07ZM21.11,51.91a7.92,7.92,0,0,0,8.94-1.41,99.36,99.36,0,0,1,13.1,10.4c-3.27-1-7.41.32-10.26,3.5-3,3.34-3.61,7.44-2,10.58A92.12,92.12,0,0,0,15,66.15l.06-.06c2.5-2.53,2.15-5.79-.9-7.1Q17.61,55.51,21.11,51.91Z"/><path class="cls-4" d="M52.36,98.66Q58.18,91.73,65,83.48A117.83,117.83,0,0,0,29.4,39Q16.45,50,3.59,60.87A96.74,96.74,0,0,1,52.36,98.66Z"/><path class="cls-6" d="M29.41,41.07l-6.15,5.25-8.74,7.44L7.07,60.07c2.55,1,5.06,2.11,7.5,3.31A97.47,97.47,0,0,1,48.34,91q2.07,2.67,4,5.48,1.76-2.06,3.59-4.23,2.18-2.55,4.46-5.28c1.07-1.28,2.17-2.59,3.28-3.93q-1.42-2.93-3-5.74a116.36,116.36,0,0,0-25.5-31.6Q32.36,43.29,29.41,41.07ZM49.32,89.22l0,0A100.49,100.49,0,0,0,38.19,76.9a9.49,9.49,0,0,0,9.87-2.05A10.38,10.38,0,0,0,50.52,65a118,118,0,0,1,8.81,13.17c-1.5,1.7-1.53,4.93-.18,7.31l-4.09,4.75C53.59,87.84,51,87.44,49.32,89.22ZM24.84,48a7.81,7.81,0,0,0,9-.46A110.9,110.9,0,0,1,45.91,59.4c-3.18-1.43-7.41-.58-10.56,2.25-3.3,3-4.32,7-2.94,10.2a97.73,97.73,0,0,0-15.14-10l.08,0c2.77-2.35,2.75-5.65-.13-7.24Q21,51.29,24.84,48Z"/><path class="cls-3" d="M63.8,81.07s2-8.58-1.08-9.56S53,69.73,53,72.75c0,3.31,8.12,3.17,8.12,3.17Z"/></g></g></svg>