<svg id="Layer_1" data-name="Layer 1" xmlns="http://www.w3.org/2000/svg" xmlns:xlink="http://www.w3.org/1999/xlink" viewBox="0 0 721.89 905.18"><defs><style>.cls-1{opacity:0.95;fill:url(#linear-gradient);}.cls-2{fill:#4598e6;}.cls-3{fill:#96bfe6;}.cls-4{fill:#decbc4;}.cls-5{fill:#eea886;}.cls-6{fill:#a77860;}.cls-7{fill:#e8734d;}.cls-8{fill:#3c4145;}.cls-9{fill:#51565c;}.cls-10{fill:#f5e2d9;}.cls-11{fill:#d44040;}.cls-12{fill:#2d3133;}</style><linearGradient id="linear-gradient" x1="360.95" y1="1029.59" x2="360.95" y2="261" gradientUnits="userSpaceOnUse"><stop offset="0" stop-color="#d1d7e0"/><stop offset="1" stop-color="#ebebff"/></linearGradient></defs><title>hr-card-3</title><rect class="cls-1" y="57.84" width="721.89" height="847.34" rx="69.12"/><rect class="cls-2" x="327.31" y="557.72" width="57.26" height="10.6"/><rect class="cls-3" x="109.94" y="654.89" width="333.16" height="20.53"/><rect class="cls-3" x="109.94" y="753.45" width="269.41" height="20.53"/><rect class="cls-3" x="109.94" y="704.17" width="157.94" height="20.53"/><path class="cls-2" d="M530.27,142.34v10.37h61.05V210h10.37V142.34ZM115.68,210h10.37v-57.3H187.1V142.34H115.68ZM591.32,505.67V563H530.27v10.37h71.42V505.67Zm-465.27,0H115.68v67.69H187.1V563h-61Z"/><path class="cls-2" d="M569.36,775.49a61.06,61.06,0,1,1,61.06-61A61.12,61.12,0,0,1,569.36,775.49Zm0-110.29a49.24,49.24,0,1,0,49.24,49.24A49.3,49.3,0,0,0,569.36,665.2Z"/><polygon class="cls-2" points="565.47 738.47 537.73 710.73 546.09 702.37 565.47 721.75 592.64 694.58 601 702.94 565.47 738.47"/><path class="cls-4" d="M566.54,500.92H531.82c-.63-1.39-1.15-2.6-1.57-3.57-10.31-24.33-63.41-80.12-63.41-80.12v.13a.08.08,0,0,0,0,.06v.06c0,.09-.06.15-.09.24s-.06.27-.12.45a1.07,1.07,0,0,0-.06.3l-.09.24c-2.18,8.13-12.87,48.63-18.22,82.21h-235c-.54-3.11-1.18-6.08-1.91-8.83a191.64,191.64,0,0,1-4.53-24.29c0-.4-.09-.76-.12-1.15-.18-1.42-.33-2.84-.45-4.23a222.69,222.69,0,0,1-.4-38.9c-.66,1.42-5.41,18.83-11.63,40.32-3.42,11.78-7.29,24.81-11.12,37.08H127.6L197.23,300c1.54-1.21,19.61-9.94,32.79-16.23,13.45-6.4,29.68-15.8,44.34-23.84,7.49-4.11,14.56-7.83,20.7-10.64l.94-.42v0c10.12-4.63,16.86-7.68,16.86-7.68h0l4.38-.42c14.15-1.36,58-5.47,72.72-6.32,1.21-.09,2.23-.12,3-.15a11.78,11.78,0,0,1,1.48,0c1.84.12,10.91,3.26,22.79,7.8.45.15.91.33,1.36.51l1.69.63c1,.4,2.09.79,3.14,1.21,2.12.85,4.33,1.7,6.53,2.57l2.33.91c23.78,9.43,51,21.12,57.51,25.78,4.29,3.05,17.62,28.17,33.06,59.23C539.53,386.19,559.87,463,566.54,500.92Z"/><path class="cls-5" d="M394.11,227.47c-.63,31.59-61.78,48.87-61.78,48.87s-25.58-32.08-19.47-35.15c2.4-1.2,3.37-6,3.67-11.36a110.23,110.23,0,0,0-.35-14.32c-.18-2.24-.35-3.68-.35-3.68s8.73-9.22,19.85-20.2c19.43-19.21,46.13-43.81,46.17-34a8,8,0,0,1-.22,1.85C376.94,181.49,394.11,227.47,394.11,227.47Z"/><path class="cls-6" d="M370.56,181.19h0c-.12.19-2.71,4.07-7.14,9.64-9.39,11.81-27,31.21-46.88,39a110.23,110.23,0,0,0-.35-14.32,32.07,32.07,0,0,1-6.07-.74A189,189,0,0,1,323.4,195.3l12.28-3.67Z"/><path class="cls-5" d="M382.3,158C377,169.54,372,177.88,370.56,181.19h0c-.92,2.16-3.45,5.67-7.14,9.64-10.08,10.86-28.81,25.18-47.23,24.68a32.07,32.07,0,0,1-6.07-.74c-7.44-1.62-16.22-5.08-21.05-14.54-38.16-74.7-10.53-135.78-10.53-135.78S382.85,35,399.18,66.35C410.63,88.38,394.73,131,382.3,158Z"/><path class="cls-7" d="M278.53,64.45s-9.69-.54-12.09-18.91c-2.36-18.15,2.42-23.18,2.42-23.18S311.93,4.34,327.4,2s53.5-4.59,62.41,5.6c0,0,21.66-5,27.56,30.92,9.36,57-31.9,112.43-31.9,112.43s.35-37.26-7.87-42.2-15.31,6.8-15.31,6.8l-16.81,3S371,63.42,340.39,61.38,296.06,67.65,278.53,64.45Z"/><path class="cls-5" d="M362.75,100.69c1.6-16.42,31.29-22.69,29.3-5.48s-16.6,33.74-23.36,33.16S361.54,113.2,362.75,100.69Z"/><path class="cls-8" d="M536.54,334.48c-9.68-31-18-55.48-21.76-58.14-6.5-4.66-58-18.83-82.45-28.41L430,247c-2.2-.87-4.41-1.72-6.53-2.57-1.05-.42-2.11-.81-3.14-1.21l-1.69-.63c-.45-.18-.91-.36-1.36-.51,0,0-.06.09-.12.12a399.07,399.07,0,0,0-27,34.51C364.9,312.63,332,370.81,337,424.52c1.63,17.22,3.62,42,7,69.75.24,2.21.51,4.41.82,6.65h114c1.39-29.08,3.87-67.37,7.62-82.21l.09-.24a1.07,1.07,0,0,1,.06-.3c0-.15.09-.3.12-.45s.06-.15.09-.24v-.06a.07.07,0,0,1,0-.06s27.6,43.12,29,83.56H567.6C564.1,463.35,553.13,387.65,536.54,334.48Z"/><path class="cls-8" d="M295.54,249.68s-8.61,28.65-19.73,100.19v0c-.39,2.39-.76,4.83-1.15,7.34,0,.28-.09.58-.12.88-.27,1.63-.51,3.32-.76,5,0,.21-.06.39-.09.6-.18,1.12-.36,2.27-.51,3.45-.42,2.81-.85,5.71-1.27,8.64-4.17,29.19-9.73,75.59-15.38,125.09H211.46c-2.44-13.75-4.74-26.26-4.56-34.85a4.5,4.5,0,0,0-.21.58c-3.6,10-7.56,20.82-11.57,31.37-.37,1-.73,1.93-1.09,2.9H116.36l77.36-202.4c1.55-1.21,21.46-11.94,34.64-18.19,13.75-6.56,31.13-14.63,46.54-21.73,7.38-3.42,14.3-6.59,20.16-9.28Z"/><path class="cls-9" d="M400.32,320.46l-29.77,16.81,12.73,13L355.35,500.92H344.84c-3.87-30.47-6.08-57.82-7.8-76.4-7.77-83,75.1-176.71,80.24-182.42,4,1.51,8.28,3.17,12.72,4.92Z"/><path class="cls-9" d="M296,248.9s-11.12,36.29-24.06,126.93c-4.17,29.16-9.76,75.59-15.41,125.09h-4.39l-5.77-142.38,14.18-15.35-12.61-15.75,27-68.84c7.38-3.42,14.3-6.59,20.16-9.28Z"/><path class="cls-10" d="M418.78,242.45l-24.67-15s-.69,13.53-61.78,48.87l17.35,48.86Z"/><path class="cls-10" d="M316.08,234.28s1,14.61,16.25,42.06l-33.86,44.14L296,248.89Z"/><path class="cls-11" d="M332.42,276.34s6.56,26.24,4.2,33.59c0,0-14.43,5.25-24.8-1.31C311.82,308.62,319.16,290.25,332.42,276.34Z"/><path class="cls-11" d="M324.47,365.58c-6.93,47.15-6.93,94.84-4.36,135.34H291.19c-.39-5.71-.75-11.67-1.12-17.89-5.38-93.36,27.63-176.77,27.63-176.77l14.71-3.69S327.67,343.82,324.47,365.58Z"/><path class="cls-12" d="M207.84,423.76c-1.11,22.4-.94,42.29-.94,42.29v0c0,.11,0,.71-.08,1.71,0-.38-.09-.75-.14-1.12-3.58,10-7.56,20.81-11.56,31.36a337,337,0,0,1-.9-34.18c1.61-62.81,21.36-95.74,21.36-95.74C211.05,379,208.88,402.53,207.84,423.76Z"/></svg>