<svg id="Layer_1" data-name="Layer 1" xmlns="http://www.w3.org/2000/svg" xmlns:xlink="http://www.w3.org/1999/xlink" viewBox="0 0 387.53 386.28"><defs><style>.cls-1{opacity:0.95;fill:url(#linear-gradient);}.cls-2{fill:#4598e6;}.cls-3{fill:#344052;}.cls-4{fill:#eea886;}.cls-5{fill:#eb4747;}.cls-6{fill:#393d63;}.cls-7{fill:#eea987;}.cls-8{fill:#a77860;}</style><linearGradient id="linear-gradient" x1="193.76" y1="437.52" x2="193.76" y2="120.94" gradientUnits="userSpaceOnUse"><stop offset="0" stop-color="#d1d7e0"/><stop offset="1" stop-color="#ebebff"/></linearGradient></defs><title>hr-card-1</title><rect class="cls-1" y="37.26" width="387.53" height="349.02" rx="48.23"/><rect class="cls-2" x="176.93" y="320.27" width="30.74" height="5.69"/><path class="cls-3" d="M220.09,6.7s24.76,13.59,16.9,47-10.85,37.85-4.46,51.36,12,70.13,5.19,80.49-75.89-50.52-83.57-99.23S163.76,17,169.88,9.24,198.24-5.72,220.09,6.7Z"/><path class="cls-4" d="M266.58,283.05H240.07c-1.28-13.07-2.46-22.18-2.22-23.52.39-2.23-26.39-72.45-28.88-78.26s-12.34-21.37-13.62-36,17.84-20.59,17.84-20.59C239,129.26,247.75,165,247.75,165s10.84,72.41,16.32,92.79C265.48,263,266.24,272.23,266.58,283.05Z"/><path class="cls-5" d="M253.24,182.42l-39.48,16.64s-36.29-90-5.88-80S251.86,147.93,253.24,182.42Z"/><path class="cls-5" d="M244.45,224.82c-1.15,8.94-5.87,40.61-4.82,49.16.18,1.41.77,4.66,1.64,9.07h-95.2c2.54-9,4.84-17,6.23-21.69,4.63-15.33.2-19.44-2.14-31.71-.91-4.8-4.1-13.92-7.59-24.22-1.17-3.44-2.37-7-3.52-10.63-4.19-13-6.13-26.25-7.34-34-5.74-36.62,22.43-40.14,22.43-40.14,10.46-1.93,28.75-7.58,28.75-7.58l28.64,6a30.81,30.81,0,0,1,6.7,4s0,0,0,0a52.19,52.19,0,0,1,6.44,5.65c3.13,3.21,9.36,12.41,15.58,22.52,1.9,3.1,3.81,6.28,5.61,9.41,5.82,10.08,10,18.21,9.83,27.38C255.6,197,245.61,215.88,244.45,224.82Z"/><path class="cls-4" d="M211.53,119.07s17.94,30.66,11.27,33S181,146.57,167.22,117.6C167.22,117.6,190.31,107.11,211.53,119.07Z"/><path class="cls-4" d="M209,133.07s-15.93,6.74-30.37-15.46c0,0,3.88-25.21-4.32-39.79S210.11,95.3,210.11,95.3s-.72,3-1.45,7.44c-.38,2.28-.77,4.92-1.07,7.72-.24,2.34-.43,4.79-.52,7.24C206.89,123.37,207.29,129,209,133.07Z"/><path class="cls-6" d="M169.39,167.42c-3.28,16.87-26.82,38-26.82,38-1.17-3.45-2.37-7-3.52-10.62C155.29,184.45,169.39,167.42,169.39,167.42Z"/><path class="cls-4" d="M163.48,180.85c-1.49,6.15-8.35,68.44-7.6,70.56.43,1.22,3.76,15.63,7.09,31.64H132.23c-3.14-10.32-5-18.88-4.56-23.74,2-21-5.16-88-5.16-88s-6.37-40.52,27.25-45.58c0,0,19.86,2.62,21.06,17.28S165,174.71,163.48,180.85Z"/><path class="cls-5" d="M120,189.45l41.73,9.75s33.1-64.27,3.29-76C133.63,110.83,112.5,154.4,120,189.45Z"/><path class="cls-7" d="M216.23,10.26s36.27,13.31,13.28,75.88S159.61,75.46,166.7,37,216.23,10.26,216.23,10.26Z"/><path class="cls-3" d="M235.07,48.3s-19.14,17.08-49.85,17.88c0,0-7.18,17.5-8.34,22.87,0,0-30.34-52.1,4.54-78.42S248,37.38,235.07,48.3Z"/><path class="cls-7" d="M189.37,69.93c0-4.63-2.37-15.29-9.38-12.67s-.73,24.39,3.89,23.29C183.88,80.55,189.41,80.9,189.37,69.93Z"/><path class="cls-8" d="M207.12,116.63c-17-4.72-23.63-21-23.84-21.5,13.86,17.9,24.31,15.33,24.31,15.33C207.35,112.8,207.33,114.26,207.12,116.63Z"/><path class="cls-2" d="M285.88,100.42V106h32.77v30.76h5.56V100.42ZM63.31,136.75h5.57V106h32.77v-5.57H63.31ZM318.65,295.46v30.77H285.88v5.57h38.33V295.46Zm-249.77,0H63.31V331.8h38.34v-5.57H68.88Z"/></svg>