<svg id="Layer_1" data-name="Layer 1" xmlns="http://www.w3.org/2000/svg" xmlns:xlink="http://www.w3.org/1999/xlink" viewBox="0 0 527.46 551.87"><defs><style>.cls-1,.cls-3{opacity:0.95;}.cls-1{fill:url(#linear-gradient);}.cls-2{fill:#96bfe6;}.cls-3{fill:url(#linear-gradient-2);}.cls-4{fill:#385369;}.cls-5{fill:#eea886;}.cls-6{fill:#434343;}.cls-7{fill:#a77860;}.cls-8{fill:#4598e6;}</style><linearGradient id="linear-gradient" x1="301.4" y1="970.96" x2="260.22" y2="224.4" gradientUnits="userSpaceOnUse"><stop offset="0" stop-color="#d1d7e0"/><stop offset="1" stop-color="#ebebff"/></linearGradient><linearGradient id="linear-gradient-2" x1="263.73" y1="704.47" x2="263.73" y2="142.47" xlink:href="#linear-gradient"/></defs><title>hr-card-2</title><rect class="cls-1" y="24.41" width="527.46" height="527.46" rx="58.67"/><rect class="cls-2" x="141.63" y="431.78" width="244.21" height="12.06"/><rect class="cls-2" x="176.22" y="469.8" width="175.03" height="12.06"/><rect class="cls-3" x="85.97" y="44.13" width="355.53" height="305.04"/><path class="cls-4" d="M399.53,229.83c-11.71-31-39.84-45.2-53.12-49.63-4.72-1.57-13.17-4.33-22.07-7.21l-33.56-10.82H235.45s-19.16,6.43-39.53,13.56c0,0,0,0,0,0-18.76,6.58-38.52,13.75-45.18,17.1-13.91,7-37.31,56.59-42,62.28-2.44,2.93-13.3,22.27-24,43.87h59.61c6.3-10.82,11.15-19.21,11.15-19.21s3.77,8.27,8.34,19.21h191c3-12.7,4.9-28.7,4.9-28.7s10.23,13.9,21.4,28.7h55C422.74,276.54,406.13,247.31,399.53,229.83Z"/><path class="cls-5" d="M269.71,10.12S313,16.94,306.39,84.63s-44.78,62.14-47.33,62.08-38.33,1.23-41.12-81.42C217.94,65.29,216.72,4.17,269.71,10.12Z"/><path class="cls-5" d="M307.06,65.51s4.73-5.06,6.47.06-6.46,28-6.76,29c0,0-.86,2-2,.9S307.06,65.51,307.06,65.51Z"/><path class="cls-5" d="M219.1,64.65s-4.64-5.15-6.47-.06,5.85,28.09,6.19,29.17c0,0,.83,2,2,.93S219.1,64.65,219.1,64.65Z"/><path class="cls-6" d="M307,75.89l-6.2,8.28S301,66,300,63.17s-2.51-11.54-3.34-13.59-37.16-12.23-69.24,3c0,0,1.41,13-1.67,14.22S224.21,88,224.21,88l-5.1-5.75s-7.79-52.08-5.87-57.51,8.06-38.06,73.89-18.69c0,0,20.52-4.35,24.64,9.82S307,75.89,307,75.89Z"/><path class="cls-5" d="M296.15,161c0-.06-5.55-2.73-5.55-2.73-2.7-6-.7-31.45-.7-31.45s-55.1-14-53.53-3.3-4.74,35.64-4.74,35.64l-28.27,14s30.12,80.88,64.73,70.45,47.69-73.36,47.69-73.36Z"/><path class="cls-7" d="M237.17,135.38s8.87,11.46,24.28,11.46c10.14,0,17.42-2.84,27.52-12.69,0,0-4.38,18.7-27.45,20.44C261.52,154.59,244.8,156.72,237.17,135.38Z"/><rect class="cls-8" x="243.21" y="372.85" width="41.05" height="7.6"/><path class="cls-8" d="M386.76,79.2v7.43h43.78v41.09H438V79.2ZM89.49,127.72h7.44V86.63H140.7V79.2H89.49Zm341.05,212v41.1H386.76v7.44H438V339.71Zm-333.61,0H89.49v48.54H140.7v-7.44H96.93Z"/></svg>