<svg id="Layer_1" data-name="Layer 1" xmlns="http://www.w3.org/2000/svg" viewBox="0 0 464.68 1001.21"><defs><style>.cls-1{fill:#0e2d3d;}.cls-2{fill:#163342;}.cls-3{fill:#eea886;}.cls-4{fill:#1d3b54;}.cls-5{fill:#285173;}.cls-6{fill:#ffbf55;}.cls-7{fill:#183c59;}.cls-8{fill:#616161;}.cls-9{fill:#e0cec7;}.cls-10{fill:#eea987;}.cls-11{fill:#a77860;}</style></defs><title>hr-lady</title><path class="cls-1" d="M171.71,7s31.79,15.55,23.93,57.86-11.34,48-2.55,64.54,19.17,87.05,11.26,100.42-98-58.74-110.44-119.24,7.91-87.4,15.12-97.43S143.64-7.26,171.71,7Z"/><path class="cls-2" d="M159.71,988.85h7.21v-34s14.13,9.42,23,22.45S211,989.23,229.55,988.4s17.74-8.32,16.07-18.85S225.11,955.69,219,954s-19.94-25.51-24.39-31.32a79.17,79.17,0,0,1-9.28-15.51s-3.47-14.14-20.65,0S152.51,948.49,154.44,951,159.71,988.85,159.71,988.85Z"/><path class="cls-3" d="M196,954c6.37,4.16,23,0,23,0-4.71-6.1-33.67-46.83-33.67-46.83-17.6-10.26-24.56,3.85-24.56,3.85C168,913.25,189.64,949.87,196,954Z"/><path class="cls-3" d="M381.32,327.11s11.53,2.21,15.47-3.21c3.36-4.61,11-8.15,13.37-9.24,3.16-1.46,11.16-9.56,13-5.6s-12.55,14-15.15,16.68,14.15,3.91,17,6.54-.66,30.28-12.07,28.13-22.18-12-24.26-12a70.9,70.9,0,0,1-8.36-1.24Z"/><path class="cls-3" d="M422.55,331.15s34.49,8.91,36.29,11.43,1.21,4.35-2,3.66-33.58-7.65-33.58-7.65,39.05,17.41,41,19.15c1.13,1,.19,4.65-1.59,4.43s-41.47-15.25-41.47-15.25,36.43,16.32,37.61,18.26a2.74,2.74,0,0,1-3.45,3.78c-2.78-1-37.45-14.26-37.45-14.26s25.77,13.55,25.8,15.77c0,1.36-.65,4.54-7.19.84s-22.88-10.82-22.88-10.82Z"/><path class="cls-2" d="M66.34,991.17h4.44V966.22a54.44,54.44,0,0,1,11.49,20c3.6,11.92,16.5,15.46,36.18,14.9s20-8.32,18.29-20-18.29-17.74-18.29-17.74c-7.49-6.65-26.06-34.22-26.06-34.22S80.48,926,71.13,933.59s-6.45,24.6-6.17,29S66.34,991.17,66.34,991.17Z"/><path class="cls-4" d="M79.92,397s-23.44,30.49-29.8,66.65,3.75,157.55,3.48,175.43-16.91,62.35-13.58,96S56.47,936.36,56.47,936.36l35.92-7.13s-2.07-170.86,0-185,6.26-65.65,7.09-71.47,52.78-158.64,52.78-184.72S136.46,354.45,79.92,397Z"/><path class="cls-4" d="M197.71,408.91s38.52,147,43.09,167.39S252,613.47,252,622.11c0,20.07-7.46,52.29-7.46,52.29l-48.91,234H149S175,768,175.69,740.55s21.88-66.56,17.72-78.2-66.93-145.91-66.93-145.91S79,366.23,197.71,408.91Z"/><path class="cls-3" d="M118.45,963.45,92.39,929.23l-21.26,4.36s5.72,15.32,16.06,26.84C99.43,974.08,118.45,963.45,118.45,963.45Z"/><path class="cls-5" d="M181.8,159.07a48,48,0,0,1,27.88,14.35c12,12.86,23.26,33.36,26.4,40.22s47.2,70.41,49.49,71.84,24.43,8.82,39.11,13.76c22.64,7.62,68,24.12,68,24.12l-9,28.54S298.34,324,277,318.71c-26.14-6.44-86.32-83.64-86.32-83.64S145.79,182.5,181.8,159.07Z"/><path class="cls-6" d="M154.08,147.92s20.57,9.72,27.72,11.15,34.85,37.43,39.71,50.57,0,32.86-10,56-.57,30.86-5.14,54-3.1,109.73-2.24,122.59S70.39,474.57,43.81,451.15c0,0,18-78,39.29-100.31,4.61-4.81,4.12-36.91,1-44.91S45.5,238.21,45.5,238.21s-2.6-60.57,12.86-72.57c13.43-10.43,50-14.15,56.6-16.44S140.65,145.92,154.08,147.92Z"/><path class="cls-3" d="M163.9,124.18s-.61,5.67-1.32,13.32c-.27,3-.57,6.38-.85,9.8-.82,10.26-1.47,21.28-1.07,26.91,0,0-21.39,21.43-45.69-25,0,0,10.22-19.15,2.52-45.21S163.9,124.18,163.9,124.18Z"/><path class="cls-7" d="M223.74,274.18s5.14-34.23-.33-55c0,0,0,17.9-9.81,43.31Z"/><path class="cls-3" d="M98.54,152.5s14.7,43.43,55.08,40.24,19.14-36.67,19.14-36.67-10.07-5.77-12.9-6.32-44.63-1.07-44.63-1.07Z"/><path class="cls-5" d="M172.76,156.07s21.14,58.49,21.14,118.11,1.71,156.73,9.09,187.4,28.4,125.51,28.4,125.51l16.47-8.52s-39.61-151.37-42.6-162.28,2.27-126.23,5.11-135.88,14.92-52.63,13-64.56c-2.36-15-16.43-37.27-39.15-56.39Z"/><path class="cls-5" d="M106.52,150.67a608.69,608.69,0,0,1,19.8,96C133,300.55,105.88,550.74,87.7,607.53L17.28,596.17S32.44,419.33,53,387.15s27.12-60.66,4.91-127.83,9.74-100.44,9.74-100.44S100.34,151.37,106.52,150.67Z"/><polygon class="cls-8" points="182.49 329.14 97.11 477.03 2.18 422.23 83.86 272.19 182.49 329.14"/><polygon class="cls-9" points="172.2 334.23 96.36 465.58 12.06 416.9 84.6 283.65 172.2 334.23"/><polygon class="cls-8" points="144.22 322.43 149.54 313.21 115.46 293.53 108.81 301.98 144.22 322.43"/><path class="cls-3" d="M140.15,427.36s-3.88,0-5.58-.8c0,0-3-1.73-5.18-2.83a14.68,14.68,0,0,0-1.73-.78c-1.74-.61-5.74-1.41-9.52-4S101,400.83,101,400.83l6.32-9.61,4.63-9.83s28.07,1.81,31.87,3.85a11.66,11.66,0,0,1,1.05.63c3,2,4.46,4.83,5.94,6.08.54.46,5.6,5.41,5.42,7.52a6.92,6.92,0,0,1-3.36,5.83s-.72,5.71-3.54,8.37c0,0-.5,5.29-5,7.61C144.38,421.28,143.27,426.59,140.15,427.36Z"/><path class="cls-5" d="M82.29,159.07s-25.93-7.43-40.79,21.14S26.72,221,24.73,234.93c-1.87,13.17-10.34,49.14-11.19,52.85s-20,48-11.24,63.49,98.59,61.37,98,64.8,15.55-34.63,15.55-34.63S79.54,361.2,73.6,355c-9.67-10.12-30-21-25.86-33.59,4.92-14.75,19.69-64.52,23.12-71.8S104.15,168.35,82.29,159.07Z"/><path class="cls-10" d="M167.1,11.67s46.16,14.51,21.1,94.17-88.11-9.23-81.51-57.77S167.1,11.67,167.1,11.67Z"/><path class="cls-1" d="M192.92,58.16S170,80.67,131.59,83.48c0,0-14.75,17.3-15.88,24.09,0,0-34.25-58.38,7.85-93.38S208.39,43.74,192.92,58.16Z"/><path class="cls-10" d="M132.05,85.06c-.29-5.79-3.87-19-12.48-15.3s.52,30.57,6.24,28.91C125.81,98.67,132.76,98.78,132.05,85.06Z"/><path class="cls-11" d="M162.58,137.5c-.27,3-.57,6.38-.85,9.8,0,0-20.37-1.21-34-31.52C128.63,117.1,143.56,139,162.58,137.5Z"/></svg>