<svg id="Layer_1" data-name="Layer 1" xmlns="http://www.w3.org/2000/svg" viewBox="0 0 422.73 1005.56"><defs><style>.cls-1{fill:#292c47;}.cls-2{fill:#fff;}.cls-3{fill:#eea886;}.cls-4{fill:#424773;}.cls-5{fill:#3a3f47;}.cls-6{fill:#e2d2ca;}.cls-7{fill:#323657;}.cls-8{fill:#ffdf69;}.cls-9{fill:#ab9546;}</style></defs><title>hr-man</title><polygon class="cls-1" points="185.21 250.73 92.8 301.52 0 155.49 112.24 116.5 185.21 250.73"/><polygon class="cls-2" points="179.35 246.34 92.93 293.84 6.15 157.27 111.11 120.81 179.35 246.34"/><path class="cls-3" d="M211,220.8s-16.08-7.69-23.14-11.71-25.23-9.54-26.69-10.85-53.84-4.55-57-7.29-6.27,6.43,7.31,9.4S143.93,210.59,145,215.9,131,222.46,129.5,226.83s.43,3.39,2.57,4.32,17.81-7.73,24.7-5.27,17.42-.95,22.7.86,30.95,10.44,30.95,10.44Z"/><path class="cls-3" d="M88.3,283.2S74.78,271,68.25,266,49.44,245.9,47.63,245s-25.24-49-29.06-50.89,3.61-8.41,11.7,3.23S52.56,224,58,222.88s.75-15.7,4.28-18.83,3.36-.92,5.08.74S67,224.59,72,230.12s5.89,16.78,9.64,21,21.9,25.1,21.9,25.1Z"/><path class="cls-4" d="M379.3,933.22s2.92,20.29,3.29,23.34,32.51-1.8,32.51-1.8l2.61-24.15S383.32,930.36,379.3,933.22Z"/><path class="cls-1" d="M382.25,954s-10.19,12.23-20,17.55-25.34,7.44-31.16,13c-4.21,4-15.32,21.12,25.6,20.78s60.65,2.42,65-4.15-6.34-48.51-6.34-48.51S405.65,956.09,382.25,954Z"/><path class="cls-4" d="M148.94,933.22s2.92,20.29,3.29,23.34,32.52-1.8,32.52-1.8l2.6-24.15S153,930.36,148.94,933.22Z"/><path class="cls-1" d="M151.89,954s-10.19,12.23-20,17.55-46.11,9.71-51.93,15.22c-4.21,4-11.2,20,46.37,18.52,40.9-1.07,60.65,2.42,65-4.15S185,952.61,185,952.61,175.85,956.33,151.89,954Z"/><path class="cls-1" d="M352.68,411.91s30.21,48,27.95,91.38,11,90.75,15.5,136.07c5.05,50.53,25.76,170.14,26.51,197.17s-3.22,113.33-3.22,113.33L378,950.8s-34.81-209.11-43.82-230.45S280.44,546.9,278.94,529.83,352.68,411.91,352.68,411.91Z"/><path class="cls-1" d="M193.65,418.41s-22.76,118.91-25.77,145.47-5,128.5-6.51,145.09-10,217.18-18,241.83h53S237,805,237,736s31.42-150,51.7-195.5,66.71-46.59,79.18-131C367.88,409.45,210.53,391.63,193.65,418.41Z"/><path class="cls-3" d="M302.27,8.39S261.72-6.76,243,24.11s-16.89,92.65,3.55,100.25,51.14,3.63,61.6-15.69,19.91-47.23,19.46-65.89S312.91,13.77,302.27,8.39Z"/><path class="cls-3" d="M251,125.78s1.69,10.94-1.1,16.34,52.53,5.53,52.53,5.53,4.49-29.33,13-54.12S251,125.78,251,125.78Z"/><path class="cls-5" d="M315.4,93.53s-3.81,6.3-19.4,3.86-34.6-23.18-41.11-25.46-6.56-6.1-6.56-6.1l-4.08,6-6.91.44s6.3-18.55-3.21-26.11S244-13.93,294,3.54c0,0,38.39,10.58,37,32.42S324,82.66,315.4,93.53Z"/><path class="cls-6" d="M246.58,141.47s.18-10.31,4.85-11.29,51.55-5.5,57.28-3.25v12S297.67,145.74,246.58,141.47Z"/><path class="cls-3" d="M249.36,57.89c.87-3.66,10.18-14.13,13.75-2.92s-5.39,26.28-10.38,25S247.14,67.18,249.36,57.89Z"/><path class="cls-7" d="M60.52,263.21h.08C60.28,263.34,60.23,263.36,60.52,263.21Z"/><path class="cls-8" d="M386.76,526.25s-24.87,7.32-67.27,12-148.36-1.69-149-6.69S193.26,345,191.92,335.65s-2-42.65-2-42.65c-.52,9.12-9.82,46.4-21,66.73-4.06,7.34-17.67,30.35-24.22,25.12C112.87,359.51,63.72,264,60.6,263.2c2.62-1.13,23.29-10.65,26.19-11.62,2.55-.85,25.44,23.4,39.32,38.42,6.18,6.7,10.58,11.57,10.58,11.57,4-9,18.6-65.8,23.13-85.45,10.23-44.33,8.66-46.17,8.66-46.17,31-9.38,78.11-28.48,78.11-28.48l62.13-2.53s57,12.55,79.48,22.69c2.13,1,2.14,50.87,8,64l-18.62,39.28s-10.75,77.81-13,112.41C363.55,393.17,386.76,526.25,386.76,526.25Z"/><path class="cls-8" d="M398.76,290.39c-1.62,5.23-9,9.66-13.77,11.59a17.82,17.82,0,0,1-9.95,1l-2.43-.45h0L330,294.63s-9.32-107.29,58.17-133C390,162.22,413.66,242.35,398.76,290.39Z"/><path class="cls-9" d="M385,302h0a17.82,17.82,0,0,1-9.95,1l-2.43-.45h0l4.2-54.83Z"/><path class="cls-9" d="M136.69,301.57l-5.21,22s-5.64-22.11-5.37-33.61C132.29,296.7,136.69,301.57,136.69,301.57Z"/><path class="cls-5" d="M313.82,12s53.14-6.66.9,82.11Z"/><polygon class="cls-1" points="42.72 147.65 37.32 138.37 79.86 123.69 85.27 132.92 42.72 147.65"/></svg>