<svg id="Layer_1" data-name="Layer 1" xmlns="http://www.w3.org/2000/svg" viewBox="0 0 188.49 218.73"><defs><style>.cls-1{fill:#443731;}.cls-2{fill:#776358;}.cls-3{fill:#ffb5ac;}.cls-4{fill:#927c6e;}.cls-5{fill:#cfb8a8;}.cls-6{fill:#332620;}.cls-7{fill:#fff;}.cls-8{fill:#a89084;}</style></defs><title>mice-3</title><path class="cls-1" d="M235.39,86.78c-4.91-.31-9.81-.76-14.74-.6s-9.92.55-14.86,1.17a140.41,140.41,0,0,0-14.69,2.52c-2.6.6-5.2,1.19-7.77,1.94-1.74.52-4,.86-5.5,1.91a.22.22,0,0,0-.1.15,1.11,1.11,0,0,0-.32.21c-.13.13.05.39.21.27a.86.86,0,0,1,.35-.14.16.16,0,0,0,.12,0,10.34,10.34,0,0,0,1.64-.13c1.08-.09,2.14-.2,3.23-.22,2.47,0,4.93-.12,7.4-.11,4.65,0,9.25.34,13.88.44a111.74,111.74,0,0,1,30.26,5c.23.07.39-.3.17-.4a66.4,66.4,0,0,0-15-3.92,110.26,110.26,0,0,0-15.4-1.35c-4.89-.09-9.74-.4-14.64-.38-1.61,0-3.23,0-4.84.08,1.8-.25,3.57-.62,5.37-.77,4.61-.38,9.27-.79,13.86-1.31s9.08-.48,13.6-.71c5-.26,10,.6,15,.66a.18.18,0,0,0,0-.35c-9.48-.89-19.13-1.33-28.62-.17-4.59.57-9.26.89-13.86,1.33-3.12.3-6.22,1-9.31,1.48-.46,0-1,0-1.58.07a46.25,46.25,0,0,1,5-1.43c2.31-.67,4.67-1.15,7-1.71a138.36,138.36,0,0,1,15.25-2.6c4.71-.58,9.42-.9,14.15-1.07,4.92-.17,9.82.38,14.74.43A.19.19,0,0,0,235.39,86.78Z" transform="translate(-47.09 -18.15)"/><path class="cls-2" d="M135.44,112.24a.6.6,0,0,0,.29,1,.62.62,0,0,0,.46.53c.64,1.28.76,3,1.29,4.29.75,1.83,1.33,3.71,2.07,5.56a66.2,66.2,0,0,0,6,11.2,44.19,44.19,0,0,0,8.11,9.1,43,43,0,0,0,5.16,3.95,33.44,33.44,0,0,0,3.49,1.75,6.87,6.87,0,0,1,3,3.56,47.84,47.84,0,0,1,1.41,6.6c.12.61.73,6.06,2.12,3.72.62-1,.19-3.62.18-4.81,0-.73.18-2.43-.47-2.92.69.52,1.26,1.22,1.9,1.8a28.34,28.34,0,0,0,5.28,3.83c.87.49,2.66,1.73,3.6.84a.38.38,0,0,0,.07-.38c-.43-1.53-2.32-2.89-3.4-4s-1.94-2.12-2.92-3.16a24.18,24.18,0,0,1-2.42-2.57c2.15.43,4.3,1.09,6.43,1.59.35.08,4.34,1.13,4.08-.12-.35-1.74-3.65-2.6-5-3.16a42.66,42.66,0,0,0-6.25-2.45,10.8,10.8,0,0,0,2.31-1.51,5.23,5.23,0,0,0,1.64-2.94.42.42,0,0,0-.57-.46c-1,.32-2,1.37-3,1.83a7.93,7.93,0,0,1-4.78.61,36.75,36.75,0,0,1-11.28-8.61,78.08,78.08,0,0,1-8-11.49c-2.13-3.6-2.66-8-4.31-11.82C140.69,110.76,137.68,110.07,135.44,112.24Z" transform="translate(-47.09 -18.15)"/><path class="cls-3" d="M102.48,166.72a15.22,15.22,0,0,0-1-2.89c-.17-.4-.2-.89-.6-1.13a.18.18,0,0,0-.28.14.47.47,0,0,1-.12-.07l.29-.13c.18-.08,0-.39-.13-.32l-1.09.4h-.12a.12.12,0,0,0-.11.08c-.95.35-1.91.69-2.87,1-1.53.52-3.12.85-4.64,1.39a15.53,15.53,0,0,1-4.51.54c-1.62.07-3.23.05-4.84,0a22.55,22.55,0,0,1-9.17-1.58c-2.75-1.24-5.08-4-6.63-6.5a26.59,26.59,0,0,1-3.08-9.06,39.59,39.59,0,0,1-.48-9.9c.13-1.55-.13-3.2.13-4.73s.34-3,.61-4.51c.52-2.93,1-5.86,1.5-8.79a36.78,36.78,0,0,0,.53-4c.1-1.56.52-3.09.69-4.64.35-3.36.85-6.72,1.3-10.07a36,36,0,0,0,.33-4.28c0-1.61.27-3.2.16-4.81-.22-3.07-.2-6.15-.65-9.2s-1.49-6.2-2.17-9.34c-.32-1.43-1.06-2.67-1.48-4.07a20.7,20.7,0,0,0-1.6-3.68,27.74,27.74,0,0,0-2.08-3.73c-.93-1.25-1.81-2.54-2.82-3.72a40.35,40.35,0,0,0-6.45-5.94A20.62,20.62,0,0,0,49.37,52c-.34-.21-1.3-.46-1.5-.79a.21.21,0,0,0-.18-.11h-.24a.2.2,0,0,0-.28,0,.19.19,0,0,0,.09.35c2.19,2,4.64,3.73,6.41,6.16a74.5,74.5,0,0,1,5,7.75c3.21,5.79,4.15,12.08,5.29,18.5.12.63,0,1.28.1,1.9a22,22,0,0,1,.27,2.43c.09,1.68,0,3.38,0,5.06,0,1.47-.08,2.9-.17,4.37a20.89,20.89,0,0,1-.11,2.37l-.45,2.67c-.55,3.28-1,6.62-1.8,9.84s-1.32,6.28-2.28,9.35a29.31,29.31,0,0,0-.73,4.27c-.22,1.57-.72,3.09-.92,4.67a75.38,75.38,0,0,0-.61,9.61c0,1.57,0,3.13.14,4.69s.43,3,.67,4.54a29.71,29.71,0,0,0,1,3.92,40.41,40.41,0,0,0,1.62,4.2,28.83,28.83,0,0,0,2,4.09,24,24,0,0,0,2.74,3.37,23.51,23.51,0,0,0,7.06,5.24,31.12,31.12,0,0,0,8.48,2.38,33.27,33.27,0,0,0,9.4.19c2.11-.25,4.23-.43,6.33-.75,1.2-.19,2.36-.5,3.53-.8a8,8,0,0,0,1.91-.65.25.25,0,0,0,.21.13l.39.15a.22.22,0,0,0,.33-.14C103.39,169.63,102.72,168.07,102.48,166.72Z" transform="translate(-47.09 -18.15)"/><path class="cls-2" d="M129.74,173.42a3.26,3.26,0,0,0-2.13,1.6,3.78,3.78,0,0,0-.66,1.86c-.16.06-.2.35,0,.4,1.35.4,2.41,2,3.12,3.11a23.44,23.44,0,0,1,2.24,4.85,41.38,41.38,0,0,1,1.88,9.48,27.52,27.52,0,0,1-1.1,9.5,20.38,20.38,0,0,1-4.32,8.26,14.2,14.2,0,0,1-1.64,1.83c-.5.42-1,.81-1.52,1.21s-1.14.47-1.65.81a3.73,3.73,0,0,0-1.21,1.32,1.93,1.93,0,0,0,0,2.09,4.18,4.18,0,0,0,.91,1c.67.6,1.26,1.28,1.92,1.89a32.34,32.34,0,0,0,7.67,5.53,9.24,9.24,0,0,0,7.15.9,13.92,13.92,0,0,0,4.72-2.26,25.61,25.61,0,0,1,2.28-1.43,24,24,0,0,0,2.17-1.84c.72-.56,2.36-1.86,1.93-3a2.18,2.18,0,0,0-.56-.86c1.12-.74.71-2.84-.47-3.58a2.16,2.16,0,0,0-1.11-.31c-.64-.47-1-1-1.95-.9-2.55.18-4.14,2-5.31,4.1-.78,1.41-1.27,2.85-2.72,3.71s-3,.36-4.42-.61c-1.86-1.32-3.56-2.82-5.31-4.25.36-.29.79-.47,1.15-.75s.65-.84,1-1.17a19.21,19.21,0,0,0,2.51-2.74,23.73,23.73,0,0,0,3.66-6.6c1.86-5.05,2.1-10.48,1.79-15.8A27.48,27.48,0,0,0,138,183.1a22.65,22.65,0,0,0-3.31-6.81C133.44,174.68,132,173.07,129.74,173.42Z" transform="translate(-47.09 -18.15)"/><path class="cls-4" d="M151.89,131a145.55,145.55,0,0,0-4.49-21.76c-.74-2.55-1.18-3.92-3-5.54A33,33,0,0,0,137.84,99a64.79,64.79,0,0,0-7.67-3.25,34.57,34.57,0,0,0-7.4-1.49.42.42,0,0,0-.3,0c-.42-.14-.9.37-.64,1,1.14,2.74-.24,7.6-.94,10.3a79,79,0,0,1-4,11.45c-1.46,3.4-3.29,6.62-4.92,9.92a104.94,104.94,0,0,1-5.75,10.75c-3.62,5.51-7.34,11.67-8.78,18.59a24.31,24.31,0,0,0,3.45,17.54C108,185,122,186.22,132.15,181.59a36.46,36.46,0,0,0,13.1-10.65c4.15-5.08,6.2-11.69,7.15-18.63C153.37,145.2,152.78,138,151.89,131Z" transform="translate(-47.09 -18.15)"/><path class="cls-4" d="M119.16,106.08a.6.6,0,0,0-.45.92.62.62,0,0,0,0,.7c-.41,1.38-1.49,2.7-2,4-.71,1.86-1.56,3.63-2.28,5.48a66.58,66.58,0,0,0-3.27,12.28,44.45,44.45,0,0,0-.27,12.19,43.18,43.18,0,0,0,1.07,6.4,33.13,33.13,0,0,0,1.37,3.67,6.88,6.88,0,0,1-.22,4.66,46.43,46.43,0,0,1-3.47,5.79c-.33.52-3.61,4.93-1,4.17,1.16-.34,2.61-2.52,3.41-3.4.49-.54,1.79-1.65,1.66-2.45.14.85.08,1.75.15,2.61a28.52,28.52,0,0,0,1.25,6.41c.3.95.77,3.08,2.07,3.06a.38.38,0,0,0,.3-.23c.73-1.41.28-3.69.21-5.21s0-2.87,0-4.3a25.79,25.79,0,0,1,0-3.53c1.28,1.78,2.4,3.73,3.62,5.55.2.3,2.4,3.79,3.07,2.7.93-1.51-.9-4.39-1.52-5.73a42,42,0,0,0-2.89-6.06,10.61,10.61,0,0,0,2.71.47,5.32,5.32,0,0,0,3.21-1,.43.43,0,0,0-.1-.73c-1-.46-2.38-.34-3.42-.68a8,8,0,0,1-3.92-2.82,36.79,36.79,0,0,1-2.37-14,77.13,77.13,0,0,1,2-13.87c.9-4.09,3.51-7.67,4.91-11.59C124,108.59,122.28,106,119.16,106.08Z" transform="translate(-47.09 -18.15)"/><path class="cls-5" d="M148.41,129.09a103.48,103.48,0,0,0-3.82-21.31c-1-3.34-2.67-6.22-5.31-7.82a10.61,10.61,0,0,0-3.86-1.35,9.63,9.63,0,0,0-3.61-.28.77.77,0,0,0-.48.76v.13a.31.31,0,0,0,0,.1.71.71,0,0,0,0,.2c1.71,7,.5,15-1.43,21.81a110.73,110.73,0,0,1-8.61,20.93c-2.9,5.6-7.47,12.24-6.77,19.3a13.79,13.79,0,0,0,9.32,11.65c11.16,3.47,20.9-10.24,23.46-22C148.9,144,148.91,136.45,148.41,129.09Z" transform="translate(-47.09 -18.15)"/><path class="cls-2" d="M187.16,32.32c-7.41-9.84-20.71-2.71-27.46,4.09a53.62,53.62,0,0,0-7.74,9.2c-1.12,1.79-1.87,3.74-2.87,5.59a18.37,18.37,0,0,0-2.19,5.54.36.36,0,0,0,.13.32,8.07,8.07,0,0,0-.09,3.36,43.47,43.47,0,0,0,2.58,8.26c1.92,4.47,4.46,9.69,9.27,11.57,2,.81,4,1.29,6.12.27,2.28-1.13,3.73-3.48,5.17-5.48,3.77-5.21,8.91-9.13,13.45-13.62,3.68-3.63,6.85-8.64,7.51-13.85A21.62,21.62,0,0,0,187.16,32.32Z" transform="translate(-47.09 -18.15)"/><path class="cls-3" d="M182.44,31.46c-2.19-.6-5.2.53-7.26,1.2-10.55,3.4-18.35,12.48-22.05,22.63a50.13,50.13,0,0,0-2.37,12.51c-.1,1.13-.13,2.25-.12,3.38,1.81,3.77,4.22,7.53,8.15,9.07,2,.81,4,1.29,6.12.27,2.28-1.13,3.73-3.48,5.17-5.48,3.77-5.21,8.91-9.13,13.45-13.62,3.68-3.63,6.85-8.64,7.51-13.85a22.11,22.11,0,0,0-.81-9.11,13.7,13.7,0,0,0-2-3.32A10.26,10.26,0,0,0,182.44,31.46Z" transform="translate(-47.09 -18.15)"/><path class="cls-1" d="M165.68,71.63c0,4.06,4,5.7,7.31,3.8,1.79-1,2.07-3.56,1.11-5.2a5.51,5.51,0,0,0-.86-1.54c-1.11-1.5-3.57-1.25-5-.66A3.9,3.9,0,0,0,165.68,71.63Z" transform="translate(-47.09 -18.15)"/><path class="cls-1" d="M174.18,68.36a5.1,5.1,0,0,0,2.54-.67,5.61,5.61,0,0,0,1.05-1.23,8.29,8.29,0,0,1,.67-1.12.34.34,0,0,1,.49,0c.9,1.13-.46,2.85-1.34,3.57s-2.82,1.33-3.7.15A.48.48,0,0,1,174.18,68.36Z" transform="translate(-47.09 -18.15)"/><path class="cls-1" d="M171.66,66.44a8.33,8.33,0,0,0,2.24-1.1,5.85,5.85,0,0,0,.82-1c.2-.3.27-.66.54-.9a.48.48,0,0,1,.68,0c.65.84-.26,2.11-.84,2.76-.85,1-2.17,1.77-3.44,1.21A.58.58,0,0,1,171.66,66.44Z" transform="translate(-47.09 -18.15)"/><path class="cls-6" d="M171.65,71.25a1.93,1.93,0,0,0-.22-.58,2.4,2.4,0,0,0-1.11-1,1.83,1.83,0,0,0-1.4-.1,1.71,1.71,0,0,0-.64.21,1.88,1.88,0,0,0-.87,2,2,2,0,0,0,.22.63l.06.22c.54,1.47,2.54,1.46,3.5.49A1.85,1.85,0,0,0,171.65,71.25Z" transform="translate(-47.09 -18.15)"/><path class="cls-7" d="M168.14,71.68a1,1,0,0,0-.53.2.82.82,0,0,0-.17.11,1.51,1.51,0,0,0,1.07,2.54A1.48,1.48,0,0,0,169.79,73,1.45,1.45,0,0,0,168.14,71.68Z" transform="translate(-47.09 -18.15)"/><path class="cls-7" d="M171.93,72.89a.72.72,0,0,0-.72-.53.66.66,0,0,0-.68.63.77.77,0,0,0,0,.3.71.71,0,0,0,1.15.39A.82.82,0,0,0,171.93,72.89Z" transform="translate(-47.09 -18.15)"/><path class="cls-7" d="M168.43,69.54a.41.41,0,0,0-.41-.1.24.24,0,0,0-.15.06s0,0-.05,0l0,0a.53.53,0,0,0-.12.62.41.41,0,0,0,.5.28A.56.56,0,0,0,168.43,69.54Z" transform="translate(-47.09 -18.15)"/><path class="cls-8" d="M177,94.54a.49.49,0,0,0-.37-.46c-2.74-.86-5.1-4.23-5.68-7-.68-3.25-.48-6.54-.49-9.84a37,37,0,0,0-4-15.9A28,28,0,0,0,156,50c-5.14-3.07-10.68-3.92-16.48-4.87-5-.81-11.4-.33-15.92,2a18.79,18.79,0,0,0-5.6,5,35.4,35.4,0,0,0-4.94,7.6c-2.25,4.95-1.87,10.84-1.86,16.12,0,5.61,2.16,11.32,5.07,16,3.08,5,7.71,9.53,13.23,11.68a54.61,54.61,0,0,0,19.8,3.31c6.65,0,13.91-1.22,19.73-4.59,2.24-1.29,5.81-2.66,7.25-4.95C176.74,96.62,177.48,95.34,177,94.54Z" transform="translate(-47.09 -18.15)"/><path class="cls-1" d="M186.27,78.82c-5-2.73-10.68,1.59-13.07,5.8a11.89,11.89,0,0,0-1.09,7.71A5.32,5.32,0,0,0,175,95.87c2.6,2.77,9-3.57,10.43-5.37C187.89,87.28,191.17,81.5,186.27,78.82Z" transform="translate(-47.09 -18.15)"/><path class="cls-3" d="M130.68,81.16a6,6,0,0,0-4.61-1.29,3,3,0,0,0-1.51.89A7.16,7.16,0,0,0,121.94,86c-.08,1.64,1.45,3,2.73,3.71a5.46,5.46,0,0,0,5.09,0C133.35,88.16,133.37,83.49,130.68,81.16Z" transform="translate(-47.09 -18.15)"/><path class="cls-4" d="M126,63.81c-.59-5.61,0-11.21-.92-16.82a45.47,45.47,0,0,0-6-16C116.41,26.36,113,22.19,108,20a19.3,19.3,0,0,0-15.51-.45c-10.32,4.19-15.23,15.87-17.83,25.9-2.9,11.18-1.69,24.19,5.16,33.68,2.93,4,7.12,7.19,12.24,7.43a19.18,19.18,0,0,0,7.65-1.15c2.74-1,5.07-3,7.57-4.44s4.55-3.18,7-4.48,5.61-1.79,7.75-3.65c1.57-1.37,3.41-3.29,3.72-5.43C125.92,66.33,126.05,64,126,63.81Z" transform="translate(-47.09 -18.15)"/><path class="cls-3" d="M126,63.81c0-.14,0-.29,0-.43-1.71-1.94-4.26-2.84-5.73-5A23.39,23.39,0,0,1,117,49.93c-.63-3.2-1.46-6.22-1.81-9.49-.31-2.92-.77-5.73-1.29-8.62-1-5.36-4.08-8.86-9.06-11a19,19,0,0,0-15.06.23c-.44.21-.88.43-1.31.66C80.81,27,76.85,36.83,74.61,45.47a46.08,46.08,0,0,0-1.46,10.38c.08.56.16,1.12.25,1.68.79,5.21,2.71,10.87,6.06,15A21.35,21.35,0,0,0,93,80.74,17.5,17.5,0,0,0,100.9,80c2.62-.85,4.9-2.56,7.33-3.81a25.61,25.61,0,0,1,8.21-2.44c1.63-.2,3.3-.26,5-.4a6,6,0,0,0,.64-.49c1.57-1.37,3.41-3.29,3.72-5.43C125.92,66.33,126.05,64,126,63.81Z" transform="translate(-47.09 -18.15)"/><path class="cls-2" d="M154.2,97.81a13.7,13.7,0,0,1-8.13-1.59c-2.86-1.56-4.47-4.84-5-8a2,2,0,0,0,0-.43.37.37,0,0,0-.16-.34.17.17,0,0,0,0-.07c0-.17-.26-.29-.35-.1l0,.07a.39.39,0,0,0-.35.32c-.14.72-1,1.49-1.38,2.07a9.53,9.53,0,0,0-1.63,3.9,7.8,7.8,0,0,0,2.94,7.48c2,1.59,5.07,1.57,7.44,1.09s5.72-1.3,7.09-3.61A.53.53,0,0,0,154.2,97.81Z" transform="translate(-47.09 -18.15)"/><path class="cls-4" d="M145.76,231.46a1.61,1.61,0,0,0-.4-.75.79.79,0,0,0,0-.59A4,4,0,0,0,144,228c-1.91-1.29-4.66-.22-6.59.37a56.83,56.83,0,0,1-8.26,1.9,18.73,18.73,0,0,1-7.57-.18,1.94,1.94,0,0,1-.59,0,3.12,3.12,0,0,0-1.19-.09c.11-.36,3.92-13.67,3.13-21.77-1.39-14.26-9.75-29.3-9.82-30.53,0-.94-.12-1.87-.13-2.83a2.6,2.6,0,0,0-.49-1.64c-.41-.5-1.59-.19-2.13-.18a1.18,1.18,0,0,0-.63.34,6.59,6.59,0,0,1-1.72,1.09c-.33.16-.64.64-1,.85a.23.23,0,0,0-.08.12.19.19,0,0,0-.17.21c.07.79.29,1.56.43,2.34.19,1.07,5.84,17.9,9.16,26.87,2.54,6.87,1.89,16.23.9,22-.31,1.8-1.65,4.66-1.78,6.48,0,0,0,.08,0,.13a3.17,3.17,0,0,0-.07,1.39c.12,1,1.51,1.48,2.34,1.67a15.19,15.19,0,0,0,4.71,0,10.82,10.82,0,0,1,1.25.13,5.15,5.15,0,0,0,1-.12,7.21,7.21,0,0,1,1.3.11c.5,0,1,0,1.5,0,4,0,7.89.26,11.83.25,1.24,0,2.9.05,4-.66a1.77,1.77,0,0,0,.7-1.79,5.38,5.38,0,0,0,1-.55A2.31,2.31,0,0,0,145.76,231.46Z" transform="translate(-47.09 -18.15)"/><path class="cls-3" d="M143.27,236.22a1.77,1.77,0,0,0,.7-1.79,5.38,5.38,0,0,0,1-.55,2.31,2.31,0,0,0,.78-2.42,1.61,1.61,0,0,0-.4-.75.79.79,0,0,0,0-.59A4,4,0,0,0,144,228c-1.91-1.29-4.66-.22-6.59.37a56.83,56.83,0,0,1-8.26,1.9,18.73,18.73,0,0,1-7.57-.18,1.94,1.94,0,0,1-.59,0,3.12,3.12,0,0,0-1.19-.09c0-.05.1-.34.23-.82a2.29,2.29,0,0,1-.9-.22,1.16,1.16,0,0,0-1.14,0c-.63.38-1,.36-1.33.14a20.27,20.27,0,0,0-1.15,4.22s0,.08,0,.13a3.17,3.17,0,0,0-.07,1.39c.12,1,1.51,1.48,2.34,1.67a15.19,15.19,0,0,0,4.71,0,10.82,10.82,0,0,1,1.25.13,5.15,5.15,0,0,0,1-.12,7.21,7.21,0,0,1,1.3.11c.5,0,1,0,1.5,0,4,0,7.89.26,11.83.25C140.53,236.88,142.19,236.93,143.27,236.22Z" transform="translate(-47.09 -18.15)"/><path class="cls-3" d="M149.32,215.79c-.64-.47-1-1-1.95-.9-2.55.18-4.14,2-5.31,4.1-.78,1.41-1.27,2.85-2.72,3.71s-3,.36-4.42-.61c-1.86-1.32-3.56-2.82-5.31-4.25.32-.26.7-.43,1-.66l-.07,0c-.6-.27-1,.23-1.57-.51a.42.42,0,0,0-.58-.07,4,4,0,0,1-.43.29,1.23,1.23,0,0,0-.73-1,3.22,3.22,0,0,0-1-.06c-.22,0-.39-.17-.52-.42l-.15.12c-.5.4-1.14.47-1.65.81a3.73,3.73,0,0,0-1.21,1.32,1.93,1.93,0,0,0,0,2.09,4.18,4.18,0,0,0,.91,1c.67.6,1.26,1.28,1.92,1.89a32.34,32.34,0,0,0,7.67,5.53,9.24,9.24,0,0,0,7.15.9,13.92,13.92,0,0,0,4.72-2.26,25.61,25.61,0,0,1,2.28-1.43,24,24,0,0,0,2.17-1.84c.72-.56,2.36-1.86,1.93-3a2.18,2.18,0,0,0-.56-.86c1.12-.74.71-2.84-.47-3.58A2.16,2.16,0,0,0,149.32,215.79Z" transform="translate(-47.09 -18.15)"/><path class="cls-3" d="M175.94,158.1c-1-1-1.91-2.15-2.87-3.21a24.57,24.57,0,0,1-2.39-2.6c2.15.46,4.29,1.16,6.41,1.68.35.09,4.32,1.2,4.09-.06-.33-1.74-3.62-2.64-5-3.22a42.62,42.62,0,0,0-6.21-2.55,11,11,0,0,0,2.33-1.47,5.34,5.34,0,0,0,1.69-2.92.43.43,0,0,0-.57-.47c-1,.3-2,1.34-3,1.78a8,8,0,0,1-4.8.54c-.59-.32-1.18-.65-1.76-1h0a5.41,5.41,0,0,0,.72,1.38,4.32,4.32,0,0,0-1.72,0,.46.46,0,0,0-.22.69c.19.24.45.49.67.75a1.59,1.59,0,0,0-.37.14.44.44,0,0,0-.19.4c0,.62.12.62-.41,1a.8.8,0,0,0-.26.55l.24.12a6.85,6.85,0,0,1,3,3.6,47.87,47.87,0,0,1,1.32,6.62c.1.61.63,6.08,2.06,3.76.63-1,.24-3.62.25-4.81,0-.74.22-2.43-.43-2.93.68.53,1.24,1.24,1.87,1.83a28.86,28.86,0,0,0,5.23,3.91c.87.5,2.64,1.77,3.59.89a.4.4,0,0,0,.07-.38C178.87,160.56,177,159.17,175.94,158.1Z" transform="translate(-47.09 -18.15)"/><path class="cls-3" d="M125.79,155c-1-.47-2.37-.35-3.41-.7a8,8,0,0,1-3.9-2.85q-.3-.84-.57-1.71h0a.48.48,0,0,0-.49.29l0,.06a5.74,5.74,0,0,0-.6-.61.48.48,0,0,0-.72.19c-.22.57-.31,1.71-1,1a1,1,0,0,0-1-.2c-.44.17-.51.62-.54,1,0,.24.21.82-.18.7a6.8,6.8,0,0,1-.25,4.65,47.57,47.57,0,0,1-3.49,5.77c-.34.52-3.64,4.91-1,4.16,1.17-.33,2.63-2.5,3.43-3.38.5-.53,1.8-1.64,1.67-2.44.14.85.08,1.75.14,2.61A28.67,28.67,0,0,0,115,170c.3,1,.75,3.08,2,3.07a.38.38,0,0,0,.31-.23c.74-1.4.3-3.69.23-5.2s0-2.88.06-4.3a24.36,24.36,0,0,1,0-3.53c1.27,1.78,2.38,3.74,3.59,5.56.2.3,2.38,3.81,3.06,2.72.93-1.51-.88-4.4-1.49-5.74a44.24,44.24,0,0,0-2.86-6.08,10.63,10.63,0,0,0,2.71.49,5.31,5.31,0,0,0,3.21-1A.43.43,0,0,0,125.79,155Z" transform="translate(-47.09 -18.15)"/><path class="cls-7" d="M142.36,92.21a11.76,11.76,0,0,0-1.08,1.45,16.11,16.11,0,0,0-2.2,4.87,7.61,7.61,0,0,0-.1,3.29c.24,1,2.31.91,3,.9,2.76,0,5.56-3,6.9-5.34a13.4,13.4,0,0,1-2.83-1.16A9.23,9.23,0,0,1,142.36,92.21Z" transform="translate(-47.09 -18.15)"/><path class="cls-5" d="M144.83,95.9a5,5,0,0,0-.65,1.13c-.39.64-.86,1.25-1.3,1.86a13.45,13.45,0,0,1-2.91,3.2h0c-.22.12,0,.52.22.37a10.9,10.9,0,0,0,2.74-2.72c.8-1,2-2.41,2.18-3.73C145.13,95.87,144.92,95.82,144.83,95.9Z" transform="translate(-47.09 -18.15)"/><path class="cls-1" d="M169.85,94.73a.3.3,0,0,0-.17-.38c-6.42-2.54-13.9-3.69-20.75-4.36-4.09-.4-8.18-1.06-12.29-1.14-3.58-.07-7.17-.7-10.75-.7-4.08,0-8.14-.08-12.23,0-3.94.06-7.84.56-11.76.74-8,.37-16.25,1.54-23.74,4.43-.25.1-.16.5.12.42A82.38,82.38,0,0,1,89.43,91c4.13-.61,8.3-1.17,12.47-1.41,7.79-.44,15.47-1,23.28-.75,7.4.22,14.91.73,22.26,1.64,6.63.81,13.5,1.65,19.92,3.67l-1.2-.16a48.33,48.33,0,0,0-6-.77c-2.17,0-4.33-.5-6.49-.66s-4.47-.16-6.7-.26a205.64,205.64,0,0,0-27.41.94c-9.22.84-18.38,1.83-27.51,3.36a167.68,167.68,0,0,0-26.54,7.05.16.16,0,0,0,.09.3c8.53-2.4,17.15-4.89,25.87-6.51,9.29-1.74,18.69-2.66,28.09-3.58a223.71,223.71,0,0,1,26.65-1c4.23.09,8.42.34,12.62.82,2.39.27,4.77.5,7.16.82-13.36-.73-26.87-1.29-40.14.54-14.31,2-28.26,5.3-41.38,11.47-.27.13-.07.61.21.49a187.74,187.74,0,0,1,19.77-7.11,166.94,166.94,0,0,1,20.8-4.09,161.12,161.12,0,0,1,23.24-1.27c3.59,0,7.19.13,10.78.22,3.42.09,6.8.52,10.22.38h.24A.2.2,0,0,0,169.85,94.73Z" transform="translate(-47.09 -18.15)"/><path class="cls-1" d="M141.66,68c-1.47-.59-3.93-.84-5,.66a5.77,5.77,0,0,0-.86,1.54c-.95,1.64-.68,4.19,1.11,5.2,3.34,1.9,7.28.26,7.31-3.8A3.9,3.9,0,0,0,141.66,68Z" transform="translate(-47.09 -18.15)"/><path class="cls-1" d="M134.3,68.36a5.07,5.07,0,0,1-2.54-.67,5.35,5.35,0,0,1-1-1.23,8.29,8.29,0,0,0-.67-1.12.35.35,0,0,0-.5,0c-.89,1.13.47,2.85,1.35,3.57s2.82,1.33,3.7.15A.48.48,0,0,0,134.3,68.36Z" transform="translate(-47.09 -18.15)"/><path class="cls-1" d="M136.13,66.44a8.33,8.33,0,0,1-2.24-1.1,5.85,5.85,0,0,1-.82-1c-.2-.3-.27-.66-.54-.9a.48.48,0,0,0-.68,0c-.66.84.26,2.11.84,2.76.85,1,2.17,1.77,3.44,1.21A.58.58,0,0,0,136.13,66.44Z" transform="translate(-47.09 -18.15)"/><path class="cls-6" d="M141,71.25a2,2,0,0,0-.23-.58,2.38,2.38,0,0,0-1.1-1,1.83,1.83,0,0,0-1.4-.1,1.76,1.76,0,0,0-.65.21,1.89,1.89,0,0,0-.86,2,1.63,1.63,0,0,0,.22.63,1.41,1.41,0,0,0,.06.22c.53,1.47,2.53,1.46,3.49.49A1.88,1.88,0,0,0,141,71.25Z" transform="translate(-47.09 -18.15)"/><path class="cls-7" d="M137.48,71.68a1,1,0,0,0-.53.2.76.76,0,0,0-.16.11,1.43,1.43,0,0,0-.41,1,1.45,1.45,0,0,0,1.47,1.5A1.5,1.5,0,0,0,139.14,73,1.46,1.46,0,0,0,137.48,71.68Z" transform="translate(-47.09 -18.15)"/><path class="cls-7" d="M141.27,72.89a.71.71,0,0,0-.72-.53.67.67,0,0,0-.68.63.78.78,0,0,0,0,.3.71.71,0,0,0,1.14.39A.8.8,0,0,0,141.27,72.89Z" transform="translate(-47.09 -18.15)"/><path class="cls-7" d="M137.77,69.54a.39.39,0,0,0-.4-.1.24.24,0,0,0-.15.06.12.12,0,0,0-.05,0l0,0a.55.55,0,0,0-.12.62.42.42,0,0,0,.5.28A.56.56,0,0,0,137.77,69.54Z" transform="translate(-47.09 -18.15)"/><path class="cls-7" d="M187,81.47a5.1,5.1,0,0,0-3.05-2.36,3.38,3.38,0,0,0-2.72.07.86.86,0,0,0-.3.42,1,1,0,0,0-.41.85c0,.86,1.31.78,1.87.76,1.61,0,2.21,1.62,3.66,1.9C186.89,83.28,187.25,82.1,187,81.47Z" transform="translate(-47.09 -18.15)"/><path class="cls-7" d="M179.59,81.18c-.21-.57-1.05-1-1.51-.45a1,1,0,0,0-.21.67.43.43,0,0,0,0,.11.88.88,0,0,0,.54.78.81.81,0,0,0,.94-.08A1,1,0,0,0,179.59,81.18Z" transform="translate(-47.09 -18.15)"/></svg>