<svg id="Layer_1" data-name="Layer 1" xmlns="http://www.w3.org/2000/svg" viewBox="0 0 188.49 209.33"><defs><style>.cls-1{fill:#443731;}.cls-2{fill:#776358;}.cls-3{fill:#ffb5ac;}.cls-4{fill:#927c6e;}.cls-5{fill:#cfb8a8;}.cls-6{fill:#332620;}.cls-7{fill:#fff;}.cls-8{fill:#a89084;}</style></defs><title>mice-6</title><path class="cls-1" d="M235.39,86.78c-4.91-.31-9.81-.76-14.74-.6s-9.92.55-14.86,1.17a140.41,140.41,0,0,0-14.69,2.52c-2.6.6-5.2,1.19-7.77,1.94-1.74.52-4,.86-5.5,1.91a.22.22,0,0,0-.1.15,1.11,1.11,0,0,0-.32.21c-.13.13.05.39.21.27a.86.86,0,0,1,.35-.14.16.16,0,0,0,.12,0,10.34,10.34,0,0,0,1.64-.13c1.08-.09,2.14-.2,3.23-.22,2.47,0,4.93-.12,7.4-.11,4.65,0,9.25.34,13.88.44a111.74,111.74,0,0,1,30.26,5c.23.07.39-.3.17-.4a66.4,66.4,0,0,0-15-3.92,110.26,110.26,0,0,0-15.4-1.35c-4.89-.09-9.74-.4-14.64-.38-1.61,0-3.23,0-4.84.08,1.8-.25,3.57-.62,5.37-.77,4.61-.38,9.27-.79,13.86-1.31s9.08-.48,13.6-.71c5-.26,10,.6,15,.66a.18.18,0,0,0,0-.35c-9.48-.89-19.13-1.33-28.62-.17-4.59.57-9.26.89-13.86,1.33-3.12.3-6.22,1-9.31,1.48-.46,0-1,0-1.58.07a46.25,46.25,0,0,1,5-1.43c2.31-.67,4.67-1.15,7-1.71a138.36,138.36,0,0,1,15.25-2.6c4.71-.58,9.42-.9,14.15-1.07,4.92-.17,9.82.38,14.74.43A.19.19,0,0,0,235.39,86.78Z" transform="translate(-47.09 -18.15)"/><path class="cls-2" d="M138.52,109.72c-.47-.14-.77.33-.71.73a.64.64,0,0,0-.24.66c-.81,1.18-2.25,2.11-3.12,3.21-1.24,1.55-2.61,3-3.86,4.51a65.38,65.38,0,0,0-6.88,10.67,43.68,43.68,0,0,0-4,11.52,42.13,42.13,0,0,0-1,6.42,32,32,0,0,0,.17,3.91,6.85,6.85,0,0,1-1.65,4.37,48.79,48.79,0,0,1-5.08,4.44c-.47.39-5,3.58-2.23,3.66,1.22,0,3.26-1.59,4.3-2.18.63-.37,2.21-1,2.33-1.83-.12.85-.46,1.69-.66,2.53a28.36,28.36,0,0,0-.78,6.48c0,1-.22,3.17,1,3.56a.38.38,0,0,0,.36-.13c1.13-1.12,1.4-3.43,1.8-4.89s.91-2.73,1.35-4.08a24.86,24.86,0,0,1,1.06-3.37c.68,2.09,1.14,4.29,1.74,6.39.1.35,1.12,4.35,2.09,3.51,1.34-1.15.49-4.45.32-5.92a44.07,44.07,0,0,0-.89-6.65,11.59,11.59,0,0,0,2.44,1.29,5.32,5.32,0,0,0,3.37,0,.43.43,0,0,0,.12-.73c-.77-.73-2.15-1.05-3-1.7a7.9,7.9,0,0,1-2.85-3.88,36.7,36.7,0,0,1,2-14,77.28,77.28,0,0,1,6.15-12.6c2.11-3.61,5.7-6.21,8.24-9.51C142.37,113.6,141.51,110.62,138.52,109.72Z" transform="translate(-47.09 -18.15)"/><path class="cls-3" d="M118.1,167.39c.39-1.37,1-2.71,1.41-4.06a23.83,23.83,0,0,1,1.11-3.35c.64,2.1,1.07,4.31,1.64,6.41.1.35,1.06,4.37,2,3.55,1.36-1.13.56-4.45.41-5.92a44.16,44.16,0,0,0-.79-6.66,11.3,11.3,0,0,0,2.42,1.32,5.29,5.29,0,0,0,3.36.06.43.43,0,0,0,.14-.73c-.76-.74-2.14-1.08-3-1.75a7.9,7.9,0,0,1-2.8-3.93c0-.68,0-1.35,0-2h0a5.92,5.92,0,0,0-.86,1.31,4.19,4.19,0,0,0-.81-1.51.46.46,0,0,0-.71.13c-.12.29-.21.64-.33.95a1.45,1.45,0,0,0-.31-.25.43.43,0,0,0-.44,0c-.52.33-.49.4-1.06.11a.84.84,0,0,0-.6,0,2.44,2.44,0,0,1,0,.27,6.85,6.85,0,0,1-1.71,4.35,47.55,47.55,0,0,1-5.14,4.36c-.48.39-5,3.5-2.29,3.63,1.22.05,3.29-1.55,4.33-2.12.64-.35,2.23-1,2.36-1.79-.14.85-.49,1.68-.7,2.52a28.31,28.31,0,0,0-.87,6.47c0,1-.27,3.16,1,3.57a.38.38,0,0,0,.36-.13C117.37,171.16,117.68,168.85,118.1,167.39Z" transform="translate(-47.09 -18.15)"/><path class="cls-3" d="M102.48,166.72a15.22,15.22,0,0,0-1-2.89c-.17-.4-.2-.89-.6-1.13a.18.18,0,0,0-.28.14.47.47,0,0,1-.12-.07l.29-.13c.18-.08,0-.39-.13-.32l-1.09.4h-.12a.12.12,0,0,0-.11.08c-.95.35-1.91.69-2.87,1-1.53.52-3.12.85-4.64,1.39a15.53,15.53,0,0,1-4.51.54c-1.62.07-3.23.05-4.84,0a22.55,22.55,0,0,1-9.17-1.58c-2.75-1.24-5.08-4-6.63-6.5a26.59,26.59,0,0,1-3.08-9.06,39.59,39.59,0,0,1-.48-9.9c.13-1.55-.13-3.2.13-4.73s.34-3,.61-4.51c.52-2.93,1-5.86,1.5-8.79a36.78,36.78,0,0,0,.53-4c.1-1.56.52-3.09.69-4.64.35-3.36.85-6.72,1.3-10.07a36,36,0,0,0,.33-4.28c0-1.61.27-3.2.16-4.81-.22-3.07-.2-6.15-.65-9.2s-1.49-6.2-2.17-9.34c-.32-1.43-1.06-2.67-1.48-4.07a20.7,20.7,0,0,0-1.6-3.68,27.74,27.74,0,0,0-2.08-3.73c-.93-1.25-1.81-2.54-2.82-3.72a40.35,40.35,0,0,0-6.45-5.94A20.62,20.62,0,0,0,49.37,52c-.34-.21-1.3-.46-1.5-.79a.21.21,0,0,0-.18-.11h-.24a.2.2,0,0,0-.28,0,.19.19,0,0,0,.09.35c2.19,2,4.64,3.73,6.41,6.16a74.5,74.5,0,0,1,5,7.75c3.21,5.79,4.15,12.08,5.29,18.5.12.63,0,1.28.1,1.9a22,22,0,0,1,.27,2.43c.09,1.68,0,3.38,0,5.06,0,1.47-.08,2.9-.17,4.37a20.89,20.89,0,0,1-.11,2.37l-.45,2.67c-.55,3.28-1,6.62-1.8,9.84s-1.32,6.28-2.28,9.35a29.31,29.31,0,0,0-.73,4.27c-.22,1.57-.72,3.09-.92,4.67a75.38,75.38,0,0,0-.61,9.61c0,1.57,0,3.13.14,4.69s.43,3,.67,4.54a29.71,29.71,0,0,0,1,3.92,40.41,40.41,0,0,0,1.62,4.2,28.83,28.83,0,0,0,2,4.09,24,24,0,0,0,2.74,3.37,23.51,23.51,0,0,0,7.06,5.24,31.12,31.12,0,0,0,8.48,2.38,33.27,33.27,0,0,0,9.4.19c2.11-.25,4.23-.43,6.33-.75,1.2-.19,2.36-.5,3.53-.8a8,8,0,0,0,1.91-.65.25.25,0,0,0,.21.13l.39.15a.22.22,0,0,0,.33-.14C103.39,169.63,102.72,168.07,102.48,166.72Z" transform="translate(-47.09 -18.15)"/><path class="cls-2" d="M177.27,210.24a1.46,1.46,0,0,0-.63-.46.57.57,0,0,0-.16-.48,3.37,3.37,0,0,0-2-1.2c-2.19-.32-4.38,1.58-6,2.79a62.36,62.36,0,0,1-7,4.66,21.23,21.23,0,0,1-7.06,2.73,2.43,2.43,0,0,1-.55.22,3.65,3.65,0,0,0-1.14.38c0-.34-.9-12.59-4.32-18.86-6-11-18.74-20.09-19.2-21.06-.36-.75-.74-1.48-1.07-2.25a2,2,0,0,0-1-1.14c-.55-.26-1.54.44-2,.65a1.16,1.16,0,0,0-.46.52,6.89,6.89,0,0,1-1.23,1.53c-.26.26-.38.76-.61,1.06a.19.19,0,0,0,0,.12.19.19,0,0,0-.09.24c.33.62.79,1.15,1.18,1.74.53.79,11.34,12.31,17.39,18.34,4.63,4.61,7.13,12.46,8.12,17.52.31,1.57,0,4.4.5,5.93a.42.42,0,0,1,0,.1,2.31,2.31,0,0,0,.4,1.15c.45.8,1.88.64,2.72.48a17.19,17.19,0,0,0,4.34-1.81,11.34,11.34,0,0,1,1.21-.36,6.73,6.73,0,0,0,.83-.46,7.29,7.29,0,0,1,1.25-.4c.47-.17.93-.38,1.39-.57,3.65-1.49,7.39-2.77,11-4.26a8.55,8.55,0,0,0,3.46-2,1.48,1.48,0,0,0,.06-1.72,6.37,6.37,0,0,0,.76-.82A1.92,1.92,0,0,0,177.27,210.24Z" transform="translate(-47.09 -18.15)"/><path class="cls-4" d="M151.89,131a145.55,145.55,0,0,0-4.49-21.76c-.74-2.55-1.18-3.92-3-5.54A33,33,0,0,0,137.84,99a64.79,64.79,0,0,0-7.67-3.25,34.57,34.57,0,0,0-7.4-1.49.42.42,0,0,0-.3,0c-.42-.14-.9.37-.64,1,1.14,2.74-.24,7.6-.94,10.3a79,79,0,0,1-4,11.45c-1.46,3.4-3.29,6.62-4.92,9.92a104.94,104.94,0,0,1-5.75,10.75c-3.62,5.51-7.34,11.67-8.78,18.59a24.31,24.31,0,0,0,3.45,17.54C108,185,122,186.22,132.15,181.59a36.46,36.46,0,0,0,13.1-10.65c4.15-5.08,6.2-11.69,7.15-18.63C153.37,145.2,152.78,138,151.89,131Z" transform="translate(-47.09 -18.15)"/><path class="cls-5" d="M148.41,129.09a103.48,103.48,0,0,0-3.82-21.31c-1-3.34-2.67-6.22-5.31-7.82a10.61,10.61,0,0,0-3.86-1.35,9.63,9.63,0,0,0-3.61-.28.77.77,0,0,0-.48.76v.13a.31.31,0,0,0,0,.1.71.71,0,0,0,0,.2c1.71,7,.5,15-1.43,21.81a110.73,110.73,0,0,1-8.61,20.93c-2.9,5.6-7.47,12.24-6.77,19.3a13.79,13.79,0,0,0,9.32,11.65c11.16,3.47,20.9-10.24,23.46-22C148.9,144,148.91,136.45,148.41,129.09Z" transform="translate(-47.09 -18.15)"/><path class="cls-2" d="M187.16,32.32c-7.41-9.84-20.71-2.71-27.46,4.09a53.62,53.62,0,0,0-7.74,9.2c-1.12,1.79-1.87,3.74-2.87,5.59a18.37,18.37,0,0,0-2.19,5.54.36.36,0,0,0,.13.32,8.07,8.07,0,0,0-.09,3.36,43.47,43.47,0,0,0,2.58,8.26c1.92,4.47,4.46,9.69,9.27,11.57,2,.81,4,1.29,6.12.27,2.28-1.13,3.73-3.48,5.17-5.48,3.77-5.21,8.91-9.13,13.45-13.62,3.68-3.63,6.85-8.64,7.51-13.85A21.62,21.62,0,0,0,187.16,32.32Z" transform="translate(-47.09 -18.15)"/><path class="cls-4" d="M120.59,108a.6.6,0,0,0,.37,1,.64.64,0,0,0,.5.5c.74,1.23,1,2.92,1.63,4.17.89,1.77,1.62,3.6,2.5,5.38a66.3,66.3,0,0,0,6.86,10.69,43.79,43.79,0,0,0,8.82,8.43,42.11,42.11,0,0,0,5.44,3.52,31,31,0,0,0,3.63,1.47,6.87,6.87,0,0,1,3.29,3.31,47.18,47.18,0,0,1,1.94,6.47c.16.59,1.2,6,2.4,3.54.54-1.09-.09-3.62-.2-4.81-.07-.73,0-2.44-.7-2.88.73.47,1.35,1.12,2,1.65a28.83,28.83,0,0,0,5.57,3.4c.91.42,2.79,1.51,3.66.55a.4.4,0,0,0,0-.38c-.55-1.5-2.54-2.7-3.71-3.67s-2.1-2-3.15-2.92a25.28,25.28,0,0,1-2.62-2.37c2.18.26,4.37.75,6.53,1.07.36.06,4.42.79,4.07-.44-.49-1.7-3.85-2.3-5.26-2.75a42.86,42.86,0,0,0-6.42-1.95,10.91,10.91,0,0,0,2.18-1.69,5.19,5.19,0,0,0,1.4-3.05.43.43,0,0,0-.61-.42c-1,.4-1.85,1.52-2.81,2.06a7.92,7.92,0,0,1-4.72,1,36.74,36.74,0,0,1-11.93-7.69,78.15,78.15,0,0,1-8.91-10.81c-2.41-3.43-3.29-7.76-5.23-11.44C125.71,106.14,122.66,105.69,120.59,108Z" transform="translate(-47.09 -18.15)"/><path class="cls-3" d="M182.44,31.46c-2.19-.6-5.2.53-7.26,1.2-10.55,3.4-18.35,12.48-22.05,22.63a50.13,50.13,0,0,0-2.37,12.51c-.1,1.13-.13,2.25-.12,3.38,1.81,3.77,4.22,7.53,8.15,9.07,2,.81,4,1.29,6.12.27,2.28-1.13,3.73-3.48,5.17-5.48,3.77-5.21,8.91-9.13,13.45-13.62,3.68-3.63,6.85-8.64,7.51-13.85a22.11,22.11,0,0,0-.81-9.11,13.7,13.7,0,0,0-2-3.32A10.26,10.26,0,0,0,182.44,31.46Z" transform="translate(-47.09 -18.15)"/><path class="cls-1" d="M165.68,71.63c0,4.06,4,5.7,7.31,3.8,1.79-1,2.07-3.56,1.11-5.2a5.51,5.51,0,0,0-.86-1.54c-1.11-1.5-3.57-1.25-5-.66A3.9,3.9,0,0,0,165.68,71.63Z" transform="translate(-47.09 -18.15)"/><path class="cls-1" d="M174.18,68.36a5.1,5.1,0,0,0,2.54-.67,5.61,5.61,0,0,0,1.05-1.23,8.29,8.29,0,0,1,.67-1.12.34.34,0,0,1,.49,0c.9,1.13-.46,2.85-1.34,3.57s-2.82,1.33-3.7.15A.48.48,0,0,1,174.18,68.36Z" transform="translate(-47.09 -18.15)"/><path class="cls-1" d="M171.66,66.44a8.33,8.33,0,0,0,2.24-1.1,5.85,5.85,0,0,0,.82-1c.2-.3.27-.66.54-.9a.48.48,0,0,1,.68,0c.65.84-.26,2.11-.84,2.76-.85,1-2.17,1.77-3.44,1.21A.58.58,0,0,1,171.66,66.44Z" transform="translate(-47.09 -18.15)"/><path class="cls-6" d="M171.65,71.25a1.93,1.93,0,0,0-.22-.58,2.4,2.4,0,0,0-1.11-1,1.83,1.83,0,0,0-1.4-.1,1.71,1.71,0,0,0-.64.21,1.88,1.88,0,0,0-.87,2,2,2,0,0,0,.22.63l.06.22c.54,1.47,2.54,1.46,3.5.49A1.85,1.85,0,0,0,171.65,71.25Z" transform="translate(-47.09 -18.15)"/><path class="cls-7" d="M168.14,71.68a1,1,0,0,0-.53.2.82.82,0,0,0-.17.11,1.51,1.51,0,0,0,1.07,2.54A1.48,1.48,0,0,0,169.79,73,1.45,1.45,0,0,0,168.14,71.68Z" transform="translate(-47.09 -18.15)"/><path class="cls-7" d="M171.93,72.89a.72.72,0,0,0-.72-.53.66.66,0,0,0-.68.63.77.77,0,0,0,0,.3.71.71,0,0,0,1.15.39A.82.82,0,0,0,171.93,72.89Z" transform="translate(-47.09 -18.15)"/><path class="cls-7" d="M168.43,69.54a.41.41,0,0,0-.41-.1.24.24,0,0,0-.15.06s0,0-.05,0l0,0a.53.53,0,0,0-.12.62.41.41,0,0,0,.5.28A.56.56,0,0,0,168.43,69.54Z" transform="translate(-47.09 -18.15)"/><path class="cls-8" d="M177,94.54a.49.49,0,0,0-.37-.46c-2.74-.86-5.1-4.23-5.68-7-.68-3.25-.48-6.54-.49-9.84a37,37,0,0,0-4-15.9A28,28,0,0,0,156,50c-5.14-3.07-10.68-3.92-16.48-4.87-5-.81-11.4-.33-15.92,2a18.79,18.79,0,0,0-5.6,5,35.4,35.4,0,0,0-4.94,7.6c-2.25,4.95-1.87,10.84-1.86,16.12,0,5.61,2.16,11.32,5.07,16,3.08,5,7.71,9.53,13.23,11.68a54.61,54.61,0,0,0,19.8,3.31c6.65,0,13.91-1.22,19.73-4.59,2.24-1.29,5.81-2.66,7.25-4.95C176.74,96.62,177.48,95.34,177,94.54Z" transform="translate(-47.09 -18.15)"/><path class="cls-1" d="M186.27,78.82c-5-2.73-10.68,1.59-13.07,5.8a11.89,11.89,0,0,0-1.09,7.71A5.32,5.32,0,0,0,175,95.87c2.6,2.77,9-3.57,10.43-5.37C187.89,87.28,191.17,81.5,186.27,78.82Z" transform="translate(-47.09 -18.15)"/><path class="cls-3" d="M130.68,81.16a6,6,0,0,0-4.61-1.29,3,3,0,0,0-1.51.89A7.16,7.16,0,0,0,121.94,86c-.08,1.64,1.45,3,2.73,3.71a5.46,5.46,0,0,0,5.09,0C133.35,88.16,133.37,83.49,130.68,81.16Z" transform="translate(-47.09 -18.15)"/><path class="cls-4" d="M126,63.81c-.59-5.61,0-11.21-.92-16.82a45.47,45.47,0,0,0-6-16C116.41,26.36,113,22.19,108,20a19.3,19.3,0,0,0-15.51-.45c-10.32,4.19-15.23,15.87-17.83,25.9-2.9,11.18-1.69,24.19,5.16,33.68,2.93,4,7.12,7.19,12.24,7.43a19.18,19.18,0,0,0,7.65-1.15c2.74-1,5.07-3,7.57-4.44s4.55-3.18,7-4.48,5.61-1.79,7.75-3.65c1.57-1.37,3.41-3.29,3.72-5.43C125.92,66.33,126.05,64,126,63.81Z" transform="translate(-47.09 -18.15)"/><path class="cls-3" d="M126,63.81c0-.14,0-.29,0-.43-1.71-1.94-4.26-2.84-5.73-5A23.39,23.39,0,0,1,117,49.93c-.63-3.2-1.46-6.22-1.81-9.49-.31-2.92-.77-5.73-1.29-8.62-1-5.36-4.08-8.86-9.06-11a19,19,0,0,0-15.06.23c-.44.21-.88.43-1.31.66C80.81,27,76.85,36.83,74.61,45.47a46.08,46.08,0,0,0-1.46,10.38c.08.56.16,1.12.25,1.68.79,5.21,2.71,10.87,6.06,15A21.35,21.35,0,0,0,93,80.74,17.5,17.5,0,0,0,100.9,80c2.62-.85,4.9-2.56,7.33-3.81a25.61,25.61,0,0,1,8.21-2.44c1.63-.2,3.3-.26,5-.4a6,6,0,0,0,.64-.49c1.57-1.37,3.41-3.29,3.72-5.43C125.92,66.33,126.05,64,126,63.81Z" transform="translate(-47.09 -18.15)"/><path class="cls-2" d="M154.2,97.81a13.7,13.7,0,0,1-8.13-1.59c-2.86-1.56-4.47-4.84-5-8a2,2,0,0,0,0-.43.37.37,0,0,0-.16-.34.17.17,0,0,0,0-.07c0-.17-.26-.29-.35-.1l0,.07a.39.39,0,0,0-.35.32c-.14.72-1,1.49-1.38,2.07a9.53,9.53,0,0,0-1.63,3.9,7.8,7.8,0,0,0,2.94,7.48c2,1.59,5.07,1.57,7.44,1.09s5.72-1.3,7.09-3.61A.53.53,0,0,0,154.2,97.81Z" transform="translate(-47.09 -18.15)"/><path class="cls-3" d="M176.53,215.05a1.48,1.48,0,0,0,.06-1.72,6.37,6.37,0,0,0,.76-.82,1.92,1.92,0,0,0-.08-2.27,1.46,1.46,0,0,0-.63-.46.57.57,0,0,0-.16-.48,3.37,3.37,0,0,0-2-1.2c-2.19-.32-4.38,1.58-6,2.79a62.36,62.36,0,0,1-7,4.66,21.23,21.23,0,0,1-7.06,2.73,2.43,2.43,0,0,1-.55.22,3.65,3.65,0,0,0-1.14.38s0-.32-.06-.75a2.83,2.83,0,0,1-.9.15,1.32,1.32,0,0,0-1,.46c-.46.54-.84.68-1.19.62a16,16,0,0,0,.33,3.86.42.42,0,0,1,0,.1,2.31,2.31,0,0,0,.4,1.15c.45.8,1.88.64,2.72.48a17.19,17.19,0,0,0,4.34-1.81,11.34,11.34,0,0,1,1.21-.36,6.73,6.73,0,0,0,.83-.46,7.29,7.29,0,0,1,1.25-.4c.47-.17.93-.38,1.39-.57,3.65-1.49,7.39-2.77,11-4.26A8.55,8.55,0,0,0,176.53,215.05Z" transform="translate(-47.09 -18.15)"/><path class="cls-4" d="M112.69,176.56a3.25,3.25,0,0,0-2.66-.17,3.62,3.62,0,0,0-1.71,1c-.17-.06-.39.13-.27.3.77,1.19.52,3.1.33,4.39a22.56,22.56,0,0,1-1.45,5.15,41.43,41.43,0,0,1-4.75,8.4,27.54,27.54,0,0,1-7,6.5,20.5,20.5,0,0,1-8.66,3.45,14,14,0,0,1-2.44.31c-.65,0-1.29-.05-1.94-.07s-1.16-.39-1.78-.46a3.84,3.84,0,0,0-1.78.21,1.94,1.94,0,0,0-1.39,1.56,4.57,4.57,0,0,0,0,1.33c.12.89.13,1.79.23,2.69a33,33,0,0,0,2.21,9.19,9.33,9.33,0,0,0,4.84,5.34A13.8,13.8,0,0,0,89.55,227a26.67,26.67,0,0,1,2.66.4,24.49,24.49,0,0,0,2.84,0c.91,0,3,.12,3.4-1a2.23,2.23,0,0,0,.13-1c1.33.17,2.39-1.7,2-3a2.17,2.17,0,0,0-.64-1c-.18-.78-.12-1.38-.9-2-2-1.53-4.44-1.17-6.69-.34-1.51.56-2.82,1.33-4.49,1s-2.54-1.71-3-3.35c-.55-2.21-.86-4.46-1.25-6.69.46,0,.89.17,1.35.19s1.05-.21,1.55-.22a20,20,0,0,0,3.69-.44,24.16,24.16,0,0,0,7.08-2.62c4.69-2.62,8.42-6.58,11.65-10.81a27.66,27.66,0,0,0,3.71-6.95,22.71,22.71,0,0,0,1.92-7.32C114.67,179.93,114.61,177.76,112.69,176.56Z" transform="translate(-47.09 -18.15)"/><path class="cls-3" d="M99.92,221.46c-.18-.78-.12-1.38-.9-2-2-1.53-4.44-1.17-6.69-.34-1.51.56-2.82,1.33-4.49,1s-2.54-1.71-3-3.35c-.55-2.21-.86-4.46-1.25-6.69.41,0,.8.13,1.21.18l0-.08c-.27-.6-.9-.48-.85-1.41a.43.43,0,0,0-.4-.43l-.51-.06a1.21,1.21,0,0,0,.08-1.21,3.05,3.05,0,0,0-.71-.68.65.65,0,0,1-.12-.66h-.19c-.64,0-1.16-.39-1.78-.46a3.84,3.84,0,0,0-1.78.21,1.94,1.94,0,0,0-1.39,1.56,4.57,4.57,0,0,0,0,1.33c.12.89.13,1.79.23,2.69a33,33,0,0,0,2.21,9.19,9.33,9.33,0,0,0,4.84,5.34A13.8,13.8,0,0,0,89.55,227a26.67,26.67,0,0,1,2.66.4,24.49,24.49,0,0,0,2.84,0c.91,0,3,.12,3.4-1a2.23,2.23,0,0,0,.13-1c1.33.17,2.39-1.7,2-3A2.17,2.17,0,0,0,99.92,221.46Z" transform="translate(-47.09 -18.15)"/><path class="cls-3" d="M161.15,136.12c-1,.39-1.86,1.52-2.83,2a7.89,7.89,0,0,1-4.72,1c-.56-.24-1.11-.48-1.65-.74h0a.47.47,0,0,0-.12.55l0,.06a6.24,6.24,0,0,0-.86,0,.47.47,0,0,0-.34.66c.26.55,1.05,1.39,0,1.44a1,1,0,0,0-.81.58,1,1,0,0,0,.39,1.09c.16.17.75.4.39.6a6.88,6.88,0,0,1,3.27,3.33,47,47,0,0,1,1.9,6.47c.16.6,1.17,6,2.39,3.56.54-1.09-.08-3.63-.18-4.81-.06-.73,0-2.44-.68-2.88.72.47,1.34,1.12,2,1.66a28.89,28.89,0,0,0,5.56,3.43c.9.42,2.78,1.52,3.65.56a.37.37,0,0,0,0-.38c-.53-1.49-2.52-2.71-3.68-3.69s-2.09-2-3.14-2.94a25.22,25.22,0,0,1-2.61-2.37c2.18.26,4.37.76,6.53,1.1.36.06,4.42.81,4.07-.42-.48-1.7-3.84-2.32-5.25-2.77a41.07,41.07,0,0,0-6.41-2,11,11,0,0,0,2.2-1.68,5.26,5.26,0,0,0,1.41-3.05A.43.43,0,0,0,161.15,136.12Z" transform="translate(-47.09 -18.15)"/><path class="cls-7" d="M142.36,92.21a11.76,11.76,0,0,0-1.08,1.45,16.11,16.11,0,0,0-2.2,4.87,7.61,7.61,0,0,0-.1,3.29c.24,1,2.31.91,3,.9,2.76,0,5.56-3,6.9-5.34a13.4,13.4,0,0,1-2.83-1.16A9.23,9.23,0,0,1,142.36,92.21Z" transform="translate(-47.09 -18.15)"/><path class="cls-5" d="M144.83,95.9a5,5,0,0,0-.65,1.13c-.39.64-.86,1.25-1.3,1.86a13.45,13.45,0,0,1-2.91,3.2h0c-.22.12,0,.52.22.37a10.9,10.9,0,0,0,2.74-2.72c.8-1,2-2.41,2.18-3.73C145.13,95.87,144.92,95.82,144.83,95.9Z" transform="translate(-47.09 -18.15)"/><path class="cls-1" d="M169.85,94.73a.3.3,0,0,0-.17-.38c-6.42-2.54-13.9-3.69-20.75-4.36-4.09-.4-8.18-1.06-12.29-1.14-3.58-.07-7.17-.7-10.75-.7-4.08,0-8.14-.08-12.23,0-3.94.06-7.84.56-11.76.74-8,.37-16.25,1.54-23.74,4.43-.25.1-.16.5.12.42A82.38,82.38,0,0,1,89.43,91c4.13-.61,8.3-1.17,12.47-1.41,7.79-.44,15.47-1,23.28-.75,7.4.22,14.91.73,22.26,1.64,6.63.81,13.5,1.65,19.92,3.67l-1.2-.16a48.33,48.33,0,0,0-6-.77c-2.17,0-4.33-.5-6.49-.66s-4.47-.16-6.7-.26a205.64,205.64,0,0,0-27.41.94c-9.22.84-18.38,1.83-27.51,3.36a167.68,167.68,0,0,0-26.54,7.05.16.16,0,0,0,.09.3c8.53-2.4,17.15-4.89,25.87-6.51,9.29-1.74,18.69-2.66,28.09-3.58a223.71,223.71,0,0,1,26.65-1c4.23.09,8.42.34,12.62.82,2.39.27,4.77.5,7.16.82-13.36-.73-26.87-1.29-40.14.54-14.31,2-28.26,5.3-41.38,11.47-.27.13-.07.61.21.49a187.74,187.74,0,0,1,19.77-7.11,166.94,166.94,0,0,1,20.8-4.09,161.12,161.12,0,0,1,23.24-1.27c3.59,0,7.19.13,10.78.22,3.42.09,6.8.52,10.22.38h.24A.2.2,0,0,0,169.85,94.73Z" transform="translate(-47.09 -18.15)"/><path class="cls-1" d="M141.66,68c-1.47-.59-3.93-.84-5,.66a5.77,5.77,0,0,0-.86,1.54c-.95,1.64-.68,4.19,1.11,5.2,3.34,1.9,7.28.26,7.31-3.8A3.9,3.9,0,0,0,141.66,68Z" transform="translate(-47.09 -18.15)"/><path class="cls-1" d="M134.3,68.36a5.07,5.07,0,0,1-2.54-.67,5.35,5.35,0,0,1-1-1.23,8.29,8.29,0,0,0-.67-1.12.35.35,0,0,0-.5,0c-.89,1.13.47,2.85,1.35,3.57s2.82,1.33,3.7.15A.48.48,0,0,0,134.3,68.36Z" transform="translate(-47.09 -18.15)"/><path class="cls-1" d="M136.13,66.44a8.33,8.33,0,0,1-2.24-1.1,5.85,5.85,0,0,1-.82-1c-.2-.3-.27-.66-.54-.9a.48.48,0,0,0-.68,0c-.66.84.26,2.11.84,2.76.85,1,2.17,1.77,3.44,1.21A.58.58,0,0,0,136.13,66.44Z" transform="translate(-47.09 -18.15)"/><path class="cls-6" d="M141,71.25a2,2,0,0,0-.23-.58,2.38,2.38,0,0,0-1.1-1,1.83,1.83,0,0,0-1.4-.1,1.76,1.76,0,0,0-.65.21,1.89,1.89,0,0,0-.86,2,1.63,1.63,0,0,0,.22.63,1.41,1.41,0,0,0,.06.22c.53,1.47,2.53,1.46,3.49.49A1.88,1.88,0,0,0,141,71.25Z" transform="translate(-47.09 -18.15)"/><path class="cls-7" d="M137.48,71.68a1,1,0,0,0-.53.2.76.76,0,0,0-.16.11,1.43,1.43,0,0,0-.41,1,1.45,1.45,0,0,0,1.47,1.5A1.5,1.5,0,0,0,139.14,73,1.46,1.46,0,0,0,137.48,71.68Z" transform="translate(-47.09 -18.15)"/><path class="cls-7" d="M141.27,72.89a.71.71,0,0,0-.72-.53.67.67,0,0,0-.68.63.78.78,0,0,0,0,.3.71.71,0,0,0,1.14.39A.8.8,0,0,0,141.27,72.89Z" transform="translate(-47.09 -18.15)"/><path class="cls-7" d="M137.77,69.54a.39.39,0,0,0-.4-.1.24.24,0,0,0-.15.06.12.12,0,0,0-.05,0l0,0a.55.55,0,0,0-.12.62.42.42,0,0,0,.5.28A.56.56,0,0,0,137.77,69.54Z" transform="translate(-47.09 -18.15)"/><path class="cls-7" d="M187,81.47a5.1,5.1,0,0,0-3.05-2.36,3.38,3.38,0,0,0-2.72.07.86.86,0,0,0-.3.42,1,1,0,0,0-.41.85c0,.86,1.31.78,1.87.76,1.61,0,2.21,1.62,3.66,1.9C186.89,83.28,187.25,82.1,187,81.47Z" transform="translate(-47.09 -18.15)"/><path class="cls-7" d="M179.59,81.18c-.21-.57-1.05-1-1.51-.45a1,1,0,0,0-.21.67.43.43,0,0,0,0,.11.88.88,0,0,0,.54.78.81.81,0,0,0,.94-.08A1,1,0,0,0,179.59,81.18Z" transform="translate(-47.09 -18.15)"/></svg>