<svg id="Layer_1" data-name="Layer 1" xmlns="http://www.w3.org/2000/svg" viewBox="0 0 188.49 212.67"><defs><style>.cls-1{fill:#443731;}.cls-2{fill:#776358;}.cls-3{fill:#ffb5ac;}.cls-4{fill:#927c6e;}.cls-5{fill:#cfb8a8;}.cls-6{fill:#332620;}.cls-7{fill:#fff;}.cls-8{fill:#a89084;}</style></defs><title>mice-2</title><path class="cls-1" d="M235.39,86.78c-4.91-.31-9.81-.76-14.74-.6s-9.92.55-14.86,1.17a140.41,140.41,0,0,0-14.69,2.52c-2.6.6-5.2,1.19-7.77,1.94-1.74.52-4,.86-5.5,1.91a.22.22,0,0,0-.1.15,1.11,1.11,0,0,0-.32.21c-.13.13.05.39.21.27a.86.86,0,0,1,.35-.14.16.16,0,0,0,.12,0,10.34,10.34,0,0,0,1.64-.13c1.08-.09,2.14-.2,3.23-.22,2.47,0,4.93-.12,7.4-.11,4.65,0,9.25.34,13.88.44a111.74,111.74,0,0,1,30.26,5c.23.07.39-.3.17-.4a66.4,66.4,0,0,0-15-3.92,110.26,110.26,0,0,0-15.4-1.35c-4.89-.09-9.74-.4-14.64-.38-1.61,0-3.23,0-4.84.08,1.8-.25,3.57-.62,5.37-.77,4.61-.38,9.27-.79,13.86-1.31s9.08-.48,13.6-.71c5-.26,10,.6,15,.66a.18.18,0,0,0,0-.35c-9.48-.89-19.13-1.33-28.62-.17-4.59.57-9.26.89-13.86,1.33-3.12.3-6.22,1-9.31,1.48-.46,0-1,0-1.58.07a46.25,46.25,0,0,1,5-1.43c2.31-.67,4.67-1.15,7-1.71a138.36,138.36,0,0,1,15.25-2.6c4.71-.58,9.42-.9,14.15-1.07,4.92-.17,9.82.38,14.74.43A.19.19,0,0,0,235.39,86.78Z" transform="translate(-47.09 -18.15)"/><path class="cls-2" d="M135.36,113c-.28.4.09.83.49.89a.66.66,0,0,0,.56.43c.9,1.12,1.37,2.76,2.16,3.92,1.12,1.63,2.09,3.35,3.2,5a65.46,65.46,0,0,0,8.21,9.69,44.14,44.14,0,0,0,9.86,7.19,42.36,42.36,0,0,0,5.86,2.77,32.93,32.93,0,0,0,3.79,1,6.84,6.84,0,0,1,3.71,2.84,49.19,49.19,0,0,1,2.77,6.15c.24.58,2,5.78,2.85,3.2.39-1.15-.57-3.58-.84-4.74-.16-.72-.33-2.42-1.07-2.76.79.36,1.49.93,2.24,1.36a28.38,28.38,0,0,0,6,2.63c1,.3,3,1.13,3.7.06a.37.37,0,0,0,0-.38c-.74-1.41-2.87-2.34-4.16-3.15s-2.34-1.66-3.51-2.47a25.77,25.77,0,0,1-2.91-2c2.19,0,4.43.16,6.62.19.36,0,4.48.2,4-1-.72-1.62-4.13-1.77-5.58-2a43.1,43.1,0,0,0-6.62-1.08,11.26,11.26,0,0,0,1.94-2,5.26,5.26,0,0,0,1-3.22.43.43,0,0,0-.66-.34c-.92.53-1.63,1.76-2.51,2.42a7.89,7.89,0,0,1-4.55,1.6,36.73,36.73,0,0,1-12.84-6,77.93,77.93,0,0,1-10.27-9.54c-2.84-3.08-4.28-7.26-6.7-10.65C140.18,110.45,137.09,110.41,135.36,113Z" transform="translate(-47.09 -18.15)"/><path class="cls-3" d="M102.48,166.72a15.22,15.22,0,0,0-1-2.89c-.17-.4-.2-.89-.6-1.13a.18.18,0,0,0-.28.14.47.47,0,0,1-.12-.07l.29-.13c.18-.08,0-.39-.13-.32l-1.09.4h-.12a.12.12,0,0,0-.11.08c-.95.35-1.91.69-2.87,1-1.53.52-3.12.85-4.64,1.39a15.53,15.53,0,0,1-4.51.54c-1.62.07-3.23.05-4.84,0a22.55,22.55,0,0,1-9.17-1.58c-2.75-1.24-5.08-4-6.63-6.5a26.59,26.59,0,0,1-3.08-9.06,39.59,39.59,0,0,1-.48-9.9c.13-1.55-.13-3.2.13-4.73s.34-3,.61-4.51c.52-2.93,1-5.86,1.5-8.79a36.78,36.78,0,0,0,.53-4c.1-1.56.52-3.09.69-4.64.35-3.36.85-6.72,1.3-10.07a36,36,0,0,0,.33-4.28c0-1.61.27-3.2.16-4.81-.22-3.07-.2-6.15-.65-9.2s-1.49-6.2-2.17-9.34c-.32-1.43-1.06-2.67-1.48-4.07a20.7,20.7,0,0,0-1.6-3.68,27.74,27.74,0,0,0-2.08-3.73c-.93-1.25-1.81-2.54-2.82-3.72a40.35,40.35,0,0,0-6.45-5.94A20.62,20.62,0,0,0,49.37,52c-.34-.21-1.3-.46-1.5-.79a.21.21,0,0,0-.18-.11h-.24a.2.2,0,0,0-.28,0,.19.19,0,0,0,.09.35c2.19,2,4.64,3.73,6.41,6.16a74.5,74.5,0,0,1,5,7.75c3.21,5.79,4.15,12.08,5.29,18.5.12.63,0,1.28.1,1.9a22,22,0,0,1,.27,2.43c.09,1.68,0,3.38,0,5.06,0,1.47-.08,2.9-.17,4.37a20.89,20.89,0,0,1-.11,2.37l-.45,2.67c-.55,3.28-1,6.62-1.8,9.84s-1.32,6.28-2.28,9.35a29.31,29.31,0,0,0-.73,4.27c-.22,1.57-.72,3.09-.92,4.67a75.38,75.38,0,0,0-.61,9.61c0,1.57,0,3.13.14,4.69s.43,3,.67,4.54a29.71,29.71,0,0,0,1,3.92,40.41,40.41,0,0,0,1.62,4.2,28.83,28.83,0,0,0,2,4.09,24,24,0,0,0,2.74,3.37,23.51,23.51,0,0,0,7.06,5.24,31.12,31.12,0,0,0,8.48,2.38,33.27,33.27,0,0,0,9.4.19c2.11-.25,4.23-.43,6.33-.75,1.2-.19,2.36-.5,3.53-.8a8,8,0,0,0,1.91-.65.25.25,0,0,0,.21.13l.39.15a.22.22,0,0,0,.33-.14C103.39,169.63,102.72,168.07,102.48,166.72Z" transform="translate(-47.09 -18.15)"/><path class="cls-2" d="M131.16,173.4a3.26,3.26,0,0,0-2.62.51,3.73,3.73,0,0,0-1.4,1.39.22.22,0,0,0-.18.37c1,.94,1.3,2.85,1.46,4.15a23.26,23.26,0,0,1-.08,5.34,41,41,0,0,1-2.43,9.35,27.33,27.33,0,0,1-5.12,8.09,20.4,20.4,0,0,1-7.47,5.56,13.2,13.2,0,0,1-2.27.93c-.63.16-1.27.29-1.9.44s-1.22-.08-1.84,0a3.7,3.7,0,0,0-1.66.66,1.94,1.94,0,0,0-.94,1.87,4.15,4.15,0,0,0,.39,1.27c.34.83.58,1.7.91,2.54a32.81,32.81,0,0,0,4.51,8.31,9.28,9.28,0,0,0,6,3.91,14,14,0,0,0,5.24,0,24,24,0,0,1,2.67-.3,27.89,27.89,0,0,0,2.76-.71c.89-.21,2.93-.66,3-1.84a2.08,2.08,0,0,0-.14-1c1.34-.18,1.88-2.26,1.14-3.43a2.2,2.2,0,0,0-.86-.77c-.38-.7-.48-1.3-1.38-1.65-2.37-.95-4.59,0-6.55,1.39-1.32.93-2.39,2-4.07,2.16-1.83.16-2.89-1-3.71-2.47-1.11-2-2-4.09-2.94-6.14.45-.1.91-.08,1.36-.17s1-.47,1.43-.61a18.68,18.68,0,0,0,3.45-1.38,23.91,23.91,0,0,0,6.17-4.35c3.87-3.74,6.44-8.53,8.47-13.45a28.11,28.11,0,0,0,1.8-7.67,22.9,22.9,0,0,0,0-7.57C133.94,176.14,133.33,174.05,131.16,173.4Z" transform="translate(-47.09 -18.15)"/><path class="cls-4" d="M151.89,131a145.55,145.55,0,0,0-4.49-21.76c-.74-2.55-1.18-3.92-3-5.54A33,33,0,0,0,137.84,99a64.79,64.79,0,0,0-7.67-3.25,34.57,34.57,0,0,0-7.4-1.49.42.42,0,0,0-.3,0c-.42-.14-.9.37-.64,1,1.14,2.74-.24,7.6-.94,10.3a79,79,0,0,1-4,11.45c-1.46,3.4-3.29,6.62-4.92,9.92a104.94,104.94,0,0,1-5.75,10.75c-3.62,5.51-7.34,11.67-8.78,18.59a24.31,24.31,0,0,0,3.45,17.54C108,185,122,186.22,132.15,181.59a36.46,36.46,0,0,0,13.1-10.65c4.15-5.08,6.2-11.69,7.15-18.63C153.37,145.2,152.78,138,151.89,131Z" transform="translate(-47.09 -18.15)"/><path class="cls-4" d="M120.54,106c-.47-.16-.79.31-.74.71a.61.61,0,0,0-.26.65c-.85,1.15-2.32,2-3.23,3.1-1.29,1.51-2.69,2.89-4,4.38a66.32,66.32,0,0,0-7.22,10.45,43.63,43.63,0,0,0-4.39,11.38,42.2,42.2,0,0,0-1.16,6.39,34,34,0,0,0,0,3.91,6.86,6.86,0,0,1-1.78,4.32,49.59,49.59,0,0,1-5.22,4.27c-.49.38-5.07,3.41-2.35,3.59,1.21.07,3.31-1.49,4.36-2.05.65-.34,2.25-.95,2.39-1.75-.15.85-.51,1.68-.74,2.51a28.86,28.86,0,0,0-1,6.46c0,1-.32,3.15.9,3.58a.37.37,0,0,0,.37-.12c1.16-1.07,1.51-3.38,2-4.83s1-2.69,1.48-4a25.17,25.17,0,0,1,1.17-3.33c.6,2.11,1,4.32,1.53,6.44.09.35,1,4.38,2,3.58,1.38-1.11.64-4.44.51-5.91a42,42,0,0,0-.67-6.68,10.31,10.31,0,0,0,2.4,1.37,5.23,5.23,0,0,0,3.36.11.43.43,0,0,0,.15-.72c-.74-.76-2.12-1.12-3-1.8a8,8,0,0,1-2.73-4,36.73,36.73,0,0,1,2.5-14,78,78,0,0,1,6.55-12.39c2.23-3.54,5.9-6,8.54-9.24C124.25,110,123.49,107,120.54,106Z" transform="translate(-47.09 -18.15)"/><path class="cls-5" d="M148.41,129.09a103.48,103.48,0,0,0-3.82-21.31c-1-3.34-2.67-6.22-5.31-7.82a10.61,10.61,0,0,0-3.86-1.35,9.63,9.63,0,0,0-3.61-.28.77.77,0,0,0-.48.76v.13a.31.31,0,0,0,0,.1.71.71,0,0,0,0,.2c1.71,7,.5,15-1.43,21.81a110.73,110.73,0,0,1-8.61,20.93c-2.9,5.6-7.47,12.24-6.77,19.3a13.79,13.79,0,0,0,9.32,11.65c11.16,3.47,20.9-10.24,23.46-22C148.9,144,148.91,136.45,148.41,129.09Z" transform="translate(-47.09 -18.15)"/><path class="cls-2" d="M187.16,32.32c-7.41-9.84-20.71-2.71-27.46,4.09a53.62,53.62,0,0,0-7.74,9.2c-1.12,1.79-1.87,3.74-2.87,5.59a18.37,18.37,0,0,0-2.19,5.54.36.36,0,0,0,.13.32,8.07,8.07,0,0,0-.09,3.36,43.47,43.47,0,0,0,2.58,8.26c1.92,4.47,4.46,9.69,9.27,11.57,2,.81,4,1.29,6.12.27,2.28-1.13,3.73-3.48,5.17-5.48,3.77-5.21,8.91-9.13,13.45-13.62,3.68-3.63,6.85-8.64,7.51-13.85A21.62,21.62,0,0,0,187.16,32.32Z" transform="translate(-47.09 -18.15)"/><path class="cls-3" d="M182.44,31.46c-2.19-.6-5.2.53-7.26,1.2-10.55,3.4-18.35,12.48-22.05,22.63a50.13,50.13,0,0,0-2.37,12.51c-.1,1.13-.13,2.25-.12,3.38,1.81,3.77,4.22,7.53,8.15,9.07,2,.81,4,1.29,6.12.27,2.28-1.13,3.73-3.48,5.17-5.48,3.77-5.21,8.91-9.13,13.45-13.62,3.68-3.63,6.85-8.64,7.51-13.85a22.11,22.11,0,0,0-.81-9.11,13.7,13.7,0,0,0-2-3.32A10.26,10.26,0,0,0,182.44,31.46Z" transform="translate(-47.09 -18.15)"/><path class="cls-1" d="M165.68,71.63c0,4.06,4,5.7,7.31,3.8,1.79-1,2.07-3.56,1.11-5.2a5.51,5.51,0,0,0-.86-1.54c-1.11-1.5-3.57-1.25-5-.66A3.9,3.9,0,0,0,165.68,71.63Z" transform="translate(-47.09 -18.15)"/><path class="cls-1" d="M174.18,68.36a5.1,5.1,0,0,0,2.54-.67,5.61,5.61,0,0,0,1.05-1.23,8.29,8.29,0,0,1,.67-1.12.34.34,0,0,1,.49,0c.9,1.13-.46,2.85-1.34,3.57s-2.82,1.33-3.7.15A.48.48,0,0,1,174.18,68.36Z" transform="translate(-47.09 -18.15)"/><path class="cls-1" d="M171.66,66.44a8.33,8.33,0,0,0,2.24-1.1,5.85,5.85,0,0,0,.82-1c.2-.3.27-.66.54-.9a.48.48,0,0,1,.68,0c.65.84-.26,2.11-.84,2.76-.85,1-2.17,1.77-3.44,1.21A.58.58,0,0,1,171.66,66.44Z" transform="translate(-47.09 -18.15)"/><path class="cls-6" d="M171.65,71.25a1.93,1.93,0,0,0-.22-.58,2.4,2.4,0,0,0-1.11-1,1.83,1.83,0,0,0-1.4-.1,1.71,1.71,0,0,0-.64.21,1.88,1.88,0,0,0-.87,2,2,2,0,0,0,.22.63l.06.22c.54,1.47,2.54,1.46,3.5.49A1.85,1.85,0,0,0,171.65,71.25Z" transform="translate(-47.09 -18.15)"/><path class="cls-7" d="M168.14,71.68a1,1,0,0,0-.53.2.82.82,0,0,0-.17.11,1.51,1.51,0,0,0,1.07,2.54A1.48,1.48,0,0,0,169.79,73,1.45,1.45,0,0,0,168.14,71.68Z" transform="translate(-47.09 -18.15)"/><path class="cls-7" d="M171.93,72.89a.72.72,0,0,0-.72-.53.66.66,0,0,0-.68.63.77.77,0,0,0,0,.3.71.71,0,0,0,1.15.39A.82.82,0,0,0,171.93,72.89Z" transform="translate(-47.09 -18.15)"/><path class="cls-7" d="M168.43,69.54a.41.41,0,0,0-.41-.1.24.24,0,0,0-.15.06s0,0-.05,0l0,0a.53.53,0,0,0-.12.62.41.41,0,0,0,.5.28A.56.56,0,0,0,168.43,69.54Z" transform="translate(-47.09 -18.15)"/><path class="cls-8" d="M177,94.54a.49.49,0,0,0-.37-.46c-2.74-.86-5.1-4.23-5.68-7-.68-3.25-.48-6.54-.49-9.84a37,37,0,0,0-4-15.9A28,28,0,0,0,156,50c-5.14-3.07-10.68-3.92-16.48-4.87-5-.81-11.4-.33-15.92,2a18.79,18.79,0,0,0-5.6,5,35.4,35.4,0,0,0-4.94,7.6c-2.25,4.95-1.87,10.84-1.86,16.12,0,5.61,2.16,11.32,5.07,16,3.08,5,7.71,9.53,13.23,11.68a54.61,54.61,0,0,0,19.8,3.31c6.65,0,13.91-1.22,19.73-4.59,2.24-1.29,5.81-2.66,7.25-4.95C176.74,96.62,177.48,95.34,177,94.54Z" transform="translate(-47.09 -18.15)"/><path class="cls-1" d="M186.27,78.82c-5-2.73-10.68,1.59-13.07,5.8a11.89,11.89,0,0,0-1.09,7.71A5.32,5.32,0,0,0,175,95.87c2.6,2.77,9-3.57,10.43-5.37C187.89,87.28,191.17,81.5,186.27,78.82Z" transform="translate(-47.09 -18.15)"/><path class="cls-3" d="M130.68,81.16a6,6,0,0,0-4.61-1.29,3,3,0,0,0-1.51.89A7.16,7.16,0,0,0,121.94,86c-.08,1.64,1.45,3,2.73,3.71a5.46,5.46,0,0,0,5.09,0C133.35,88.16,133.37,83.49,130.68,81.16Z" transform="translate(-47.09 -18.15)"/><path class="cls-4" d="M126,63.81c-.59-5.61,0-11.21-.92-16.82a45.47,45.47,0,0,0-6-16C116.41,26.36,113,22.19,108,20a19.3,19.3,0,0,0-15.51-.45c-10.32,4.19-15.23,15.87-17.83,25.9-2.9,11.18-1.69,24.19,5.16,33.68,2.93,4,7.12,7.19,12.24,7.43a19.18,19.18,0,0,0,7.65-1.15c2.74-1,5.07-3,7.57-4.44s4.55-3.18,7-4.48,5.61-1.79,7.75-3.65c1.57-1.37,3.41-3.29,3.72-5.43C125.92,66.33,126.05,64,126,63.81Z" transform="translate(-47.09 -18.15)"/><path class="cls-3" d="M126,63.81c0-.14,0-.29,0-.43-1.71-1.94-4.26-2.84-5.73-5A23.39,23.39,0,0,1,117,49.93c-.63-3.2-1.46-6.22-1.81-9.49-.31-2.92-.77-5.73-1.29-8.62-1-5.36-4.08-8.86-9.06-11a19,19,0,0,0-15.06.23c-.44.21-.88.43-1.31.66C80.81,27,76.85,36.83,74.61,45.47a46.08,46.08,0,0,0-1.46,10.38c.08.56.16,1.12.25,1.68.79,5.21,2.71,10.87,6.06,15A21.35,21.35,0,0,0,93,80.74,17.5,17.5,0,0,0,100.9,80c2.62-.85,4.9-2.56,7.33-3.81a25.61,25.61,0,0,1,8.21-2.44c1.63-.2,3.3-.26,5-.4a6,6,0,0,0,.64-.49c1.57-1.37,3.41-3.29,3.72-5.43C125.92,66.33,126.05,64,126,63.81Z" transform="translate(-47.09 -18.15)"/><path class="cls-2" d="M154.2,97.81a13.7,13.7,0,0,1-8.13-1.59c-2.86-1.56-4.47-4.84-5-8a2,2,0,0,0,0-.43.37.37,0,0,0-.16-.34.17.17,0,0,0,0-.07c0-.17-.26-.29-.35-.1l0,.07a.39.39,0,0,0-.35.32c-.14.72-1,1.49-1.38,2.07a9.53,9.53,0,0,0-1.63,3.9,7.8,7.8,0,0,0,2.94,7.48c2,1.59,5.07,1.57,7.44,1.09s5.72-1.3,7.09-3.61A.53.53,0,0,0,154.2,97.81Z" transform="translate(-47.09 -18.15)"/><path class="cls-4" d="M161.92,216.75a1.75,1.75,0,0,0-.63-.58.72.72,0,0,0-.17-.56,3.86,3.86,0,0,0-2-1.55c-2.23-.59-4.47,1.33-6.09,2.52a56.25,56.25,0,0,1-7.18,4.52,18.71,18.71,0,0,1-7.2,2.33,2,2,0,0,1-.56.2,3,3,0,0,0-1.15.31c0-.38-.81-14.21-4.23-21.59-6-13-18.87-24.44-19.34-25.58-.36-.88-.73-1.73-1.06-2.63a2.54,2.54,0,0,0-1-1.38c-.56-.35-1.56.34-2.08.52-.21.08-.37.36-.47.53a6.55,6.55,0,0,1-1.26,1.6c-.27.26-.4.81-.63,1.12a.25.25,0,0,0,0,.14.2.2,0,0,0-.1.25c.33.73.8,1.38,1.19,2.08.53.94,11.42,15,17.51,22.34,4.66,5.64,7.13,14.69,8.1,20.47.31,1.79,0,4.94.46,6.7a.56.56,0,0,0,0,.12,3,3,0,0,0,.39,1.34c.45.93,1.91.9,2.76.81a15,15,0,0,0,4.43-1.59,11.62,11.62,0,0,1,1.23-.28,5.21,5.21,0,0,0,.85-.43,7.64,7.64,0,0,1,1.27-.33c.48-.13.95-.32,1.42-.49,3.72-1.31,7.53-2.35,11.25-3.66,1.17-.41,2.75-.91,3.53-1.94a1.76,1.76,0,0,0,.07-1.92,5.52,5.52,0,0,0,.78-.84A2.34,2.34,0,0,0,161.92,216.75Z" transform="translate(-47.09 -18.15)"/><path class="cls-3" d="M161.13,222.06a1.76,1.76,0,0,0,.07-1.92,5.52,5.52,0,0,0,.78-.84,2.34,2.34,0,0,0-.06-2.55,1.75,1.75,0,0,0-.63-.58.72.72,0,0,0-.17-.56,3.86,3.86,0,0,0-2-1.55c-2.23-.59-4.47,1.33-6.09,2.52a56.25,56.25,0,0,1-7.18,4.52,18.71,18.71,0,0,1-7.2,2.33,2,2,0,0,1-.56.2,3,3,0,0,0-1.15.31c0-.06,0-.36-.06-.85a2.32,2.32,0,0,1-.92.08,1.16,1.16,0,0,0-1.06.41c-.47.56-.86.68-1.22.57a20.51,20.51,0,0,0,.31,4.36.56.56,0,0,0,0,.12,3,3,0,0,0,.39,1.34c.45.93,1.91.9,2.76.81a15,15,0,0,0,4.43-1.59,11.62,11.62,0,0,1,1.23-.28,5.21,5.21,0,0,0,.85-.43,7.64,7.64,0,0,1,1.27-.33c.48-.13.95-.32,1.42-.49,3.72-1.31,7.53-2.35,11.25-3.66C158.77,223.59,160.35,223.09,161.13,222.06Z" transform="translate(-47.09 -18.15)"/><path class="cls-3" d="M130.4,220.06c-.38-.7-.48-1.3-1.38-1.65-2.37-.95-4.59,0-6.55,1.39-1.32.93-2.39,2-4.07,2.16-1.83.16-2.89-1-3.71-2.47-1.11-2-2-4.09-2.94-6.14.4-.09.81-.08,1.22-.15l-.06-.06c-.41-.51-1-.23-1.18-1.14a.41.41,0,0,0-.5-.31l-.51.07a1.24,1.24,0,0,0-.24-1.2,3.1,3.1,0,0,0-.86-.47.64.64,0,0,1-.28-.6l-.19,0c-.62.14-1.22-.08-1.84,0a3.7,3.7,0,0,0-1.66.66,1.94,1.94,0,0,0-.94,1.87,4.15,4.15,0,0,0,.39,1.27c.34.83.58,1.7.91,2.54a32.81,32.81,0,0,0,4.51,8.31,9.28,9.28,0,0,0,6,3.91,14,14,0,0,0,5.24,0,24,24,0,0,1,2.67-.3,27.89,27.89,0,0,0,2.76-.71c.89-.21,2.93-.66,3-1.84a2.08,2.08,0,0,0-.14-1c1.34-.18,1.88-2.26,1.14-3.43A2.2,2.2,0,0,0,130.4,220.06Z" transform="translate(-47.09 -18.15)"/><path class="cls-3" d="M184.43,149.29c-1.2-.78-2.32-1.7-3.48-2.53a24.87,24.87,0,0,1-2.88-2c2.19,0,4.43.22,6.61.29.37,0,4.49.26,4-.92-.69-1.63-4.1-1.83-5.55-2.11a42.92,42.92,0,0,0-6.61-1.17,10.33,10.33,0,0,0,2-1.94,5.29,5.29,0,0,0,1-3.2.43.43,0,0,0-.66-.34c-.93.51-1.65,1.73-2.54,2.38a8,8,0,0,1-4.57,1.54c-.66-.19-1.3-.39-1.94-.6h0a5.68,5.68,0,0,0,1,1.2,4.07,4.07,0,0,0-1.68.34.46.46,0,0,0-.07.72c.23.2.54.38.81.59a1.56,1.56,0,0,0-.33.22.42.42,0,0,0-.1.43c.17.6.24.59-.2,1.05a.82.82,0,0,0-.14.58l.26.07a6.82,6.82,0,0,1,3.67,2.9,47.71,47.71,0,0,1,2.69,6.18c.23.58,1.9,5.81,2.81,3.24.4-1.15-.53-3.59-.78-4.75-.15-.72-.3-2.42-1-2.78.78.38,1.47.95,2.21,1.4a28.43,28.43,0,0,0,5.94,2.71c.95.31,2.95,1.17,3.7.11a.37.37,0,0,0,0-.38C187.82,151.07,185.7,150.11,184.43,149.29Z" transform="translate(-47.09 -18.15)"/><path class="cls-3" d="M110.23,154.27c-.75-.76-2.12-1.13-3-1.81a8,8,0,0,1-2.71-4c0-.6,0-1.2,0-1.8h0a.46.46,0,0,0-.55.1l0,.05c-.11-.26-.23-.52-.37-.78a.47.47,0,0,0-.74-.06c-.4.46-.87,1.51-1.31.59a1,1,0,0,0-.85-.52c-.47,0-.69.41-.85.78-.1.21-.08.84-.41.59a6.8,6.8,0,0,1-1.81,4.3A47.37,47.37,0,0,1,92.41,156c-.49.38-5.08,3.39-2.37,3.58,1.22.08,3.32-1.47,4.38-2,.64-.34,2.25-.94,2.39-1.74-.15.85-.52,1.68-.75,2.51a28.74,28.74,0,0,0-1,6.45c0,1-.34,3.15.89,3.59a.4.4,0,0,0,.36-.12c1.18-1.07,1.54-3.37,2-4.82s1-2.69,1.5-4A25.82,25.82,0,0,1,101,156c.59,2.11,1,4.33,1.5,6.45.08.35,1,4.39,2,3.59,1.39-1.1.66-4.43.54-5.91a43.13,43.13,0,0,0-.63-6.68,10.64,10.64,0,0,0,2.39,1.38,5.23,5.23,0,0,0,3.36.13A.43.43,0,0,0,110.23,154.27Z" transform="translate(-47.09 -18.15)"/><path class="cls-7" d="M142.36,92.21a11.76,11.76,0,0,0-1.08,1.45,16.11,16.11,0,0,0-2.2,4.87,7.61,7.61,0,0,0-.1,3.29c.24,1,2.31.91,3,.9,2.76,0,5.56-3,6.9-5.34a13.4,13.4,0,0,1-2.83-1.16A9.23,9.23,0,0,1,142.36,92.21Z" transform="translate(-47.09 -18.15)"/><path class="cls-5" d="M144.83,95.9a5,5,0,0,0-.65,1.13c-.39.64-.86,1.25-1.3,1.86a13.45,13.45,0,0,1-2.91,3.2h0c-.22.12,0,.52.22.37a10.9,10.9,0,0,0,2.74-2.72c.8-1,2-2.41,2.18-3.73C145.13,95.87,144.92,95.82,144.83,95.9Z" transform="translate(-47.09 -18.15)"/><path class="cls-1" d="M169.85,94.73a.3.3,0,0,0-.17-.38c-6.42-2.54-13.9-3.69-20.75-4.36-4.09-.4-8.18-1.06-12.29-1.14-3.58-.07-7.17-.7-10.75-.7-4.08,0-8.14-.08-12.23,0-3.94.06-7.84.56-11.76.74-8,.37-16.25,1.54-23.74,4.43-.25.1-.16.5.12.42A82.38,82.38,0,0,1,89.43,91c4.13-.61,8.3-1.17,12.47-1.41,7.79-.44,15.47-1,23.28-.75,7.4.22,14.91.73,22.26,1.64,6.63.81,13.5,1.65,19.92,3.67l-1.2-.16a48.33,48.33,0,0,0-6-.77c-2.17,0-4.33-.5-6.49-.66s-4.47-.16-6.7-.26a205.64,205.64,0,0,0-27.41.94c-9.22.84-18.38,1.83-27.51,3.36a167.68,167.68,0,0,0-26.54,7.05.16.16,0,0,0,.09.3c8.53-2.4,17.15-4.89,25.87-6.51,9.29-1.74,18.69-2.66,28.09-3.58a223.71,223.71,0,0,1,26.65-1c4.23.09,8.42.34,12.62.82,2.39.27,4.77.5,7.16.82-13.36-.73-26.87-1.29-40.14.54-14.31,2-28.26,5.3-41.38,11.47-.27.13-.07.61.21.49a187.74,187.74,0,0,1,19.77-7.11,166.94,166.94,0,0,1,20.8-4.09,161.12,161.12,0,0,1,23.24-1.27c3.59,0,7.19.13,10.78.22,3.42.09,6.8.52,10.22.38h.24A.2.2,0,0,0,169.85,94.73Z" transform="translate(-47.09 -18.15)"/><path class="cls-1" d="M141.66,68c-1.47-.59-3.93-.84-5,.66a5.77,5.77,0,0,0-.86,1.54c-.95,1.64-.68,4.19,1.11,5.2,3.34,1.9,7.28.26,7.31-3.8A3.9,3.9,0,0,0,141.66,68Z" transform="translate(-47.09 -18.15)"/><path class="cls-1" d="M134.3,68.36a5.07,5.07,0,0,1-2.54-.67,5.35,5.35,0,0,1-1-1.23,8.29,8.29,0,0,0-.67-1.12.35.35,0,0,0-.5,0c-.89,1.13.47,2.85,1.35,3.57s2.82,1.33,3.7.15A.48.48,0,0,0,134.3,68.36Z" transform="translate(-47.09 -18.15)"/><path class="cls-1" d="M136.13,66.44a8.33,8.33,0,0,1-2.24-1.1,5.85,5.85,0,0,1-.82-1c-.2-.3-.27-.66-.54-.9a.48.48,0,0,0-.68,0c-.66.84.26,2.11.84,2.76.85,1,2.17,1.77,3.44,1.21A.58.58,0,0,0,136.13,66.44Z" transform="translate(-47.09 -18.15)"/><path class="cls-6" d="M141,71.25a2,2,0,0,0-.23-.58,2.38,2.38,0,0,0-1.1-1,1.83,1.83,0,0,0-1.4-.1,1.76,1.76,0,0,0-.65.21,1.89,1.89,0,0,0-.86,2,1.63,1.63,0,0,0,.22.63,1.41,1.41,0,0,0,.06.22c.53,1.47,2.53,1.46,3.49.49A1.88,1.88,0,0,0,141,71.25Z" transform="translate(-47.09 -18.15)"/><path class="cls-7" d="M137.48,71.68a1,1,0,0,0-.53.2.76.76,0,0,0-.16.11,1.43,1.43,0,0,0-.41,1,1.45,1.45,0,0,0,1.47,1.5A1.5,1.5,0,0,0,139.14,73,1.46,1.46,0,0,0,137.48,71.68Z" transform="translate(-47.09 -18.15)"/><path class="cls-7" d="M141.27,72.89a.71.71,0,0,0-.72-.53.67.67,0,0,0-.68.63.78.78,0,0,0,0,.3.71.71,0,0,0,1.14.39A.8.8,0,0,0,141.27,72.89Z" transform="translate(-47.09 -18.15)"/><path class="cls-7" d="M137.77,69.54a.39.39,0,0,0-.4-.1.24.24,0,0,0-.15.06.12.12,0,0,0-.05,0l0,0a.55.55,0,0,0-.12.62.42.42,0,0,0,.5.28A.56.56,0,0,0,137.77,69.54Z" transform="translate(-47.09 -18.15)"/><path class="cls-7" d="M187,81.47a5.1,5.1,0,0,0-3.05-2.36,3.38,3.38,0,0,0-2.72.07.86.86,0,0,0-.3.42,1,1,0,0,0-.41.85c0,.86,1.31.78,1.87.76,1.61,0,2.21,1.62,3.66,1.9C186.89,83.28,187.25,82.1,187,81.47Z" transform="translate(-47.09 -18.15)"/><path class="cls-7" d="M179.59,81.18c-.21-.57-1.05-1-1.51-.45a1,1,0,0,0-.21.67.43.43,0,0,0,0,.11.88.88,0,0,0,.54.78.81.81,0,0,0,.94-.08A1,1,0,0,0,179.59,81.18Z" transform="translate(-47.09 -18.15)"/></svg>