<svg id="Layer_1" data-name="Layer 1" xmlns="http://www.w3.org/2000/svg" viewBox="0 0 48.28 177.29"><defs><style>.cls-1{fill:#ff426b;}.cls-2{fill:#fff;}</style></defs><title>ms-balloon</title><path class="cls-1" d="M48.28,27.56C48.19,12.26,37.3-.08,24,0S-.09,12.55,0,27.85C.07,39.37,14.11,59.31,14.11,59.31l20.58-.12S48.35,39.08,48.28,27.56Z"/><path class="cls-2" d="M19.89,55.87a.43.43,0,0,1-.43-.43l-.08-12.58a.43.43,0,0,1,.43-.43h0a.44.44,0,0,1,.44.43l.07,12.58a.43.43,0,0,1-.43.43Z"/><path class="cls-2" d="M28.73,55.82a.44.44,0,0,1-.44-.43l-.07-12.58a.44.44,0,0,1,.43-.44h0a.43.43,0,0,1,.43.43l.08,12.58a.44.44,0,0,1-.43.44Z"/><path class="cls-2" d="M18.59,43.26a3.45,3.45,0,0,1,0-6.9h0a3.38,3.38,0,0,1,3.31,3.43.44.44,0,0,1-.43.44h0a.44.44,0,0,1-.43-.44,2.52,2.52,0,0,0-2.45-2.56h0a2.58,2.58,0,0,0,0,5.16h0l11.11-.06h0a.43.43,0,1,1,0,.86l-11.11.07Z"/><path class="cls-2" d="M29.86,43.19a.44.44,0,0,1-.44-.43.43.43,0,0,1,.43-.43,2.42,2.42,0,0,0,1.72-.76,2.65,2.65,0,0,0,.71-1.84,2.59,2.59,0,0,0-.73-1.83,2.47,2.47,0,0,0-1.73-.74,2.34,2.34,0,0,0-1.72.76,2.66,2.66,0,0,0-.71,1.84.43.43,0,0,1-.43.43h0a.44.44,0,0,1-.44-.43,3.53,3.53,0,0,1,.95-2.44,3.25,3.25,0,0,1,2.35-1h0a3.23,3.23,0,0,1,2.33,1,3.55,3.55,0,0,1,0,4.87,3.19,3.19,0,0,1-2.34,1Z"/><path class="cls-2" d="M20.57,73.7a2.43,2.43,0,0,1,0-4.86l7.68,0h0a2.43,2.43,0,0,1,0,4.86h0l-7.68,0Zm7.68-.48h0Zm0-3.56h0l-7.67,0a1.56,1.56,0,0,0-1.09,2.67,1.54,1.54,0,0,0,1.1.45h0l7.67,0h0a1.56,1.56,0,0,0,1.55-1.57,1.55,1.55,0,0,0-1.56-1.55Z"/><path class="cls-2" d="M16.83,66.73a2.43,2.43,0,0,1,0-4.86l15.07-.1a2.49,2.49,0,0,1,2.45,2.42,2.42,2.42,0,0,1-2.42,2.44l-15.07.1ZM31.9,62.64h0l-15.07.09a1.57,1.57,0,1,0,0,3.13h0l15.07-.09h0A1.58,1.58,0,0,0,33,65.3a1.56,1.56,0,0,0-1.11-2.66Z"/><path class="cls-2" d="M42.4,177.29a.56.56,0,0,1-.56-.56v-2a.56.56,0,0,1,.56-.56h0a.57.57,0,0,1,.56.56v2a.56.56,0,0,1-.56.56Zm0-10.33a.56.56,0,0,1-.56-.56v-2a.56.56,0,0,1,.56-.56h0a.56.56,0,0,1,.56.55v2a.57.57,0,0,1-.56.57Zm0-10.34a.57.57,0,0,1-.57-.55v-2a.57.57,0,0,1,.56-.57h0a.56.56,0,0,1,.56.56v2a.56.56,0,0,1-.56.56Zm0-10.33a.56.56,0,0,1-.56-.56v-2a.55.55,0,0,1,.55-.56h0a.56.56,0,0,1,.56.56v2a.56.56,0,0,1-.56.56Zm0-10.33a.56.56,0,0,1-.56-.56v-2a.56.56,0,0,1,.56-.56h0a.56.56,0,0,1,.56.55v2a.57.57,0,0,1-.56.57Zm-4.1-6.25h-2a.56.56,0,1,1,0-1.12h2a.56.56,0,0,1,0,1.12Zm-10.34,0h-2a.56.56,0,1,1,0-1.12h2a.56.56,0,1,1,0,1.12ZM24.16,123a.57.57,0,0,1-.57-.56v-2a.56.56,0,0,1,.56-.56h0a.56.56,0,0,1,.56.56v2A.55.55,0,0,1,24.16,123Zm0-10.33a.56.56,0,0,1-.56-.56v-2a.56.56,0,0,1,.56-.56h0a.57.57,0,0,1,.57.56v2a.56.56,0,0,1-.56.56Zm0-10.34a.56.56,0,0,1-.56-.56v-2a.57.57,0,0,1,.56-.56h0a.56.56,0,0,1,.56.56v2a.56.56,0,0,1-.56.56ZM24.1,92a.56.56,0,0,1-.56-.56v-2a.56.56,0,0,1,.56-.56h0a.56.56,0,0,1,.56.56v2a.55.55,0,0,1-.55.56Zm0-10.33a.56.56,0,0,1-.56-.56v-2a.54.54,0,0,1,.56-.56.56.56,0,0,1,.56.56v2a.56.56,0,0,1-.56.56Z"/></svg>