<svg id="Layer_1" data-name="Layer 1" xmlns="http://www.w3.org/2000/svg" viewBox="0 0 52.9 95.18"><defs><style>.cls-1{fill:#e8dfcf;}.cls-2{fill:#f3f5f4;}.cls-3{fill:#70927f;}</style></defs><title>ms-cs-plant</title><path class="cls-1" d="M26.27,0h0A10.51,10.51,0,0,1,36.77,10.51V78.38A2.75,2.75,0,0,1,34,81.12H18.5a2.75,2.75,0,0,1-2.75-2.75V10.51A10.51,10.51,0,0,1,26.27,0Z"/><path class="cls-1" d="M35.56,41.54H28.65a5.18,5.18,0,0,1,0-10.36h6.91a7,7,0,0,0,7-7V17A5.18,5.18,0,1,1,52.9,17V24.2A17.36,17.36,0,0,1,35.56,41.54Z"/><path class="cls-1" d="M24.59,55.19H17.34A17.36,17.36,0,0,1,0,37.85V30.93a5.18,5.18,0,0,1,10.36,0v6.92a7,7,0,0,0,7,7h7.25a5.18,5.18,0,0,1,0,10.36Z"/><rect class="cls-2" x="20.28" y="11.79" width="0.86" height="3.6"/><rect class="cls-2" x="31.29" y="6.39" width="0.86" height="3.6"/><rect class="cls-2" x="25.16" y="27.33" width="0.86" height="3.6"/><rect class="cls-2" x="28.21" y="16.42" width="0.86" height="3.6"/><rect class="cls-2" x="32.93" y="47.25" width="0.86" height="3.6"/><rect class="cls-2" x="44.7" y="15.15" width="0.86" height="3.6"/><rect class="cls-2" x="20.28" y="38.76" width="0.86" height="3.6"/><rect class="cls-2" x="21.18" y="54.15" width="0.86" height="3.6"/><rect class="cls-2" x="29.29" y="37.94" width="0.86" height="3.6"/><rect class="cls-2" x="3.03" y="38.67" width="0.86" height="3.6"/><rect class="cls-2" x="7.17" y="31.94" width="0.86" height="3.6"/><rect class="cls-2" x="9.07" y="42.27" width="0.86" height="3.6"/><rect class="cls-2" x="33.69" y="24.2" width="0.86" height="3.6"/><rect class="cls-2" x="46.5" y="29.13" width="0.86" height="3.6"/><path class="cls-2" d="M44.07,61.19H8.83A1.58,1.58,0,0,0,7.27,63l3.65,27.34a5.63,5.63,0,0,0,5.58,4.87H37a5.61,5.61,0,0,0,5.58-5l3-27.24A1.58,1.58,0,0,0,44.07,61.19Z"/><polygon class="cls-3" points="44 77.66 44.61 72.12 8.49 72.12 9.23 77.66 44 77.66"/></svg>