<svg id="Layer_1" data-name="Layer 1" xmlns="http://www.w3.org/2000/svg" xmlns:xlink="http://www.w3.org/1999/xlink" viewBox="0 0 146.6 165.9"><defs><style>.cls-1,.cls-4,.cls-9{fill:none;}.cls-2{fill:#fff;}.cls-15,.cls-3{fill:#f3f5f4;}.cls-15,.cls-4{stroke:#70927f;stroke-width:0.25px;}.cls-15,.cls-4,.cls-9{stroke-miterlimit:10;}.cls-5{clip-path:url(#clip-path);}.cls-6{fill:#b14330;}.cls-7{fill:#ffb84f;}.cls-8{fill:#5f281c;}.cls-9{stroke:#422e2d;}.cls-10{fill:#422e2d;}.cls-11{fill:#9a2532;}.cls-12{fill:#ffd788;}.cls-13{fill:#a5bbaa;}.cls-14{fill:#e8dfcf;}</style><clipPath id="clip-path"><circle class="cls-1" cx="76.21" cy="70.39" r="70.39"/></clipPath></defs><title>ms-cs-call</title><circle class="cls-2" cx="70.51" cy="72.07" r="70.39"/><circle class="cls-3" cx="76.21" cy="70.39" r="70.39"/><circle class="cls-4" cx="70.51" cy="72.07" r="70.39"/><g class="cls-5"><polygon class="cls-6" points="58.12 142.46 46.48 142.46 47.4 116.94 57.54 116.94 58.12 142.46"/><polygon class="cls-7" points="51.4 73.69 39.27 115.52 43.44 119.65 39.27 124.68 61.36 127.16 51.4 73.69"/><polygon class="cls-7" points="58.12 143.37 92.47 143.37 104.31 68.58 85.25 67.39 63.85 68.58 51.4 73.69 58.12 143.37"/><polygon class="cls-6" points="69.65 79.73 85.25 67.39 79.54 48.48 62.96 50.65 69.65 79.73"/><polygon class="cls-8" points="66.38 65.49 74.01 55.96 62.96 50.65 66.38 65.49"/><path class="cls-6" d="M51.74,40.59C51,49.29,53.83,60,62.53,60.72s19.22-9.58,20-18.28,4-23.15-7.81-24.19C57.57,16.73,52.51,31.89,51.74,40.59Z"/><path class="cls-9" d="M67.5,32.87a7,7,0,0,0,3.88,4.85"/><path class="cls-9" d="M54.34,33.4a5.23,5.23,0,0,0,4.16-.53"/><path class="cls-2" d="M57.21,48.48a67.35,67.35,0,0,0,10.05,0s-3.05,3.75-7.58,3.37C58.64,51.76,57.21,48.48,57.21,48.48Z"/><ellipse class="cls-10" cx="67.26" cy="40.23" rx="1.22" ry="2.21"/><ellipse class="cls-10" cx="56.32" cy="38.86" rx="1.22" ry="2.21"/><path class="cls-11" d="M60.19,40.23a4.87,4.87,0,0,1-5.3,3.43S60.41,50.73,60.19,40.23Z"/><path class="cls-10" d="M85.25,46c10.81-12.93,14.92-15.72,0-26.06,0,0-1.45-9.83-14.28-6.67-19.78,4.88-16.15,6.67-16.79,17.45,0,0,10.66,1.36,19.27-3.67,0,0,.3,6.06,3.84,9.15l-.61,6.48Z"/><path class="cls-9" d="M85.25,19.93a7,7,0,0,0,0-5.54"/><path class="cls-9" d="M84.38,21.42s4.7-2.1,5.09-4.26"/><ellipse class="cls-6" cx="82.52" cy="44.88" rx="6.52" ry="5.06" transform="translate(11.35 106.19) rotate(-69.29)"/><polygon class="cls-7" points="88.35 68.58 84.38 58.56 62.23 63.72 68.49 82.58 88.35 68.58"/><polygon class="cls-12" points="62.96 65.92 75.37 65.26 63.85 68.58 62.96 65.92"/><polygon class="cls-7" points="104.31 68.58 107.13 123.93 89.7 133.07 88.35 68.58 104.31 68.58"/><rect class="cls-13" x="77.85" y="40.85" width="8.69" height="18.16" rx="1.31" transform="translate(18.58 -22.2) rotate(17.31)"/><rect class="cls-14" x="79.14" y="41.3" width="9" height="18.16" rx="1.31" transform="translate(18.78 -22.61) rotate(17.31)"/><circle class="cls-13" cx="83.62" cy="43.27" r="0.92"/><path class="cls-6" d="M103.62,121.57,86.87,59.13l-2.55,1.16s-2.38,48.24,8.49,66.65Z"/><path class="cls-6" d="M86.87,59.13l5-10.92s-13.1,3.1-7.52,12.08Z"/><path class="cls-6" d="M91.84,48.21,86,43.11S84,46.52,90.8,48.86Z"/><path class="cls-6" d="M84.31,52.45l3.31-2.17L84.16,46s-1.22,2.22,1.93,4.48Z"/><path class="cls-6" d="M90.8,48.86,84.65,44s-1.78,3.1,5.2,5.26Z"/><polygon class="cls-12" points="58.12 143.37 51.4 73.69 62.23 143.37 58.12 143.37"/></g><path class="cls-13" d="M104.59,34l.27-.06c4.17,2.5,6.88,2.38,8.25.26l0-.07c1.16-1.8.58-4-1.74-5.43a8.32,8.32,0,0,0-6.88-.83l-.76-4.13a11.68,11.68,0,0,1,10,1.41c4.51,2.9,6,7.37,3.37,11.4l0,.06c-2.61,4.06-6.71,4-10.68,2.33l-2,2.36-2.61-1.67Zm-5.37,7.73,4.31,2.77-2.85,4.45-4.31-2.78Z"/><circle class="cls-15" cx="82.39" cy="157.03" r="8.74"/><polygon class="cls-15" points="132.3 76.12 128.94 89.95 118.47 79.48 132.3 76.12"/></svg>