<svg id="Layer_1" data-name="Layer 1" xmlns="http://www.w3.org/2000/svg" viewBox="0 0 136.97 248.27"><defs><style>.cls-1{fill:#86593e;}.cls-2{fill:#b58e67;}.cls-3{fill:#ffb84f;}.cls-4{fill:#ffd788;}.cls-5{fill:#b7c9b9;}.cls-6{fill:#efebdf;}.cls-7{fill:#5f281c;}.cls-8{fill:#fff;}.cls-9{fill:#b14330;}.cls-10{fill:#422e2d;}.cls-11{fill:none;stroke:#422e2d;stroke-miterlimit:10;}.cls-12{fill:#9a2532;}.cls-13{fill:#709480;}.cls-14{fill:#b4c6b6;}.cls-15{fill:#f1eadf;}.cls-16{fill:#b1432d;}.cls-17{fill:#a5bbaa;}.cls-18{fill:#e8dfcf;}</style></defs><title>ms-cs-girl</title><rect class="cls-1" x="19.89" y="199.71" width="55.99" height="8.22"/><polygon class="cls-2" points="97.28 248.27 90.31 248.27 57.47 156.79 64.44 156.79 97.28 248.27"/><polygon class="cls-2" points="41.05 248.27 48.02 248.27 56.23 156.79 49.26 156.79 41.05 248.27"/><polygon class="cls-2" points="0 248.27 6.97 248.27 39.81 156.79 32.84 156.79 0 248.27"/><path class="cls-3" d="M8.83,92.08H66.71a5.42,5.42,0,0,1,5.42,5.42v60.11a0,0,0,0,1,0,0h-62a3.55,3.55,0,0,1-3.55-3.55V94.31a2.23,2.23,0,0,1,2.23-2.23Z"/><path class="cls-3" d="M35.12,157.61H90.06A4.36,4.36,0,0,1,94.42,162v0a4.36,4.36,0,0,1-4.36,4.36H35.12a0,0,0,0,1,0,0v-8.73A0,0,0,0,1,35.12,157.61Z"/><path class="cls-4" d="M11.3,148.23V95.77a3.69,3.69,0,0,0-3.69-3.69h0a3.69,3.69,0,0,0-3.69,3.69v53.15a17.41,17.41,0,0,0,17.41,17.42H34.12A4.37,4.37,0,0,0,38.49,162h0a4.37,4.37,0,0,0-4.37-4.36H20.68A9.38,9.38,0,0,1,11.3,148.23Z"/><path class="cls-5" d="M70.56,156.79H41.12a20.33,20.33,0,0,1-19.37-26.53l4.86-15.21,43.18-5.21Z"/><polygon class="cls-6" points="74.96 53.11 87.37 97.32 74.96 97.32 61.9 75.21 74.96 53.11"/><path class="cls-7" d="M86.8,95.29l31.83,6.16-.86,2.65S89.52,110.83,75,97.32Z"/><path class="cls-7" d="M118.63,101.45l13.69-1.25-3.79,3.42a8.48,8.48,0,0,1-10.76.48h0Z"/><path class="cls-7" d="M132.32,100.2l2.49,5.6s-3.61.81-3.55-4.64Z"/><path class="cls-7" d="M129.29,100.93l2.26,5.9S127.38,107.3,129.29,100.93Z"/><path class="cls-7" d="M132.32,100.2l4.65,3.69s-3.13,1.65-5-3Z"/><path class="cls-8" d="M75,53.11,61.22,47.57H45L24.28,53.73,33.6,93.11l-8.5,21.25H65.25L62.17,92.12l.13-.39a8.8,8.8,0,0,1,4.5-5.08c3.59-1.81,5.67-4.25,6-6.84a13.79,13.79,0,0,0-.23-3.87A38.18,38.18,0,0,1,73.67,57Z"/><path class="cls-6" d="M67.52,87.85a9.68,9.68,0,0,0,4.85-6.51s-4.92,4.42-22,2.83C30.69,82.34,43,96.89,35.94,114.36H65.25L62.17,92.12l.13-.39C63,89.49,65.41,88.91,67.52,87.85Z"/><polygon class="cls-9" points="58.73 58.42 45.01 47.57 52.28 32.85 64.61 32.85 58.73 58.42"/><polygon class="cls-7" points="61.61 45.9 54.9 37.52 64.61 32.85 61.61 45.9"/><path class="cls-10" d="M51.59,2.65A12.75,12.75,0,0,1,58.84,0c3.51,0,12.55,3.71,15.9,12.2S79.37,27.86,76,37.47L61.19,32.85Z"/><path class="cls-9" d="M74.47,24c.68,7.65-1.84,17-9.48,17.69S45.93,33.29,45.25,25.64s-1.33-20.35,9-21.27C69.35,3,73.8,16.37,74.47,24Z"/><path class="cls-11" d="M68.44,17.85a3.61,3.61,0,0,1,3.85.39"/><path class="cls-10" d="M44.29,24.44s18-.21,22-15.91c0,0,2.74.47,6.51,4.71C72.76,13.24,71,4,56,4,40.66,4,44.29,24.44,44.29,24.44Z"/><path class="cls-11" d="M66,7.35s3,12.23-16.24,16.31"/><path class="cls-10" d="M51.59,21.59s-3,9.35,1.49,18.24c0,0-14.61,1.91-24.25-8.89-.24-9.74,4.63-19.2,10.75-25.48C44.7.2,59.24-1.52,62.93,8.53,62.93,8.53,52.9,8.24,51.59,21.59Z"/><path class="cls-11" d="M77.44,38.13s6.82-19.08-8.07-31.87"/><path class="cls-11" d="M27.33,29.53S28.82,0,54.17,2.17"/><path class="cls-8" d="M69.67,30.94a57.94,57.94,0,0,1-8.84,0s2.68,3.3,6.66,3C68.41,33.83,69.67,30.94,69.67,30.94Z"/><ellipse class="cls-10" cx="60.83" cy="23.7" rx="1.08" ry="1.95"/><ellipse class="cls-10" cx="70.45" cy="22.49" rx="1.08" ry="1.95"/><path class="cls-12" d="M67,23.7a4.29,4.29,0,0,0,4.66,3S66.85,32.92,67,23.7Z"/><ellipse class="cls-9" cx="47.47" cy="27.78" rx="4.45" ry="5.73" transform="translate(-6.76 18.59) rotate(-20.71)"/><rect class="cls-13" x="44.84" y="12.05" width="2.17" height="11.61"/><rect class="cls-14" x="43.4" y="12.05" width="2.17" height="11.61"/><path class="cls-13" d="M48.25,14.67V9a7.29,7.29,0,0,1,3.47-6C52.8,2.36,55.84.46,55.84.46s-5.28,0-7.63.91l-.62.24a6.41,6.41,0,0,0-4.12,6v7.07Z"/><path class="cls-14" d="M46.8,14.67V9a6.41,6.41,0,0,1,3.48-5.7L55.84.46,54.14.32a16.7,16.7,0,0,0-7.37,1.05l-.62.24A6.41,6.41,0,0,0,42,7.6v7.07Z"/><circle class="cls-14" cx="45.45" cy="26.34" r="6.14"/><circle class="cls-15" cx="44.24" cy="26.34" r="6.14"/><circle class="cls-14" cx="44.24" cy="26.34" r="3.85"/><circle class="cls-15" cx="44.24" cy="26.34" r="1.75"/><polygon class="cls-15" points="66.08 38.63 51.46 36.95 43.84 26.63 44.64 26.04 52.01 36 66.19 37.63 66.08 38.63"/><rect class="cls-14" x="62.17" y="36.44" width="4.87" height="2.7" rx="0.64"/><polygon class="cls-6" points="34.65 77.44 31.85 85.69 30.19 79.99 34.65 77.44"/><polygon class="cls-8" points="24.28 53.73 6.6 97.85 21.21 97.85 34.65 77.44 24.28 53.73"/><path class="cls-16" d="M23.3,94.68l61.5,6.77-.86,2.65s-48,16.39-77.34-6.25Z"/><path class="cls-16" d="M84.8,101.45l13.7-1.25-3.8,3.42a8.48,8.48,0,0,1-10.76.48h0Z"/><path class="cls-16" d="M98.5,100.2l2.48,5.6s-3.61.81-3.54-4.64Z"/><path class="cls-16" d="M95.47,100.93l2.25,5.9S93.56,107.3,95.47,100.93Z"/><path class="cls-16" d="M98.5,100.2l4.65,3.69s-3.14,1.65-5-3Z"/><path class="cls-5" d="M98.44,125.42H78.75L69,230.59h3c22.84-61.11,29.4-88.61,31.29-99.31A5,5,0,0,0,98.44,125.42Z"/><path class="cls-17" d="M69.41,226.58s21.81-56.2,16.19-94.19c-.35-2.41-6.85-7-6.85-7Z"/><path class="cls-5" d="M79.38,125.42H62.66L23.41,226.58l2.46,4C54.16,187.1,80,148.51,85.33,134A6.35,6.35,0,0,0,79.38,125.42Z"/><path class="cls-17" d="M56.23,143c-9.56,2.34-19.62-1-21.58-7a9.34,9.34,0,0,1,3.45-10.58l-4.19-11.25-7.3.88-4.86,15.21a20.33,20.33,0,0,0,19.37,26.53h9.37L23.41,226.58C64,161.94,56.23,143,56.23,143Z"/><polygon class="cls-16" points="72.08 230.59 72.08 243.12 79.93 243.97 69.68 243.97 69.04 236.31 65.42 231.56 69.41 226.58 72.08 230.59"/><path class="cls-18" d="M79.93,244l-1.22,4.3h-8.1a2.53,2.53,0,0,1-2.53-2.53v-8.45l-4.14-5.38,5.47-5.33L69.68,244Z"/><polygon class="cls-18" points="63.94 231.91 63.94 248.27 66.79 233.72 63.94 231.91"/><polygon class="cls-16" points="26.08 230.59 26.08 243.12 33.93 243.97 23.68 243.97 23.04 236.31 19.42 231.56 23.41 226.58 26.08 230.59"/><path class="cls-18" d="M33.93,244l-1.23,4.3H24.6a2.52,2.52,0,0,1-2.52-2.53v-8.45l-4.14-5.38,5.47-5.33L23.68,244Z"/><polygon class="cls-18" points="17.94 231.91 17.94 248.27 20.79 233.72 17.94 231.91"/></svg>