<svg id="Layer_1" data-name="Layer 1" xmlns="http://www.w3.org/2000/svg" viewBox="0 0 62.53 62.53"><defs><style>.cls-1{fill:#fff;}</style></defs><title>ms-circle</title><path class="cls-1" d="M31.27,62.53A31.27,31.27,0,1,1,62.53,31.27,31.3,31.3,0,0,1,31.27,62.53Zm0-61.86a30.6,30.6,0,1,0,30.6,30.6A30.63,30.63,0,0,0,31.27.67Zm0,53.13A22.54,22.54,0,1,1,53.8,31.27,22.56,22.56,0,0,1,31.27,53.8Zm0-44.4A21.87,21.87,0,1,0,53.13,31.27,21.89,21.89,0,0,0,31.27,9.4Zm0,34.21A12.35,12.35,0,1,1,43.61,31.27,12.36,12.36,0,0,1,31.27,43.61Zm0-24A11.68,11.68,0,1,0,42.94,31.27,11.69,11.69,0,0,0,31.27,19.59Zm0,7.37a4.34,4.34,0,1,0,4.33,4.34A4.33,4.33,0,0,0,31.3,27Z"/></svg>