<svg id="Layer_1" data-name="Layer 1" xmlns="http://www.w3.org/2000/svg" viewBox="0 0 244.42 206.79"><defs><style>.cls-1{fill:#70927f;}.cls-2{fill:#a5bbaa;}.cls-3{fill:#e3e3e3;}.cls-4{fill:none;stroke:#f3f5f4;stroke-linecap:round;stroke-linejoin:round;}.cls-5{fill:#d1cec7;}.cls-6{fill:#e8dfcf;}</style></defs><title>ms-cs-desk</title><path class="cls-1" d="M194.77,48.88H138.43a6.14,6.14,0,0,1-6.13-6.49L134.5,5.8A6.14,6.14,0,0,1,140.63,0H197a6.14,6.14,0,0,1,6.13,6.49l-2.2,36.59A6.14,6.14,0,0,1,194.77,48.88Z"/><path class="cls-2" d="M198.3,48.88H142a6.16,6.16,0,0,1-6.14-6.49L138,5.8A6.16,6.16,0,0,1,144.16,0H200.5a6.14,6.14,0,0,1,6.13,6.49l-2.2,36.59A6.14,6.14,0,0,1,198.3,48.88Z"/><path class="cls-1" d="M178.74,35H161.16l7.38,27a1.39,1.39,0,0,1-1.34,1.76H150v3.08h31.53a4.46,4.46,0,0,0,4.3-5.64Zm-1.35,22.14a4,4,0,1,1,4-4A4,4,0,0,1,177.39,57.18Z"/><path class="cls-1" d="M175.57,24.46H165.5a4.34,4.34,0,0,0-4.34,4.35V35h18.76V28.81A4.35,4.35,0,0,0,175.57,24.46Z"/><path class="cls-3" d="M178.46,24.46H168.39a4.34,4.34,0,0,0-4.34,4.35V35h18.76V28.81A4.35,4.35,0,0,0,178.46,24.46Z"/><path class="cls-3" d="M189.93,61,182.87,35H164.05l1,3.89h0l6.63,24.37a2.83,2.83,0,0,1-2.54,3.57h16.25A4.65,4.65,0,0,0,189.93,61Zm-11.1-3.81a4,4,0,1,1,4-4A4,4,0,0,1,178.83,57.18Z"/><path class="cls-2" d="M178.46,24.46H168.39a4.34,4.34,0,0,0-4.34,4.35V35h18.76V28.81A4.35,4.35,0,0,0,178.46,24.46Z"/><path class="cls-2" d="M189.93,61,182.87,35H164.05l1,3.89h0l6.63,24.37a2.83,2.83,0,0,1-2.54,3.57h16.25A4.65,4.65,0,0,0,189.93,61Zm-11.1-3.81a4,4,0,1,1,4-4A4,4,0,0,1,178.83,57.18Z"/><path class="cls-4" d="M189.93,61,182.87,35h-.06V28.81a4.35,4.35,0,0,0-4.35-4.35H168.39"/><path class="cls-4" d="M182.87,35l7.06,26a4.65,4.65,0,0,1-4.49,5.88"/><path class="cls-5" d="M143.32,32.63h0a.44.44,0,0,1-.42-.47l1.21-21.63a.44.44,0,0,1,.47-.41.44.44,0,0,1,.42.46l-1.22,21.63A.44.44,0,0,1,143.32,32.63Z"/><path class="cls-5" d="M146.2,32.63h0a.44.44,0,0,1-.42-.47L147,10.53a.42.42,0,0,1,.46-.41.44.44,0,0,1,.42.46l-1.21,21.63A.45.45,0,0,1,146.2,32.63Z"/><path class="cls-5" d="M149.09,32.63h0a.43.43,0,0,1-.41-.47l1.21-21.63a.42.42,0,0,1,.46-.41.43.43,0,0,1,.42.46l-1.21,21.63A.44.44,0,0,1,149.09,32.63Z"/><path class="cls-5" d="M152,32.63h0a.43.43,0,0,1-.41-.47l1.21-21.63a.44.44,0,0,1,.47-.41.43.43,0,0,1,.41.46l-1.21,21.63A.44.44,0,0,1,152,32.63Z"/><path class="cls-5" d="M154.85,32.63h0a.44.44,0,0,1-.42-.47l1.21-21.63a.45.45,0,0,1,.89.05l-1.22,21.63A.43.43,0,0,1,154.85,32.63Z"/><path class="cls-5" d="M188.3,32.63h0a.43.43,0,0,1-.41-.47l1.21-21.63a.44.44,0,0,1,.88.05l-1.21,21.63A.44.44,0,0,1,188.3,32.63Z"/><path class="cls-5" d="M191.18,32.63h0a.44.44,0,0,1-.42-.47L192,10.53a.44.44,0,0,1,.47-.41.44.44,0,0,1,.42.46l-1.22,21.63A.43.43,0,0,1,191.18,32.63Z"/><path class="cls-5" d="M194.07,32.63h0a.45.45,0,0,1-.42-.47l1.22-21.63a.42.42,0,0,1,.46-.41.44.44,0,0,1,.42.46l-1.21,21.63A.45.45,0,0,1,194.07,32.63Z"/><path class="cls-5" d="M197,32.63h0a.43.43,0,0,1-.41-.47l1.21-21.63a.44.44,0,0,1,.88.05l-1.21,21.63A.44.44,0,0,1,197,32.63Z"/><path class="cls-5" d="M199.83,32.63h0a.44.44,0,0,1-.42-.47l1.21-21.63a.45.45,0,0,1,.89.05l-1.22,21.63A.44.44,0,0,1,199.83,32.63Z"/><polygon class="cls-1" points="65.44 75.04 109.15 75.04 109.34 83.94 62.59 83.94 65.44 75.04"/><path class="cls-6" d="M22.39,75H62.67a0,0,0,0,1,0,0V199.45a7.34,7.34,0,0,1-7.34,7.34H29.73a7.34,7.34,0,0,1-7.34-7.34V75A0,0,0,0,1,22.39,75Z"/><path class="cls-2" d="M16.65,75H56.93a0,0,0,0,1,0,0V199.45a7.34,7.34,0,0,1-7.34,7.34H24a7.34,7.34,0,0,1-7.34-7.34V75A0,0,0,0,1,16.65,75Z"/><path class="cls-6" d="M178.42,75H218.7a0,0,0,0,1,0,0V199.45a7.34,7.34,0,0,1-7.34,7.34h-25.6a7.34,7.34,0,0,1-7.34-7.34V75A0,0,0,0,1,178.42,75Z"/><path class="cls-2" d="M172.67,75h40.28a0,0,0,0,1,0,0V199.45a7.34,7.34,0,0,1-7.34,7.34H180a7.34,7.34,0,0,1-7.34-7.34V75A0,0,0,0,1,172.67,75Z"/><rect class="cls-2" y="66.81" width="213.62" height="12.68" rx="4.65"/><rect class="cls-6" x="92.55" y="66.81" width="151.88" height="12.68" rx="4.65"/><rect class="cls-1" x="16.65" y="79.49" width="40.28" height="7.42"/><rect class="cls-1" x="172.67" y="79.49" width="40.28" height="7.42"/></svg>