<svg id="Layer_1" data-name="Layer 1" xmlns="http://www.w3.org/2000/svg" viewBox="0 0 190.47 140.33"><defs><style>.cls-1{fill:#011833;}.cls-2{fill:#fff;}.cls-3{fill:#011121;}.cls-4{fill:#00080f;}.cls-5{opacity:0.3;}.cls-6{fill:#4d528c;}.cls-7,.cls-9{fill:#ff426b;}.cls-8{fill:#c13056;}.cls-9{font-size:9.55px;font-family:Montserrat-Bold, Montserrat Bold;font-weight:700;}.cls-10{letter-spacing:-0.01em;}.cls-11{letter-spacing:0.02em;}.cls-12{letter-spacing:0em;}</style></defs><title>ms-laptop</title><rect class="cls-1" width="177.26" height="115.19"/><rect class="cls-2" x="5.02" y="4.84" width="165.71" height="104.4"/><rect class="cls-3" x="4.82" y="4.83" width="4.77" height="105"/><rect class="cls-3" x="177.26" width="13.21" height="115.19"/><rect class="cls-1" x="181.81" y="7.1" width="3.98" height="13.64"/><rect class="cls-1" x="181.81" y="29.26" width="3.98" height="13.64"/><rect class="cls-3" x="61.5" y="115.19" width="55.68" height="16.05"/><rect class="cls-1" x="36.79" y="131.24" width="105.11" height="9.09"/><rect class="cls-4" x="117.18" y="115.19" width="9.09" height="16.05"/><rect class="cls-4" x="137.07" y="131.24" width="15.06" height="9.09"/><g class="cls-5"><path class="cls-6" d="M159.93,37.21H48.34a.42.42,0,0,1,0-.84H159.93a.42.42,0,0,1,0,.84Z"/><path class="cls-6" d="M159.93,46.12H48.34a.41.41,0,0,1-.42-.41.42.42,0,0,1,.42-.42H159.93a.42.42,0,0,1,.42.42A.41.41,0,0,1,159.93,46.12Z"/><path class="cls-6" d="M159.93,55H48.34a.42.42,0,0,1-.42-.42.41.41,0,0,1,.42-.41H159.93a.41.41,0,0,1,.42.41A.42.42,0,0,1,159.93,55Z"/><path class="cls-6" d="M159.93,64H48.34a.42.42,0,0,1-.42-.42.41.41,0,0,1,.42-.41H159.93a.41.41,0,0,1,.42.41A.42.42,0,0,1,159.93,64Z"/><path class="cls-6" d="M159.93,72.88H48.34a.42.42,0,1,1,0-.84H159.93a.42.42,0,0,1,0,.84Z"/><path class="cls-6" d="M159.93,81.79H48.34a.41.41,0,0,1-.42-.41.42.42,0,0,1,.42-.42H159.93a.42.42,0,0,1,.42.42A.41.41,0,0,1,159.93,81.79Z"/><path class="cls-6" d="M159.93,90.71H48.34a.41.41,0,0,1-.42-.41.42.42,0,0,1,.42-.42H159.93a.42.42,0,0,1,.42.42A.41.41,0,0,1,159.93,90.71Z"/><path class="cls-6" d="M159.93,99.63H48.34a.42.42,0,0,1-.42-.42.41.41,0,0,1,.42-.41H159.93a.41.41,0,0,1,.42.41A.42.42,0,0,1,159.93,99.63Z"/></g><rect class="cls-7" x="53.45" y="55.15" width="16.23" height="43.47"/><rect class="cls-7" x="81.29" y="49.17" width="16.27" height="49.46"/><rect class="cls-7" x="109.17" y="40.83" width="16.27" height="57.79"/><rect class="cls-7" x="137.05" y="35.17" width="16.27" height="63.46"/><rect class="cls-8" x="67.15" y="55.15" width="2.5" height="43.51"/><rect class="cls-8" x="95.06" y="49.17" width="2.5" height="49.5"/><rect class="cls-8" x="122.94" y="40.83" width="2.5" height="57.83"/><rect class="cls-8" x="150.82" y="35.17" width="2.5" height="63.5"/><text id="Marketing_Campaign" data-name="Marketing Campaign" class="cls-9" transform="translate(48.34 19.78)"><tspan class="cls-10">M</tspan><tspan x="7.58" y="0">ARK</tspan><tspan class="cls-11" x="23.74" y="0">E</tspan><tspan class="cls-12" x="28.59" y="0">TING</tspan><tspan x="0" y="9.5">&amp; SALES </tspan></text><path class="cls-6" d="M122.55,28.12c-.71,0-1.28-.77-1.28-1.76l0-12.82a2.24,2.24,0,0,1,.31-1.17,1.15,1.15,0,0,1,1-.59l37.05-.1h0c.72,0,1.29.78,1.29,1.77l0,12.81a2.17,2.17,0,0,1-.32,1.18,1.17,1.17,0,0,1-1,.59l-37,.09Zm37-15.6-37,.09a.39.39,0,0,0-.26.2,1.41,1.41,0,0,0-.19.73l0,12.82c0,.56.27.93.45.93h0l37.05-.09c.08,0,.18-.08.26-.21a1.39,1.39,0,0,0,.19-.73l0-12.81c0-.56-.27-.93-.45-.93Z"/><polygon class="cls-7" points="130.2 16.14 131.38 18.5 133.99 18.87 132.1 20.72 132.56 23.32 130.22 22.1 127.89 23.33 128.32 20.73 126.43 18.89 129.04 18.51 130.2 16.14"/><polygon class="cls-7" points="141.18 16.11 142.35 18.47 144.97 18.85 143.08 20.69 143.53 23.29 141.19 22.07 138.86 23.3 139.3 20.7 137.41 18.86 140.02 18.48 141.18 16.11"/><path class="cls-6" d="M149.84,23.69a.45.45,0,0,1-.25-.07.42.42,0,0,1-.16-.41l.4-2.39-1.74-1.68a.42.42,0,0,1-.1-.43.41.41,0,0,1,.33-.29l2.4-.35,1.06-2.17a.42.42,0,0,1,.37-.23h0a.4.4,0,0,1,.37.23l1.07,2.16,2.4.35a.41.41,0,0,1,.23.71l-1.72,1.69.41,2.38a.42.42,0,0,1-.16.41.39.39,0,0,1-.44,0l-2.15-1.12L150,23.65A.43.43,0,0,1,149.84,23.69Zm-.56-4.56,1.29,1.25a.4.4,0,0,1,.12.36l-.3,1.77,1.58-.84a.44.44,0,0,1,.39,0l1.59.83-.3-1.76a.41.41,0,0,1,.11-.37l1.29-1.26-1.78-.25a.43.43,0,0,1-.31-.23l-.8-1.61-.79,1.61a.41.41,0,0,1-.32.23Zm1.71-.68h0Z"/><rect class="cls-7" x="17.37" y="11.33" width="24.13" height="24.13"/><path class="cls-2" d="M33.85,26.51H25.29a.22.22,0,0,1-.22-.16L22.93,19H21a.23.23,0,0,1-.23-.23V17.26A.22.22,0,0,1,21,17h3.27a.22.22,0,0,1,.22.16l.75,2.61H35.66a.21.21,0,0,1,.18.09.24.24,0,0,1,0,.2l-1.81,6.25A.21.21,0,0,1,33.85,26.51Zm-8.39-.45h8.22l1.68-5.8H25a.24.24,0,0,1-.22-.16l-.75-2.61H21.18v1H23.1a.22.22,0,0,1,.22.16Z"/><path class="cls-2" d="M26.52,29.61a1.17,1.17,0,0,1,0-2.33,1.17,1.17,0,1,1,0,2.33Zm0-2a.83.83,0,1,0,.83.83A.83.83,0,0,0,26.52,27.62Z"/><path class="cls-2" d="M32.84,29.61A1.17,1.17,0,1,1,34,28.45,1.16,1.16,0,0,1,32.84,29.61Zm0-2a.83.83,0,1,0,.82.83A.83.83,0,0,0,32.84,27.62Z"/><rect class="cls-8" x="38.67" y="11.33" width="2.83" height="24.13"/><rect class="cls-7" x="17.37" y="75.29" width="24.14" height="24.13"/><path class="cls-2" d="M28.25,96.2a.22.22,0,0,1-.18-.1c-.23-.36-5.61-8.66-5.61-11.76a5.8,5.8,0,0,1,5.79-5.79h0A5.77,5.77,0,0,1,34,84.33c0,3.11-5.36,11.41-5.59,11.77A.23.23,0,0,1,28.25,96.2Zm0-17.2a5.34,5.34,0,0,0-5.34,5.34c0,2.65,4.37,9.68,5.34,11.21,1-1.53,5.33-8.56,5.33-11.22A5.33,5.33,0,0,0,28.25,79Zm0-.22Zm0,8.76A3.23,3.23,0,0,1,26,86.6a3.38,3.38,0,0,1-.1-4.6.1.1,0,0,1,0,0,3.33,3.33,0,0,1,4.7,4.7l0,0A3.83,3.83,0,0,1,28.26,87.54Zm-2-5.25a2.87,2.87,0,0,0,4.06,4.06,2.87,2.87,0,0,0-4.06-4.06Zm4.22,4.22h0Z"/><rect class="cls-7" x="17.37" y="43.31" width="24.13" height="24.13"/><path class="cls-2" d="M33.23,62.65H23.44a.23.23,0,0,1-.23-.23V60.84a5.12,5.12,0,0,1,10.24,0v1.58A.22.22,0,0,1,33.23,62.65Zm-9.57-.45H33V60.84a4.67,4.67,0,0,0-9.34,0Z"/><path class="cls-2" d="M28.33,55.05a3.45,3.45,0,1,1,3.45-3.45A3.46,3.46,0,0,1,28.33,55.05Zm0-6.45a3,3,0,1,0,3,3A3,3,0,0,0,28.33,48.6Z"/><rect class="cls-8" x="38.67" y="43.33" width="2.83" height="24.11"/><rect class="cls-8" x="39.01" y="75.33" width="2.5" height="24.1"/></svg>