<svg id="Layer_1" data-name="Layer 1" xmlns="http://www.w3.org/2000/svg" viewBox="0 0 164.21 100.07"><defs><style>.cls-1{opacity:0.54;}.cls-2,.cls-5{fill:#ff4172;}.cls-3{fill:#ff9763;opacity:0.7;}.cls-4{fill:#fff;}.cls-5{opacity:0.69;}</style></defs><title>ms-mktg-bg</title><g class="cls-1"><path class="cls-2" d="M25.4,98.71c-3.79.78-6.39-1.23-8-4.35s.36-6.46,2.38-8.82a78.31,78.31,0,0,0,7.54-10.87c.1-.18-.12-.3-.24-.34C18.22,71,9.18,66.21,4.7,57.44-.07,48.1,3.92,37,10.22,29.51c.62-.73-2.06-.39-2.51.15C2.06,36.35-1,44.34.31,53.14c1.08,7.08,6.55,12.52,12.2,16.35a55.77,55.77,0,0,0,10.82,5.4C26,76,16,86.62,15.24,88.3c-3.29,7,2.58,13,9.68,11.55,1.13-.23,2.4-1.53.48-1.14Z"/></g><g class="cls-1"><path class="cls-2" d="M93.61,3.48c23.86.1,74.3,6.92,67,42.09-3.45,16.59-22.86,24.65-37.24,28.92C107.31,79.25,90.27,81,73.57,81c-.8,0-3,1.22-1.16,1.21,17.69-.06,35.54-2.14,52.53-7.18,14.3-4.24,30.3-11.45,37-25.72,7.19-15.4-3.57-30.09-16.76-37.15-15.1-8.09-33.54-9.87-50.38-9.94-.8,0-3,1.21-1.16,1.22Z"/></g><path class="cls-3" d="M23.14,93.85a1.9,1.9,0,0,1-1.43-3.15A90.29,90.29,0,0,0,34.29,71.5C17.92,67.14,8.29,59.86,7.18,51,6.4,44.74,8.43,38.8,13.24,33.36c12.88-14.6,46.17-24.79,81-24.79,27.33,0,60.13,7.48,62.61,28.55.71,6-1.18,11.56-5.61,16.54C137.51,69.06,102.05,76,73,76c-5.36,0-10.64-.22-15.71-.65-6.37,9.77-23.81,15.78-33.64,18.48A1.68,1.68,0,0,1,23.14,93.85Z"/><path class="cls-4" d="M12.33,50.17C11,34.62,28.45,26.12,40.65,21.52,57.32,15.23,75.57,13,93.29,12.91c.56,0,3.13-1.09,1.8-1.09-19.23.1-38.64,2.81-56.69,9.61C26,26.12,8.24,35.19,9.58,50.91c0,.48,2.81,0,2.75-.74Z"/><path class="cls-5" d="M34,16,26.8,10.92a2.29,2.29,0,0,1,2.64-3.75,2.39,2.39,0,0,1,.63.68l4.6,7.48a.48.48,0,0,1-.16.66A.47.47,0,0,1,34,16Z"/><path class="cls-5" d="M38,13.19,32.63,6.25a2.29,2.29,0,1,1,4-2l2.2,8.5a.49.49,0,0,1-.86.42Z"/><path class="cls-5" d="M42.59,11.36l-2-8.56a2.29,2.29,0,0,1,4.47-1,2.43,2.43,0,0,1,0,.93l-1.59,8.63a.49.49,0,0,1-.95,0Z"/></svg>