<svg id="Layer_1" data-name="Layer 1" xmlns="http://www.w3.org/2000/svg" viewBox="0 0 64.46 64.46"><defs><style>.cls-1{fill:#6a6abe;}.cls-2{fill:#fafafa;}</style></defs><title>ms-mktg-like-4</title><circle class="cls-1" cx="32.23" cy="32.23" r="32.23" transform="translate(-1.74 62.62) rotate(-86.82)"/><path class="cls-2" d="M37.66,43.61c-5.58.09-11.23.17-16.36-.19-1.62-.11-3-2.69-1.06-3.5a3.65,3.65,0,0,1-2-1.77,1.75,1.75,0,0,1,1-2.31c-1.94.48-2.7-2.59-1.19-3.58a4.51,4.51,0,0,1-1.63-2.62,2.61,2.61,0,0,1,1.17-2.7,4.32,4.32,0,0,1,2-.35l7-.05c-.63-3.63-.82-7.59,1-10.78.56-1,2.05-2.11,3.24-1.37s.8,2.41.75,3.5a12.23,12.23,0,0,0,6.33,11.19S37.6,38.7,37.66,43.61Z"/><rect class="cls-2" x="39.68" y="29.08" width="8.43" height="14.52" transform="translate(87.8 72.67) rotate(180)"/></svg>