<svg id="Layer_1" data-name="Layer 1" xmlns="http://www.w3.org/2000/svg" viewBox="0 0 190.8 317.69"><defs><style>.cls-1{fill:#011121;}.cls-2{fill:#fff;}.cls-3{fill:#d6d6d6;}.cls-4{fill:#001f56;}.cls-5{fill:#011833;}.cls-6{fill:#f1797a;}.cls-7{fill:#e4fde1;}.cls-8{fill:#f3e8e8;}.cls-9{fill:#e0dada;}.cls-10{fill:#4d528c;}.cls-11{fill:#3e4472;}.cls-12{fill:#f69996;}.cls-13{fill:#eff4df;}</style></defs><title>ms-man</title><path class="cls-1" d="M181.89,59.14h0a4.57,4.57,0,0,1-4.62-4.51l-.57-50A4.58,4.58,0,0,1,181.22,0h0a4.57,4.57,0,0,1,4.62,4.51l.56,50A4.57,4.57,0,0,1,181.89,59.14Z"/><polygon class="cls-2" points="181.95 59.09 118.36 47.08 117.95 13.57 181.22 0 181.95 59.09"/><polygon class="cls-3" points="118.16 30.4 118.36 47.08 181.95 59.09 181.59 29.62 118.16 30.4"/><path class="cls-4" d="M87.1,43.37h0a4.87,4.87,0,0,1-4.92-4.8L82,23A4.87,4.87,0,0,1,86.79,18h0Z"/><polygon class="cls-5" points="108.61 50.18 108.91 72.15 99.19 72.27 98.89 50.3 108.61 50.18"/><path class="cls-1" d="M92.8,10.68H120a0,0,0,0,1,0,0V50.33a0,0,0,0,1,0,0H92.8A5.79,5.79,0,0,1,87,44.54V16.47a5.79,5.79,0,0,1,5.79-5.79Z" transform="translate(-0.37 1.27) rotate(-0.7)"/><rect class="cls-4" x="110.93" y="10.53" width="9.08" height="39.65" transform="translate(-0.36 1.42) rotate(-0.7)"/><path class="cls-4" d="M181.63,18.5h.8a8.33,8.33,0,0,1,8.33,8.33v6.38a8.33,8.33,0,0,1-8.33,8.33h-.8a0,0,0,0,1,0,0v-23A0,0,0,0,1,181.63,18.5Z" transform="translate(-0.33 2.13) rotate(-0.65)"/><path class="cls-1" d="M188.2,20.9l.2,18.2a8.26,8.26,0,0,0,2.4-5.94l-.07-6.38A8.3,8.3,0,0,0,188.2,20.9Z"/><path class="cls-6" d="M111.16,77A3.93,3.93,0,0,1,107.71,75c-.57-1.07-2.33-4.13-3.74-6.59L102,65a3.92,3.92,0,1,1,6.84-3.83c.33.59,1.07,1.88,1.91,3.35,1.51,2.63,3.22,5.61,3.84,6.77A3.92,3.92,0,0,1,111.16,77Z"/><rect class="cls-2" x="106.67" y="69.73" width="8.84" height="8.15" transform="translate(-20.11 49.81) rotate(-23.23)"/><path class="cls-5" d="M98.18,111.94a21.2,21.2,0,0,1-9.3-2.18c-9.69-4.68-18-17-24.79-36.49L73.54,70c7.3,21.08,14.74,28.36,19.7,30.76a11,11,0,0,0,8.81.49,10.33,10.33,0,0,0,6.19-5.74c1.55-3.54,2.38-10.1-2.46-21.29l9.18-4c6.27,14.49,4.78,23.92,2.44,29.27a20.37,20.37,0,0,1-12.05,11.17A21.65,21.65,0,0,1,98.18,111.94Z"/><polygon class="cls-7" points="68.97 311.05 68.9 290.55 58.95 290.56 59.03 311.06 68.97 311.05"/><path class="cls-5" d="M82.62,308.52l-8.51,0-1.84-5.42a2.42,2.42,0,0,0-2.15-1.8h-2.3c-.34,0-.46.18-.48.52-.19,2.85-.47,4.22-2.17,4.21H59.11c-1.47,0-2.66,1.51-2.67,3.38,0,0,0,7.85,0,8.23l32.3.1a11.11,11.11,0,0,0,.07-1.16C88.85,312.12,86.07,308.53,82.62,308.52Z"/><rect class="cls-5" x="57.2" y="164.15" width="13.44" height="132.24"/><polygon class="cls-7" points="39.95 310.92 39.88 290.42 29.93 290.44 30.01 310.94 39.95 310.92"/><path class="cls-4" d="M53.6,308.4l-8.51,0L43.25,303a2.42,2.42,0,0,0-2.15-1.8H38.8c-.34,0-.46.18-.48.52-.19,2.85-.47,4.22-2.17,4.21l-6.06,0c-1.47,0-2.66,1.52-2.67,3.39,0,0,0,7.85,0,8.23l32.3.1a8.92,8.92,0,0,0,.07-1.16C59.83,312,57.05,308.41,53.6,308.4Z"/><path class="cls-8" d="M44.79,67.22H59.43A16.71,16.71,0,0,1,76.14,83.93v63.78a1.51,1.51,0,0,1-1.51,1.51H29.86a1.51,1.51,0,0,1-1.51-1.51V83.66A16.44,16.44,0,0,1,44.79,67.22Z"/><path class="cls-4" d="M28.35,167.75H70a6.12,6.12,0,0,0,6.11-6.11V147.47H28.35Z"/><rect class="cls-5" x="28.34" y="145.89" width="47.81" height="5.28"/><polygon class="cls-9" points="53.18 152.41 62.17 152.41 62.17 145.74 62.17 145.74 53.18 145.74 53.18 152.41 53.18 152.41"/><rect class="cls-6" x="48.01" y="51.58" width="11.43" height="19.8" rx="5.39"/><polygon class="cls-10" points="59.59 77.04 55.12 77.02 54.12 133.18 57.69 140.23 61.21 133.41 59.59 77.04"/><polygon class="cls-11" points="52.85 70.31 55.09 77.17 59.61 77.19 61.89 70.36 52.85 70.31"/><path class="cls-4" d="M50.16,119.65,43.49,67.17c-19,0-17.26,7-17.26,15.64v65.78l23.93,0Z"/><path class="cls-4" d="M62.47,67.36c16.87,0,14.8,7.49,14.8,15.45v65.78H65.13L63.85,71.34S62.45,67.36,62.47,67.36Z"/><polygon class="cls-3" points="53.49 77.17 42.56 67.07 47.95 61.88 57.29 70.35 53.49 77.17"/><polygon class="cls-3" points="61.46 77.17 57.29 70.44 59.55 63.29 62.3 67.23 61.46 77.17"/><path class="cls-5" d="M49.56,114.76,43.63,66a8.59,8.59,0,0,0-4.78,3.48c-2,3.09-1.89,5-1.89,5l3.7,1.68-2.61,4,10.66,34.71A.44.44,0,0,0,49.56,114.76Z"/><path class="cls-5" d="M65.83,76.57l1.85-2.5a7.43,7.43,0,0,0-2-4.58A8.71,8.71,0,0,0,62,66.88l2.55,46.7a.29.29,0,0,0,.57,0l3.33-33.85Z"/><path class="cls-1" d="M48.52,19.2l4.1,14a7.19,7.19,0,0,0,8.92,4.89h0a7.15,7.15,0,0,0,4.85-8.85l-2.1-7.18a7.19,7.19,0,0,0-8.92-4.89Z"/><path class="cls-6" d="M63.06,29.56l2.88,9.87a4.26,4.26,0,0,0,1.9-4.85l-.57-1.95A4.27,4.27,0,0,0,63.06,29.56Z"/><path class="cls-12" d="M67.39,44.3l-7.87-27L30.57,25.74,37.91,52c2.42,8.25,13.39,9.83,21.92,8.51,6.25-1,10.7-5.58,8.91-11.65C68.23,47.14,67.75,45.51,67.39,44.3Z"/><path class="cls-1" d="M57.9,36.58a1.51,1.51,0,1,0,1-1.87A1.51,1.51,0,0,0,57.9,36.58Z"/><path class="cls-1" d="M46.46,39.92a1.51,1.51,0,1,0,2.9-.85,1.51,1.51,0,0,0-2.9.85Z"/><path class="cls-1" d="M48.48,30.49l-5.43,1.59a.71.71,0,0,1-.4-1.36l5.43-1.58a.7.7,0,1,1,.4,1.35Z"/><path class="cls-1" d="M60.89,31l-5.43,1.59a.71.71,0,0,1-.39-1.36L60.5,29.6a.71.71,0,0,1,.87.48A.7.7,0,0,1,60.89,31Z"/><path class="cls-13" d="M47.81,46.1a.37.37,0,0,0-.21.53A9.37,9.37,0,0,0,58.05,51c3.81-1.12,5.6-4.78,5.28-8.91a.36.36,0,0,0-.46-.33Z"/><path class="cls-6" d="M55.17,42.26a.38.38,0,0,1-.36-.27.39.39,0,0,1,.26-.47c1.76-.51,2-1,2-1.12.07-.54-1.38-1.42-2.44-2.06l-.5-.3a.37.37,0,0,1-.12-.52.36.36,0,0,1,.51-.12l.5.3c1.57.95,2.93,1.78,2.79,2.8-.09.72-.88,1.26-2.55,1.74Z"/><path class="cls-5" d="M26.83,28.57H35.2a5.55,5.55,0,0,1,5.55,5.55v6.17a0,0,0,0,1,0,0H26.87a5.55,5.55,0,0,1-5.55-5.55v-.66a5.51,5.51,0,0,1,5.51-5.51Z" transform="translate(6.68 73.86) rotate(-106.27)"/><path class="cls-12" d="M32.62,38.29l1.58-.46,3,10.15-1.58.46a4.31,4.31,0,0,1-5.37-2.88l-.57-2A4.31,4.31,0,0,1,32.62,38.29Z"/><path class="cls-5" d="M44.15,5.12h9.18a9.07,9.07,0,0,1,9.07,9.07V15a9.07,9.07,0,0,1-9.07,9.07H26a0,0,0,0,1,0,0v-.85A18.14,18.14,0,0,1,44.15,5.12Z" transform="translate(-2.33 13.08) rotate(-16.41)"/><path class="cls-5" d="M38.56,45.82h0a1.89,1.89,0,0,1-2.34-1.28l-2-6.95a1.89,1.89,0,0,1,1.27-2.34h0a1.9,1.9,0,0,1,2.35,1.27l2,7A1.88,1.88,0,0,1,38.56,45.82Z"/><rect class="cls-4" x="28.33" y="164.15" width="13.44" height="132.24"/><path class="cls-6" d="M13.46,158.61c-.42-.76-4.73-8-5.44-9.05a3.92,3.92,0,0,1,5-5.8c1,.56,1,.56,4.4,6.2s3.4,5.66,3.39,6.81l-3.92,0-2.66-2.88,2.66,2.88Zm-4.2-8h0Zm0,0Z"/><rect class="cls-2" x="6.41" y="142.52" width="8.84" height="7.47" transform="matrix(0.85, -0.52, 0.52, 0.85, -75.01, 27.35)"/><path class="cls-4" d="M7.43,150.12C1.84,140.92-3.32,119.31,2.7,100,7,86.27,16.43,75.81,30,69.77l4.07,9.14c-11,4.9-18.34,13-21.81,24.1C7,119.71,12.1,138.55,16,144.92Z"/></svg>