<svg id="Layer_1" data-name="Layer 1" xmlns="http://www.w3.org/2000/svg" viewBox="0 0 312.14 355.75"><defs><style>.cls-1{fill:#fff;}.cls-2{fill:#f68285;}</style></defs><title>ms-mktg-ins</title><path class="cls-1" d="M0,9.73V346a9.73,9.73,0,0,0,9.73,9.73H302.41a9.73,9.73,0,0,0,9.73-9.73V9.73A9.73,9.73,0,0,0,302.41,0H9.73A9.73,9.73,0,0,0,0,9.73ZM292.24,297.52H19.9V18.93H292.24Z"/><path class="cls-2" d="M267.48,317.67a7.2,7.2,0,0,0-10.19.11l-1.83,1.87-1.89-1.86a7.21,7.21,0,1,0-10.11,10.27l7,6.9,0,.05a7.2,7.2,0,0,0,10.18-.11l6.9-7A7.21,7.21,0,0,0,267.48,317.67Z"/></svg>