<svg id="Layer_1" data-name="Layer 1" xmlns="http://www.w3.org/2000/svg" viewBox="0 0 191.47 378.2"><defs><style>.cls-1{fill:#6a6abe;}.cls-11,.cls-13,.cls-2,.cls-4,.cls-6{fill:none;}.cls-2{stroke:#5151a6;stroke-width:1.73px;}.cls-2,.cls-4,.cls-6{stroke-miterlimit:10;}.cls-3{fill:#fff;}.cls-4{stroke:#ebebeb;}.cls-4,.cls-6{stroke-width:1.84px;}.cls-5{fill:#f68285;}.cls-6{stroke:#db5f69;}.cls-7{fill:#ffafa3;}.cls-8{fill:#753044;}.cls-9{fill:#121c36;}.cls-10{fill:#863c50;}.cls-11,.cls-13{stroke:#121c36;stroke-linecap:round;stroke-linejoin:round;}.cls-11{stroke-width:1.18px;}.cls-12{fill:#f5a471;}.cls-13{stroke-width:1.16px;}.cls-14{fill:#ef727b;}.cls-15{fill:#f6939d;}</style></defs><title>ms-mktg-girl</title><path class="cls-1" d="M73.72,205.39l-.09,5.86c-6.57,10-20.23,40.15-21.88,82.07,0,0-1,15.89,2.51,56L53.6,378.2H92.54L103,269.62l19,108.31,43.69.27s-5.53-19.88-6.12-33.22c-.77-17.26-2.6-96.61-28.68-133.72l-.55-5.87Z"/><line class="cls-2" x1="73.63" y1="211.25" x2="130.79" y2="211.25"/><line class="cls-2" x1="102.95" y1="269.62" x2="102.95" y2="211.25"/><line class="cls-2" x1="91.38" y1="271.51" x2="123.51" y2="266.21"/><line class="cls-2" x1="102.95" y1="269.62" x2="116.84" y2="271.51"/><path class="cls-2" d="M111.13,211.25,111.05,250a12.08,12.08,0,0,1-3,7.42l-4.71,5.31"/><path class="cls-3" d="M91.43,118.55l-27,5a8.19,8.19,0,0,0-6.09,8.91l15.38,73h56.52l17.07-71.56a8.18,8.18,0,0,0-6.13-8.92l-26.9-6.78Z"/><path class="cls-4" d="M84.06,119.9s16.66,17.24,39,.44"/><path class="cls-5" d="M83,119.33S90,186.6,86.5,251.41l-34.33,3.77s1.36-35.71.91-47C51.65,172.6,35,136.76,35,136.76S40.16,123.54,54.88,122Z"/><path class="cls-5" d="M36.86,133.26A499.21,499.21,0,0,0,1.48,202.81c-4,9.95.42,20.15,10.64,23.42,11.2,3.59,27.55,8.69,49.09,10.78l3.17.29c47.14,4.07-1.07-.09-1.07-.09l9.79-31.07L43.79,194.23l8.11-13.47Z"/><line class="cls-6" x1="61.21" y1="243.62" x2="75.89" y2="198.85"/><path class="cls-6" d="M50,183.93s-2.72-25.86-4.63-34.84"/><line class="cls-6" x1="44.19" y1="193.56" x2="33.01" y2="188.22"/><line class="cls-6" x1="52.31" y1="196.85" x2="73.72" y2="205.39"/><line class="cls-6" x1="52.78" y1="236.52" x2="62.82" y2="237.89"/><path class="cls-5" d="M137,122s33.06-2.06,38.47,25.89c3.44,17.78,18,51.57,15.84,74.28-1.34,14.33-19.36,23.51-34.79,17.3-4-1.63-7.3-4.13-8.35-8C144.62,218.73,137,122,137,122Z"/><path class="cls-5" d="M124.66,119.34S116.81,220,117.17,252.69l37.53,1.53s-2.38-79.56,1.18-120.35c.41-4.67-2.7-9.83-7.28-10.83C142.94,121.81,134.63,121,124.66,119.34Z"/><line class="cls-6" x1="154.76" y1="148.84" x2="154.78" y2="236.07"/><rect x="76.89" y="133.05" width="26.02" height="47.24" rx="5.23" transform="translate(17.37 -8.76) rotate(6.18)"/><path class="cls-7" d="M122.44,166s-2.7-7.3-18.49-18.19l-.63,5.78s-14.7.45-24.86-4.85a2.34,2.34,0,0,0-3.4,1.6,20,20,0,0,0,1.19,11.54,23.75,23.75,0,0,0,8.55,9.56c5.55,3.22,17.61,9.13,26.9,8.71C124.74,179.55,122.44,166,122.44,166Z"/><polygon class="cls-5" points="121.74 157.88 177.87 201 154.78 237.92 94.03 181.81 121.74 157.88"/><line class="cls-6" x1="121.74" y1="157.87" x2="162.54" y2="189.22"/><line class="cls-6" x1="118.74" y1="204.63" x2="154.78" y2="237.92"/><path class="cls-7" d="M112.58,89.58a56.55,56.55,0,0,0-7.44.91C100.8,91.3,97.26,89,96.39,92c0,.06-3.54-2.94-3.54-2.94l-2.67,29.83s13.24,7,25.77-.37Z"/><path class="cls-8" d="M107.82,30.41S125,15.89,113.08,4.71s-25,.17-26,6.9c-1.73,11.82,9.27,18.32,9.27,18.32Z"/><path class="cls-8" d="M94.86,26.59s-6.91.19-11.3-9.45c0,0,2.46,13,13.87,11.42Z"/><path class="cls-8" d="M108.79,25.68s5.6.86,11.75-9.32c0,0-2.75,12.45-14.22,11.42Z"/><path class="cls-9" d="M91,85.82s3.75,15.26,22.78,14.12l-1.9-17.13Z"/><path class="cls-10" d="M132.41,53.12c0,16.53-12.87,29.94-28.74,29.94S74.94,69.65,74.94,53.12,87.8,25.34,103.67,25.34,132.41,36.59,132.41,53.12Z"/><path class="cls-7" d="M126.22,53.7A102.35,102.35,0,0,1,123.5,77c-1.33,5.64-5.08,9.58-10.37,12.75l-1,.58a18.61,18.61,0,0,1-18.52.2h0c-5.73-3.27-9.75-7.57-11-13.62A148.83,148.83,0,0,1,80.18,53.7S78,30,102.87,30.42,126.22,53.7,126.22,53.7Z"/><path class="cls-7" d="M82.89,77.84c-4.38,3.77-13.59-11.18-9.35-15.22s7.23,2.53,7.23,2.53l.86,4.73,1.28,6.36.33,1.43Z"/><path class="cls-11" d="M75.44,67.66s1.79-3.87,6,2.93"/><path class="cls-7" d="M123.49,77.92c4.43,3.71,13.39-11.41,9.08-15.37s-7.19,2.66-7.19,2.66L124.61,70l-1.17,6.38-.31,1.43Z"/><path class="cls-11" d="M130.76,67.63s-1.86-3.85-5.91,3"/><path class="cls-10" d="M115.55,51.68H131s-1.53-24.55-29.86-22.84c0,0-23.31.28-22.68,22.84h25.11l.53-2.47.59,2.47h8.87l.87-5.85Z"/><line class="cls-12" x1="114.39" y1="45.83" x2="113.52" y2="51.68"/><polygon class="cls-10" points="77.57 61.29 81.2 67.51 80.13 51.68 77.57 61.29"/><polygon class="cls-10" points="129.05 61.29 125.33 67.51 126.2 51.68 129.05 61.29"/><path class="cls-9" d="M94.72,64.11a2.23,2.23,0,1,1-2.22-2.22A2.22,2.22,0,0,1,94.72,64.11Z"/><path class="cls-9" d="M115.31,64.11a2.23,2.23,0,1,1-2.22-2.22A2.23,2.23,0,0,1,115.31,64.11Z"/><path class="cls-9" d="M91.69,54.34s5.56-.81,5.76,1.46c0,0,.09,1.55-4.77,2.15s-6.15.33-6.68-1.09S89.07,54.51,91.69,54.34Z"/><path class="cls-9" d="M113.85,54.37s5.62.21,5.4,2.48c0,0-.19,1.53-5.08,1.25s-6.11-.78-6.38-2.28S111.24,54.07,113.85,54.37Z"/><polyline class="cls-13" points="103.18 67.08 104.52 70.78 102.61 71.98"/><path class="cls-14" d="M94.72,76.14l4.1-1.53a3.5,3.5,0,0,1,2.12,0l1.79.58,1.53-.71a3,3,0,0,1,2.31,0L110.43,76Z"/><path class="cls-14" d="M94.72,76.14s2,6.9,8,6.9,7.73-7,7.73-7Z"/><path class="cls-3" d="M96,76.56s.88,3.54,6.73,3.54c5.32,0,6.76-3.62,6.76-3.62Z"/><circle class="cls-15" cx="99.82" cy="81.02" r="0.67"/><path class="cls-10" d="M82,95.21a9.49,9.49,0,0,1-1.73-18.45.61.61,0,0,0,.44-.58h0a.62.62,0,0,0-.81-.58,10.7,10.7,0,0,0,1.81,20.79c5.27.72,9.46-1.81,11.1-6.39-.34-.19-.94-.59-.94-.59C90.53,93.63,86.75,95.8,82,95.21Z"/><path class="cls-10" d="M123.77,95.21a9.49,9.49,0,0,0,1.73-18.45.6.6,0,0,1-.43-.58h0a.62.62,0,0,1,.8-.58,10.7,10.7,0,0,1-1.81,20.79c-5.27.72-9.46-1.81-11.1-6.39.34-.19.94-.59.94-.59C115.22,93.63,119,95.8,123.77,95.21Z"/></svg>