<svg id="Layer_1" data-name="Layer 1" xmlns="http://www.w3.org/2000/svg" viewBox="0 0 348.28 319.69"><defs><style>.cls-1{fill:#575756;}</style></defs><title>ms-sales-customer-1</title><path class="cls-1" d="M174.14,24.24a24.24,24.24,0,1,1,47.7,6.11A24.24,24.24,0,0,1,258,62,24.23,24.23,0,0,1,264,103.31a24.24,24.24,0,0,1-8,42.06,24.25,24.25,0,0,1-22.79,32.54,23.16,23.16,0,0,1-2.9-.18,77.82,77.82,0,0,1-12,19.62l3.33,30s7.49-2.5,8.32,0-2.5,18.31,10,24.13,85.72,41.61,98.21,47.44,10,20.81,10,20.81H.2s-2.49-15,10-20.81,85.72-41.61,98.2-47.44,9.16-21.63,10-24.13,8.32,0,8.32,0l3.33-30a77.82,77.82,0,0,1-12-19.62,23.32,23.32,0,0,1-2.91.18,24.25,24.25,0,0,1-22.78-32.54,24.24,24.24,0,0,1-8-42.06A24.23,24.23,0,0,1,90.23,62a24.24,24.24,0,0,1,36.2-31.67,24.59,24.59,0,0,1-.77-6.11,24.24,24.24,0,1,1,48.48,0Z"/></svg>