<svg id="Layer_1" data-name="Layer 1" xmlns="http://www.w3.org/2000/svg" viewBox="0 0 278.45 221.94"><defs><style>.cls-1{fill:#cfe4ea;}.cls-2{fill:#fff;}.cls-3{fill:#009cf8;}.cls-4{fill:#0172d0;}.cls-5{fill:#0056c5;}.cls-6{fill:#012156;}.cls-7{fill:#f77853;}.cls-8{fill:#e85143;}.cls-9{fill:#fda380;}.cls-10{fill:#004fc3;}.cls-11{fill:#ff8327;}</style></defs><title>ms-sales-distributor</title><path class="cls-1" d="M134.64,221.56h0c-1,0-2-.07-3-.13a1.45,1.45,0,0,1,.19-2.89c1,.06,1.91.1,2.86.12a1.45,1.45,0,0,1,0,2.9Zm5.11,0a1.45,1.45,0,0,1-.06-2.89c.95,0,1.91-.1,2.85-.18a1.45,1.45,0,1,1,.23,2.89c-1,.08-2,.14-3,.18Zm-13.1-.59h-.19c-1-.13-2-.28-2.94-.45a1.45,1.45,0,0,1,.49-2.85c.93.16,1.89.31,2.83.43a1.45,1.45,0,0,1-.19,2.88Zm21.08-.16a1.45,1.45,0,0,1-.21-2.88c.94-.14,1.88-.3,2.82-.47a1.44,1.44,0,1,1,.53,2.84c-1,.18-2,.35-2.93.49Zm-29-1.31a1.39,1.39,0,0,1-.35,0c-1-.23-1.92-.49-2.87-.76a1.45,1.45,0,1,1,.79-2.78c.91.26,1.84.5,2.77.73a1.45,1.45,0,0,1-.34,2.85Zm36.82-.29a1.44,1.44,0,0,1-1.4-1.08,1.46,1.46,0,0,1,1-1.77c.92-.23,1.85-.49,2.76-.77a1.45,1.45,0,1,1,.83,2.77c-.94.29-1.9.56-2.86.81A1.47,1.47,0,0,1,155.59,219.17Zm-44.5-2a1.36,1.36,0,0,1-.49-.08c-.93-.34-1.87-.7-2.79-1.07a1.45,1.45,0,1,1,1.09-2.68c.88.36,1.78.7,2.68,1a1.45,1.45,0,0,1,.87,1.86A1.44,1.44,0,0,1,111.09,217.15Zm52.14-.4a1.45,1.45,0,0,1-.51-2.81c.88-.33,1.77-.69,2.65-1.06a1.45,1.45,0,0,1,1.12,2.67c-.9.38-1.83.75-2.75,1.1A1.32,1.32,0,0,1,163.23,216.75ZM103.68,214a1.44,1.44,0,0,1-.63-.14c-.88-.43-1.77-.89-2.65-1.36a1.45,1.45,0,0,1,1.37-2.55c.84.45,1.7.89,2.55,1.3a1.45,1.45,0,0,1-.64,2.75Zm66.88-.51a1.45,1.45,0,0,1-.66-2.74c.85-.43,1.7-.88,2.53-1.34a1.45,1.45,0,0,1,2,.57,1.43,1.43,0,0,1-.56,2c-.86.48-1.74.95-2.62,1.39A1.39,1.39,0,0,1,170.56,213.52Zm-73.9-3.38a1.4,1.4,0,0,1-.76-.22c-.84-.52-1.68-1.07-2.5-1.63A1.45,1.45,0,0,1,95,205.9c.79.54,1.6,1.06,2.4,1.57a1.44,1.44,0,0,1-.77,2.67Zm80.84-.61a1.45,1.45,0,0,1-.78-2.66c.79-.52,1.59-1.05,2.36-1.6a1.45,1.45,0,0,1,1.67,2.37c-.81.56-1.63,1.12-2.46,1.66A1.45,1.45,0,0,1,177.5,209.53Zm-87.4-4a1.52,1.52,0,0,1-.9-.3c-.77-.61-1.55-1.25-2.3-1.89a1.45,1.45,0,1,1,1.88-2.2c.72.61,1.47,1.22,2.21,1.81a1.45,1.45,0,0,1,.25,2A1.43,1.43,0,0,1,90.1,205.52Zm93.89-.7a1.44,1.44,0,0,1-.91-2.57c.74-.6,1.47-1.22,2.19-1.84a1.43,1.43,0,0,1,2,.14,1.45,1.45,0,0,1-.14,2c-.74.65-1.5,1.29-2.27,1.91A1.43,1.43,0,0,1,184,204.82Zm-99.93-4.58a1.42,1.42,0,0,1-1-.41c-.7-.68-1.41-1.4-2.09-2.11a1.45,1.45,0,0,1,2.1-2c.65.69,1.33,1.38,2,2a1.45,1.45,0,0,1,0,2.05A1.44,1.44,0,0,1,84.06,200.24Zm105.88-.78a1.41,1.41,0,0,1-1-.43,1.44,1.44,0,0,1,0-2c.67-.67,1.34-1.37,2-2.07a1.45,1.45,0,0,1,2.13,2c-.67.72-1.37,1.44-2.06,2.14A1.47,1.47,0,0,1,189.94,199.46Zm-111.32-5.1a1.41,1.41,0,0,1-1.11-.53c-.64-.76-1.26-1.54-1.86-2.32a1.45,1.45,0,0,1,2.3-1.76c.57.75,1.17,1.5,1.78,2.23a1.45,1.45,0,0,1-.19,2A1.4,1.4,0,0,1,78.62,194.36Zm116.68-.87a1.48,1.48,0,0,1-.91-.32,1.46,1.46,0,0,1-.22-2c.6-.74,1.19-1.5,1.76-2.26a1.45,1.45,0,1,1,2.32,1.73c-.59.79-1.2,1.58-1.82,2.35A1.48,1.48,0,0,1,195.3,193.49ZM73.83,187.93a1.42,1.42,0,0,1-1.2-.65c-.55-.82-1.09-1.66-1.6-2.5a1.45,1.45,0,1,1,2.47-1.51c.49.81,1,1.62,1.53,2.41a1.44,1.44,0,0,1-1.2,2.25ZM200,187a1.44,1.44,0,0,1-1.22-2.23c.52-.8,1-1.62,1.51-2.44a1.45,1.45,0,1,1,2.49,1.48c-.5.85-1,1.7-1.57,2.53A1.43,1.43,0,0,1,200,187ZM69.75,181a1.44,1.44,0,0,1-1.28-.78c-.46-.87-.9-1.76-1.32-2.65a1.44,1.44,0,1,1,2.61-1.24c.41.86.84,1.72,1.28,2.56a1.46,1.46,0,0,1-.62,2A1.44,1.44,0,0,1,69.75,181ZM204,180a1.51,1.51,0,0,1-.65-.15,1.45,1.45,0,0,1-.64-1.94c.42-.86.84-1.73,1.23-2.59a1.45,1.45,0,1,1,2.64,1.2c-.41.9-.84,1.8-1.29,2.68A1.43,1.43,0,0,1,204,180ZM66.43,173.75a1.44,1.44,0,0,1-1.34-.92c-.36-.92-.71-1.86-1-2.79a1.45,1.45,0,0,1,2.74-.95c.31.89.64,1.8,1,2.68a1.45,1.45,0,0,1-.82,1.88A1.61,1.61,0,0,1,66.43,173.75Zm140.76-1.1a1.47,1.47,0,0,1-.5-.09,1.44,1.44,0,0,1-.85-1.86c.33-.89.65-1.8.95-2.71a1.45,1.45,0,0,1,2.75.91c-.31.94-.64,1.89-1,2.81A1.45,1.45,0,0,1,207.19,172.65ZM63.91,166.14a1.46,1.46,0,0,1-1.4-1.07c-.26-.95-.5-1.92-.72-2.88a1.44,1.44,0,1,1,2.81-.66c.22.93.45,1.86.7,2.78a1.43,1.43,0,0,1-1,1.77A1.31,1.31,0,0,1,63.91,166.14ZM209.6,165a1.49,1.49,0,0,1-.36-.05,1.45,1.45,0,0,1-1-1.76c.24-.92.46-1.86.66-2.79a1.45,1.45,0,0,1,2.83.61c-.21,1-.44,1.94-.69,2.9A1.44,1.44,0,0,1,209.6,165ZM62.21,158.3a1.46,1.46,0,0,1-1.43-1.22c-.15-1-.29-2-.41-2.94a1.45,1.45,0,1,1,2.87-.35c.12.94.25,1.89.4,2.83a1.45,1.45,0,0,1-1.2,1.66Zm149-1.17H211a1.46,1.46,0,0,1-1.23-1.64c.14-.94.26-1.89.36-2.84a1.44,1.44,0,0,1,1.59-1.29,1.46,1.46,0,0,1,1.29,1.59c-.11,1-.23,2-.37,2.95A1.46,1.46,0,0,1,211.18,157.13Zm-149.82-6.8A1.45,1.45,0,0,1,59.92,149c-.06-1-.09-2-.11-3a1.45,1.45,0,0,1,1.43-1.46,1.43,1.43,0,0,1,1.47,1.42c0,.95,0,1.91.1,2.86a1.44,1.44,0,0,1-1.37,1.52Zm150.54-1.18h-.05a1.46,1.46,0,0,1-1.4-1.5c0-1,.06-1.91.06-2.87v-.16a1.44,1.44,0,0,1,1.44-1.45h0a1.44,1.44,0,0,1,1.44,1.44v.17c0,1,0,2-.05,3A1.45,1.45,0,0,1,211.9,149.15ZM61.35,142.31h-.07a1.44,1.44,0,0,1-1.37-1.51c.05-1,.12-2,.21-3a1.45,1.45,0,0,1,2.88.26c-.09.94-.15,1.9-.2,2.85A1.45,1.45,0,0,1,61.35,142.31ZM211.77,141a1.44,1.44,0,0,1-1.44-1.35c-.06-1-.15-1.91-.25-2.85a1.45,1.45,0,0,1,2.88-.31c.1,1,.19,2,.26,3a1.46,1.46,0,0,1-1.34,1.55ZM62.19,134.33a.9.9,0,0,1-.23,0,1.43,1.43,0,0,1-1.2-1.65c.15-1,.33-2,.52-2.93a1.45,1.45,0,1,1,2.84.57c-.19.93-.36,1.87-.5,2.81A1.46,1.46,0,0,1,62.19,134.33ZM210.8,133a1.46,1.46,0,0,1-1.43-1.19c-.16-.94-.35-1.88-.55-2.81a1.45,1.45,0,0,1,2.83-.61c.21,1,.4,1.94.57,2.91a1.44,1.44,0,0,1-1.17,1.68A1.06,1.06,0,0,1,210.8,133ZM63.87,126.49a1.2,1.2,0,0,1-.38,0,1.44,1.44,0,0,1-1-1.77c.26-1,.54-1.92.83-2.86a1.45,1.45,0,1,1,2.76.87c-.28.9-.55,1.83-.8,2.74A1.44,1.44,0,0,1,63.87,126.49ZM209,125.19a1.44,1.44,0,0,1-1.39-1c-.26-.91-.55-1.83-.85-2.73a1.45,1.45,0,0,1,2.75-.92c.31.94.61,1.9.88,2.84a1.46,1.46,0,0,1-1,1.8A1.37,1.37,0,0,1,209,125.19ZM66.37,118.87a1.37,1.37,0,0,1-.52-.1,1.45,1.45,0,0,1-.82-1.88c.36-.92.74-1.84,1.13-2.75a1.45,1.45,0,1,1,2.66,1.16c-.38.87-.75,1.76-1.1,2.65A1.45,1.45,0,0,1,66.37,118.87Zm140-1.25a1.44,1.44,0,0,1-1.34-.89c-.36-.88-.74-1.76-1.14-2.62a1.45,1.45,0,0,1,2.64-1.2c.4.89.8,1.81,1.17,2.72a1.43,1.43,0,0,1-.78,1.88A1.35,1.35,0,0,1,206.34,117.62ZM69.69,111.55a1.44,1.44,0,0,1-1.29-2.11c.46-.88.94-1.76,1.43-2.62a1.45,1.45,0,0,1,2-.54,1.44,1.44,0,0,1,.54,2c-.47.83-.93,1.68-1.37,2.52A1.43,1.43,0,0,1,69.69,111.55Zm133.21-1.16a1.43,1.43,0,0,1-1.27-.76c-.45-.83-.92-1.67-1.41-2.48a1.45,1.45,0,0,1,2.49-1.48c.5.85,1,1.72,1.47,2.58a1.45,1.45,0,0,1-.59,2A1.53,1.53,0,0,1,202.9,110.39ZM73.76,104.64a1.42,1.42,0,0,1-.8-.25,1.45,1.45,0,0,1-.4-2c.54-.83,1.11-1.65,1.69-2.45a1.45,1.45,0,0,1,2.35,1.69C76,102.4,75.5,103.2,75,104A1.45,1.45,0,0,1,73.76,104.64Zm125-1.08a1.44,1.44,0,0,1-1.19-.63c-.54-.78-1.1-1.56-1.67-2.32a1.45,1.45,0,1,1,2.32-1.73c.59.79,1.17,1.6,1.73,2.41a1.44,1.44,0,0,1-.37,2A1.4,1.4,0,0,1,198.72,103.56ZM78.55,98.19a1.47,1.47,0,0,1-.93-.33,1.45,1.45,0,0,1-.19-2c.63-.76,1.28-1.51,1.94-2.25a1.45,1.45,0,0,1,2.16,1.93c-.63.71-1.26,1.44-1.87,2.17A1.42,1.42,0,0,1,78.55,98.19Zm115.28-1a1.43,1.43,0,0,1-1.1-.51c-.61-.72-1.26-1.44-1.9-2.13a1.45,1.45,0,1,1,2.12-2c.67.72,1.34,1.47,2,2.22a1.44,1.44,0,0,1-.16,2A1.46,1.46,0,0,1,193.83,97.21ZM84,92.3a1.45,1.45,0,0,1-1-2.49c.71-.69,1.44-1.37,2.17-2a1.45,1.45,0,0,1,1.94,2.15c-.7.63-1.41,1.29-2.09,1.95A1.42,1.42,0,0,1,84,92.3Zm104.32-.89a1.48,1.48,0,0,1-1-.4c-.69-.65-1.4-1.3-2.12-1.92a1.45,1.45,0,0,1,1.91-2.18c.74.64,1.48,1.32,2.2,2a1.45,1.45,0,0,1-1,2.51ZM90,87a1.45,1.45,0,0,1-.9-2.59c.78-.61,1.58-1.21,2.37-1.79A1.45,1.45,0,0,1,93.19,85c-.77.56-1.54,1.14-2.28,1.73A1.47,1.47,0,0,1,90,87Zm92.17-.79a1.44,1.44,0,0,1-.88-.3c-.75-.57-1.53-1.14-2.31-1.69a1.45,1.45,0,0,1,1.66-2.37c.81.57,1.62,1.16,2.4,1.76a1.45,1.45,0,0,1,.28,2A1.47,1.47,0,0,1,182.18,86.22ZM96.56,82.39a1.44,1.44,0,0,1-.77-2.67c.84-.53,1.69-1,2.54-1.53a1.45,1.45,0,1,1,1.45,2.5c-.82.48-1.65,1-2.45,1.48A1.46,1.46,0,0,1,96.56,82.39Zm79-.68a1.47,1.47,0,0,1-.75-.21c-.81-.5-1.65-1-2.48-1.44a1.45,1.45,0,0,1,1.4-2.53c.87.48,1.73,1,2.58,1.49a1.45,1.45,0,0,1-.75,2.69Zm-72-3.22a1.44,1.44,0,0,1-.64-2.74c.89-.44,1.79-.86,2.69-1.25a1.44,1.44,0,1,1,1.17,2.64c-.86.39-1.73.79-2.59,1.21A1.41,1.41,0,0,1,103.56,78.49Zm64.9-.57a1.46,1.46,0,0,1-.61-.13c-.86-.4-1.75-.8-2.62-1.16A1.45,1.45,0,1,1,166.35,74c.91.38,1.83.79,2.72,1.21a1.44,1.44,0,0,1-.61,2.75Zm-57.53-2.55a1.45,1.45,0,0,1-1.36-1,1.43,1.43,0,0,1,.86-1.85c.93-.34,1.88-.66,2.82-1a1.45,1.45,0,0,1,.88,2.76c-.91.29-1.82.6-2.71.92A1.41,1.41,0,0,1,110.93,75.37ZM161,74.92a1.6,1.6,0,0,1-.47-.08c-.89-.3-1.81-.6-2.72-.87a1.45,1.45,0,0,1,.83-2.77c.95.28,1.9.58,2.83.9a1.45,1.45,0,0,1-.47,2.82ZM118.6,73a1.45,1.45,0,0,1-.34-2.85c.95-.23,1.93-.45,2.9-.65a1.44,1.44,0,1,1,.58,2.83c-.93.19-1.87.41-2.79.63A1.45,1.45,0,0,1,118.6,73Zm34.7-.31a1.66,1.66,0,0,1-.32,0c-.93-.21-1.87-.4-2.81-.58a1.44,1.44,0,0,1,.53-2.84c1,.18,2,.38,2.92.6a1.44,1.44,0,0,1-.32,2.85Zm-26.82-1.18a1.43,1.43,0,0,1-1.43-1.25,1.44,1.44,0,0,1,1.24-1.63c1-.13,2-.24,3-.34a1.45,1.45,0,1,1,.27,2.88c-.94.09-1.9.2-2.84.33Zm18.91-.16h-.17c-.94-.11-1.9-.21-2.84-.28a1.44,1.44,0,1,1,.22-2.88c1,.07,2,.17,3,.28a1.45,1.45,0,0,1-.17,2.89Zm-10.92-.48a1.45,1.45,0,0,1,0-2.9c.72,0,1.45,0,2.16,0h.81a1.45,1.45,0,1,1,0,2.89h-.8c-.69,0-1.39,0-2.08,0Z"/><circle class="cls-2" cx="137.66" cy="66.47" r="49.13"/><path class="cls-1" d="M122.34,47.2H101.25a1.75,1.75,0,0,1-1.75-1.75h0a1.75,1.75,0,0,1,1.75-1.75h21.09a1.75,1.75,0,0,1,1.75,1.75h0A1.75,1.75,0,0,1,122.34,47.2Z"/><path class="cls-1" d="M122.34,54.43H101.25a1.75,1.75,0,0,1-1.75-1.75h0a1.75,1.75,0,0,1,1.75-1.75h21.09a1.75,1.75,0,0,1,1.75,1.75h0A1.75,1.75,0,0,1,122.34,54.43Z"/><path class="cls-1" d="M122.34,61.66H101.25a1.75,1.75,0,0,1-1.75-1.75h0a1.75,1.75,0,0,1,1.75-1.75h21.09a1.75,1.75,0,0,1,1.75,1.75h0A1.75,1.75,0,0,1,122.34,61.66Z"/><path class="cls-1" d="M122.34,68.89H101.25a1.75,1.75,0,0,1-1.75-1.75h0a1.75,1.75,0,0,1,1.75-1.75h21.09a1.75,1.75,0,0,1,1.75,1.75h0A1.75,1.75,0,0,1,122.34,68.89Z"/><path class="cls-1" d="M172.08,47.2H151a1.75,1.75,0,0,1-1.75-1.75h0A1.75,1.75,0,0,1,151,43.7h21.1a1.75,1.75,0,0,1,1.75,1.75h0A1.75,1.75,0,0,1,172.08,47.2Z"/><path class="cls-1" d="M172.08,54.43H151a1.75,1.75,0,0,1-1.75-1.75h0A1.75,1.75,0,0,1,151,50.93h21.1a1.75,1.75,0,0,1,1.75,1.75h0A1.75,1.75,0,0,1,172.08,54.43Z"/><path class="cls-1" d="M172.08,61.66H151a1.75,1.75,0,0,1-1.75-1.75h0A1.75,1.75,0,0,1,151,58.16h21.1a1.75,1.75,0,0,1,1.75,1.75h0A1.75,1.75,0,0,1,172.08,61.66Z"/><path class="cls-1" d="M172.08,68.89H151a1.76,1.76,0,0,1-1.75-1.75h0A1.75,1.75,0,0,1,151,65.39h21.1a1.75,1.75,0,0,1,1.75,1.75h0A1.75,1.75,0,0,1,172.08,68.89Z"/><path class="cls-3" d="M137.3,121.46a54.66,54.66,0,1,1,38.65-16A54.35,54.35,0,0,1,137.3,121.46Zm0-101.61a46.95,46.95,0,1,0,46.94,46.94A47,47,0,0,0,137.3,19.85Z"/><path class="cls-4" d="M164.32,105.16h0a46.85,46.85,0,0,1-55.12-.78h0c0-.45,0-1.18,0-1.63,0-1,0-2,.07-3,0-.21,0-.41,0-.62s0-.46,0-.68c0-.7,0-1.39,0-2.08,0-1.41.07-2.81.11-4.19,0-.83.05-1.65.08-2.47,0-.17,0-.34,0-.5,0-.54,0-1.08,0-1.61h0c0-.16,0-.33,0-.49,0-.49,0-1,0-1.46a1.93,1.93,0,0,1,0-.24l0-1c0-.66.05-1.31.07-2,.53-13.87,1.28-24.6,2.33-26.17,1.88-2.8,8.25-6.5,13.37-9.52,1.83-1.07,4-2.19,5.26-3,1.82,1.46,3.14,2.79,5.84,2.7a5,5,0,0,0,2.44-.66,5.8,5.8,0,0,0,1.73-1.76c.24-.34.47-.7.73-1h0v0c.7.46,2.49,1.92,3.42,2.47L147.49,47c1.22.69,2.5,1.43,3.79,2.18l.53.31c2.17,1.28,4.3,2.59,6.07,3.85a15.77,15.77,0,0,1,3.87,3.5c.58.86,1,4.48,1.4,9.86.27,3.92.49,8.78.66,14.19,0,.45,0,.91.05,1.36v.17c0,.47,0,.94,0,1.42,0,1.45.08,2.92.12,4.42,0,.31,0,.63,0,1s0,.48,0,.71c0,.62,0,1.24,0,1.86v.38c0,1.64.07,3.31.1,5,0,.49,0,1,0,1.48C164.27,100.86,164.29,102.89,164.32,105.16Z"/><polygon class="cls-2" points="143.95 97.13 136.81 106.3 129.67 97.13 134.69 57.64 131.96 54.05 136.22 47.27 140.48 54.05 137.65 57.56 143.95 97.13"/><path class="cls-5" d="M143.88,69.25H154s.14,10.94-5.06,10.94S143.88,69.25,143.88,69.25Z"/><path class="cls-3" d="M130.77,42.21a5.64,5.64,0,0,0-6.06,5.1L132,54l4.4-7S131.58,45.29,130.77,42.21Z"/><path class="cls-3" d="M141.67,42.21a5.64,5.64,0,0,1,6.06,5.1L140.48,54l-4.4-7S140.86,45.29,141.67,42.21Z"/><path class="cls-6" d="M122.88,19.32s-2-6.13-1.41-9.13,2.24-3.06,2.24-3.06-1.73-5.46,5-6.5,9.74-.5,16.56-.38,7.17,6.4,1.74,9.14C147,9.39,126.67-.85,122.88,19.32Z"/><path class="cls-6" d="M147.31,7.57s4.65,2.47,1.56,9l-3.41-8.06Z"/><path class="cls-6" d="M122.4,18.33c0,8.17,5,13.81,13.2,13.81s13.87-6.06,13.87-14.23a17.43,17.43,0,0,0-1.08-6.22c0-.11-.08-.22-.13-.33s-.17-.42-.27-.63-.3-.62-.47-.92a12.09,12.09,0,0,0-11.07-6.26C126.65,3.55,122.4,10.16,122.4,18.33Z"/><path class="cls-7" d="M124.23,21.85s-2.27-3-4-.52.7,9.89,4.83,8.09Z"/><path class="cls-8" d="M124.2,27.13a.34.34,0,0,1-.33-.25,5.43,5.43,0,0,0-3-3.22.36.36,0,0,1-.21-.45.35.35,0,0,1,.45-.2,6,6,0,0,1,3.46,3.68.35.35,0,0,1-.24.43Z"/><path class="cls-8" d="M121.81,26a.29.29,0,0,1-.18-.05.35.35,0,0,1-.11-.48,3.2,3.2,0,0,1,1.31-1.06.35.35,0,0,1,.46.17.36.36,0,0,1-.17.47,2.52,2.52,0,0,0-1,.79A.34.34,0,0,1,121.81,26Z"/><path class="cls-7" d="M147.63,21.85s2.27-3,4-.52-.7,9.89-4.83,8.09Z"/><path class="cls-8" d="M147.66,27.13a.36.36,0,0,0,.34-.25,5.43,5.43,0,0,1,3-3.22.35.35,0,0,0,.21-.45.35.35,0,0,0-.45-.2,6,6,0,0,0-3.46,3.68.35.35,0,0,0,.24.43Z"/><path class="cls-8" d="M150.05,26a.29.29,0,0,0,.18-.05.35.35,0,0,0,.11-.48A3.2,3.2,0,0,0,149,24.39a.35.35,0,0,0-.46.17.36.36,0,0,0,.17.47,2.52,2.52,0,0,1,1,.79A.34.34,0,0,0,150.05,26Z"/><path class="cls-9" d="M141.52,35.69V43s-2.19,3.75-5.16,4-5.59-3.22-5.59-3.22V36.21Z"/><path class="cls-7" d="M141.52,35.69V39c-2,2.21-5.52,2.76-10.75,2V36.21Z"/><path class="cls-9" d="M149.27,16.81a71.19,71.19,0,0,1-1,9.28c-.14.72-.29,1.39-.46,2-1.55,5.42-5.42,14.71-16.26,10.84-4.78-1.71-7-7-8-12.46a52.33,52.33,0,0,1-.72-10.06,7.65,7.65,0,0,1,3.89-6.53c6.4-3.63,13.15-2.28,17.59-.57A7.64,7.64,0,0,1,149.27,16.81Z"/><path class="cls-6" d="M131.28,22.81c0,.78-.4,1.42-.9,1.42s-.9-.64-.9-1.42.4-1.42.9-1.42S131.28,22,131.28,22.81Z"/><path class="cls-6" d="M141.93,22.78c0,.79-.4,1.42-.9,1.42s-.9-.63-.9-1.42.4-1.42.9-1.42S141.93,22,141.93,22.78Z"/><path class="cls-6" d="M144,17.9s-2.86-1.13-5-.18l.22,1.22a14.19,14.19,0,0,1,4.84.38A2.1,2.1,0,0,0,144,17.9Z"/><path class="cls-6" d="M127.37,17.9s2.85-1.13,5-.18l-.22,1.22a14.19,14.19,0,0,0-4.84.38A2,2,0,0,1,127.37,17.9Z"/><path class="cls-7" d="M136.05,28.77a3.66,3.66,0,0,0,1.27-.27.36.36,0,0,0,.19-.46.37.37,0,0,0-.46-.19,2.12,2.12,0,0,1-1.4.14.4.4,0,0,1-.17-.33,52.8,52.8,0,0,1,.21-5.35.36.36,0,0,0-.32-.38.36.36,0,0,0-.38.32,53.74,53.74,0,0,0-.21,5.48,1.07,1.07,0,0,0,.51.85A1.43,1.43,0,0,0,136.05,28.77Z"/><path class="cls-2" d="M131.36,30.54c.58,2,2.23,4,4.51,4.05s3.92-2,4.5-4.05Z"/><path class="cls-7" d="M135.67,36.78a3.76,3.76,0,0,0,1.7-.47.35.35,0,1,0-.36-.6,2.48,2.48,0,0,1-2.61,0,.35.35,0,1,0-.37.59A3.55,3.55,0,0,0,135.67,36.78Z"/><path class="cls-6" d="M148.9,21.91h-1.58c.17-1.59.42-4.39-.88-4.79-4.13-1.26,1.22-4.18-.64-5.63s-6.5-.84-9.72-.94a70.63,70.63,0,0,0-9.72.23c-1.27.29-.57,2.4-.11,4s-1.55,3.43-1.89,5.12a7.2,7.2,0,0,0,0,2H123c-.16-2.05-.18-4-.15-5.51a7.65,7.65,0,0,1,3.89-6.53c6.4-3.63,13.15-2.28,17.59-.57a7.64,7.64,0,0,1,4.9,7.51C149.2,18.37,149.08,20.15,148.9,21.91Z"/><path class="cls-4" d="M114.55,73.3l-2.88,5.59-6.9,13.42-2.65,5.15c-3.64-4.22-6.47-7.87-8.8-14.24a182,182,0,0,1,18.82-26.87Z"/><path class="cls-10" d="M115.67,73.87,114,77.18l-1.24,2.42-3,5.86,0-1c0-.66.05-1.31.07-2l1.86-3.63,2.88-5.59a.63.63,0,0,1,1.12.57Z"/><path class="cls-10" d="M112.1,79.8a.66.66,0,0,1-.38-.25.63.63,0,0,1,.15-.87l4.6-3.28a.62.62,0,0,1,.72,1l-4.6,3.27A.63.63,0,0,1,112.1,79.8Z"/><path class="cls-4" d="M159.1,73.3,162,78.89l6.9,13.42,3.54,6A48.21,48.21,0,0,0,181,84.83a200.34,200.34,0,0,0-19.48-28.48Z"/><path class="cls-10" d="M158,73.87l1.71,3.31,1.24,2.42,3,5.86,0-1c0-.66,0-1.31-.07-2L162,78.89,159.1,73.3a.63.63,0,0,0-1.12.57Z"/><path class="cls-10" d="M161.55,79.8a.66.66,0,0,0,.38-.25.62.62,0,0,0-.14-.87l-4.61-3.28a.62.62,0,1,0-.72,1l4.6,3.27A.63.63,0,0,0,161.55,79.8Z"/><path class="cls-9" d="M106.36,99.4s-2.85,3.95-4.88,3.76,1.13-5.39,1.13-5.39-4.18,4.79-5.57,3.76,2.68-6.12,2.68-6.12-3.89,2.92-5,2.25,2.49-4.8,2.49-4.8S93.63,95,92.7,94.6s1.77-4.23,3.71-5.64,3,1.54,3,1.54,2.39,1.16,2.41,2.49c0,0,2.38.77,2.86,2.18C104.65,95.17,108.15,96.87,106.36,99.4Z"/><path class="cls-9" d="M167.61,100s2.85,4,4.88,3.76-1.13-5.39-1.13-5.39,4.18,4.8,5.56,3.77S174.25,96,174.25,96s3.89,2.92,5,2.25-2.49-4.8-2.49-4.8,3.54,2.15,4.47,1.75-1.77-4.23-3.71-5.65-3,1.54-3,1.54-2.39,1.16-2.41,2.5c0,0-2.38.76-2.85,2.18C169.32,95.79,165.82,97.49,167.61,100Z"/><circle class="cls-2" cx="209.98" cy="166.95" r="49.13" transform="translate(-56.55 197.38) rotate(-45)"/><path class="cls-1" d="M195.3,148H174.2a1.75,1.75,0,0,1-1.75-1.75h0a1.75,1.75,0,0,1,1.75-1.75h21.1a1.75,1.75,0,0,1,1.75,1.75h0A1.75,1.75,0,0,1,195.3,148Z"/><path class="cls-1" d="M195.3,155.27H174.2a1.75,1.75,0,0,1-1.75-1.75h0a1.75,1.75,0,0,1,1.75-1.75h21.1a1.75,1.75,0,0,1,1.75,1.75h0A1.75,1.75,0,0,1,195.3,155.27Z"/><path class="cls-1" d="M195.3,162.5H174.2a1.75,1.75,0,0,1-1.75-1.75h0A1.75,1.75,0,0,1,174.2,159h21.1a1.75,1.75,0,0,1,1.75,1.75h0A1.76,1.76,0,0,1,195.3,162.5Z"/><rect class="cls-1" x="172.45" y="166.23" width="24.6" height="3.5" rx="1.75"/><path class="cls-1" d="M242.78,148h-21.1a1.75,1.75,0,0,1-1.75-1.75h0a1.75,1.75,0,0,1,1.75-1.75h21.1a1.75,1.75,0,0,1,1.75,1.75h0A1.75,1.75,0,0,1,242.78,148Z"/><path class="cls-1" d="M242.78,155.27h-21.1a1.75,1.75,0,0,1-1.75-1.75h0a1.75,1.75,0,0,1,1.75-1.75h21.1a1.75,1.75,0,0,1,1.75,1.75h0A1.75,1.75,0,0,1,242.78,155.27Z"/><path class="cls-1" d="M242.78,162.5h-21.1a1.75,1.75,0,0,1-1.75-1.75h0a1.75,1.75,0,0,1,1.75-1.75h21.1a1.75,1.75,0,0,1,1.75,1.75h0A1.76,1.76,0,0,1,242.78,162.5Z"/><rect class="cls-1" x="219.93" y="166.23" width="24.6" height="3.5" rx="1.75"/><path class="cls-11" d="M209.61,221.94a54.66,54.66,0,1,1,38.66-16A54.33,54.33,0,0,1,209.61,221.94Zm0-101.61a46.95,46.95,0,1,0,46.95,47A47,47,0,0,0,209.61,120.33Z"/><path class="cls-6" d="M190.56,131v0c-.11-.5-.2-1-.27-1.49-1-7.28,1.71-21.19,17.8-21.16,0,0,13.31-.24,16.49,12.38l.48,2a60.26,60.26,0,0,1,1.69,12.17c.08,2.48.6,5.45,2.45,6.9,6.14,4.83,8,10.22,6.08,15.7s.11,4.77,4.35,10.67-.95,12-7.85,12.58c-7.56.67-4.41-9-16.63-5.13S185,173.65,184.8,164.37s9.54-13.27,10-17.85S191,135.54,190.56,131Z"/><path class="cls-4" d="M177.06,201.07c7.34-5.68,13.47-14.92,19.06-25.74,0,0,3.23-19.25-1.1-22.9-8.2,16.88-16.31,34.55-24.44,41.06A46.54,46.54,0,0,0,177.06,201.07Z"/><path class="cls-9" d="M174.13,196.2s-3.95,1.85-5.91,1.25,3-3.94,3-3.94-6,4-7.22,2.73,4.49-5.28,4.49-5.28S164,193,163,192.17s3-4,3-4-3.71,1.29-4.57.72,2.25-3.6,4.32-4.52,2.7,2.05,2.7,2.05,2.19,1.57,2,2.83c0,0,2.22,1.2,2.51,2.63C173,191.9,176.19,194.2,174.13,196.2Z"/><path class="cls-3" d="M190.1,210c1.3-7.16,3.12-21.25,3.52-27.05,0-.26,0-.53.07-.79l-.15-.49a25.07,25.07,0,0,1-1.44-6.45c-.3-6.18,1.67-9.64,2.88-13.22,0-1.77.06-7.77,0-9.54l8.12-1.28,1.69-.27h.1l1.73-.28h.13a27.61,27.61,0,0,1,11.72.67l.74.22,2.81.87.11,0,1.8.56,8,2.47-6.16,55.94A46.07,46.07,0,0,1,190.1,210Z"/><path class="cls-9" d="M224,152.94c-5,6.25-15.17,12.25-19,8.9-2.37-2.06-2.42-7.17-1.83-10.69l1.7-.26.1,0h0l1.73-.27.13,0a27.62,27.62,0,0,1,11.72.69l.38.13.35.13,2.82.83.11,0Z"/><path class="cls-4" d="M193.69,182.13c0,.26,0,.53-.07.79,1.76.79,7.38,2.85,17.74,2.61,1.34,0,2.77-.11,4.27-.22a.56.56,0,1,0-.08-1.12c-15.12,1.17-21.92-2.51-22-2.54h0Z"/><path class="cls-7" d="M196,131.08s-2.63-2.56-4,0,1.93,9.26,5.82,7Z"/><path class="cls-2" d="M196,137.88a.75.75,0,0,1-.65.85.76.76,0,0,1-.2-1.51A.76.76,0,0,1,196,137.88Z"/><path class="cls-8" d="M196.67,136.08a.34.34,0,0,1-.36-.2,5.34,5.34,0,0,0-3.42-2.64.33.33,0,0,1-.25-.4.35.35,0,0,1,.42-.25,5.94,5.94,0,0,1,3.89,3,.33.33,0,0,1-.18.44Z"/><path class="cls-8" d="M194.16,135.31a.44.44,0,0,1-.2,0,.32.32,0,0,1-.16-.44,3.07,3.07,0,0,1,1.17-1.17.35.35,0,0,1,.48.1.32.32,0,0,1-.12.46,2.49,2.49,0,0,0-.9.89A.4.4,0,0,1,194.16,135.31Z"/><path class="cls-9" d="M215.38,143.39l1.13,8.57s-3.58,3.6-6.65,4.28-4.62-2.84-4.62-2.84l-1.06-8Z"/><path class="cls-7" d="M215.49,144.23l.45,3.42c-1.78,2.59-5.37,3.9-11,3.82l-.69-5.21Z"/><path class="cls-9" d="M195.12,134.52c.2.81.43,1.64.69,2.46,1.72,5.44,6,11,10.63,11.42,9.9.91,12.89-7.17,13.69-12.94.09-.64-.33-1.31-.29-2.06a55.61,55.61,0,0,0,.43-5.8c-.06-1.37-.16-2.71-.26-3.91a8,8,0,0,0-5.9-7.07c-4.65-1.18-11.54-1.68-17.4,2.89a8,8,0,0,0-3,7.22A58.66,58.66,0,0,0,195.12,134.52Z"/><path class="cls-7" d="M207.41,137.28a.38.38,0,0,0,0-.75l-1.31,0,1.14-4.94a.37.37,0,1,0-.73-.17l-1.35,5.83,2.22.07Z"/><path class="cls-6" d="M197.58,124.64c-3.53,2.21-1.75,6.52-2.72,8.93-.07.15-.15.19-.25.13a60.12,60.12,0,0,1-1.43-7.94,8.11,8.11,0,0,1,3.18-7.38c6.2-4.69,13.45-4.2,18.35-3a8.08,8.08,0,0,1,6.17,7.18c.1,1.24.2,2.6.27,4-.58.45-2.08.82-2,1.84.18,2.67.29,4.5-.28,4.41-1-.14-2-3.28-1.18-5.49,0,0-1-1.29-4.72-2.17a68.45,68.45,0,0,1-9.38-3.13,8.15,8.15,0,0,1-2.64-1.83A8.06,8.06,0,0,1,197.58,124.64Z"/><path class="cls-6" d="M201.94,131.84c.11.83-.23,1.55-.75,1.62s-1-.54-1.14-1.36.22-1.55.75-1.62S201.83,131,201.94,131.84Z"/><path class="cls-6" d="M212.73,130.41c.11.82-.23,1.55-.75,1.62s-1-.54-1.15-1.37.23-1.54.75-1.61S212.62,129.59,212.73,130.41Z"/><path class="cls-6" d="M198.28,127.86a18.32,18.32,0,0,1,3.89-.86c.44,0,.83.24.81.59h0a.61.61,0,0,1-.63.52,20.81,20.81,0,0,0-5.35,1,.69.69,0,0,1,.2-.62A2.3,2.3,0,0,1,198.28,127.86Z"/><path class="cls-6" d="M213.52,126a18.4,18.4,0,0,0-4,.13c-.43.07-.73.44-.63.77h0a.61.61,0,0,0,.74.35,21.38,21.38,0,0,1,5.45-.3.71.71,0,0,0-.36-.55A2.27,2.27,0,0,0,213.52,126Z"/><path class="cls-2" d="M203.57,140.05a4.28,4.28,0,0,0,4.78,3.15c3.11-.41,3.69-2.73,3.79-4.28Z"/><path class="cls-7" d="M208.61,145.45a3.68,3.68,0,0,1-1.79-.27.37.37,0,0,1-.18-.49.37.37,0,0,1,.49-.18h0a2.61,2.61,0,0,0,2.73-.37.37.37,0,0,1,.52.06.38.38,0,0,1,0,.52A4,4,0,0,1,208.61,145.45Z"/><path class="cls-9" d="M219.19,128s2.2-3.53,4.05-1.44.56,9.16-3.45,8Z"/><path class="cls-2" d="M222.2,134.41a.76.76,0,1,1-.85-.66A.77.77,0,0,1,222.2,134.41Z"/><path class="cls-7" d="M220.34,132.36a.32.32,0,0,0,.28-.27,5,5,0,0,1,2.39-3.32.32.32,0,0,0-.31-.57A5.6,5.6,0,0,0,220,132a.32.32,0,0,0,.27.36Z"/><path class="cls-7" d="M222.39,131a.3.3,0,0,0,.17-.08.32.32,0,0,0,0-.45,3,3,0,0,0-1.33-.81.33.33,0,0,0-.41.22.32.32,0,0,0,.22.4,2.16,2.16,0,0,1,1,.61A.37.37,0,0,0,222.39,131Z"/><path class="cls-6" d="M207.56,130l.09.59a4.46,4.46,0,0,0,1.79,2.92,4.38,4.38,0,0,0,3.27.79l.14,0a4,4,0,0,0,2.54-1.63,4.37,4.37,0,0,0,.79-3.27l-.11-.7a1.6,1.6,0,0,0-.19-.53,1.53,1.53,0,0,0-1.59-.77l-5.42.84a1.55,1.55,0,0,0-1.26,1.09,1.58,1.58,0,0,0-.05.65Zm.64-.1a.92.92,0,0,1,.77-1l5.42-.84a.91.91,0,0,1,1,.76l.11.69a3.73,3.73,0,0,1-.67,2.79,3.37,3.37,0,0,1-2.13,1.38l-.13,0a3.81,3.81,0,0,1-4.32-3.17Z"/><path class="cls-6" d="M196.07,131.75l.09.59a4.43,4.43,0,0,0,5.05,3.71l.15,0a4,4,0,0,0,2.53-1.63,4.37,4.37,0,0,0,.79-3.27l-.11-.7v0a1.78,1.78,0,0,0-.22-.57,1.58,1.58,0,0,0-1.56-.7l-5.42.84a1.55,1.55,0,0,0-1.1.74,1.52,1.52,0,0,0-.21.62A1.19,1.19,0,0,0,196.07,131.75Zm.64-.1a.91.91,0,0,1,.76-1l5.42-.84a.9.9,0,0,1,1,.76l.11.69a3.72,3.72,0,0,1-.66,2.79,3.39,3.39,0,0,1-2.13,1.38l-.14,0a3.79,3.79,0,0,1-4.31-3.17Z"/><path class="cls-6" d="M215.45,127.63a7.9,7.9,0,0,1,3.86-1.31l-.15.67a7.48,7.48,0,0,0-3.28,1.13l-.24.17-.42-.49Z"/><path class="cls-6" d="M207.78,130l.12-.64a7.11,7.11,0,0,0-2,0,4.36,4.36,0,0,0-1.71.61l.37.53a4,4,0,0,1,1.44-.5A5.93,5.93,0,0,1,207.78,130Z"/><path class="cls-6" d="M194.2,130.43a8.41,8.41,0,0,1,2.34.36l-.19.61a9,9,0,0,0-2.29-.32Z"/><path class="cls-3" d="M232,155.41s13.3,7.45,22.81,10.35a70.12,70.12,0,0,0,6.68-10.15c3.07-5.79,4.45-8.14,5.71-10.79l6.67,1.58s-8,29.74-17.84,30.41-27.26-10-27.26-10Z"/><path class="cls-9" d="M277.92,131.08c-.59.11-1.37,2.11-2,4l-.21-.05c.56-2.7,1.35-7.36.08-7-.83.26-1.63,4.22-2.05,6.62l-.38,0c.45-2.87,1.16-8.47-.26-8-.94.35-1.61,5.26-1.89,7.79l-.34,0c.28-2.45.66-7.15-.75-6.63s-1.46,7.75-1.46,7.75h0l-.4,2.71s-.95,0-1.57-2-2-2.86-1.86-.37c.14,2.81,1.13,5.23,1.17,7.19a4,4,0,0,0,1,2.33,5.11,5.11,0,0,0,2.2,1.61h0a4.69,4.69,0,0,0,5.95-2.39c1.2-2.59,2.48-5.95,2.44-8.44h0C278.28,133.86,279,130.87,277.92,131.08Z"/><circle class="cls-2" cx="55.03" cy="166.95" r="49.13" transform="translate(-101.94 87.81) rotate(-45)"/><path class="cls-11" d="M54.66,221.94a54.66,54.66,0,1,1,38.66-16A54.33,54.33,0,0,1,54.66,221.94Zm0-101.61a46.95,46.95,0,1,0,47,47A47,47,0,0,0,54.66,120.33Z"/><path class="cls-1" d="M39.46,148H18.36a1.75,1.75,0,0,1-1.75-1.75h0a1.75,1.75,0,0,1,1.75-1.75h21.1a1.75,1.75,0,0,1,1.75,1.75h0A1.75,1.75,0,0,1,39.46,148Z"/><path class="cls-1" d="M39.46,155.27H18.36a1.75,1.75,0,0,1-1.75-1.75h0a1.75,1.75,0,0,1,1.75-1.75h21.1a1.75,1.75,0,0,1,1.75,1.75h0A1.75,1.75,0,0,1,39.46,155.27Z"/><path class="cls-1" d="M39.46,162.5H18.36a1.76,1.76,0,0,1-1.75-1.75h0A1.75,1.75,0,0,1,18.36,159h21.1a1.75,1.75,0,0,1,1.75,1.75h0A1.75,1.75,0,0,1,39.46,162.5Z"/><rect class="cls-1" x="16.61" y="166.23" width="24.6" height="3.5" rx="1.75"/><path class="cls-1" d="M89.2,148H68.1a1.75,1.75,0,0,1-1.75-1.75h0a1.75,1.75,0,0,1,1.75-1.75H89.2A1.75,1.75,0,0,1,91,146.29h0A1.75,1.75,0,0,1,89.2,148Z"/><path class="cls-1" d="M89.2,155.27H68.1a1.75,1.75,0,0,1-1.75-1.75h0a1.75,1.75,0,0,1,1.75-1.75H89.2A1.75,1.75,0,0,1,91,153.52h0A1.75,1.75,0,0,1,89.2,155.27Z"/><path class="cls-1" d="M89.2,162.5H68.1a1.76,1.76,0,0,1-1.75-1.75h0A1.75,1.75,0,0,1,68.1,159H89.2A1.75,1.75,0,0,1,91,160.75h0A1.75,1.75,0,0,1,89.2,162.5Z"/><rect class="cls-1" x="66.35" y="166.23" width="24.6" height="3.5" rx="1.75"/><path class="cls-4" d="M81.35,205.88a46.86,46.86,0,0,1-55.13-1.28l0-1.37c0-1,0-2,.07-2.95,0-.2,0-.41,0-.62s0-.45,0-.68c0-.7,0-1.39,0-2.08,0-1.41.07-2.81.11-4.19,0-.83,0-1.65.08-2.47v-.5c0-.54,0-1.08,0-1.61h0c0-.16,0-.33,0-.49,0-.49,0-1,0-1.46s0-.82,0-1.23c.53-14.8,1.3-26.48,2.4-28.12,1.87-2.79,8.24-6.5,13.37-9.52,1.83-1.07,4-2.18,5.25-3,1.83,1.47,3.15,2.79,5.84,2.7a4.85,4.85,0,0,0,2.45-.66,5.8,5.8,0,0,0,1.73-1.76c.24-.34.47-.69.72-1h0l0,0c.7.46,2.49,1.92,3.41,2.47l2.56,1.48c1.22.7,2.5,1.43,3.79,2.19l.53.31c2.16,1.27,4.3,2.58,6.07,3.84a16.17,16.17,0,0,1,3.87,3.5c.57.87,1,4.48,1.4,9.86.19,2.8.36,6.08.5,9.69v0l.06,1.6v0c0,.93.07,1.89.1,2.86,0,.44,0,.9,0,1.36v.16c0,.47,0,1,0,1.43q.06,2.16.12,4.41c0,.31,0,.63,0,1s0,.48,0,.72c0,.61,0,1.23,0,1.85v.38c0,1.64.06,3.31.09,5l0,1.48C81.28,201.34,81.32,203.61,81.35,205.88Z"/><path class="cls-10" d="M80.73,178.48v0l-2.89-2.25a.62.62,0,1,1,.77-1l2.06,1.6Z"/><path class="cls-5" d="M81.25,199.1l-7.19,7.3-6.71-6.8-6.69,6.8-6.73-6.82L47.2,206.4l-6.77-6.87-6.77,6.87L26.35,199c0-.69,0-1.39,0-2.08,0-1.41.07-2.81.11-4.19l7.15-7.25,6.77,6.87,6.77-6.87,6.73,6.82,6.73-6.82,6.69,6.79,6.71-6.79,7.07,7.17c0,1.64.06,3.31.09,5Z"/><path class="cls-5" d="M44.57,160.83a.51.51,0,0,1-.1-1c12.9-2.45,16.79-10.74,16.82-10.83a.52.52,0,0,1,.68-.25.51.51,0,0,1,.25.67c-.16.36-4.15,8.86-17.56,11.41Z"/><path class="cls-6" d="M39.42,118.81c0,8.18,5,13.81,13.2,13.81s13.87-6.06,13.87-14.23a17.46,17.46,0,0,0-1.08-6.22c0-.11-.08-.22-.13-.33s-.17-.42-.27-.63-.3-.62-.47-.92A12.09,12.09,0,0,0,53.47,104C43.67,104,39.42,110.64,39.42,118.81Z"/><path class="cls-6" d="M41.34,116.41s-4.71-3.13-1.91-6.49-1.16-5.66,2.31-6.84,2.38-3.68,5-4.62c2.27-.82,3.34,2.14,6.65.31,2.58-1.43,4.25-1.15,5.91.76s3.79,1,5,2.75c1.48,2.12.06,4.79,1.48,5.7s1.76,3.42,1,5c-.9,1.84.3,2.51-1.24,3.42S41.34,116.41,41.34,116.41Z"/><path class="cls-7" d="M41.25,122.33s-2.27-3-4-.52.7,9.9,4.83,8.09Z"/><path class="cls-8" d="M41.22,127.62a.35.35,0,0,1-.33-.26,5.43,5.43,0,0,0-3-3.22.36.36,0,0,1-.21-.45.35.35,0,0,1,.45-.2,6,6,0,0,1,3.46,3.68.35.35,0,0,1-.24.43Z"/><path class="cls-8" d="M38.83,126.47a.3.3,0,0,1-.18-.06.34.34,0,0,1-.11-.48,3.2,3.2,0,0,1,1.31-1.06.34.34,0,0,1,.46.18.35.35,0,0,1-.17.46,2.4,2.4,0,0,0-1,.8A.37.37,0,0,1,38.83,126.47Z"/><path class="cls-7" d="M64.65,122.33s2.27-3,4-.52-.7,9.9-4.83,8.09Z"/><path class="cls-8" d="M64.68,127.62a.37.37,0,0,0,.34-.26,5.43,5.43,0,0,1,3-3.22.35.35,0,0,0,.21-.45.35.35,0,0,0-.45-.2,6,6,0,0,0-3.46,3.68.35.35,0,0,0,.24.43Z"/><path class="cls-8" d="M67.07,126.47a.3.3,0,0,0,.18-.06.34.34,0,0,0,.11-.48,3.2,3.2,0,0,0-1.31-1.06.34.34,0,0,0-.46.18.35.35,0,0,0,.17.46,2.4,2.4,0,0,1,1,.8A.37.37,0,0,0,67.07,126.47Z"/><path class="cls-9" d="M58.54,136.17v7.35s-1.49,3.59-5.16,4c-3,.34-5.59-3.22-5.59-3.22v-7.61Z"/><path class="cls-7" d="M58.54,136.17v3.26c-2,2.21-5.52,2.76-10.75,2v-4.73Z"/><path class="cls-9" d="M66.29,117.29a71.35,71.35,0,0,1-1,9.29c-.14.71-.29,1.38-.46,2-1.55,5.42-5.42,14.71-16.26,10.84-4.78-1.71-7-7-8-12.46a52.33,52.33,0,0,1-.72-10.06,7.67,7.67,0,0,1,3.89-6.53c6.4-3.63,13.15-2.28,17.59-.57A7.64,7.64,0,0,1,66.29,117.29Z"/><path class="cls-6" d="M48.3,123.29c0,.79-.4,1.42-.9,1.42s-.9-.63-.9-1.42.4-1.42.9-1.42S48.3,122.51,48.3,123.29Z"/><path class="cls-6" d="M59,123.26c0,.79-.4,1.42-.9,1.42s-.9-.63-.9-1.42.4-1.42.9-1.42S59,122.48,59,123.26Z"/><path class="cls-6" d="M61,118.38s-2.86-1.13-5-.18l.22,1.22a14,14,0,0,1,4.84.39A2.13,2.13,0,0,0,61,118.38Z"/><path class="cls-6" d="M44.39,118.38s2.85-1.13,5-.18l-.22,1.22a14,14,0,0,0-4.84.39A2.07,2.07,0,0,1,44.39,118.38Z"/><path class="cls-7" d="M53.07,129.25a3.66,3.66,0,0,0,1.27-.27.35.35,0,0,0,.19-.45.36.36,0,0,0-.46-.2,2.12,2.12,0,0,1-1.4.14.4.4,0,0,1-.17-.33,52.8,52.8,0,0,1,.21-5.35.34.34,0,0,0-.32-.37.35.35,0,0,0-.38.31,53.88,53.88,0,0,0-.21,5.48,1.1,1.1,0,0,0,.51.86A1.52,1.52,0,0,0,53.07,129.25Z"/><path class="cls-2" d="M48.38,131c.58,2,2.23,4,4.51,4.06s3.92-2,4.5-4.06Z"/><path class="cls-7" d="M52.69,137.26a3.62,3.62,0,0,0,1.7-.47.35.35,0,0,0-.36-.6,2.93,2.93,0,0,1-1.34.38,2.77,2.77,0,0,1-1.27-.38.35.35,0,0,0-.48.12.36.36,0,0,0,.11.48A3.6,3.6,0,0,0,52.69,137.26Z"/><path class="cls-6" d="M65.92,122.39H64.34c.17-1.59.42-4.38-.88-4.79-4.13-1.26,1.22-4.18-.64-5.63s-6.5-.83-9.72-.94a68.74,68.74,0,0,0-9.72.24c-1.27.29-.57,2.39-.11,4s-1.55,3.43-1.89,5.12a7.21,7.21,0,0,0,0,2H40.06c-.16-2-.18-4-.15-5.51a7.67,7.67,0,0,1,3.89-6.53c6.4-3.63,13.15-2.28,17.59-.57a7.64,7.64,0,0,1,4.9,7.51C66.22,118.85,66.1,120.63,65.92,122.39Z"/><path class="cls-2" d="M51.07,122.46a3.81,3.81,0,0,0-.24-.67,4,4,0,0,0-.89-1.22,3.9,3.9,0,0,0-2.7-1.07,4,4,0,0,0-3.37,1.89,2.53,2.53,0,0,0-.13.22l-.16.34a4,4,0,1,0,7.62,1.5A4,4,0,0,0,51.07,122.46Zm-3.83,4.33a3.35,3.35,0,0,1-3.34-3.34,3.28,3.28,0,0,1,.7-2,3.34,3.34,0,1,1,2.64,5.37Z"/><path class="cls-2" d="M61.74,122a4.83,4.83,0,0,0-.27-.56,3.76,3.76,0,0,0-.54-.72,3.94,3.94,0,0,0-2.88-1.25,3.89,3.89,0,0,0-2.43.84,3.84,3.84,0,0,0-1.16,1.46,3.91,3.91,0,0,0-.24.65,4.15,4.15,0,0,0-.12,1A4,4,0,1,0,61.74,122Zm-3.69,4.76a3.34,3.34,0,1,1,3.34-3.34A3.35,3.35,0,0,1,58.05,126.79Z"/><path class="cls-2" d="M44,122.18a.31.31,0,0,1-.22-.09h0a4.86,4.86,0,0,0-4.17-1.21.31.31,0,0,1-.37-.23.3.3,0,0,1,.23-.37,5.39,5.39,0,0,1,4.74,1.37.31.31,0,0,1,0,.44A.3.3,0,0,1,44,122.18Z"/><path class="cls-2" d="M61.41,122.18a.31.31,0,0,1-.26-.14.32.32,0,0,1,.09-.43c.12-.07,2.92-1.88,5.3-1.49a.31.31,0,0,1-.1.61c-2.15-.35-4.84,1.38-4.86,1.4A.34.34,0,0,1,61.41,122.18Z"/><path class="cls-2" d="M54.31,122.56a2.47,2.47,0,0,0-1.7-1,2.28,2.28,0,0,0-1.62,1l-.52-.33A2.85,2.85,0,0,1,52.61,121a3.06,3.06,0,0,1,2.2,1.25Z"/><path class="cls-4" d="M75.8,154.35s19.32,16,26.66,22.67a46.49,46.49,0,0,0,9.57-8.5c4.84-5.84,6.37-7.41,8.32-9.81l6.37,3.31s-14,28.82-24.31,27-26.92-16.42-26.92-16.42Z"/><path class="cls-9" d="M134.72,147.51c-.64,0-1.93,1.83-3.05,3.66l-.2-.11c1.24-2.63,3.22-7.21,1.82-7.13-.92.06-2.73,3.92-3.76,6.28l-.38-.14c1.17-2.83,3.3-8.39,1.72-8.21-1.06.12-3,5-3.89,7.51l-.34-.1c.9-2.44,2.46-7.18.88-7-1.42.17-3.43,7.59-3.43,7.59h0L123,152.54s-1-.25-1.11-2.41-1.33-3.43-1.82-.85c-.56,2.93-.14,5.65-.6,7.67a4.37,4.37,0,0,0,.4,2.64,5.51,5.51,0,0,0,1.86,2.2h0a5,5,0,0,0,6.7-1c1.88-2.35,4-5.48,4.62-8h0C134.39,150.45,135.83,147.56,134.72,147.51Z"/><path class="cls-4" d="M31.56,173.67l-2.88,5.59-6.91,13.42-2.64,5.14a46.85,46.85,0,0,1-8.52-14.39,178.45,178.45,0,0,1,18.53-26.72Z"/><path class="cls-10" d="M32.67,174.24,31,177.55,29.72,180l-3,5.85,0-1c0-.66.05-1.31.07-2l1.87-3.62,2.88-5.59a.62.62,0,0,1,.84-.27A.62.62,0,0,1,32.67,174.24Z"/><path class="cls-10" d="M29.1,180.16a.58.58,0,0,1-.38-.25.63.63,0,0,1,.15-.87l4.6-3.27a.62.62,0,0,1,.87.14.64.64,0,0,1-.15.88l-4.6,3.27A.59.59,0,0,1,29.1,180.16Z"/><path class="cls-9" d="M23.54,199.76s-2.85,4-4.89,3.76,1.13-5.39,1.13-5.39-4.17,4.8-5.56,3.77,2.67-6.13,2.67-6.13-3.89,2.92-5,2.25,2.48-4.8,2.48-4.8-3.53,2.15-4.46,1.75,1.76-4.23,3.7-5.65,3,1.54,3,1.54S19,192,19,193.36c0,0,2.38.76,2.86,2.18C21.83,195.54,25.32,197.24,23.54,199.76Z"/></svg>