<svg id="Layer_1" data-name="Layer 1" xmlns="http://www.w3.org/2000/svg" viewBox="0 0 348.28 304.02"><defs><style>.cls-1{fill:#575756;}</style></defs><title>ms-sales-customer-3</title><path class="cls-1" d="M348.07,304s2.5-15-10-20.81-85.72-41.61-98.21-47.44-9.15-21.63-10-24.13-8.32,0-8.32,0l-3.33-30s17.41-19.86,14.83-37.46c0,0,8.15,1.71,12.45-18.89s.43-24-2.58-21.89l5.58-37.35s2.07-20.35-6.05-38.63c-8.91.78-20.19,1.47-34.2-3.71-11.2-4.14-23.75-12.18-26.5-13.91-12.2-7.79-31.38-12.23-45.84-8.5S109,16.3,105.16,25C97,43.3,99.75,66.09,99.75,66.09l5.58,37.35c-3-2.15-6.87,1.29-2.58,21.89s12.45,18.89,12.45,18.89c-2.58,17.6,14.83,37.46,14.83,37.46l-3.33,30s-7.49-2.5-8.32,0,2.5,18.31-10,24.13-85.72,41.62-98.2,47.44S.2,304,.2,304Z"/></svg>