<svg id="Layer_1" data-name="Layer 1" xmlns="http://www.w3.org/2000/svg" viewBox="0 0 348.28 295.45"><defs><style>.cls-1{fill:#575756;}</style></defs><title>ms-sales-customer-4</title><path class="cls-1" d="M348.07,295.45s2.5-15-10-20.81S252.37,233,239.88,227.2c-2.88-14.69-9.15-21.63-10-24.13s-8.33,0-8.33,0l-3.32-30s5.74,8.06,9.63,81.49C225.7,234.08,246.5,100,245.72,74.66,244.59,37.87,220.8,0,174.14,0s-70.45,37.87-71.59,74.66c-.78,25.32,20,159.42,17.85,179.94,3.89-73.43,9.63-81.49,9.63-81.49l-3.33,30s-7.49-2.5-8.32,0-7.11,9.44-10,24.13c-12.48,5.83-85.72,41.61-98.2,47.44S.2,295.45.2,295.45Z"/></svg>