<svg id="Layer_1" data-name="Layer 1" xmlns="http://www.w3.org/2000/svg" viewBox="0 0 115.8 264.27"><defs><style>.cls-1{fill:#d13e2f;}.cls-2{fill:#d1e6ec;}.cls-3{fill:#fda380;}.cls-4{fill:#f77853;}.cls-5{fill:#012156;}.cls-6{fill:#f85f2d;}.cls-7{fill:#fff;}.cls-8{fill:#0172d0;}.cls-9{fill:#0056c5;}</style></defs><title>ms-sales-sp</title><path class="cls-1" d="M13,54.44s-13,30.47-13,47,22.31,18.21,22.31,18.21l3.75-8.94s-16.17-2.9-14.24-22.2Z"/><ellipse class="cls-2" cx="46.39" cy="256.54" rx="44.89" ry="7.73"/><path class="cls-3" d="M33.37,35.45v7.44s2.21,3.78,5.21,4,5.66-3.26,5.66-3.26V36Z"/><path class="cls-3" d="M52.07,21.31c0,.43-.06.87-.11,1.31-.11,1.1-.26,2.24-.46,3.38,0,0,0,.07,0,.11-1,5.48-.72,10.52-8.08,12.6-11.2,3.17-14.88-5.48-16.45-11-.17-.61-.33-1.29-.46-2,0,0,0-.06,0-.09-.15-.81-.28-1.68-.4-2.56q-.12-1-.21-2c-.16-1.63-.27-3.28-.34-4.73a7.74,7.74,0,0,1,5-7.6C35,7,41.8,5.66,48.27,9.32a7.78,7.78,0,0,1,3.94,6.61C52.24,17.45,52.22,19.31,52.07,21.31Z"/><path class="cls-4" d="M47.56,27.11a.36.36,0,0,1-.27-.33A5.43,5.43,0,0,0,45,22.94a.35.35,0,1,1,.39-.59A6,6,0,0,1,48,26.74a.35.35,0,0,1-.33.37Z"/><path class="cls-4" d="M45.46,25.45a.4.4,0,0,1-.18-.1.36.36,0,0,1,0-.5,3.23,3.23,0,0,1,1.52-.76.36.36,0,0,1,.42.28.35.35,0,0,1-.27.42,2.7,2.7,0,0,0-1.18.56A.35.35,0,0,1,45.46,25.45Z"/><path class="cls-5" d="M28.19,34a78.08,78.08,0,0,1-5.06-12.29c-1.57-5.4-1.38-9.41-.13-12.29a13,13,0,0,1,9-7.19c4.68-1.13,10.83-1,13.94-1.74C51.16-.78,54.5.72,56,2.48c2.7,3.2,1,10.18-4.1,11.36,0,0-3.17.9-2.17,3.47a6.1,6.1,0,0,1-.55,5.11s-1.14-2.7-3.29-2.51c0,0-3.56,0-3,5.33.46,4.37,3,4.85,4.52,4.15,0,0-.37,3.19-2.14,4.82-1.16,1.06-4,3.38-6.08,4C36.32,39.08,31,40.23,28.19,34Z"/><path class="cls-6" d="M24.21,262.4a7.9,7.9,0,0,0,2.7,0l1.27-.41,2.09-.63s7.48-2.94,10.13-5.51,2.18-5.42-1.95-6.8-7.83-.08-10-1c0,0-6.61.56-6.25,4.09a45,45,0,0,0,.16,8.36A2.21,2.21,0,0,0,24.21,262.4Z"/><path class="cls-7" d="M27.87,249.64a.44.44,0,0,1-.28-.2.45.45,0,0,1,.14-.61,6.88,6.88,0,0,1,3.17-1,3.06,3.06,0,0,1,2.67,1.64.45.45,0,0,1-.81.37,2.14,2.14,0,0,0-1.89-1.12,6,6,0,0,0-2.67.85A.44.44,0,0,1,27.87,249.64Z"/><path class="cls-7" d="M29.36,249.48a.47.47,0,0,1-.29-.21.44.44,0,0,1,.15-.6,6.88,6.88,0,0,1,3.17-1,3,3,0,0,1,2.66,1.64.44.44,0,1,1-.8.36,2.17,2.17,0,0,0-1.9-1.12,6,6,0,0,0-2.67.86A.46.46,0,0,1,29.36,249.48Z"/><path class="cls-7" d="M30.81,249.17a.42.42,0,0,1-.29-.2.44.44,0,0,1,.15-.6,6.63,6.63,0,0,1,3.17-1A3,3,0,0,1,36.5,249a.45.45,0,0,1-.22.59.44.44,0,0,1-.58-.22,2.17,2.17,0,0,0-1.9-1.12,6,6,0,0,0-2.67.86A.41.41,0,0,1,30.81,249.17Z"/><path class="cls-3" d="M30.56,243.51v7c-2.18.51-4.52.75-6.36-.1L23.78,243Z"/><path class="cls-8" d="M36.59,237.85a6.44,6.44,0,0,1-2.38,5.22,7.08,7.08,0,0,1-1.22.79l-.19.08a6.51,6.51,0,0,1-2.68.58H25.27a6.47,6.47,0,0,1-6.48-6.67c.33-10.69.78-31.12-.23-37.35-1-6.07-2.66-33.09-3.55-48.3-.34-5.53-.56-9.51-.6-10.33l20.64-.27c.1,1.65.34,5.69.61,11h0c.68,13.37,1.64,33,2,47.05C37.92,212.43,36.32,228.81,36.59,237.85Z"/><path class="cls-9" d="M35.05,141.6l-20.64.27c0,.82.26,4.8.6,10.33a87.19,87.19,0,0,0,20.65.43C35.39,147.29,35.15,143.25,35.05,141.6Z"/><path class="cls-9" d="M34.18,239.57c0,1.33,0,2.49,0,3.5a7.08,7.08,0,0,1-1.22.79l-.19.08c0-1.17,0-2.82,0-4.38.05-5.7.44-12.76.82-19.59.46-8.27.9-16.08.55-19.34-.78-7.41-1.84-47.3-2.11-57.92l1.39,0c.27,10.62,1.33,50.44,2.1,57.8.36,3.36-.08,11.23-.54,19.55C34.62,226.86,34.23,233.9,34.18,239.57Z"/><path class="cls-6" d="M49.54,262.4a7.9,7.9,0,0,0,2.7,0l1.27-.41,2.08-.63s7.49-2.94,10.14-5.51,2.18-5.42-2-6.8-7.83-.08-10-1c0,0-6.62.56-6.25,4.09a45,45,0,0,0,.16,8.36A2.2,2.2,0,0,0,49.54,262.4Z"/><path class="cls-7" d="M53.2,249.64a.41.41,0,0,1-.28-.2.44.44,0,0,1,.14-.61,6.88,6.88,0,0,1,3.17-1,3,3,0,0,1,2.66,1.64.44.44,0,0,1-.8.37,2.14,2.14,0,0,0-1.89-1.12,6.09,6.09,0,0,0-2.68.85A.41.41,0,0,1,53.2,249.64Z"/><path class="cls-7" d="M54.68,249.48a.48.48,0,0,1-.28-.21.43.43,0,0,1,.15-.6,6.82,6.82,0,0,1,3.16-1,3,3,0,0,1,2.67,1.64.44.44,0,0,1-.22.58.45.45,0,0,1-.59-.22,2.16,2.16,0,0,0-1.89-1.12,6,6,0,0,0-2.67.86A.48.48,0,0,1,54.68,249.48Z"/><path class="cls-7" d="M56.13,249.17a.44.44,0,0,1-.13-.8,6.63,6.63,0,0,1,3.16-1A3.06,3.06,0,0,1,61.83,249a.45.45,0,0,1-.22.59.44.44,0,0,1-.58-.22,2.19,2.19,0,0,0-1.9-1.12,6,6,0,0,0-2.67.86A.43.43,0,0,1,56.13,249.17Z"/><path class="cls-3" d="M55.27,243.51l-.41,7c-2.57.71-4.5,1-6-.09L48.49,243Z"/><path class="cls-8" d="M61.3,237.85a6.49,6.49,0,0,1-2.38,5.22,7.16,7.16,0,0,1-1.23.79l-.18.08a6.52,6.52,0,0,1-2.69.58H50a6.44,6.44,0,0,1-3.2-.84,6.55,6.55,0,0,1-1.47-1.15,6.43,6.43,0,0,1-1.8-4.68c.32-10.69.78-31.12-.23-37.35-1-5.89-2.57-31.51-3.48-46.91,0-.48,0-.94-.08-1.39-.33-5.53-.55-9.51-.6-10.33l20.65-.27c0,.1,0,.21,0,.31.09,1.62.28,4.84.5,9.06,0,.54.06,1.09.08,1.66h0c.68,13.37,1.65,33,2,47.05C62.62,212.43,61,228.81,61.3,237.85Z"/><path class="cls-9" d="M60.38,151h-.1c-6.13.77-13.2,2-20.49,2.62,0-.48,0-.94-.08-1.39-.33-5.53-.55-9.51-.6-10.33l20.65-.27c0,.1,0,.21,0,.31C59.89,143.56,60.12,146,60.38,151Z"/><path class="cls-9" d="M58.89,239.57c0,1.33,0,2.49,0,3.5a7.16,7.16,0,0,1-1.23.79l-.18.08c0-1.17,0-2.82,0-4.38,0-5.7.44-12.76.82-19.59.46-8.27.89-16.08.55-19.34-.78-7.41-1.84-47.3-2.12-57.92l1.39,0c.28,10.62,1.33,50.44,2.11,57.8.36,3.36-.08,11.23-.55,19.55C59.32,226.86,58.93,233.9,58.89,239.57Z"/><path class="cls-6" d="M66.28,144a112.62,112.62,0,0,1-56,0c-.07-5.15-.15-21.76,0-39.31,0-.81,0-1.61,0-2.41,0-.2,0-.39,0-.58l0-2.35c0-.48,0-.94,0-1.41,0-.23,0-.45,0-.68s0-.53,0-.79l0-1.46c0-.24,0-.49,0-.73s0-.49,0-.74l0-1.4c0-.49,0-1,0-1.46,0-.28,0-.56,0-.84s0-.42,0-.63c0-.49,0-1,0-1.46,0-.3,0-.6,0-.89s0-.35,0-.52c0-.45,0-.9,0-1.34,0-.22,0-.44,0-.66v0l0-.84v0c.4-15,1.1-27.33,2.29-29,1.38-1.91,5.57-4.39,9.9-6.73s8.79-4.55,10.73-5.92a17.53,17.53,0,0,0,9.88.54,1,1,0,0,0,.55-.31l.6.39C49.4,45.31,60.28,50.47,62.84,54c1.2,1.65,2,14.15,2.53,29.42,0,1,.08,2,.1,2.93,0,.17,0,.34,0,.52s0,.59,0,.89c0,.48,0,1,0,1.46,0,.21,0,.42,0,.63l0,.84c0,.48,0,1,0,1.46s0,.93,0,1.4c0,.25,0,.49,0,.74s0,.49,0,.73l0,1.46c0,.26,0,.53,0,.79s0,.45,0,.68c0,.47,0,.94,0,1.41l.06,2.35c0,.2,0,.39,0,.58,0,.8,0,1.6.05,2.41C66.27,122.29,66.33,138.89,66.28,144Z"/><path class="cls-1" d="M65.58,89.84h-55c0-.21,0-.42,0-.63,0-.49,0-1,0-1.46,0-.3,0-.6,0-.89H65.49c0,.29,0,.59,0,.89,0,.48,0,1,0,1.46C65.56,89.42,65.57,89.63,65.58,89.84Z"/><path class="cls-1" d="M65.77,97.26H10.44c0-.26,0-.53,0-.79l0-1.46c0-.24,0-.49,0-.73H65.7c0,.24,0,.49,0,.73l0,1.46C65.76,96.73,65.76,97,65.77,97.26Z"/><path class="cls-1" d="M65.93,104.69H10.35c0-.81,0-1.61,0-2.41,0-.2,0-.39,0-.58H65.87c0,.2,0,.39,0,.58C65.9,103.08,65.91,103.88,65.93,104.69Z"/><path class="cls-3" d="M115.4,47.31c-.65,0-2,1.84-3.2,3.7L112,50.9c1.33-2.69,3.45-7.36,2-7.3-.94,0-2.88,4-4,6.39l-.4-.15c1.27-2.89,3.55-8.58,1.92-8.42-1.08.11-3.14,5.08-4.13,7.66l-.35-.11c1-2.5,2.66-7.34,1-7.18-1.47.14-3.67,7.74-3.67,7.74h0l-1.17,2.74s-1-.27-1.11-2.5-1.3-3.56-1.85-.9c-.63,3-.25,5.8-.75,7.88a4.37,4.37,0,0,0,.36,2.71,5.66,5.66,0,0,0,1.87,2.3h0a5.09,5.09,0,0,0,6.91-.87c2-2.39,4.25-5.57,4.9-8.2h0C115,50.33,116.55,47.38,115.4,47.31Z"/><path class="cls-6" d="M107.27,62.07s-6.9,22.07-20,32.12a8,8,0,0,1-7.48,1.29c-4.23-1.58-10.64-4.12-14.37-9.14,0,0-6.76-22.94-2.63-32.35,0,0,7.41,15.95,19.56,25.77l.12.1.53.42.62-.48.11-.09a74.54,74.54,0,0,0,8.76-8.16c3.38-4,7.3-12.25,7.3-12.25A11.34,11.34,0,0,0,107.27,62.07Z"/><path class="cls-1" d="M84.2,87.08a.59.59,0,0,1-.56-.12.62.62,0,0,1-.21-.31,30.53,30.53,0,0,1-1-6.89l.12.1.53.42.62-.48a28.23,28.23,0,0,0,1,6.51A.62.62,0,0,1,84.2,87.08Z"/></svg>