<svg id="Layer_1" data-name="Layer 1" xmlns="http://www.w3.org/2000/svg" viewBox="0 0 39.59 40.76"><defs><style>.cls-1{fill:#cfe4ea;}</style></defs><title>ms-sales-gear</title><path class="cls-1" d="M38.37,27.55l1.22-6.22-5.83-1.15A14.53,14.53,0,0,0,33,15.63l4.8-3.23L34.25,7.14l-4.59,3.09a14.3,14.3,0,0,0-4.72-3.18l1.14-5.83L19.86,0,18.68,6a13.84,13.84,0,0,0-3.79.74L11.67,1.94,6.4,5.48l3.09,4.59a14.12,14.12,0,0,0-3.17,4.72l-5.1-1L0,20l5.28,1a14,14,0,0,0,1.12,4.8L1.8,28.94,5.33,34.2,10.14,31a14.22,14.22,0,0,0,4.63,2.69l-1.15,5.86,6.22,1.23,1.25-6.36a13.83,13.83,0,0,0,4-1.07l3.09,4.6,5.26-3.53-3.23-4.81a14.12,14.12,0,0,0,2.12-3.22ZM22.74,25.06A5.81,5.81,0,1,1,24.32,17,5.83,5.83,0,0,1,22.74,25.06Z"/></svg>