<svg id="Layer_1" data-name="Layer 1" xmlns="http://www.w3.org/2000/svg" viewBox="0 0 348.28 295.44"><defs><style>.cls-1{fill:#575756;}</style></defs><title>ms-sales-customer-2</title><path class="cls-1" d="M.2,295.44s-2.49-15,10-20.8S95.91,233,108.39,227.2c2.88-14.69,9.16-21.64,10-24.13s8.32,0,8.32,0l3.33-30S93.54,178.58,96.12,161c0,0,10.92-23.62,6.63-44.22s-4.89-34-3-59.24C101.89,28.76,127.48,0,174.14,0s72.25,28.76,74.39,57.52c1.89,25.26,1.29,38.63-3,59.24S252.16,161,252.16,161c2.58,17.6-33.91,12.13-33.91,12.13l3.32,30s7.5-2.5,8.33,0,7.1,9.44,10,24.13c12.49,5.83,85.72,41.61,98.21,47.44s10,20.8,10,20.8Z"/></svg>