<svg id="Layer_1" data-name="Layer 1" xmlns="http://www.w3.org/2000/svg" viewBox="0 0 359.45 287.33"><defs><style>.cls-1{fill:#0b3c65;}.cls-2{fill:#fff;}.cls-3{fill:#0172d0;}.cls-4{fill:#cfe4ea;}.cls-5{fill:#ff8327;}.cls-6{fill:#d13e2f;}.cls-7{fill:#012156;}</style></defs><title>ms-sales-laptop</title><path class="cls-1" d="M359.4,10.72V199.34H0V10.72A10.72,10.72,0,0,1,10.72,0h338A10.72,10.72,0,0,1,359.4,10.72Z"/><path class="cls-2" d="M345.87,20.52v156.4a3.89,3.89,0,0,1-3.89,3.89H17.37a3.82,3.82,0,0,1-2.19-.68,3.89,3.89,0,0,1-1.7-3.21V20.52a3.89,3.89,0,0,1,3.89-3.89H342a3.89,3.89,0,0,1,3.24,1.74A3.84,3.84,0,0,1,345.87,20.52Z"/><rect class="cls-3" x="305.43" y="40.54" width="15.72" height="13.03" rx="2.26"/><polygon class="cls-3" points="326.88 42.62 326.88 51.49 322.19 49.25 322.19 44.86 326.88 42.62"/><path class="cls-4" d="M345.87,20.52V31.34H13.48V20.52a3.89,3.89,0,0,1,3.89-3.89H342a3.89,3.89,0,0,1,3.24,1.74A3.84,3.84,0,0,1,345.87,20.52Z"/><path class="cls-5" d="M320.3,24.31a2.77,2.77,0,1,1-2.76-2.77A2.77,2.77,0,0,1,320.3,24.31Z"/><path class="cls-3" d="M329.27,24.31a2.77,2.77,0,1,1-2.77-2.77A2.77,2.77,0,0,1,329.27,24.31Z"/><path class="cls-6" d="M337.8,24.31A2.77,2.77,0,1,1,335,21.54,2.77,2.77,0,0,1,337.8,24.31Z"/><path class="cls-7" d="M359.45,199.34a28.47,28.47,0,0,1-19.3,26.94,28.74,28.74,0,0,1-9.13,1.49H28.48a28.39,28.39,0,0,1-18-6.43c-.49-.41-1-.82-1.43-1.26-.23-.21-.46-.43-.68-.66A28.39,28.39,0,0,1,.06,199.34Z"/><path class="cls-2" d="M9.05,220.08c.46.44.94.85,1.43,1.26C10,220.94,9.51,220.52,9.05,220.08Z"/><path class="cls-2" d="M340.15,226.28a28.46,28.46,0,0,1-9.13,1.49H28.48a28.2,28.2,0,0,1-14.9-4.22,28.29,28.29,0,0,0,14.9,4.22H331A28.74,28.74,0,0,0,340.15,226.28Z"/><rect class="cls-1" x="152.8" y="208.82" width="53.81" height="7.45" rx="3.3"/><rect class="cls-7" x="126.62" y="227.77" width="106.26" height="44.33"/><path class="cls-1" d="M101.69,272.1H257.82a13.3,13.3,0,0,1,13.3,13.3v1.92a0,0,0,0,1,0,0H88.38a0,0,0,0,1,0,0v-1.92A13.3,13.3,0,0,1,101.69,272.1Z"/></svg>