<svg id="Layer_1" data-name="Layer 1" xmlns="http://www.w3.org/2000/svg" viewBox="0 0 64.24 19.35"><defs><style>.cls-1{fill:#776358;}.cls-2{fill:#ffb5ac;}</style></defs><title>ny-mouse-hand-left</title><path class="cls-1" d="M2.75,19a3.31,3.31,0,0,0,2.46.2c1.39-.3,2.79-.48,4.18-.8s2.88-.7,4.35-.92,2.84-.11,4.27-.21a69.5,69.5,0,0,1,8.88.37,78.86,78.86,0,0,0,9.35.16A50.58,50.58,0,0,0,52.52,14c3.95-1.68,9.3-4.1,11.28-8.25.67-1.41.68-3.19-.77-4.16-1.63-1.09-2.43.14-3.76.89S57,4.28,55.72,5,53,6.4,51.57,7a43.81,43.81,0,0,1-8.72,3.26c-5.63,1.19-11.54,2.06-17-.12A10.53,10.53,0,0,1,21.09,7c-1-1.3-1.72-2.72-2.6-4.09C17.9,2,17.34,0,16,0a.48.48,0,0,0-.42.21c-.51.85-.18,2.28,0,3.18a19.69,19.69,0,0,0,.76,2.83,1.43,1.43,0,0,1,.18,1.23.46.46,0,0,0-.32.18c-1.56-.22-5.41-1.77-6.07-1.91A20.81,20.81,0,0,0,5.91,5C4.32,5,3.59,6.58,5.48,7.06a48.89,48.89,0,0,1,5.17,2c3.08,1.17-.44.45-1.43.44-2.73,0-6.41-.3-9,.93a.49.49,0,0,0-.15.76c1.06,1.23,3.42,1,4.88,1.31a23.16,23.16,0,0,1,3.22,1.12c.11.05,1.94.89,1.9.9a.48.48,0,0,0-.23.24c-1.5.54-3,1.06-4.5,1.62-1,.37-2.6.87-2.84,2.05A.52.52,0,0,0,2.75,19Z"/><path class="cls-2" d="M24.23,11a2.8,2.8,0,0,0,1.06-.81.85.85,0,0,0,.09-.24,10,10,0,0,1-4.29-3c-1-1.3-1.72-2.72-2.6-4.09C17.9,2,17.34,0,16,0a.48.48,0,0,0-.42.21c-.51.85-.18,2.28,0,3.18a19.69,19.69,0,0,0,.76,2.83,1.43,1.43,0,0,1,.18,1.23.46.46,0,0,0-.32.18c-1.56-.22-5.41-1.77-6.07-1.91A20.81,20.81,0,0,0,5.91,5C4.32,5,3.59,6.58,5.48,7.06a48.89,48.89,0,0,1,5.17,2c3.08,1.17-.44.45-1.43.44-2.73,0-6.41-.3-9,.93a.49.49,0,0,0-.15.76c1.06,1.23,3.42,1,4.88,1.31a23.16,23.16,0,0,1,3.22,1.12c.11.05,1.94.89,1.9.9a.48.48,0,0,0-.23.24c-1.5.54-3,1.06-4.5,1.62-1,.37-2.6.87-2.84,2.05a.52.52,0,0,0,.2.58,3.31,3.31,0,0,0,2.46.2c1.39-.3,2.79-.48,4.18-.8s2.88-.7,4.35-.92,2.84-.11,4.27-.21a41.63,41.63,0,0,1,6.19.17,4.75,4.75,0,0,0-1.32-1.37,6.45,6.45,0,0,0,1.29-.38.45.45,0,0,0,.09-.68,6,6,0,0,0-.71-.71c.87-.2,2.19-.2,2.4-1C26.28,12.12,25.13,11.59,24.23,11Z"/></svg>