<svg id="Layer_1" data-name="Layer 1" xmlns="http://www.w3.org/2000/svg" viewBox="0 0 47.94 50.4"><defs><style>.cls-1{fill:#927c6e;}.cls-2{fill:#ffb5ac;}</style></defs><title>ny-mouse-hand-right</title><path class="cls-1" d="M47.57,6.4c-1.12-.46-2.43.61-3.29,1.23-1.3.93-2.56,1.89-3.84,2.84a.45.45,0,0,0-.33.06s.29-2,.31-2.08a23.29,23.29,0,0,1,.85-3.31c.52-1.41,2.06-3.22,1.63-4.78a.49.49,0,0,0-.72-.29C39.75,1.49,37.92,4.7,36.43,7c-.54.83-1.89,4.15-1.15,1a46.05,46.05,0,0,1,1.21-5.42c.64-1.83-1.06-2.1-2-.78a20.17,20.17,0,0,0-1.74,3.91c-.25.63-1.1,4.69-1.79,6.1a.49.49,0,0,0-.33.17,1.44,1.44,0,0,1-.91-.83,21.36,21.36,0,0,0-1.93-2.21c-.65-.65-1.66-1.72-2.65-1.77a.46.46,0,0,0-.4.23c-.73,1.14.59,2.7,1,3.7.65,1.48,1.41,2.9,2,4.43a10.57,10.57,0,0,1,0,5.69c-1.24,5.78-5.25,10.21-9.37,14.24a44.14,44.14,0,0,1-7.55,5.44c-1.31.82-2.67,1.54-4,2.29s-2.7.95-4,1.6S0,45.4,0,47.36c0,1.74,1.48,2.73,3,3,4.54.66,9.53-2.45,13.12-4.8A50.58,50.58,0,0,0,28.34,34.07a76.18,76.18,0,0,0,5.06-7.86A69.48,69.48,0,0,1,38,18.62c.88-1.13,1.57-2.37,2.55-3.44s2.11-2.08,3.19-3.1,2-2.05,3-3a3.33,3.33,0,0,0,1.2-2.15A.51.51,0,0,0,47.57,6.4Z"/><path class="cls-2" d="M47.57,6.4c-1.12-.46-2.43.61-3.29,1.23-1.3.93-2.56,1.89-3.84,2.84a.45.45,0,0,0-.33.06s.29-2,.31-2.08a23.29,23.29,0,0,1,.85-3.31c.52-1.41,2.06-3.22,1.63-4.78a.49.49,0,0,0-.72-.29C39.75,1.49,37.92,4.7,36.43,7c-.54.83-1.89,4.15-1.15,1a46.05,46.05,0,0,1,1.21-5.42c.64-1.83-1.06-2.1-2-.78a20.17,20.17,0,0,0-1.74,3.91c-.25.63-1.1,4.69-1.79,6.1a.49.49,0,0,0-.33.17,1.44,1.44,0,0,1-.91-.83,21.36,21.36,0,0,0-1.93-2.21c-.65-.65-1.66-1.72-2.65-1.77a.46.46,0,0,0-.4.23c-.73,1.14.59,2.7,1,3.7.65,1.48,1.41,2.9,2,4.43a8.72,8.72,0,0,1,.3,4.09,2,2,0,0,0,1.57-.12c.26-.08,1.42-1.57,1.4-.54,0,.66,0,1.94,1,1.65a5.49,5.49,0,0,0,1.59-1.07c-.12.08.48,1.36.62,1.5a8.09,8.09,0,0,0,1.44,1.13A30,30,0,0,1,38,18.62c.88-1.13,1.57-2.37,2.55-3.44s2.11-2.08,3.19-3.1,2-2.05,3-3a3.33,3.33,0,0,0,1.2-2.15A.51.51,0,0,0,47.57,6.4Z"/></svg>