<svg id="Layer_1" data-name="Layer 1" xmlns="http://www.w3.org/2000/svg" viewBox="0 0 174.9 210.27"><defs><style>.cls-1{fill:#776358;}.cls-2{fill:#ffb5ac;}.cls-3{fill:#443731;}.cls-4{fill:#332620;}.cls-5{fill:#fff;}.cls-6{fill:#927c6e;}.cls-7{fill:#cfb8a8;}.cls-8{fill:#a89084;}</style></defs><title>ny-mouse-body</title><path class="cls-1" d="M23.82,66.83c2.78,4.45,7.76,7.66,12.63,9.42,6,2.17,12.32,3.57,17.92,6.72,2.15,1.2,4.46,2.73,7,2.79,2.32.06,3.92-1.22,5.44-2.8,3.57-3.74,3.69-9.54,3.56-14.41A43.48,43.48,0,0,0,69.24,60a8.07,8.07,0,0,0-1.49-3,.37.37,0,0,0,0-.34,18.5,18.5,0,0,0-4.31-4.11c-1.68-1.26-3.19-2.71-5-3.86a53.29,53.29,0,0,0-10.89-5.11c-9-3.33-24-4.22-26.64,7.81A21.58,21.58,0,0,0,23.82,66.83Z" transform="translate(0 0)"/><path class="cls-2" d="M68.87,68.28a50.28,50.28,0,0,0-7.41-10.36C53.85,50.26,43,45.3,32,46.63c-2.14.26-5.35.5-7.08,2a10.15,10.15,0,0,0-3.75,5.78,13.48,13.48,0,0,0-.39,3.84,22.19,22.19,0,0,0,3.09,8.61c2.78,4.45,7.76,7.66,12.63,9.42,6,2.17,12.32,3.57,17.92,6.72,2.15,1.2,4.46,2.73,7,2.79,2.32.06,3.92-1.22,5.44-2.8,2.92-3,3.53-7.49,3.59-11.66C69.93,70.27,69.44,69.26,68.87,68.28Z" transform="translate(0 0)"/><path class="cls-3" d="M53.14,75.81c-1.58.08-3.92.89-4.3,2.71a6,6,0,0,0-.14,1.76c-.17,1.89,1.15,4.09,3.2,4.26,3.83.32,6.72-2.82,5-6.51A3.91,3.91,0,0,0,53.14,75.81Z" transform="translate(0 0)"/><path class="cls-3" d="M47.85,78.62a5,5,0,0,1-2.59.46,5.77,5.77,0,0,1-1.47-.68,7.06,7.06,0,0,0-1.08-.73.34.34,0,0,0-.44.2c-.34,1.4,1.61,2.39,2.72,2.68s3.11,0,3.41-1.42A.47.47,0,0,0,47.85,78.62Z" transform="translate(0 0)"/><path class="cls-3" d="M49.34,75.82a8.38,8.38,0,0,1-2.5-.06,5.48,5.48,0,0,1-1.15-.54c-.31-.18-.53-.48-.87-.59a.48.48,0,0,0-.62.29c-.24,1,1.12,1.8,1.92,2.15,1.18.52,2.71.69,3.63-.35A.57.57,0,0,0,49.34,75.82Z" transform="translate(0 0)"/><path class="cls-4" d="M56.27,78.28a1.75,1.75,0,0,0-.23-.57,2.33,2.33,0,0,0-1.1-1,1.88,1.88,0,0,0-1.4-.11,2,2,0,0,0-.65.22,2,2,0,0,0-.64,2.65,1.41,1.41,0,0,0,.06.22c.53,1.47,2.53,1.46,3.49.49A1.89,1.89,0,0,0,56.27,78.28Z" transform="translate(0 0)"/><path class="cls-5" d="M52.75,78.72a1,1,0,0,0-.53.2.51.51,0,0,0-.16.11,1.43,1.43,0,0,0-.41,1,1.45,1.45,0,0,0,1.47,1.5A1.51,1.51,0,0,0,54.41,80,1.46,1.46,0,0,0,52.75,78.72Z" transform="translate(0 0)"/><path class="cls-5" d="M56.54,79.92a.73.73,0,0,0-.71-.53.69.69,0,0,0-.69.64.78.78,0,0,0,0,.3.71.71,0,0,0,1.14.39A.81.81,0,0,0,56.54,79.92Z" transform="translate(0 0)"/><path class="cls-5" d="M53,76.58a.37.37,0,0,0-.4-.1.24.24,0,0,0-.15.06.12.12,0,0,0-.05,0l0,0a.53.53,0,0,0-.12.62.41.41,0,0,0,.5.28A.56.56,0,0,0,53,76.58Z" transform="translate(0 0)"/><path class="cls-1" d="M114.48,204.86a1.72,1.72,0,0,0-.41-.75.75.75,0,0,0,0-.59,3.91,3.91,0,0,0-1.4-2.14c-1.91-1.29-4.66-.23-6.59.35a55.9,55.9,0,0,1-8.27,1.88,18.69,18.69,0,0,1-7.56-.2,1.73,1.73,0,0,1-.6,0,7.26,7.26,0,0,0-1.82-.1c.11-.35.23-.71.35-1.06.49-1.42,1.1-2.78,1.62-4.19,1-2.53,1.54-5.2,2.32-7.79a59,59,0,0,0,1.72-7.67c.21-1.27.39-2.54.58-3.81s.13-2.33.28-3.5a22.25,22.25,0,0,0,.16-2.95c0-1.32.18-2.63.15-4s.16-2.52.09-3.74c0-.95-.12-1.88-.12-2.83a2.57,2.57,0,0,0-.49-1.64c-.41-.51-1.59-.2-2.13-.2a1.16,1.16,0,0,0-.62.34A6.55,6.55,0,0,1,90,161.39c-.34.16-.64.64-1,.85a.17.17,0,0,0-.08.11.21.21,0,0,0-.18.21c.07.8.29,1.57.43,2.35a22.14,22.14,0,0,1,.21,3.36c.05,2.28,0,4.58-.12,6.86A124.92,124.92,0,0,1,88,188.64c-.35,2.18-.81,4.32-1.33,6.47-.25,1-.41,2.08-.61,3.13s-.58,2-.76,3c-.31,1.79-.92,3.57-1.06,5.39v.12a3,3,0,0,0-.07,1.39c.11,1,1.5,1.48,2.33,1.69a15.5,15.5,0,0,0,4.71,0,9.2,9.2,0,0,1,1.25.14,4.94,4.94,0,0,0,.94-.12,8.37,8.37,0,0,1,1.31.11c.5,0,1,0,1.5,0,4,0,7.88.29,11.82.29,1.25,0,2.91.06,4-.65a1.76,1.76,0,0,0,.71-1.79,5.78,5.78,0,0,0,1-.54A2.33,2.33,0,0,0,114.48,204.86Z" transform="translate(0 0)"/><path class="cls-1" d="M52.91,204.86a1.7,1.7,0,0,1,.4-.75.75.75,0,0,1,0-.59,3.91,3.91,0,0,1,1.4-2.14c1.91-1.29,4.66-.23,6.58.35a56.19,56.19,0,0,0,8.27,1.88,18.73,18.73,0,0,0,7.57-.2,1.67,1.67,0,0,0,.59,0,3.18,3.18,0,0,1,1.2-.09c-.12-.36-6.12-8.77-8.9-16.41a72.48,72.48,0,0,1-4.5-23.66c0-.95.12-1.87.13-2.83a2.53,2.53,0,0,1,.49-1.64c.4-.51,1.58-.19,2.13-.19a1.16,1.16,0,0,1,.62.34A6.59,6.59,0,0,0,70.59,160c.34.15.65.63,1,.85a.21.21,0,0,1,.08.11.19.19,0,0,1,.17.21c-.07.8-.29,1.56-.42,2.35a20.8,20.8,0,0,0-.22,3.35c0,2.29,1.74,13.06,2.86,16,1.62,4.25,5.56,15.86,7.09,18.78.84,1.61,1.94,3.19,2.07,5a.49.49,0,0,1,0,.12,3,3,0,0,1,.07,1.39c-.11,1-1.5,1.48-2.33,1.69a15.5,15.5,0,0,1-4.71,0A9,9,0,0,0,75,210a5.15,5.15,0,0,1-1-.12,8.25,8.25,0,0,0-1.3.11c-.5,0-1,0-1.5,0-4,0-7.89.29-11.83.29-1.24,0-2.9.06-4-.65a1.77,1.77,0,0,1-.7-1.79,5.78,5.78,0,0,1-1-.54A2.33,2.33,0,0,1,52.91,204.86Z" transform="translate(0 0)"/><path class="cls-2" d="M84.19,206.78v-.12a27.05,27.05,0,0,1,.73-3.86c.37,0,.76.19,1-.55a.37.37,0,0,1,.6-.16,1.81,1.81,0,0,1,.54.62c.2.32.62.18,1-.08-.07.23-.15.46-.22.68a7.26,7.26,0,0,1,1.82.1,1.73,1.73,0,0,0,.6,0,18.69,18.69,0,0,0,7.56.2,55.9,55.9,0,0,0,8.27-1.88c1.93-.58,4.68-1.64,6.59-.35a3.91,3.91,0,0,1,1.4,2.14.75.75,0,0,1,0,.59,1.72,1.72,0,0,1,.41.75,2.33,2.33,0,0,1-.79,2.42,5.78,5.78,0,0,1-1,.54,1.76,1.76,0,0,1-.71,1.79c-1.07.71-2.73.66-4,.65-3.94,0-7.87-.28-11.82-.29-.5,0-1,0-1.5,0a8.37,8.37,0,0,0-1.31-.11,4.94,4.94,0,0,1-.94.12,9.2,9.2,0,0,0-1.25-.14,15.5,15.5,0,0,1-4.71,0c-.83-.21-2.22-.66-2.33-1.69A3,3,0,0,1,84.19,206.78Z" transform="translate(0 0)"/><path class="cls-2" d="M59.4,210.26c-1.24,0-2.9.06-4-.65a1.77,1.77,0,0,1-.7-1.79,5.78,5.78,0,0,1-1-.54,2.33,2.33,0,0,1-.79-2.42,1.7,1.7,0,0,1,.4-.75.75.75,0,0,1,0-.59,3.91,3.91,0,0,1,1.4-2.14c1.91-1.29,4.66-.23,6.58.35a56.19,56.19,0,0,0,8.27,1.88,18.73,18.73,0,0,0,7.57-.2,1.67,1.67,0,0,0,.59,0,3.18,3.18,0,0,1,1.2-.09c0-.06.9-.2.68-1.14,0-.17.3-.22.46-.12.65.41,1.26,1.37,1.85,1a8.84,8.84,0,0,1,1.3,3.6.49.49,0,0,1,0,.12,3,3,0,0,1,.07,1.39c-.11,1-1.5,1.48-2.33,1.69a15.5,15.5,0,0,1-4.71,0A9,9,0,0,0,75,210a5.15,5.15,0,0,1-1-.12,8.25,8.25,0,0,0-1.3.11c-.5,0-1,0-1.5,0C67.28,210,63.34,210.26,59.4,210.26Z" transform="translate(0 0)"/><path class="cls-2" d="M173.83,58.05a54.17,54.17,0,0,0-2.43-5.51c-.4-.74-.76-1.5-1.2-2.2s-1.2-1.06-1.66-1.73c-.16-.23-.54,0-.38.22a1.79,1.79,0,0,0,.2.26.21.21,0,0,0,0,.29c2.26,2.42,3.11,5.95,3.49,9.15a38.81,38.81,0,0,1,.42,4.31,19,19,0,0,1-1,5.22,26.8,26.8,0,0,1-4.63,8.67,42.67,42.67,0,0,1-6.85,7.11c-2.48,2.16-5.06,4.2-7.55,6.35A50.76,50.76,0,0,0,146.06,97a26.17,26.17,0,0,0-4.29,7.2,22.15,22.15,0,0,0-1.3,8.68,24,24,0,0,0,2,8.42c1.16,2.66,3,5,4.33,7.51A27.81,27.81,0,0,1,150,138.2a13.31,13.31,0,0,1-.43,4.53,12.31,12.31,0,0,1-1.61,4.18c-3.29,5.32-9.52,8.06-15.39,9.31-1.41.3-2.9.46-4.33.7a51.07,51.07,0,0,1-5.24.52,49.53,49.53,0,0,1-10.31-.8,56.81,56.81,0,0,1-10-2.73.24.24,0,0,0-.23-.2c-.71,0-.48-.27-1,0a2.1,2.1,0,0,0-.76.75,33.49,33.49,0,0,1-2.07,3.06c-.43.46-1.35,1.19-.9,1.85a1,1,0,0,0,.64.36,18.64,18.64,0,0,1,2.51.68,16.76,16.76,0,0,0,1.87.55c.67.12,1.34.21,2,.39a42.69,42.69,0,0,0,4.6,1.09c1.57.26,3.14.46,4.71.68s3.07.61,4.62.8a38.92,38.92,0,0,0,4.32.05c1.64,0,3.2,0,4.83-.12a61.68,61.68,0,0,0,8.79-1.06c5.72-1.31,11.79-3.84,15.73-8.32a15.75,15.75,0,0,0,2.37-3.31,33.09,33.09,0,0,0,1.49-4c1-2.77.61-6.08,0-8.88-.68-3-2.18-5.44-3.56-8.1-1.47-2.85-2.9-5.76-4.23-8.67s-2.49-5.92-2.43-9.22a18.63,18.63,0,0,1,2.68-8.7A35.06,35.06,0,0,1,154.37,96c2.25-2.35,4.43-4.75,6.79-7a23.36,23.36,0,0,0,2-2,13.72,13.72,0,0,1,1.72-1.93,24.66,24.66,0,0,0,3.86-4.65,46.25,46.25,0,0,0,5-10.46A16.5,16.5,0,0,0,173.83,58.05Z" transform="translate(0 0)"/><path class="cls-6" d="M120.73,115.46c-.24-2.47-.3-5-.76-7.4s-.86-5-1.37-7.46c-.56-2.67-1.49-5.24-2.26-7.86-1.49-5.08-3.58-10-5-15.1-.18-.62-2.42-8.37-4.12-5.58a4.9,4.9,0,0,0-.62,2.29,15.86,15.86,0,0,1-1.44,4.43,33.21,33.21,0,0,1-3.92,7c-.56.72-1.06,1.46-1.58,2.21a14.76,14.76,0,0,1-3,3c-.88.75-1.72,1.53-2.63,2.25a15.49,15.49,0,0,1-2.66,2,.53.53,0,0,0-.36-.13h-.15a.59.59,0,0,0-.56.43.13.13,0,0,0,0,.06.76.76,0,0,0-.19.93,9.43,9.43,0,0,1-.75,2.65c-.63,1.29-1.2,2.58-2,3.82a88.93,88.93,0,0,1-5.6,7.63C78,115.73,73.19,120,68.68,124.47c-4.12,4.08-8.07,8.1-10.8,13.28A20.54,20.54,0,0,0,57.05,154a19,19,0,0,0,10.64,10.72c5.29,2.14,11.69,1.86,17.24,1.09,5.82-.81,11.39-3.35,16.44-6.25a41.81,41.81,0,0,0,12.18-11.22c5.51-7.26,7.35-16.13,7.65-25.08A61,61,0,0,0,120.73,115.46Z" transform="translate(0 0)"/><path class="cls-7" d="M111.77,110.89a71.85,71.85,0,0,0-1.55-12.29,54.8,54.8,0,0,0-4.41-14c-.42-.83-1.07-2.58-2.14-2.88s-1.78.94-2.47,1.64a38.68,38.68,0,0,0-6,8.51.38.38,0,0,0-.17.32.51.51,0,0,0,.06.47,34.14,34.14,0,0,1,.53,3.61,26.55,26.55,0,0,1-.46,5.27,59.74,59.74,0,0,1-2.34,9.69c-2.07,6.15-6.19,11.75-10.36,16.64-5.16,6.08-18.29,17.55-7.93,25.22,3.8,2.81,9.23,1.86,13.35.52a25.7,25.7,0,0,0,12.51-9.3,59,59,0,0,0,8.7-15.65A52.27,52.27,0,0,0,111.77,110.89Z" transform="translate(0 0)"/><path class="cls-8" d="M58.16,105.85c2.27,1.47,6.08,1.21,8.66,1.45,6.7.61,13.8-1.33,19.83-4.12a54.62,54.62,0,0,0,16.59-11.32c4.1-4.26,6.39-10.34,7.09-16.15.67-5.5.22-11.59-2.12-16.69-2.21-4.8-4.34-10.3-8.45-13.85a36,36,0,0,0-7.68-4.83,18.86,18.86,0,0,0-7.19-2.2c-5.08-.23-11.12,2-15.29,4.86-4.86,3.3-9.54,6.39-12.92,11.34a28.14,28.14,0,0,0-4.83,14.73,37,37,0,0,0,3.09,16.09c1.38,3,2.94,5.89,3.68,9.14.63,2.72-.09,6.77-2.23,8.71a.5.5,0,0,0-.14.57C56.18,104.5,57.39,105.35,58.16,105.85Z" transform="translate(0 0)"/><path class="cls-3" d="M59.79,99.51A11.91,11.91,0,0,0,55.56,93c-3.94-2.81-10.91-4.34-14.29.23s2.08,8.36,5.71,10.22c2,1,10.52,4.11,11.72.5A5.33,5.33,0,0,0,59.79,99.51Z" transform="translate(0 0)"/><path class="cls-2" d="M97.12,79.34a5.46,5.46,0,0,0,4.64-2.1c.85-1.2,1.68-3,.92-4.51a7.12,7.12,0,0,0-4.58-3.68,2.9,2.9,0,0,0-1.76-.17A6,6,0,0,0,92.71,72C91.24,75.22,93.22,79.45,97.12,79.34Z" transform="translate(0 0)"/><path class="cls-6" d="M91.41,57.45c1.19,1.81,3.66,2.78,5.66,3.36,2.72.79,5.79-.06,8.57.07s5.5.82,8.28,1.09,5.82,1.08,8.73.86a19.31,19.31,0,0,0,7.43-2.16c4.54-2.37,7-7,8-11.89,2.23-11.49-2.13-23.81-9.45-32.73C122.05,8,112.69-.51,101.55,0A19.29,19.29,0,0,0,87.67,7c-3.66,4.08-5,9.3-5.59,14.62a45.28,45.28,0,0,0,1.33,17.06c1.53,5.47,4.4,10.31,6.23,15.65C89.69,54.44,90.8,56.51,91.41,57.45Z" transform="translate(0 0)"/><path class="cls-2" d="M106.05.3c-.49,0-1,0-1.47,0a19,19,0,0,0-13.76,6.1c-3.62,4-5,8.52-3.6,13.79.73,2.84,1.5,5.59,2.44,8.37,1.06,3.12,1.57,6.2,2.34,9.37a23.48,23.48,0,0,1,.58,9c-.42,2.59-2.36,4.49-3.09,7l.15.41c0,.16,1.16,2.23,1.77,3.17,1.19,1.81,3.66,2.78,5.66,3.36.26.07.53.13.79.18,1.56-.57,3.09-1.22,4.66-1.71A25.4,25.4,0,0,1,111,58c2.73.11,5.52.71,8.26.39a17.51,17.51,0,0,0,7.45-2.64,21.37,21.37,0,0,0,8.88-13.13c1.3-5.18.67-11.11-.81-16.18q-.22-.81-.48-1.62a45.86,45.86,0,0,0-5.67-8.81C123,9.14,115.21,1.84,106.05.3Z" transform="translate(0 0)"/><path class="cls-1" d="M89.23,85.14a11.59,11.59,0,0,0-4.72-4h0a.34.34,0,0,0-.12-.06h0c-.16-.08-.4.06-.33.26l0,0s0,0,0,0a.34.34,0,0,0,.06.12c2.21,2.57,2.49,6.46,1.59,9.57A17.6,17.6,0,0,1,84,95.3a37.27,37.27,0,0,1-2.38,2.94c-.23.31.2.7.49.54h0v0h.1l.18,0h0a10.31,10.31,0,0,0,8.26-7.5A8.18,8.18,0,0,0,89.23,85.14Z" transform="translate(0 0)"/><path class="cls-3" d="M.1,123.07c4.32-2.36,8.58-4.84,13.1-6.78s9.23-3.7,14-5.23a140,140,0,0,1,14.37-3.93c2.62-.55,5.22-1.12,7.87-1.53,1.79-.27,4-.91,5.79-.6a.21.21,0,0,1,.15.1,1.12,1.12,0,0,1,.38.06c.17.06.12.37-.08.32a1,1,0,0,0-.38,0,.14.14,0,0,1-.08.09,10.54,10.54,0,0,1-1.55.57c-1,.38-2,.72-3,1.17-2.26,1-4.52,2-6.76,3-4.2,2-8.23,4.22-12.39,6.27A111.3,111.3,0,0,0,6.2,134c-.18.16-.48-.11-.32-.29a66.49,66.49,0,0,1,12-9.91,110,110,0,0,1,13.39-7.74c4.39-2.16,8.66-4.48,13.11-6.54q2.19-1,4.41-2c-1.73.53-3.49,1-5.19,1.58-4.34,1.6-8.73,3.2-13.11,4.67s-8.43,3.41-12.63,5.11c-4.63,1.89-8.81,4.79-13.33,7-.2.09-.33-.21-.14-.32,8.21-4.82,16.76-9.3,25.86-12.26,4.39-1.43,8.76-3.11,13.12-4.66,3-1,6-1.75,9.06-2.6.42-.19.94-.42,1.46-.6a43.1,43.1,0,0,0-5.14.82c-2.37.37-4.71.93-7.07,1.41a136.18,136.18,0,0,0-14.92,4.11c-4.51,1.46-8.91,3.16-13.27,5-4.53,1.93-8.74,4.5-13.18,6.62C0,123.52-.11,123.19.1,123.07Z" transform="translate(0 0)"/><path class="cls-5" d="M90.29,88.87a18.86,18.86,0,0,0-4.1-1.82,12,12,0,0,1-.46,4,18.37,18.37,0,0,1-1.53,3.82,19.1,19.1,0,0,0,5.85-.12c1.28-.14,3.53-.72,3.94-2.16S91.25,89.39,90.29,88.87Z" transform="translate(0 0)"/><path class="cls-5" d="M82.09,98.78h0Z" transform="translate(0 0)"/><path class="cls-7" d="M93.25,92.5a50.89,50.89,0,0,0-7-1.57c-.25,0-.29.37-.06.43a52.42,52.42,0,0,0,6.86,1.69C93.41,93.14,93.62,92.59,93.25,92.5Z" transform="translate(0 0)"/><path class="cls-5" d="M42.32,98.89A5.09,5.09,0,0,1,42.44,95c.29-.74,1-1.85,1.78-2.05a1,1,0,0,1,.52,0,1,1,0,0,1,.92.23c.64.58-.24,1.51-.61,1.93-1.06,1.21-.16,2.73-.86,4C43.76,100,42.62,99.51,42.32,98.89Z" transform="translate(0 0)"/><path class="cls-5" d="M47.75,93.48a.8.8,0,0,0,.66-.67.88.88,0,0,0-.25-.92l-.1,0a1,1,0,0,0-.65-.27c-.74,0-.92.93-.62,1.45A1,1,0,0,0,47.75,93.48Z" transform="translate(0 0)"/><path class="cls-3" d="M76.46,69c1.72,3.67,6,3.51,8.23.38,1.19-1.67.37-4.1-1.18-5.19a6,6,0,0,0-1.43-1c-1.64-.89-3.76.37-4.85,1.52A3.89,3.89,0,0,0,76.46,69Z" transform="translate(0 0)"/><path class="cls-3" d="M84,61.88c.74-.5,1.6-.83,2-1.67a5.72,5.72,0,0,0,.43-1.57,7.84,7.84,0,0,1,.14-1.29.34.34,0,0,1,.44-.21c1.29.65.78,2.78.28,3.81s-2,2.39-3.29,1.68A.48.48,0,0,1,84,61.88Z" transform="translate(0 0)"/><path class="cls-3" d="M81.58,60.91A8.62,8.62,0,0,0,83.15,59a5.33,5.33,0,0,0,.33-1.23,4.48,4.48,0,0,1,.12-1,.48.48,0,0,1,.62-.29c.94.49.65,2,.39,2.86-.36,1.23-1.23,2.51-2.61,2.54A.57.57,0,0,1,81.58,60.91Z" transform="translate(0 0)"/><path class="cls-4" d="M83.48,65.39a2,2,0,0,0-.22-.57,2.4,2.4,0,0,0-1.11-1,2,2,0,0,0-2.91,2.12,2.1,2.1,0,0,0,.22.64l.06.22c.54,1.47,2.53,1.46,3.5.49A1.86,1.86,0,0,0,83.48,65.39Z" transform="translate(0 0)"/><path class="cls-5" d="M80,65.82a1.08,1.08,0,0,0-.53.21.55.55,0,0,0-.17.11,1.43,1.43,0,0,0-.41,1,1.46,1.46,0,0,0,1.47,1.5,1.49,1.49,0,0,0,1.29-1.57A1.46,1.46,0,0,0,80,65.82Z" transform="translate(0 0)"/><path class="cls-5" d="M83.76,67A.75.75,0,0,0,83,66.5a.69.69,0,0,0-.69.63,1.06,1.06,0,0,0,0,.31.72.72,0,0,0,1.15.39A.84.84,0,0,0,83.76,67Z" transform="translate(0 0)"/><path class="cls-5" d="M80.26,63.69a.39.39,0,0,0-.41-.1.3.3,0,0,0-.15,0l0,.06,0,0a.53.53,0,0,0-.12.62.41.41,0,0,0,.5.28A.56.56,0,0,0,80.26,63.69Z" transform="translate(0 0)"/><path class="cls-3" d="M62.85,102.54a.3.3,0,0,1,0-.41c4.74-5,11-9.23,17-12.73,3.53-2.1,7-4.43,10.65-6.23,3.21-1.58,6.2-3.67,9.44-5.19,3.69-1.74,7.35-3.51,11.08-5.19s7.33-2.81,11-4.31c7.42-3,15.38-5.48,23.38-6,.28,0,.36.39.07.43a83,83,0,0,0-11.25,2.26c-4,1.19-8,2.46-11.89,4C115,72,107.81,74.79,100.84,78.31c-6.62,3.33-13.2,7-19.48,10.9C75.7,92.75,69.83,96.42,64.87,101l1-.66A50.32,50.32,0,0,1,71,97.08c2-1,3.71-2.29,5.61-3.35s4-2,6-3.06a204.8,204.8,0,0,1,25.24-10.75c8.7-3.14,17.42-6.12,26.34-8.6a169.65,169.65,0,0,1,27-4.84.16.16,0,0,1,.06.32c-8.75,1.42-17.61,2.82-26.2,5-9.15,2.36-18.06,5.49-27,8.64A222.73,222.73,0,0,0,83.46,90.83c-3.79,1.88-7.48,3.88-11.08,6.08-2,1.26-4.12,2.47-6.14,3.78C78,94.38,90,88.15,102.83,84.2c13.8-4.27,27.86-7.16,42.35-7.12.3,0,.32.52,0,.53a185.44,185.44,0,0,0-20.92,1.93,165.33,165.33,0,0,0-20.58,5.09,159.81,159.81,0,0,0-21.59,8.68c-3.26,1.52-6.46,3.16-9.68,4.77-3.06,1.52-5.94,3.34-9.1,4.66l-.09.05h0l-.1,0A.21.21,0,0,1,62.85,102.54Z" transform="translate(0 0)"/></svg>