<svg xmlns="http://www.w3.org/2000/svg" xmlns:xlink="http://www.w3.org/1999/xlink" viewBox="0 0 346.72 346.62"><defs><style>.cls-1{fill:url(#Безымянный_градиент_21);}.cls-2{fill:url(#Безымянный_градиент_21-2);}.cls-3{fill:url(#Безымянный_градиент_21-3);}.cls-4{fill:url(#Безымянный_градиент_21-4);}.cls-5{fill:url(#Безымянный_градиент_21-5);}.cls-6{fill:url(#Безымянный_градиент_21-6);}.cls-7{fill:url(#Безымянный_градиент_21-7);}.cls-8{fill:url(#Безымянный_градиент_21-8);}.cls-9{fill:url(#Безымянный_градиент_21-9);}.cls-10{fill:url(#Безымянный_градиент_21-10);}.cls-11{fill:url(#Безымянный_градиент_21-11);}.cls-12{fill:url(#Безымянный_градиент_21-12);}.cls-13{fill:url(#Безымянный_градиент_21-13);}.cls-14{fill:url(#Безымянный_градиент_21-14);}.cls-15{fill:url(#Безымянный_градиент_21-15);}.cls-16{fill:url(#Безымянный_градиент_21-16);}.cls-17{fill:url(#Безымянный_градиент_21-17);}.cls-18{fill:url(#Безымянный_градиент_21-18);}</style><linearGradient id="Безымянный_градиент_21" x1="329.58" y1="-6.49" x2="329.58" y2="44.44" gradientUnits="userSpaceOnUse"><stop offset="0" stop-color="#f9eaa3" stop-opacity="0.96"/><stop offset="0.53" stop-color="#c7a864" stop-opacity="0.98"/><stop offset="1" stop-color="#9f7232"/></linearGradient><linearGradient id="Безымянный_градиент_21-2" x1="311.46" y1="-6.49" x2="311.46" y2="44.44" xlink:href="#Безымянный_градиент_21"/><linearGradient id="Безымянный_градиент_21-3" x1="276.63" y1="-6.49" x2="276.63" y2="44.44" xlink:href="#Безымянный_градиент_21"/><linearGradient id="Безымянный_градиент_21-4" x1="229.41" y1="-6.49" x2="229.41" y2="44.44" xlink:href="#Безымянный_градиент_21"/><linearGradient id="Безымянный_градиент_21-5" x1="173.36" y1="-6.49" x2="173.36" y2="44.44" xlink:href="#Безымянный_градиент_21"/><linearGradient id="Безымянный_градиент_21-6" x1="117.32" y1="-6.49" x2="117.32" y2="44.44" xlink:href="#Безымянный_градиент_21"/><linearGradient id="Безымянный_градиент_21-7" x1="70.1" y1="-6.49" x2="70.1" y2="44.44" xlink:href="#Безымянный_градиент_21"/><linearGradient id="Безымянный_градиент_21-8" x1="35.26" y1="-6.49" x2="35.26" y2="44.44" xlink:href="#Безымянный_градиент_21"/><linearGradient id="Безымянный_градиент_21-9" x1="17.14" y1="-6.49" x2="17.14" y2="44.44" xlink:href="#Безымянный_градиент_21"/><linearGradient id="Безымянный_градиент_21-10" x1="17.14" y1="-6.49" x2="17.14" y2="44.44" xlink:href="#Безымянный_градиент_21"/><linearGradient id="Безымянный_градиент_21-11" x1="35.26" y1="-6.49" x2="35.26" y2="44.44" xlink:href="#Безымянный_градиент_21"/><linearGradient id="Безымянный_градиент_21-12" x1="70.1" y1="-6.49" x2="70.1" y2="44.44" xlink:href="#Безымянный_градиент_21"/><linearGradient id="Безымянный_градиент_21-13" x1="117.32" y1="-6.49" x2="117.32" y2="44.44" xlink:href="#Безымянный_градиент_21"/><linearGradient id="Безымянный_градиент_21-14" x1="173.36" y1="-6.49" x2="173.36" y2="44.44" xlink:href="#Безымянный_градиент_21"/><linearGradient id="Безымянный_градиент_21-15" x1="229.41" y1="-6.49" x2="229.41" y2="44.44" xlink:href="#Безымянный_градиент_21"/><linearGradient id="Безымянный_градиент_21-16" x1="276.63" y1="-6.49" x2="276.63" y2="44.44" xlink:href="#Безымянный_градиент_21"/><linearGradient id="Безымянный_градиент_21-17" x1="311.46" y1="-6.49" x2="311.46" y2="44.44" xlink:href="#Безымянный_градиент_21"/><linearGradient id="Безымянный_градиент_21-18" x1="329.58" y1="-6.49" x2="329.58" y2="44.44" xlink:href="#Безымянный_градиент_21"/></defs><title>p-char-Asset 3</title><g id="Layer_2" data-name="Layer 2"><g id="OBJECTS"><path class="cls-1" d="M336,232.09a.67.67,0,0,1-.24,0l-22.82-8.15a.73.73,0,0,1-.44-.94,140.6,140.6,0,0,0,6.26-23.73v0a148.18,148.18,0,0,0,2.28-25,.7.7,0,0,1,.22-.51.66.66,0,0,1,.52-.22l24.23.15a.72.72,0,0,1,.72.74,184.06,184.06,0,0,1-2.06,25.84.75.75,0,0,1-.29.48.73.73,0,0,1-.55.14L325.33,198a.72.72,0,0,1-.61-.82c.25-1.78.48-3.57.7-5.35l.36-2.88c.07-1,.15-2,.23-3,.14-1.73.27-3.46.37-5.19a.72.72,0,0,1,.77-.68l12.53.59a.75.75,0,0,1,.51.24.76.76,0,0,1,.19.54l-.13,1.85c-.26,3.77-.52,7.67-1.08,11.5a.74.74,0,0,1-.82.62l-7.73-1a.73.73,0,0,1-.63-.82l.47-3.72c.09-.78.14-1.58.2-2.37l.1-1.33a.74.74,0,0,1,.79-.67l3.31.26a.74.74,0,0,1,.67.79.75.75,0,0,1-.79.67l-2.58-.21,0,.59c-.06.82-.12,1.63-.21,2.44l-.38,3,6.3.81c.48-3.55.73-7.17,1-10.68l.08-1.11-11.07-.52c-.1,1.5-.21,3-.33,4.49-.08,1-.16,2.05-.23,3.08S327,191,326.87,192c-.2,1.55-.39,3.11-.61,4.66l17.06,2.66a184.18,184.18,0,0,0,1.94-24.18L322.49,175a148.68,148.68,0,0,1-2.22,24,.2.2,0,0,1,0,.07,144,144,0,0,1-6.16,23.76l21.44,7.66A173,173,0,0,0,342,207L325,203.71c-.29,1.52-.64,3-1,4.5-.23,1-.46,1.93-.67,2.9-.44,1.74-.92,3.43-1.41,5.12-.22.75-.43,1.49-.64,2.23l10.6,3.29,1.62-5.71c.4-1.37.72-2.79,1-4.17l.36-1.57-6.18-1.38c-.1.4-.19.8-.28,1.21-.35,1.54-.71,3.13-1.16,4.69l2.48.68a.73.73,0,0,1-.38,1.41l-3.21-.87a.72.72,0,0,1-.44-.36.69.69,0,0,1-.06-.56c.54-1.74.95-3.56,1.35-5.32.14-.64.29-1.28.44-1.92a.73.73,0,0,1,.87-.54L336,209a.71.71,0,0,1,.46.33.69.69,0,0,1,.09.56c-.18.75-.35,1.51-.52,2.26-.32,1.4-.64,2.85-1.06,4.26l-1.82,6.42a.72.72,0,0,1-.36.44.77.77,0,0,1-.56.06l-12-3.72a.74.74,0,0,1-.49-.89c.27-1,.55-1.95.84-2.93.48-1.68,1-3.36,1.39-5.05.2-1,.44-1.93.67-2.91.4-1.68.81-3.42,1.11-5.14a.75.75,0,0,1,.3-.48.73.73,0,0,1,.56-.11L343,205.71a.76.76,0,0,1,.47.31.81.81,0,0,1,.11.55,174.59,174.59,0,0,1-6.86,25A.73.73,0,0,1,336,232.09Z"/><path class="cls-2" d="M306.3,284.2a.71.71,0,0,1-.46-.17l-18.65-15.47a.73.73,0,0,1-.1-1A150.78,150.78,0,0,0,301.37,247l0,0a144.42,144.42,0,0,0,10.47-22.21.73.73,0,0,1,.94-.43l22.72,8.43a.65.65,0,0,1,.4.38.7.7,0,0,1,0,.55,180.85,180.85,0,0,1-10.85,23.58.7.7,0,0,1-.44.35.73.73,0,0,1-.56-.06l-16.37-9.07a.8.8,0,0,1-.35-.44.78.78,0,0,1,.07-.56c.86-1.51,1.67-3.1,2.44-4.64.46-.9.92-1.8,1.39-2.7,1.15-2.47,2.28-5,3.4-7.52a.73.73,0,0,1,.95-.37l11.57,4.86a.75.75,0,0,1,.4.4.73.73,0,0,1,0,.56l-.12.29c-1.73,3.92-3.53,8-5.6,11.84a.73.73,0,0,1-1,.31L314,246.87a.74.74,0,0,1-.31-1l.4-.79c1-1.91,2-3.9,2.87-5.91a.73.73,0,0,1,1-.37l3,1.39a.73.73,0,0,1-.62,1.32L318,240.46c-.81,1.81-1.72,3.59-2.61,5.31l-.07.13,5.64,2.93c1.83-3.5,3.45-7.16,5-10.72l-10.22-4.29c-1,2.32-2.07,4.63-3.14,6.92-.49.92-.94,1.82-1.39,2.71-.68,1.34-1.38,2.71-2.12,4.06l15.09,8.36a180,180,0,0,0,10.15-22.06L313,225.89a148,148,0,0,1-10.56,22.16h0l0,0a151.8,151.8,0,0,1-13.71,19.8l17.52,14.54a185.49,185.49,0,0,0,14.06-19.79l-14.78-8.92q-2,3.22-4.11,6.4c-.61.84-1.19,1.66-1.77,2.48-.86,1.23-1.74,2.49-2.67,3.71l8.83,6.72c.73-1,1.42-1.94,2.1-2.9.45-.64.9-1.28,1.36-1.91,1.14-1.54,2.18-3.14,3.3-4.9l-5.34-3.42-1.63,2.54-1.77,2.49,2.12,1.5a.74.74,0,0,1,.17,1,.73.73,0,0,1-1,.17l-2.71-1.92a.8.8,0,0,1-.3-.48.75.75,0,0,1,.13-.54l2.17-3.06,2-3.13a.73.73,0,0,1,1-.22l6.56,4.21a.73.73,0,0,1,.22,1c-1.28,2-2.45,3.84-3.74,5.59-.46.62-.9,1.26-1.35,1.89-.82,1.17-1.67,2.39-2.6,3.53a.73.73,0,0,1-1,.13l-10-7.61a.67.67,0,0,1-.28-.48.69.69,0,0,1,.15-.55c1.07-1.37,2.09-2.82,3.08-4.23.58-.83,1.17-1.66,1.76-2.47,1.5-2.28,3-4.61,4.45-7a.74.74,0,0,1,1-.24l16,9.67a.78.78,0,0,1,.33.46.77.77,0,0,1-.09.55,188.54,188.54,0,0,1-15,21.14.73.73,0,0,1-.5.27Z"/><path class="cls-3" d="M260.62,323l-.18,0a.71.71,0,0,1-.45-.34l-12.27-20.9a.74.74,0,0,1,.26-1,151.31,151.31,0,0,0,20.46-14.45l.1-.07a145.36,145.36,0,0,0,17.35-17.31.68.68,0,0,1,.5-.25.72.72,0,0,1,.53.17l18.45,15.7a.72.72,0,0,1,.09,1A165.33,165.33,0,0,1,287.23,304a.73.73,0,0,1-1-.07l-12.3-14.11a.75.75,0,0,1-.18-.53.71.71,0,0,1,.25-.5,150.23,150.23,0,0,0,11.87-11.5.72.72,0,0,1,1,0l9.22,8.53a.71.71,0,0,1,.23.51.73.73,0,0,1-.2.53l-4.61,4.82-4.86,4.64a.74.74,0,0,1-.53.2.72.72,0,0,1-.51-.24l-5.29-5.73a.74.74,0,0,1,0-1l2-1.86c1.14-1.08,2.33-2.2,3.44-3.34a.63.63,0,0,1,.52-.22.74.74,0,0,1,.51.21l2.37,2.34a.73.73,0,0,1,0,1,.72.72,0,0,1-1,0l-1.84-1.81c-1,1-2,1.93-3,2.85l-1.42,1.35,4.3,4.67,4.29-4.1,4.08-4.27-8.14-7.52a149.83,149.83,0,0,1-10.92,10.6l11.34,13a164.34,164.34,0,0,0,17.05-17.25l-17.34-14.76a144.45,144.45,0,0,1-17.48,17.28l-.09.07a153.27,153.27,0,0,1-19.61,13.87l11.52,19.64a168.61,168.61,0,0,0,20-13.8L270,294.05c-.51.39-1,.79-1.52,1.2-1.46,1.16-3,2.35-4.55,3.42l-.41.3c-1.89,1.35-3.83,2.74-5.84,4l6,9.31,2.2-1.41,2.7-1.91,1.85-1.31c1-.69,2-1.4,3-2.15l-3.85-5c-1.09.86-2.23,1.65-3.34,2.43L264.57,304l1.48,2.15a.72.72,0,0,1-.18,1,.74.74,0,0,1-1-.18L263,304.27a.74.74,0,0,1,.17-1c.72-.53,1.46-1,2.19-1.56,1.29-.9,2.62-1.83,3.85-2.83a.75.75,0,0,1,.54-.16.79.79,0,0,1,.5.28l4.73,6.2a.74.74,0,0,1-.11,1c-1.16.95-2.39,1.81-3.59,2.65-.61.43-1.23.86-1.83,1.31l-2.75,1.93-2.83,1.82a.73.73,0,0,1-1-.22L256,303.15a.79.79,0,0,1-.1-.56.78.78,0,0,1,.33-.46c2.19-1.34,4.33-2.87,6.39-4.35l.43-.3c1.55-1.05,3-2.24,4.47-3.38l2.1-1.65a.74.74,0,0,1,1,.12l11.77,14.55a.74.74,0,0,1-.11,1A170.33,170.33,0,0,1,261,322.91.69.69,0,0,1,260.62,323Z"/><path class="cls-4" d="M204.38,343.87a.73.73,0,0,1-.71-.6l-4.33-23.84a.73.73,0,0,1,.58-.85,150.08,150.08,0,0,0,23.65-6.33l.11,0a151.43,151.43,0,0,0,22.71-10.54.73.73,0,0,1,1,.27l12,21.05a.71.71,0,0,1,.07.55.69.69,0,0,1-.34.44,163.79,163.79,0,0,1-23.45,11.14.73.73,0,0,1-.94-.43L228,317.23a.72.72,0,0,1,.41-.94l3.86-1.52c.82-.32,1.62-.69,2.41-1l1.36-.62,3.78-1.7,3.66-1.88a.73.73,0,0,1,1,.31L250.21,321a.71.71,0,0,1-.3,1c-3.92,2.1-8,3.91-12,5.65a.89.89,0,0,1-.62,0,.79.79,0,0,1-.45-.37l-3-7.2a.72.72,0,0,1,.39-.95c1.47-.62,2.93-1.28,4.39-1.95l2.44-1.1a.73.73,0,0,1,1,.35l1.42,3a.73.73,0,0,1-.34,1,.76.76,0,0,1-1-.35L241,317.69l-1.79.81c-1.25.57-2.49,1.14-3.76,1.68l2.44,5.84c3.62-1.58,7.26-3.19,10.73-5l-5.09-9.86-3.05,1.56-3.81,1.73c-.46.2-.91.4-1.35.61-.82.37-1.64.75-2.49,1.08l-3.18,1.25,6.21,16.11a162.52,162.52,0,0,0,21.93-10.41L246.48,303.3a153.31,153.31,0,0,1-21.76,10.08l-.13.06a151.65,151.65,0,0,1-23.69,6.44L205,342.29c1.77-.31,3.71-.66,5.58-1.13l2.13-.49c1.39-.32,2.78-.64,4.16-1l6.2-1.76c1.35-.36,2.69-.82,4-1.27.47-.17.95-.33,1.44-.49l-5.6-16.32-3.25,1.1-4,1.15-1.43.41c-.86.25-1.72.49-2.59.71l-3.35.77,2.44,10.83c3.75-.82,7.49-1.9,11.12-2.95l.32-.1-1.89-6.05-5.84,1.67.66,2.52a.73.73,0,0,1-.52.89.72.72,0,0,1-.89-.52l-.84-3.21a.73.73,0,0,1,.51-.89l7.21-2.06a.74.74,0,0,1,.9.49l2.32,7.44a.75.75,0,0,1-.5.92l-1,.3c-3.88,1.12-7.88,2.28-11.92,3.13a.73.73,0,0,1-.86-.55l-2.76-12.24a.74.74,0,0,1,.55-.88l4-.93c.84-.21,1.68-.45,2.52-.69l1.45-.42,4-1.14,3.9-1.32a.74.74,0,0,1,.92.46l6.07,17.7a.72.72,0,0,1-.46.93c-.71.23-1.41.47-2.12.72-1.32.45-2.68.93-4.07,1.29l-6.21,1.77c-1.41.36-2.81.68-4.21,1l-2.12.49c-2.17.54-4.4.93-6.38,1.27Z"/><path class="cls-5" d="M176.56,346.62a.73.73,0,0,1-.73-.72l-.34-18.71a.73.73,0,0,1,.71-.75H177c2.44-.06,5-.11,7.41-.35l4.16-.32c.86-.08,1.72-.19,2.59-.31l1.5-.19a.73.73,0,0,1,.81.64l1.56,12.45a.72.72,0,0,1-.63.81l-.16,0c-2.13.28-4.33.57-6.53.69l-2.31.18c-1.45.12-2.91.23-4.36.29a.72.72,0,0,1-.76-.7l-.35-7.79a.74.74,0,0,1,.19-.53.7.7,0,0,1,.51-.23c1.59-.07,3.18-.2,4.78-.32.89-.08,1.79-.15,2.68-.21a.71.71,0,0,1,.78.66l.3,3.31a.73.73,0,0,1-.66.8.75.75,0,0,1-.79-.67l-.24-2.59-2,.15c-1.36.11-2.73.22-4.1.29l.29,6.33c1.19-.06,2.38-.15,3.57-.25l2.34-.17c2-.11,3.94-.36,5.87-.61l-1.38-11-.76.1c-.88.12-1.77.23-2.66.32l-4.15.31c-2.5.25-5,.3-7.51.36H177l.31,17.26a166.09,166.09,0,0,0,24.16-2.24l-3.79-22.45a158,158,0,0,1-24,2h0a4.17,4.17,0,0,1-.5,0h0a158,158,0,0,1-24-2l-3.79,22.45a166.09,166.09,0,0,0,24.16,2.24l.31-17.26h-.1c-2.46-.06-5-.11-7.52-.36l-4.12-.31c-.91-.09-1.8-.2-2.68-.32l-.76-.1-1.38,11c1.93.25,3.91.5,5.86.61l2.35.17c1.19.1,2.38.19,3.57.25l.29-6.33c-1.37-.07-2.73-.18-4.1-.29l-2-.15-.24,2.59a.73.73,0,1,1-1.45-.13l.3-3.31a.75.75,0,0,1,.78-.66c.9.06,1.79.13,2.69.21,1.59.12,3.18.25,4.78.32a.69.69,0,0,1,.5.23.74.74,0,0,1,.19.53l-.35,7.79a.75.75,0,0,1-.76.7c-1.45-.06-2.9-.17-4.36-.29-.77-.06-1.54-.13-2.32-.18-2.18-.12-4.39-.41-6.52-.69l-.16,0a.72.72,0,0,1-.63-.81l1.57-12.45a.73.73,0,0,1,.81-.64l1.49.19c.87.12,1.74.23,2.61.31l4.13.31c2.47.25,5,.3,7.42.36h.83a.74.74,0,0,1,.72.75l-.34,18.71a.76.76,0,0,1-.74.72,166.7,166.7,0,0,1-25.83-2.39.69.69,0,0,1-.47-.29.77.77,0,0,1-.13-.55l4-23.89a.73.73,0,0,1,.84-.6,147,147,0,0,0,49.52,0,.73.73,0,0,1,.84.6l4,23.89a.73.73,0,0,1-.13.55.69.69,0,0,1-.47.29,166.59,166.59,0,0,1-25.83,2.39Z"/><path class="cls-6" d="M142.34,343.87l-.13,0c-2-.34-4.21-.73-6.39-1.27l-2.11-.49c-1.4-.32-2.8-.64-4.19-1l-6.24-1.77c-1.37-.36-2.74-.84-4.06-1.29-.7-.25-1.41-.49-2.12-.72a.74.74,0,0,1-.43-.37.72.72,0,0,1,0-.56l6.07-17.7a.74.74,0,0,1,.92-.46l3.93,1.33,4,1.14,1.44.41c.84.24,1.68.48,2.53.69l4,.93a.73.73,0,0,1,.55.88l-2.76,12.24a.72.72,0,0,1-.86.55c-4-.85-8-2-11.92-3.13l-1-.3a.69.69,0,0,1-.44-.36A.77.77,0,0,1,123,332l2.33-7.44a.72.72,0,0,1,.89-.49l7.22,2.06a.73.73,0,0,1,.5.89l-.83,3.21a.73.73,0,0,1-1.42-.37l.66-2.52-5.84-1.67-1.89,6.05.33.1c3.62,1.05,7.36,2.13,11.11,2.95L138.49,324l-3.34-.77c-.88-.22-1.73-.46-2.59-.71l-1.43-.41-4-1.14-3.27-1.11-5.6,16.32,1.44.49c1.29.45,2.63.91,4,1.26l6.23,1.77c1.36.35,2.75.67,4.14,1l2.13.49c1.88.47,3.81.82,5.58,1.13l4.07-22.41a152,152,0,0,1-23.69-6.44l-.13-.06a153.83,153.83,0,0,1-21.76-10.08L89,323.08a162.52,162.52,0,0,0,21.93,10.41l6.21-16.11-3.19-1.26c-.84-.32-1.66-.7-2.48-1.07l-1.34-.61-3.79-1.71-3.08-1.58L98.14,321c3.49,1.83,7.15,3.45,10.72,5l2.44-5.84c-1.26-.54-2.51-1.11-3.75-1.68l-1.79-.81-1.12,2.36a.73.73,0,1,1-1.32-.63l1.42-3a.73.73,0,0,1,1-.35c.82.36,1.64.73,2.45,1.11,1.46.66,2.91,1.32,4.38,1.94a.72.72,0,0,1,.4.95l-3,7.2a.7.7,0,0,1-.4.39.75.75,0,0,1-.57,0c-4.09-1.8-8.22-3.6-12.14-5.7a.71.71,0,0,1-.3-1l5.75-11.16a.73.73,0,0,1,1-.31l3.7,1.89,3.75,1.69,1.35.62c.8.36,1.59.73,2.4,1l3.87,1.53a.72.72,0,0,1,.41.94L112,334.69a.73.73,0,0,1-.94.43A163.2,163.2,0,0,1,87.61,324a.7.7,0,0,1-.35-.44.76.76,0,0,1,.07-.55l12-21.05a.73.73,0,0,1,1-.27A151.43,151.43,0,0,0,123,312.21l.11,0a150.08,150.08,0,0,0,23.65,6.33.73.73,0,0,1,.59.85l-4.33,23.84A.74.74,0,0,1,142.34,343.87Z"/><path class="cls-7" d="M86.11,323a.75.75,0,0,1-.38-.1A170.33,170.33,0,0,1,64.4,308.15a.74.74,0,0,1-.11-1l11.78-14.55a.73.73,0,0,1,1-.12l2.1,1.65c1.44,1.14,2.92,2.33,4.46,3.36l.42.31c2.07,1.48,4.21,3,6.41,4.36a.71.71,0,0,1,.33.46.74.74,0,0,1-.1.56l-6.8,10.54a.73.73,0,0,1-1,.22l-2.81-1.8-2.75-1.94-1.84-1.32c-1.2-.83-2.44-1.7-3.59-2.65a.73.73,0,0,1-.12-1l4.73-6.2a.79.79,0,0,1,.5-.28.74.74,0,0,1,.54.16c1.23,1,2.56,1.93,3.85,2.83.73.51,1.47,1,2.19,1.56a.73.73,0,0,1,.17,1L81.87,307a.74.74,0,0,1-1,.18.72.72,0,0,1-.18-1L82.15,304l-1.59-1.12c-1.11-.78-2.25-1.58-3.34-2.43l-3.85,5c1,.75,2,1.46,2.95,2.15.63.44,1.25.87,1.86,1.32l2.72,1.92,2.17,1.39,6-9.31c-2-1.27-4-2.67-5.86-4l-.4-.29c-1.57-1.06-3.08-2.25-4.54-3.41-.5-.41-1-.81-1.52-1.2L65.88,307.48a169.81,169.81,0,0,0,20,13.8l11.52-19.64a153.27,153.27,0,0,1-19.61-13.87l-.09-.07A145.11,145.11,0,0,1,60.2,270.42L42.85,285.18a164.34,164.34,0,0,0,17,17.25l11.34-13a151.81,151.81,0,0,1-10.92-10.6l-8.14,7.52,4.1,4.29,4.27,4.08,4.3-4.67c-.47-.45-.94-.9-1.42-1.34-1-.93-2-1.88-3-2.86l-1.85,1.81a.72.72,0,0,1-1,0,.73.73,0,0,1,0-1L60,284.29a.83.83,0,0,1,.52-.21.74.74,0,0,1,.52.22c1.11,1.14,2.29,2.26,3.44,3.35l1.94,1.85a.73.73,0,0,1,0,1l-5.29,5.73a.71.71,0,0,1-.51.24.75.75,0,0,1-.53-.2l-4.83-4.61-4.64-4.85a.78.78,0,0,1-.2-.53.72.72,0,0,1,.24-.51l9.21-8.53a.74.74,0,0,1,1,0,150.19,150.19,0,0,0,11.86,11.5.68.68,0,0,1,.25.5.7.7,0,0,1-.18.53l-12.3,14.11a.68.68,0,0,1-.5.25.75.75,0,0,1-.53-.18,166.18,166.18,0,0,1-18.23-18.45.72.72,0,0,1,.09-1l18.45-15.7a.71.71,0,0,1,.54-.17.67.67,0,0,1,.49.25,145.36,145.36,0,0,0,17.35,17.31l.1.07a151.31,151.31,0,0,0,20.46,14.45.73.73,0,0,1,.26,1l-12.26,20.9a.74.74,0,0,1-.45.34Z"/><path class="cls-8" d="M40.42,284.2h-.07a.78.78,0,0,1-.5-.27,188.91,188.91,0,0,1-15-21.14.77.77,0,0,1-.09-.55.76.76,0,0,1,.34-.46l16-9.67a.73.73,0,0,1,1,.24c1.46,2.34,2.95,4.67,4.47,7,.58.8,1.16,1.63,1.75,2.46,1,1.41,2,2.86,3.08,4.22a.77.77,0,0,1,.15.55.72.72,0,0,1-.29.48l-10,7.61a.73.73,0,0,1-1-.13c-.93-1.14-1.78-2.36-2.6-3.53-.45-.64-.89-1.27-1.35-1.89-1.29-1.76-2.46-3.57-3.74-5.59a.75.75,0,0,1,.22-1l6.57-4.21a.75.75,0,0,1,.55-.1.77.77,0,0,1,.45.32l2,3.16,2.15,3a.7.7,0,0,1,.13.54.75.75,0,0,1-.3.48l-2.71,1.92a.71.71,0,0,1-1-.17.73.73,0,0,1,.17-1l2.11-1.5-1.75-2.46-1.65-2.57-5.34,3.42c1.12,1.75,2.16,3.35,3.3,4.89l1.36,1.92c.68,1,1.38,1.95,2.11,2.9l8.82-6.72c-.92-1.22-1.81-2.48-2.67-3.7-.58-.82-1.16-1.65-1.75-2.46-1.41-2.15-2.78-4.28-4.13-6.43l-14.78,8.92a186.93,186.93,0,0,0,14.06,19.79L58,267.9a152.88,152.88,0,0,1-13.71-19.81l0,0a146.63,146.63,0,0,1-10.56-22.17L12.4,233.81a180,180,0,0,0,10.15,22.06l15.09-8.36c-.74-1.35-1.44-2.73-2.12-4.06-.45-.9-.9-1.79-1.37-2.68-1.08-2.32-2.13-4.63-3.15-7l-10.23,4.29c1.58,3.56,3.2,7.22,5,10.72l5.63-2.93-.06-.11c-.89-1.73-1.81-3.51-2.62-5.33l-2.34,1.07a.73.73,0,0,1-1-.36.72.72,0,0,1,.36-1l3-1.39a.75.75,0,0,1,.57,0,.72.72,0,0,1,.41.39c.86,2,1.89,4,2.88,5.93l.39.77a.72.72,0,0,1-.31,1l-6.92,3.59a.74.74,0,0,1-1-.31c-2.06-3.84-3.85-7.89-5.58-11.8l-.14-.33a.68.68,0,0,1,0-.56.7.7,0,0,1,.39-.4l11.57-4.86a.72.72,0,0,1,.95.37c1.12,2.53,2.25,5.05,3.42,7.55.45.86.91,1.77,1.36,2.67.78,1.54,1.59,3.12,2.45,4.64a.73.73,0,0,1,.07.56.76.76,0,0,1-.35.44L22.62,257.5a.74.74,0,0,1-1-.29,180,180,0,0,1-10.84-23.58.72.72,0,0,1,.43-.93l22.71-8.43a.73.73,0,0,1,.94.43,145.57,145.57,0,0,0,10.48,22.23v0h0a150.1,150.1,0,0,0,14.27,20.58.73.73,0,0,1-.1,1L40.88,284A.71.71,0,0,1,40.42,284.2Z"/><path class="cls-9" d="M10.74,232.09a.73.73,0,0,1-.69-.48,174.64,174.64,0,0,1-6.85-25,.73.73,0,0,1,.57-.86l18.38-3.57a.71.71,0,0,1,.55.11.81.81,0,0,1,.31.48c.29,1.72.71,3.46,1.11,5.14.23,1,.46,1.95.67,2.93.42,1.67.9,3.34,1.38,5q.43,1.47.84,2.94a.73.73,0,0,1-.49.89l-12,3.72a.78.78,0,0,1-.56-.06.75.75,0,0,1-.36-.44l-1.82-6.43c-.42-1.4-.74-2.85-1-4.24-.17-.76-.34-1.52-.53-2.27a.78.78,0,0,1,.09-.56.73.73,0,0,1,.46-.33l7.61-1.7a.74.74,0,0,1,.87.54l.45,1.94c.4,1.75.81,3.56,1.34,5.3a.73.73,0,0,1-.05.56.77.77,0,0,1-.45.36l-3.2.87a.73.73,0,0,1-.39-1.41l2.48-.68c-.44-1.55-.81-3.14-1.16-4.68-.09-.41-.18-.81-.28-1.22L11.8,210.3c.13.53.24,1,.36,1.58.31,1.37.63,2.79,1,4.16l1.62,5.71,10.6-3.29c-.21-.74-.42-1.49-.64-2.24-.49-1.69-1-3.38-1.4-5.08-.22-1-.45-2-.68-2.93-.34-1.47-.7-3-1-4.5L4.77,207a173.39,173.39,0,0,0,6.41,23.43l21.44-7.66A144,144,0,0,1,26.46,199a.2.2,0,0,1,0-.07,149.82,149.82,0,0,1-2.22-24l-22.76.14A182.39,182.39,0,0,0,3.4,199.29l17.06-2.66c-.22-1.56-.41-3.12-.61-4.68l-.36-2.85c-.08-1.08-.16-2.12-.24-3.16-.12-1.48-.23-3-.32-4.45L7.85,182l.08,1.09c.24,3.52.48,7.15,1,10.7l6.29-.81-.38-3c-.09-.83-.15-1.65-.2-2.46l0-.59-2.58.21a.73.73,0,1,1-.12-1.46l3.32-.26a.71.71,0,0,1,.78.67l.1,1.32c.06.8.12,1.6.2,2.4l.47,3.7a.73.73,0,0,1-.63.82l-7.73,1a.74.74,0,0,1-.82-.62C7,190.89,6.73,187,6.47,183.2l-.12-1.83a.71.71,0,0,1,.18-.54.75.75,0,0,1,.51-.24L19.58,180a.72.72,0,0,1,.76.68c.1,1.72.23,3.43.37,5.15.08,1,.16,2.08.23,3.13s.24,1.86.36,2.81c.22,1.79.45,3.58.71,5.37a.74.74,0,0,1-.62.82L2.9,200.85a.73.73,0,0,1-.55-.14.7.7,0,0,1-.28-.48A182.76,182.76,0,0,1,0,174.39a.73.73,0,0,1,.73-.74L25,173.5a.75.75,0,0,1,.73.73,148.27,148.27,0,0,0,2.28,25,.06.06,0,0,1,0,0A141.55,141.55,0,0,0,34.24,223a.75.75,0,0,1,0,.57.76.76,0,0,1-.42.37L11,232.05A.67.67,0,0,1,10.74,232.09Z"/><path class="cls-10" d="M25,173.12h0L.73,173a.73.73,0,0,1-.73-.73,182.78,182.78,0,0,1,2.07-25.85.7.7,0,0,1,.28-.48.73.73,0,0,1,.55-.14l18.49,2.89a.74.74,0,0,1,.62.83c-.26,1.78-.49,3.57-.71,5.35l-.36,2.87c-.07,1-.15,2-.23,3.09-.14,1.71-.27,3.42-.37,5.14a.75.75,0,0,1-.76.69L7,166a.75.75,0,0,1-.51-.24.71.71,0,0,1-.18-.54l.12-1.82c.26-3.79.52-7.7,1.08-11.53a.75.75,0,0,1,.82-.62l7.73,1a.73.73,0,0,1,.63.82l-.47,3.72c-.08.78-.14,1.58-.2,2.38l-.1,1.33a.71.71,0,0,1-.78.66l-3.32-.26a.73.73,0,0,1-.67-.79.74.74,0,0,1,.79-.67l2.58.21,0-.59c.05-.81.11-1.63.2-2.44l.38-3-6.29-.81c-.49,3.55-.73,7.19-1,10.71l-.08,1.08,11.08.52c.09-1.48.2-3,.32-4.45l.24-3.12c.12-1,.24-1.94.36-2.9.2-1.56.39-3.11.61-4.67L3.4,147.33a182.39,182.39,0,0,0-1.93,24.18l22.76.14a149.82,149.82,0,0,1,2.22-24,.2.2,0,0,1,0-.07,144,144,0,0,1,6.16-23.76l-21.44-7.66a173.8,173.8,0,0,0-6.41,23.43l16.93,3.29c.29-1.52.65-3,1-4.49.23-1,.46-1.94.67-2.91.44-1.73.92-3.41,1.41-5.1.21-.75.43-1.5.64-2.25l-10.6-3.29-1.62,5.71c-.4,1.37-.72,2.79-1,4.17-.12.52-.23,1.05-.36,1.57L18,137.7c.1-.41.19-.81.28-1.22.35-1.54.72-3.13,1.16-4.68l-2.48-.68a.73.73,0,0,1-.51-.9.74.74,0,0,1,.9-.51l3.2.88a.71.71,0,0,1,.5.92c-.53,1.73-.94,3.54-1.34,5.29l-.45,1.94a.72.72,0,0,1-.87.54l-7.61-1.7a.73.73,0,0,1-.46-.33.75.75,0,0,1-.09-.55c.19-.76.36-1.51.53-2.27.31-1.4.63-2.85,1-4.26l1.82-6.42a.75.75,0,0,1,.36-.44.73.73,0,0,1,.56,0l12,3.71a.73.73,0,0,1,.49.89c-.27,1-.56,2-.84,3-.48,1.67-1,3.34-1.38,5-.21,1-.44,1.94-.67,2.91-.4,1.68-.82,3.42-1.11,5.14a.78.78,0,0,1-.31.48.71.71,0,0,1-.55.11L3.77,140.91a.73.73,0,0,1-.57-.86,174.64,174.64,0,0,1,6.85-25,.73.73,0,0,1,.93-.44l22.82,8.15a.78.78,0,0,1,.42.38.72.72,0,0,1,0,.56A141.55,141.55,0,0,0,28,147.39a.11.11,0,0,1,0,.05,148.06,148.06,0,0,0-2.28,24.95.74.74,0,0,1-.22.52A.74.74,0,0,1,25,173.12Z"/><path class="cls-11" d="M34.18,122.4a.75.75,0,0,1-.26,0l-22.71-8.43a.76.76,0,0,1-.41-.38.73.73,0,0,1,0-.56A180,180,0,0,1,21.62,89.41a.74.74,0,0,1,1-.29L39,98.19a.76.76,0,0,1,.35.44.73.73,0,0,1-.07.56c-.86,1.52-1.67,3.11-2.44,4.64-.46.9-.92,1.81-1.39,2.7-1.15,2.47-2.28,5-3.4,7.52a.72.72,0,0,1-.95.37l-11.57-4.86a.7.7,0,0,1-.39-.4.68.68,0,0,1,0-.56l.14-.33c1.73-3.91,3.52-8,5.58-11.8a.72.72,0,0,1,1-.3l6.92,3.58a.73.73,0,0,1,.31,1l-.39.76c-1,1.93-2,3.91-2.88,5.93a.73.73,0,0,1-1,.37l-3-1.38a.73.73,0,0,1,.61-1.33l2.34,1.08c.81-1.83,1.73-3.61,2.62-5.34l.06-.11L25.81,97.8c-1.84,3.49-3.46,7.15-5,10.71L31,112.8q1.53-3.47,3.14-6.92c.48-.92.93-1.81,1.38-2.71.68-1.33,1.38-2.71,2.12-4.06L22.55,90.76a180.61,180.61,0,0,0-10.15,22l21.35,7.92A146.63,146.63,0,0,1,44.31,98.56s0,0,0,0A152.88,152.88,0,0,1,58,78.72L40.52,64.18A186.93,186.93,0,0,0,26.46,84l14.78,8.92q2-3.23,4.11-6.39L47.12,84c.86-1.23,1.75-2.49,2.67-3.71L41,73.58c-.73,1-1.43,1.94-2.11,2.9L37.5,78.4c-1.14,1.55-2.18,3.14-3.3,4.89l5.34,3.43,1.63-2.55,1.77-2.49-2.11-1.5A.73.73,0,0,1,41.67,79l2.71,1.93a.71.71,0,0,1,.3.47.69.69,0,0,1-.13.54L42.38,85l-2,3.13a.73.73,0,0,1-.45.32.75.75,0,0,1-.55-.1L32.8,84.13a.75.75,0,0,1-.22-1c1.28-2,2.44-3.82,3.74-5.59.46-.62.9-1.25,1.35-1.89.82-1.17,1.68-2.39,2.6-3.53a.73.73,0,0,1,1-.13l10,7.61a.72.72,0,0,1,.29.48.77.77,0,0,1-.15.55c-1.07,1.37-2.1,2.82-3.09,4.23-.58.83-1.16,1.66-1.76,2.48-1.5,2.27-3,4.6-4.45,6.94a.73.73,0,0,1-1,.24l-16-9.67a.74.74,0,0,1-.34-.45.78.78,0,0,1,.09-.56,189.84,189.84,0,0,1,15-21.14.77.77,0,0,1,.5-.26.7.7,0,0,1,.53.16L59.53,78.06a.73.73,0,0,1,.1,1A150.72,150.72,0,0,0,45.36,99.67h0v0a145.53,145.53,0,0,0-10.48,22.22.75.75,0,0,1-.38.42A.77.77,0,0,1,34.18,122.4Z"/><path class="cls-12" d="M60.28,78a.72.72,0,0,1-.48-.18L41.35,62.09a.73.73,0,0,1-.09-1A167.06,167.06,0,0,1,59.49,42.61a.79.79,0,0,1,.53-.18.75.75,0,0,1,.5.25l12.3,14.11a.7.7,0,0,1,.18.53.68.68,0,0,1-.25.5,148.55,148.55,0,0,0-11.86,11.5.74.74,0,0,1-1,0l-9.21-8.52a.75.75,0,0,1-.24-.52.81.81,0,0,1,.2-.53L55.23,55l4.85-4.63a.67.67,0,0,1,.53-.2.7.7,0,0,1,.51.23l5.29,5.73a.73.73,0,0,1,0,1c-.64.63-1.29,1.24-1.94,1.86-1.15,1.08-2.33,2.2-3.44,3.34a.74.74,0,0,1-.52.22.85.85,0,0,1-.52-.21L57.6,60a.72.72,0,1,1,1-1l1.85,1.82c1-1,2-1.94,3-2.87.48-.44.95-.89,1.42-1.34l-4.3-4.66L56.26,56l-4.08,4.27,8.14,7.52A151.49,151.49,0,0,1,71.24,57.2l-11.34-13a164.34,164.34,0,0,0-17,17.25L60.2,76.2A145.11,145.11,0,0,1,77.67,58.92l.09-.07A153.27,153.27,0,0,1,97.37,45L85.85,25.35a169,169,0,0,0-20,13.79L76.75,52.57l1.52-1.19c1.46-1.16,3-2.36,4.55-3.43l.36-.26c1.9-1.36,3.86-2.77,5.89-4l-6-9.31-2.2,1.41-2.7,1.91c-.6.44-1.22.87-1.84,1.31-1,.69-2,1.4-3,2.15l3.85,5c1.1-.85,2.23-1.65,3.34-2.43.53-.37,1.07-.74,1.59-1.12l-1.48-2.14a.73.73,0,1,1,1.2-.84l1.89,2.74a.73.73,0,0,1-.17,1c-.72.53-1.46,1-2.19,1.56-1.29.9-2.62,1.83-3.85,2.83a.67.67,0,0,1-.54.16.75.75,0,0,1-.5-.28l-4.73-6.2a.71.71,0,0,1,.12-1c1.16-1,2.39-1.83,3.59-2.67.61-.43,1.23-.86,1.83-1.3l2.74-1.93,2.83-1.82a.73.73,0,0,1,1,.22l6.8,10.55a.71.71,0,0,1,.1.55.68.68,0,0,1-.33.46c-2.21,1.36-4.36,2.9-6.44,4.39l-.37.27c-1.56,1.05-3,2.23-4.48,3.37l-2.1,1.65a.72.72,0,0,1-1-.12L64.29,39.5a.74.74,0,0,1,.11-1A171.72,171.72,0,0,1,85.73,23.71a.84.84,0,0,1,.56-.08.74.74,0,0,1,.45.34L99,44.87a.73.73,0,0,1-.26,1A152,152,0,0,0,78.28,60.32l-.1.07A145.35,145.35,0,0,0,60.83,77.7a.72.72,0,0,1-.49.26Z"/><path class="cls-13" d="M100,45.05a.74.74,0,0,1-.64-.37l-12-21a.75.75,0,0,1-.07-.55.7.7,0,0,1,.35-.44,162,162,0,0,1,23.44-11.13.72.72,0,0,1,.94.42l6.73,17.46a.72.72,0,0,1-.41.94l-3.86,1.53c-.82.31-1.61.68-2.4,1l-1.37.62-3.78,1.71-3.66,1.87a.72.72,0,0,1-1-.31L96.51,25.64a.72.72,0,0,1,.3-1c3.92-2.1,8-3.9,12-5.65a.92.92,0,0,1,.61,0,.75.75,0,0,1,.46.37l3,7.2a.72.72,0,0,1-.4.95c-1.47.62-2.92,1.28-4.37,1.94q-1.23.57-2.46,1.11a.72.72,0,0,1-1-.35l-1.42-3a.73.73,0,0,1,1.32-.63l1.12,2.36,1.79-.81c1.25-.57,2.49-1.14,3.75-1.68l-2.44-5.84c-3.63,1.59-7.26,3.2-10.72,5l5.08,9.86,3-1.56,3.81-1.72,1.36-.62c.82-.37,1.64-.75,2.48-1.08l3.18-1.25-6.21-16.11A161.42,161.42,0,0,0,89,23.55l11.28,19.78A152.77,152.77,0,0,1,122,33.24l.13-.06a152,152,0,0,1,23.69-6.44L141.75,4.33C140,4.64,138,5,136.17,5.46L134.05,6c-1.39.32-2.78.64-4.17,1l-6.2,1.77c-1.35.35-2.69.82-4,1.27l-1.43.49,5.6,16.31,3.24-1.09,4-1.16,1.44-.41c.86-.25,1.71-.49,2.58-.71l3.35-.77-2.44-10.83c-3.74.82-7.47,1.9-11.08,2.94l-.36.11,1.89,6.05,5.84-1.67-.66-2.52a.73.73,0,0,1,1.42-.37l.83,3.22a.72.72,0,0,1-.5.88l-7.22,2.06a.72.72,0,0,1-.89-.49L123,14.58a.77.77,0,0,1,.06-.56.75.75,0,0,1,.44-.36l1.07-.31c3.87-1.12,7.87-2.27,11.89-3.12a.73.73,0,0,1,.86.55L140.07,23a.72.72,0,0,1-.55.87l-4,.93c-.84.21-1.68.45-2.52.69l-1.45.42-4,1.14-3.89,1.32a.73.73,0,0,1-.93-.45l-6.07-17.71a.72.72,0,0,1,0-.56.74.74,0,0,1,.43-.37l2.11-.71c1.32-.46,2.69-.93,4.08-1.3l6.21-1.77c1.42-.36,2.82-.68,4.23-1l2.1-.49c2.16-.54,4.4-.93,6.38-1.27a.73.73,0,0,1,.85.59l4.33,23.84a.72.72,0,0,1-.59.84,150.08,150.08,0,0,0-23.65,6.33l-.11.05A150.39,150.39,0,0,0,100.33,45,.68.68,0,0,1,100,45.05Z"/><path class="cls-14" d="M198.24,27.73h-.12a147,147,0,0,0-49.52,0,.73.73,0,0,1-.84-.6l-4-23.89a.77.77,0,0,1,.13-.55.73.73,0,0,1,.47-.29A167.83,167.83,0,0,1,170.16,0a.72.72,0,0,1,.74.72l.34,18.71a.74.74,0,0,1-.72.75l-.88,0c-2.42.05-4.92.11-7.36.35l-4.15.31c-.86.08-1.73.2-2.6.31l-1.49.19a.73.73,0,0,1-.81-.63L151.66,8.27a.73.73,0,0,1,.63-.81l.16,0c2.13-.28,4.34-.57,6.53-.69l2.29-.18c1.46-.11,2.92-.23,4.38-.28a.71.71,0,0,1,.76.69l.35,7.79a.72.72,0,0,1-.19.53.69.69,0,0,1-.5.23c-1.6.07-3.19.2-4.78.33l-2.69.2a.74.74,0,0,1-.78-.66l-.3-3.31A.73.73,0,0,1,159,12l.24,2.59,2-.15c1.37-.11,2.73-.22,4.1-.29L165,7.78c-1.2.06-2.39.15-3.59.25l-2.32.18c-2,.11-3.94.35-5.87.6l1.38,11,.76-.1c.88-.11,1.77-.23,2.66-.31l4.16-.32c2.47-.24,5-.3,7.44-.35h.16l-.31-17.26a167.5,167.5,0,0,0-24.16,2.24l3.79,22.45a157.85,157.85,0,0,1,24-2h0a4.34,4.34,0,0,1,.51,0h0a157.85,157.85,0,0,1,24,2l3.79-22.45a167.5,167.5,0,0,0-24.16-2.24L177,18.73h.16c2.44.05,5,.11,7.46.35l4.13.31c.9.09,1.79.21,2.67.32l.76.1,1.38-11c-1.93-.25-3.91-.49-5.86-.6L185.34,8c-1.2-.1-2.4-.19-3.6-.25l-.29,6.33c1.37.07,2.74.18,4.1.29l2,.15.24-2.59a.74.74,0,0,1,.79-.66.72.72,0,0,1,.66.79l-.3,3.31a.73.73,0,0,1-.78.66l-2.69-.2c-1.59-.13-3.18-.26-4.77-.33a.7.7,0,0,1-.51-.23.72.72,0,0,1-.19-.53L180.31,7a.7.7,0,0,1,.76-.69c1.46,0,2.92.17,4.38.28.77.06,1.53.13,2.3.18,2.19.12,4.39.41,6.52.69l.16,0a.73.73,0,0,1,.63.81L193.5,20.73a.74.74,0,0,1-.81.63l-1.5-.19c-.87-.11-1.73-.23-2.61-.31l-4.12-.31c-2.46-.24-5-.3-7.37-.35l-.89,0a.73.73,0,0,1-.71-.75L175.83.72a.73.73,0,0,1,.73-.72h0a167.83,167.83,0,0,1,25.83,2.39.73.73,0,0,1,.47.29.73.73,0,0,1,.13.55l-4,23.89A.73.73,0,0,1,198.24,27.73Z"/><path class="cls-15" d="M246.75,45.05a.7.7,0,0,1-.36-.1,150.39,150.39,0,0,0-22.71-10.53l-.11-.05A150.08,150.08,0,0,0,199.92,28a.72.72,0,0,1-.58-.84l4.33-23.84a.72.72,0,0,1,.84-.59c2,.34,4.22.73,6.39,1.27l2.09.49c1.41.32,2.82.64,4.21,1l6.24,1.77c1.38.37,2.75.84,4.07,1.3l2.11.71a.72.72,0,0,1,.46.93L224,28a.72.72,0,0,1-.92.45l-3.93-1.33-4-1.14-1.44-.41c-.84-.24-1.68-.48-2.53-.69l-4-.93a.73.73,0,0,1-.55-.87l2.76-12.25a.73.73,0,0,1,.86-.55c4,.85,8,2,11.89,3.12l1.07.31a.75.75,0,0,1,.44.36.69.69,0,0,1,.06.56L221.41,22a.74.74,0,0,1-.9.49l-7.21-2.06a.72.72,0,0,1-.51-.88l.84-3.22a.73.73,0,0,1,1.41.37l-.66,2.52,5.84,1.67,1.89-6.05-.36-.11c-3.61-1-7.34-2.12-11.08-2.94l-2.44,10.83,3.34.77c.88.22,1.74.46,2.6.71l1.43.41,4,1.15,3.28,1.1,5.6-16.31L227,10c-1.3-.45-2.65-.92-4-1.27l-6.24-1.77c-1.37-.35-2.76-.67-4.15-1l-2.11-.49c-1.87-.46-3.81-.82-5.59-1.13L200.9,26.74a151.65,151.65,0,0,1,23.69,6.44l.13.06a152.27,152.27,0,0,1,21.76,10.09l11.28-19.78a161.42,161.42,0,0,0-21.93-10.42l-6.21,16.11,3.19,1.26c.84.32,1.66.7,2.47,1.07.45.21.9.42,1.35.61l3.79,1.72,3.08,1.57,5.09-9.86c-3.5-1.83-7.16-3.45-10.73-5l-2.44,5.84c1.26.54,2.51,1.11,3.76,1.68l1.79.81,1.11-2.36a.75.75,0,0,1,1-.34.72.72,0,0,1,.34,1l-1.42,3a.73.73,0,0,1-1,.35l-2.45-1.1c-1.45-.67-2.91-1.33-4.38-1.95a.72.72,0,0,1-.39-.95l3-7.2a.73.73,0,0,1,.4-.39.71.71,0,0,1,.57,0c4.09,1.79,8.22,3.59,12.14,5.69a.72.72,0,0,1,.3,1l-5.75,11.15a.72.72,0,0,1-1,.31l-3.69-1.89L236,33.52l-1.37-.62c-.79-.36-1.58-.73-2.39-1l-3.87-1.53a.72.72,0,0,1-.41-.94l6.73-17.46a.72.72,0,0,1,.94-.42,162.63,162.63,0,0,1,23.45,11.13.69.69,0,0,1,.34.44.71.71,0,0,1-.07.55l-12,21.05A.73.73,0,0,1,246.75,45.05Z"/><path class="cls-16" d="M286.45,78h-.06a.72.72,0,0,1-.5-.26,145.36,145.36,0,0,0-17.35-17.31l-.1-.07A151.31,151.31,0,0,0,248,45.87a.74.74,0,0,1-.26-1L260,24a.71.71,0,0,1,.45-.34.82.82,0,0,1,.55.08,170.65,170.65,0,0,1,21.33,14.76.74.74,0,0,1,.11,1L270.66,54.05a.74.74,0,0,1-1,.12l-2.1-1.65c-1.43-1.14-2.92-2.32-4.46-3.36l-.41-.3c-2.07-1.48-4.22-3-6.42-4.37a.72.72,0,0,1-.23-1l6.8-10.55a.73.73,0,0,1,1-.22l2.81,1.8,2.75,1.94c.62.46,1.23.89,1.85,1.32,1.19.84,2.43,1.7,3.59,2.66a.72.72,0,0,1,.11,1l-4.73,6.2a.75.75,0,0,1-.5.28.67.67,0,0,1-.54-.16c-1.23-1-2.56-1.93-3.85-2.83-.73-.52-1.47-1-2.19-1.56a.73.73,0,0,1-.17-1l1.89-2.74a.73.73,0,1,1,1.2.84l-1.48,2.14,1.59,1.12c1.11.78,2.25,1.58,3.34,2.43l3.85-5c-1-.75-2-1.46-3-2.15-.62-.43-1.25-.87-1.86-1.32l-2.72-1.92-2.17-1.39-6,9.31c2,1.28,4,2.68,5.87,4l.4.29c1.56,1.06,3.07,2.26,4.53,3.42L270,52.57l10.87-13.43a169,169,0,0,0-20-13.79L249.35,45A153.27,153.27,0,0,1,269,58.85l.09.07A145.18,145.18,0,0,1,286.53,76.2l17.34-14.76a164.34,164.34,0,0,0-17.05-17.25l-11.34,13A149.52,149.52,0,0,1,286.4,67.79l8.14-7.52L290.44,56l-4.27-4.07-4.3,4.66,1.42,1.35c1,.92,2,1.88,3,2.86L288.1,59a.73.73,0,0,1,1,1l-2.37,2.34a.67.67,0,0,1-.52.21.7.7,0,0,1-.51-.22c-1.11-1.14-2.3-2.26-3.44-3.34l-2-1.86a.74.74,0,0,1,0-1l5.29-5.73a.71.71,0,0,1,.51-.23.63.63,0,0,1,.53.2l4.83,4.6,4.64,4.86a.72.72,0,0,1,.2.52.74.74,0,0,1-.23.52l-9.22,8.52a.72.72,0,0,1-1,0A152,152,0,0,0,274,57.82a.71.71,0,0,1-.25-.5.75.75,0,0,1,.18-.53l12.3-14.11a.8.8,0,0,1,.5-.25.72.72,0,0,1,.53.18,166.18,166.18,0,0,1,18.23,18.45.73.73,0,0,1-.09,1L286.92,77.78A.69.69,0,0,1,286.45,78Z"/><path class="cls-17" d="M312.55,122.4a.81.81,0,0,1-.31-.06.75.75,0,0,1-.38-.42,144.42,144.42,0,0,0-10.47-22.21s0,0,0,0a150.78,150.78,0,0,0-14.28-20.58.73.73,0,0,1,.1-1l18.65-15.47a.74.74,0,0,1,.53-.16.72.72,0,0,1,.5.26,188.54,188.54,0,0,1,15,21.14.78.78,0,0,1,.09.56.76.76,0,0,1-.33.45l-16,9.67a.74.74,0,0,1-1-.24q-2.19-3.51-4.47-7c-.57-.79-1.15-1.62-1.73-2.44-1-1.41-2-2.87-3.09-4.24a.69.69,0,0,1-.15-.55.67.67,0,0,1,.28-.48l10-7.61a.74.74,0,0,1,1,.13c.93,1.14,1.78,2.36,2.6,3.53.45.64.89,1.27,1.35,1.9,1.3,1.75,2.46,3.57,3.74,5.58a.73.73,0,0,1-.22,1l-6.56,4.21a.76.76,0,0,1-.55.1.73.73,0,0,1-.46-.32l-2-3.16-2.15-3a.73.73,0,0,1-.13-.54.75.75,0,0,1,.3-.47L305.05,79a.73.73,0,0,1,1,.17.74.74,0,0,1-.17,1l-2.12,1.5,1.75,2.46,1.65,2.58,5.34-3.43c-1.12-1.75-2.16-3.35-3.3-4.89l-1.36-1.92c-.68-1-1.37-2-2.1-2.9l-8.83,6.72c.93,1.23,1.82,2.49,2.68,3.72.58.82,1.15,1.64,1.74,2.45,1.41,2.14,2.78,4.27,4.13,6.42L320.26,84A187.54,187.54,0,0,0,306.2,64.18L288.68,78.72a151.8,151.8,0,0,1,13.71,19.8l0,0h0A148,148,0,0,1,313,120.73l21.34-7.92a178.44,178.44,0,0,0-10.15-22l-15.09,8.35c.74,1.35,1.44,2.72,2.12,4.06.45.89.9,1.79,1.37,2.68,1.09,2.32,2.13,4.64,3.16,7L326,108.51c-1.58-3.56-3.2-7.22-5-10.71l-5.64,2.92.07.13c.89,1.72,1.8,3.5,2.61,5.32l2.34-1.08a.73.73,0,0,1,1,.36.74.74,0,0,1-.35,1l-3,1.38a.71.71,0,0,1-.57,0,.75.75,0,0,1-.41-.39c-.86-2-1.88-4-2.87-5.91l-.4-.78a.75.75,0,0,1,.31-1l6.93-3.58a.71.71,0,0,1,1,.3c2.07,3.86,3.86,7.92,5.6,11.85l.12.28a.73.73,0,0,1,0,.56.75.75,0,0,1-.4.4l-11.57,4.86a.73.73,0,0,1-.95-.37c-1.12-2.53-2.25-5-3.42-7.55l-1.37-2.67c-.77-1.54-1.58-3.13-2.44-4.64a.78.78,0,0,1-.07-.56.8.8,0,0,1,.35-.44l16.37-9.07a.73.73,0,0,1,.56-.06.7.7,0,0,1,.44.35A181.46,181.46,0,0,1,336,113a.73.73,0,0,1,0,.56.71.71,0,0,1-.4.38l-22.72,8.43A.73.73,0,0,1,312.55,122.4Z"/><path class="cls-18" d="M321.76,173.12a.75.75,0,0,1-.51-.21.74.74,0,0,1-.22-.52,148,148,0,0,0-2.28-24.95.43.43,0,0,0,0-.05,140.6,140.6,0,0,0-6.26-23.73.68.68,0,0,1,0-.56.73.73,0,0,1,.41-.38l22.82-8.15a.73.73,0,0,1,.93.44,174.59,174.59,0,0,1,6.86,25,.81.81,0,0,1-.11.55.76.76,0,0,1-.47.31l-18.37,3.57a.71.71,0,0,1-.86-.59c-.3-1.72-.71-3.46-1.11-5.14-.23-1-.47-1.95-.68-2.93-.42-1.67-.9-3.35-1.38-5l-.84-2.94a.74.74,0,0,1,.49-.89l12-3.71a.73.73,0,0,1,.92.49l1.82,6.43c.42,1.4.74,2.85,1.06,4.25.17.76.34,1.51.52,2.27a.67.67,0,0,1-.09.55.71.71,0,0,1-.46.33l-7.61,1.7a.72.72,0,0,1-.87-.54c-.15-.64-.3-1.28-.44-1.92-.4-1.76-.81-3.58-1.35-5.31a.73.73,0,0,1,.5-.92l3.21-.88a.73.73,0,0,1,.38,1.41l-2.48.68c.45,1.56.81,3.15,1.16,4.69.09.41.18.81.28,1.21l6.18-1.38-.36-1.57c-.31-1.38-.63-2.8-1-4.16l-1.62-5.72-10.6,3.29.64,2.23c.49,1.7,1,3.39,1.4,5.1.22,1,.45,2,.68,2.93.35,1.46.7,3,1,4.49L342,139.62a173,173,0,0,0-6.41-23.43l-21.44,7.66a144,144,0,0,1,6.16,23.76.2.2,0,0,1,0,.07,148.68,148.68,0,0,1,2.22,24l22.77-.14a184.18,184.18,0,0,0-1.94-24.18L326.26,150c.22,1.55.41,3.1.61,4.66l.36,2.87c.08,1.07.16,2.1.24,3.12.12,1.5.23,3,.33,4.49l11.07-.52-.08-1.11c-.23-3.51-.48-7.13-1-10.68l-6.3.81.38,3c.09.82.15,1.64.21,2.45l0,.59,2.58-.21a.74.74,0,0,1,.79.67.73.73,0,0,1-.67.79l-3.31.26a.74.74,0,0,1-.79-.66l-.1-1.33c-.06-.8-.11-1.6-.2-2.4l-.47-3.7a.73.73,0,0,1,.63-.82l7.73-1a.75.75,0,0,1,.82.62c.56,3.83.82,7.73,1.08,11.51l.13,1.84a.76.76,0,0,1-.19.54.75.75,0,0,1-.51.24l-12.53.6a.73.73,0,0,1-.77-.69c-.1-1.73-.23-3.46-.37-5.18-.08-1-.16-2.06-.23-3.09s-.24-1.88-.36-2.84c-.22-1.78-.45-3.57-.7-5.34a.73.73,0,0,1,.61-.83l18.49-2.89a.76.76,0,0,1,.55.14.75.75,0,0,1,.29.48,184.08,184.08,0,0,1,2.06,25.85.72.72,0,0,1-.72.73l-24.23.15Z"/></g></g></svg>