<svg id="Layer_1" data-name="Layer 1" xmlns="http://www.w3.org/2000/svg" viewBox="0 0 1055.23 2289.07"><defs><style>.cls-1{fill:#1a1a1a;}.cls-2{fill:#171516;}.cls-12,.cls-3{fill:#fff;}.cls-4{opacity:0.2;}.cls-5{fill:#ffddac;}.cls-6{fill:#f5d0b8;}.cls-7{fill:#c73b2a;}.cls-8{fill:#4a4342;}.cls-9{fill:#666261;}.cls-10{fill:#3e2c38;}.cls-11{fill:#333;}.cls-12{opacity:0.5;}.cls-13{fill:#3d3736;}.cls-14{fill:#f97d56;}</style></defs><title>quality-man-body</title><path class="cls-1" d="M560.42,2182.08c-3.64,9.78-7.34,19.93-6.68,30.35,1.21,19.19,16.92,34.49,33.85,43.6,19.53,10.49,41.52,15.31,63.27,19.62,62.35,12.36,127.82,21.29,188.71,3,6.51-2,13.18-4.36,17.93-9.22,7.47-7.64,8.42-20.13,4.15-29.92s-12.91-17.13-22.35-22.14-19.78-8-29.89-11.5a321.19,321.19,0,0,1-135.54-90.71c-3.45-3.91-7-8.06-11.9-9.92-4.64-1.77-9.81-1.2-14.74-.6l-36.66,4.43c-7.72.93-21.33-.54-25.75,7.07-5.13,8.81-7.62,20.8-11.18,30.37Q567,2164.31,560.42,2182.08Z"/><path class="cls-1" d="M480.88,2182.08c3.64,9.78,7.34,19.93,6.68,30.35-1.21,19.19-16.91,34.49-33.85,43.6-19.52,10.49-41.52,15.31-63.26,19.62-62.35,12.36-127.83,21.29-188.71,3-6.51-2-13.18-4.36-17.93-9.22-7.48-7.64-8.42-20.13-4.15-29.92s12.91-17.13,22.34-22.14,19.79-8,29.89-11.5a321.16,321.16,0,0,0,135.55-90.71c3.45-3.91,7-8.06,11.89-9.92,4.65-1.77,9.81-1.2,14.74-.6l36.66,4.43c7.72.93,21.34-.54,25.76,7.07,5.13,8.81,7.62,20.8,11.18,30.37Q474.27,2164.31,480.88,2182.08Z"/><path class="cls-2" d="M230.87,1597S310.52,1966,349,2084.7H482.3s-17.18-297.75-9.89-399.78c0,0,41.12,4.69,53.61.78v-88.23Z"/><rect class="cls-2" x="337.32" y="2073.25" width="154.34" height="57.52" rx="18.65"/><path class="cls-2" d="M814.15,1597S733.72,1966,695.2,2084.7H561.94s18-297.75,10.67-399.78c0,0-40.34,4.69-52.83.78v-88.23Z"/><rect class="cls-2" x="552.57" y="2073.25" width="154.34" height="57.52" rx="18.65" transform="translate(1259.49 4204.03) rotate(180)"/><path class="cls-3" d="M1055.23,1019.49,942.65,1156.05l-74.41-32.65-54.09,473.54s-73.93,47.76-281.89,43.23c-190.84,1.14-301.38-43.23-301.38-43.23L187,1123.4l-74.41,32.65L0,1019.49,268,819.21l7.34-5.48h.52L503.62,813v-.19l24,.1,24-.1V813l227.79.72h.48l3.86,2.9Z"/><polygon class="cls-4" points="535.24 1598.24 660.83 1441.87 579.6 1139.37 624.98 1041.17 535.24 975.89 535.24 974.53 534.31 975.21 533.37 974.53 533.37 975.89 443.63 1041.17 489.01 1139.37 407.78 1441.87 533.37 1598.24 533.37 1600.56 534.31 1599.4 535.24 1600.56 535.24 1598.24"/><path class="cls-4" d="M832.31,410.54v273A204.44,204.44,0,0,1,827.2,729a212.79,212.79,0,0,1-47.8,84.7h.48l3.86,2.9c-41.61,50.29-106.1,82.7-178.17,82.7,0,0-33.22,30.46-80.79,30.46S444,899.33,444,899.33c-70.83,0-134.37-31.32-176-80.12l7.34-5.48h.52c-34.7-37.9-55.77-87.37-55.77-141.28V399.38A206.42,206.42,0,0,1,225,354.72c26-91.84,114.54-160,219-160H605.57C730.26,194.76,832.31,291.86,832.31,410.54Z"/><path class="cls-5" d="M835.17,399.38V672.45a204,204,0,0,1-8,56.58,212.79,212.79,0,0,1-47.8,84.7c-41.66,45.56-103,74.45-171,74.45,0,0-33.17,30.5-80.79,30.5s-80.79-30.5-80.79-30.5c-68,0-129.31-28.89-171-74.45-34.7-37.9-55.77-87.37-55.77-141.28V399.38A206.42,206.42,0,0,1,225,354.72C246.76,257.3,338.18,183.66,446.8,183.66H608.38C733.12,183.66,835.17,280.75,835.17,399.38Z"/><path class="cls-3" d="M659,735.78c-11.11,30-39.34,66-109.23,83.92,0,0-102.54,31.22-150.59-77.71-2-4.24-3.76-8.72-5.43-13.37,0,0,119.43,57.83,271.27-42C665,686.6,669,708.8,659,735.78Z"/><path class="cls-6" d="M517,826.05c-34.93,0-89-12.69-120-83.1-1.88-4.05-3.69-8.48-5.5-13.53l-2-5.48,5.25,2.53c1.18.57,120.08,56,268.93-41.87l3-2,.64,3.56c.16.93,3.94,23.16-6.14,50.43h0c-10.61,28.68-38.45,66.79-110.87,85.4C550,822.11,536.48,826.05,517,826.05ZM397.9,732.93c1.12,2.87,2.26,5.53,3.43,8.05C448,846.7,545,818.67,549.06,817.42c70.52-18.13,97.48-54.85,107.69-82.47h0a106.07,106.07,0,0,0,6.34-44.27C531,775.86,422.46,742.39,397.9,732.93Z"/><path class="cls-7" d="M659,735.78c-11.11,30-39.34,66-109.23,83.92,0,0-102.54,31.22-150.59-77.71C449.36,769.68,557.1,811.4,659,735.78Z"/><path class="cls-8" d="M844.75,670.47l-7.8,8.74s-2.84-141.07-12-176.44c0,0-20.9-79.64-53.29-95.26,0,0,28.48-98.08-45.94-130.63,0,0-90.27,91.14-237.73,90.49,0,0-102.67,7.81-195.7-56,0,0-22.05,36.46-4.14,84,0,0-60,63.14-67.53,140.61,0,0-3.06,101.35,1.67,127.41,0,0-5.47-2.45-26.22-24.8-16.73-18-23.6-41.24-29.37-64.58-17.84-72.21-18-182.6-2.35-241.57,0,0,23-99,43.18-106.76,0,0-45.94-140.61-36.29-176.63,0,0,27.1,68.57,117.6,60.32,0,0-38.58-52.94-29.86-109.36,0,0,68.91,50.78,142,37.32,0,0,46.43-5,76.5-16.4A214.68,214.68,0,0,1,516.75,9.78C568.16.82,678.06-9,731.21,56.85c0,0,42,43.62,48.92,87.56,0,0,113,79.09,118.52,217.1,0,0,9.93,100.15-3.07,188.39a282.8,282.8,0,0,1-28.75,88.55h0A154.55,154.55,0,0,1,844.75,670.47Z"/><path class="cls-9" d="M195.34,107.63S286.3,427,618,312.47C618,312.47,290.89,333.3,195.34,107.63Z"/><path class="cls-9" d="M285.59,47.81S389.12,327.43,677.36,204.44C677.36,204.44,386.68,243.42,285.59,47.81Z"/><path class="cls-10" d="M378.59,527.58c-6.9,7.27-9.88,18.44-6.31,27.82,2.56,6.73,8.2,12,14.74,15.08s13.92,3.93,21.11,3.55c8.41-.45,16.9-2.71,23.66-7.72s11.56-13,11.43-21.44S438,528.44,431,523.66c-11.81-8-29.7-9.19-42.57-3.09A32.71,32.71,0,0,0,378.59,527.58Z"/><path class="cls-3" d="M412.46,523.14c-3.13-.16-6.53,1-8.14,3.72-1.73,2.91-.95,6.67.42,9.76a29.44,29.44,0,0,0,11.59,13.14c3.51,2.12,7.95,3.47,11.67,1.76,3.25-1.5,5.18-5.15,5.24-8.72a15.61,15.61,0,0,0-3.76-9.81C425.38,527.89,419.18,523.49,412.46,523.14Z"/><path class="cls-10" d="M626.45,527.58c-6.91,7.27-9.89,18.44-6.32,27.82,2.56,6.73,8.2,12,14.74,15.08S648.79,574.41,656,574c8.4-.45,16.89-2.71,23.65-7.72s11.56-13,11.43-21.44-5.25-16.43-12.27-21.21c-11.81-8-29.7-9.19-42.57-3.09A32.79,32.79,0,0,0,626.45,527.58Z"/><path class="cls-3" d="M660.31,523.14c-3.13-.16-6.53,1-8.13,3.72-1.74,2.91-1,6.67.42,9.76a29.36,29.36,0,0,0,11.58,13.14c3.51,2.12,8,3.47,11.67,1.76,3.25-1.5,5.18-5.15,5.24-8.72a15.61,15.61,0,0,0-3.76-9.81C673.23,527.89,667,523.49,660.31,523.14Z"/><path class="cls-11" d="M841.12,489.14c-1.57-6.87-5-11.16-12.82-12.16-11.29-1.43-21.49-6.43-31-12.63-22.49-14.59-46.75-24.69-73.45-28.5-24-3.43-47.56-.91-71.16,4.24-25.45,5.48-45.66,19.54-64.39,36.46-4,3.67-8,7.53-11.92,11.3-6.91,6.53-12.15,7-20.16,1.86a47.62,47.62,0,0,0-22.12-7.87A47.62,47.62,0,0,0,512,489.71c-8,5.19-13.25,4.67-20.16-1.86-4-3.77-7.87-7.63-11.92-11.3-18.73-16.92-38.94-31-64.39-36.46-23.6-5.15-47.14-7.67-71.17-4.24-26.69,3.81-50.95,13.91-73.45,28.5-9.53,6.2-19.73,11.2-31,12.63-7.87,1-11.25,5.29-12.83,12.16-.76,3.52-1.24,7.1-1.9,10.67v13.54c1.9,2.19,3.38,5.1,5.76,6.53,9.2,5.58,14.16,13.58,16.26,24a288.09,288.09,0,0,0,7.1,29c8.34,26.88,22.45,49.48,46.9,65.06,30.79,19.64,63.39,28.37,99.52,19,25.79-6.67,49-18.06,67.59-37.74,15.35-16.26,24.93-35.75,31.65-56.82,2.1-6.43,3.72-13,5.81-19.4,2.77-8.48,8.58-14.06,17.5-15.11,3.57-.38,7.24-.62,10.86-.71,3.63.09,7.3.33,10.87.71,8.91,1.05,14.73,6.63,17.5,15.11,2.09,6.44,3.71,13,5.81,19.4,6.72,21.07,16.3,40.56,31.65,56.82,18.54,19.68,41.8,31.07,67.58,37.74,36.13,9.4,68.74.67,99.53-19,24.45-15.58,38.56-38.18,46.9-65.06a288.09,288.09,0,0,0,7.1-29c2.1-10.39,7-18.39,16.25-24,2.39-1.43,3.86-4.34,5.77-6.53V499.81C842.36,496.24,841.89,492.66,841.12,489.14ZM434.74,624.07c-18.78,13.35-39.84,19.55-64.49,19.78-29.69-.76-56.76-11.63-77.74-35.46C260.05,571.59,261.72,518.07,296,483c41.14-42.08,111.68-42,152.72.19C489.18,524.79,482.69,590.14,434.74,624.07Zm340.89-15.68c-21,23.83-48,34.7-77.73,35.46-24.65-.23-45.72-6.43-64.49-19.78-47.95-33.93-54.44-99.28-14-140.85C660.43,441,731,441,772.11,483,806.42,518.07,808.09,571.59,775.63,608.39Z"/><path class="cls-12" d="M434.74,624.07c-18.78,13.35-39.84,19.55-64.49,19.78-29.69-.76-56.76-11.63-77.74-35.46C260.05,571.59,261.72,518.07,296,483c41.14-42.08,111.68-42,152.72.19C489.18,524.79,482.69,590.14,434.74,624.07Z"/><path class="cls-12" d="M775.63,608.39c-21,23.83-48,34.7-77.73,35.46-24.65-.23-45.72-6.43-64.49-19.78-47.95-33.93-54.44-99.28-14-140.85C660.43,441,731,441,772.11,483,806.42,518.07,808.09,571.59,775.63,608.39Z"/><path class="cls-13" d="M295.63,407.33s10.42-27.7,60.31-31.95c0,0,100.22-7.46,118,25.53l-78.55-6.52a144,144,0,0,0-18.23-.37C360.32,394.78,325.89,397.51,295.63,407.33Z"/><path class="cls-13" d="M761.47,407.33s-10.42-27.7-60.31-31.95c0,0-100.22-7.46-118,25.53l78.55-6.52A144,144,0,0,1,680,394C696.77,394.78,731.2,397.51,761.47,407.33Z"/><polygon class="cls-14" points="525.7 1588.71 651.29 1432.33 570.07 1129.84 615.45 1031.64 525.7 966.36 525.7 965 524.77 965.68 523.84 965 523.84 966.36 434.09 1031.64 479.47 1129.84 398.25 1432.33 523.84 1588.71 523.84 1591.03 524.77 1589.87 525.7 1591.03 525.7 1588.71"/></svg>