<svg id="Layer_1" data-name="Layer 1" xmlns="http://www.w3.org/2000/svg" viewBox="0 0 718.57 313.86"><defs><style>.cls-1{fill:#ffddac;}</style></defs><title>quality-right-hand</title><path class="cls-1" d="M201.07,223.4c-58.79-2-117.93-18-166-51.81A147.84,147.84,0,0,0,1.73,234.7c-9,36.55,18.73,41.24,46,50.23a575.75,575.75,0,0,0,92.84,22.31,577.22,577.22,0,0,0,188-2.24,557,557,0,0,0,102.21-28.31c51.5-19.73,99.72-46.8,147.57-74.28,0,0,66.53-9.47,82.65-23.94,0,0,50.33-23.11,55.85-65,0,0,8.54-38.27-12.12-34.13,0,0-2.28-49.87-36.07-33.5,0,0-2.78-53.76-46.45-27.48,0,0-10.29-38-40.72-4.76,0,0-6.79,7.94-32.87,18.95,0,0-29.42,13.94-26.79,50.87,0,0-6.17,6.26-29,40.3A135.64,135.64,0,0,1,470,149c-27.14,23.3-61.3,36.6-95.43,47.24C318.41,213.78,259.84,225.32,201.07,223.4Z"/></svg>