<svg id="Layer_1" data-name="Layer 1" xmlns="http://www.w3.org/2000/svg" viewBox="0 0 2168.68 2289.07"><defs><style>.cls-1{fill:#ffddac;}.cls-2{fill:#1a1a1a;}.cls-3{fill:#171516;}.cls-12,.cls-4{fill:#fff;}.cls-5{opacity:0.2;}.cls-6{fill:#f5d0b8;}.cls-7{fill:#c73b2a;}.cls-8{fill:#4a4342;}.cls-9{fill:#666261;}.cls-10{fill:#3e2c38;}.cls-11{fill:#333;}.cls-12{opacity:0.5;}.cls-13{fill:#3d3736;}.cls-14{fill:#f97d56;}</style></defs><title>quality-man</title><path class="cls-1" d="M486.94,1028.34c58.16,8.85,119.22,4,172.72-20.5A147.9,147.9,0,0,1,680.83,1076c2.15,37.58-26,37.11-54.44,40.94a574,574,0,0,1-279.72-31.75,557.57,557.57,0,0,1-95.29-46.56c-47-28.85-89.45-64.29-131.45-100.09,0,0-63.66-21.5-76.86-38.68,0,0-45.24-31.94-43-74.1,0,0-1.38-39.2,18.18-31.34,0,0,11.37-48.6,41.59-26.32,0,0,12.6-52.34,50.71-18.49,0,0,17.07-35.47,40.89,2.78,0,0,5.22,9,28.85,24.66,0,0,26.36,19.1,17,54.91,0,0,4.92,7.29,21.15,44.94a136,136,0,0,0,17.79,29c22.41,27.88,53.56,47.22,85.16,63.93C373.36,997.37,428.81,1019.44,486.94,1028.34Z"/><path class="cls-1" d="M1651.18,1047.47c-58.79-2-117.92-18-166-51.81a148.06,148.06,0,0,0-33.3,63.11c-9,36.55,18.73,41.25,46,50.23a574,574,0,0,0,280.79,20.07,558,558,0,0,0,102.22-28.3c51.49-19.74,99.71-46.8,147.57-74.29,0,0,66.52-9.47,82.64-23.93,0,0,50.33-23.12,55.85-65,0,0,8.54-38.28-12.12-34.14,0,0-2.27-49.87-36.07-33.5,0,0-2.78-53.76-46.45-27.48,0,0-10.29-38-40.72-4.76,0,0-6.78,7.94-32.87,18.95,0,0-29.42,13.94-26.78,50.87,0,0-6.18,6.26-29,40.3a135.62,135.62,0,0,1-22.8,25.25c-27.14,23.3-61.3,36.6-95.43,47.24C1768.52,1037.85,1710,1049.39,1651.18,1047.47Z"/><path class="cls-2" d="M1100.83,2182.08c-3.64,9.78-7.33,19.93-6.68,30.35,1.22,19.19,16.92,34.49,33.86,43.6,19.52,10.49,41.52,15.31,63.26,19.62,62.35,12.36,127.83,21.29,188.71,3,6.51-2,13.18-4.36,17.93-9.22,7.47-7.64,8.42-20.13,4.15-29.92s-12.91-17.13-22.34-22.14-19.79-8-29.89-11.5a321.16,321.16,0,0,1-135.55-90.71c-3.45-3.91-7-8.06-11.89-9.92-4.65-1.77-9.81-1.2-14.75-.6l-36.65,4.43c-7.72.93-21.34-.54-25.76,7.07-5.13,8.81-7.62,20.8-11.18,30.37Q1107.45,2164.31,1100.83,2182.08Z"/><path class="cls-2" d="M1021.3,2182.08c3.64,9.78,7.34,19.93,6.68,30.35-1.22,19.19-16.92,34.49-33.85,43.6-19.53,10.49-41.53,15.31-63.27,19.62-62.35,12.36-127.82,21.29-188.71,3-6.51-2-13.18-4.36-17.93-9.22-7.47-7.64-8.42-20.13-4.15-29.92s12.91-17.13,22.35-22.14,19.78-8,29.88-11.5a321.16,321.16,0,0,0,135.55-90.71c3.45-3.91,7-8.06,11.9-9.92,4.64-1.77,9.8-1.2,14.74-.6l36.66,4.43c7.72.93,21.33-.54,25.75,7.07,5.13,8.81,7.62,20.8,11.18,30.37Q1014.7,2164.31,1021.3,2182.08Z"/><path class="cls-3" d="M771.29,1597S850.93,1966,889.45,2084.7h133.26s-17.18-297.75-9.89-399.78c0,0,41.12,4.69,53.62.78v-88.23Z"/><rect class="cls-3" x="877.74" y="2073.25" width="154.34" height="57.52" rx="18.65"/><path class="cls-3" d="M1354.56,1597S1274.14,1966,1235.62,2084.7H1102.35s18-297.75,10.68-399.78c0,0-40.35,4.69-52.84.78v-88.23Z"/><rect class="cls-3" x="1092.98" y="2073.25" width="154.34" height="57.52" rx="18.65" transform="translate(2340.31 4204.03) rotate(180)"/><path class="cls-4" d="M1595.64,1019.49l-112.58,136.56-74.4-32.65-54.1,473.54s-73.93,47.76-281.89,43.23c-190.84,1.14-301.37-43.23-301.37-43.23L727.4,1123.4,653,1156.05,540.41,1019.49l268-200.28,7.34-5.48h.52L1044,813v-.19l24,.1,24-.1V813l227.78.72h.48l3.86,2.9Z"/><polygon class="cls-5" points="1075.65 1598.24 1201.24 1441.87 1120.02 1139.37 1165.4 1041.17 1075.65 975.89 1075.65 974.53 1074.72 975.21 1073.79 974.53 1073.79 975.89 984.04 1041.17 1029.42 1139.37 948.2 1441.87 1073.79 1598.24 1073.79 1600.56 1074.72 1599.4 1075.65 1600.56 1075.65 1598.24"/><path class="cls-5" d="M1372.72,410.54v273a204.44,204.44,0,0,1-5.1,45.47,212.81,212.81,0,0,1-47.81,84.7h.48l3.86,2.9c-41.61,50.29-106.1,82.7-178.17,82.7,0,0-33.22,30.46-80.79,30.46s-80.79-30.46-80.79-30.46c-70.83,0-134.36-31.32-176-80.12l7.34-5.48h.52c-34.7-37.9-55.76-87.37-55.76-141.28V399.38a205.79,205.79,0,0,1,4.91-44.66c26-91.84,114.53-160,219-160H1146C1270.67,194.76,1372.72,291.86,1372.72,410.54Z"/><path class="cls-1" d="M1375.58,399.38V672.45a204.34,204.34,0,0,1-8,56.58,212.81,212.81,0,0,1-47.81,84.7c-41.65,45.56-103,74.45-171,74.45,0,0-33.17,30.5-80.79,30.5s-80.79-30.5-80.79-30.5c-68,0-129.31-28.89-171-74.45-34.7-37.9-55.76-87.37-55.76-141.28V399.38a205.79,205.79,0,0,1,4.91-44.66c21.78-97.42,113.2-171.06,221.82-171.06h161.58C1273.53,183.66,1375.58,280.75,1375.58,399.38Z"/><path class="cls-4" d="M1199.4,735.78c-11.1,30-39.34,66-109.23,83.92,0,0-102.54,31.22-150.59-77.71-2-4.24-3.76-8.72-5.43-13.37,0,0,119.43,57.83,271.28-42C1205.43,686.6,1209.37,708.8,1199.4,735.78Z"/><path class="cls-6" d="M1057.45,826.05c-34.94,0-89-12.69-120.05-83.1-1.88-4.05-3.68-8.48-5.49-13.53l-2-5.48,5.25,2.53c1.18.57,120.07,56,268.93-41.87l3-2,.63,3.56c.17.93,3.94,23.16-6.13,50.43h0c-10.61,28.68-38.46,66.79-110.88,85.4C1090.43,822.11,1076.89,826.05,1057.45,826.05ZM938.31,732.93c1.13,2.87,2.26,5.53,3.43,8.05,46.63,105.72,143.64,77.69,147.74,76.44C1160,799.29,1187,762.57,1197.17,735h0a105.84,105.84,0,0,0,6.33-44.27C1071.43,775.86,962.87,742.39,938.31,732.93Z"/><path class="cls-7" d="M1199.4,735.78c-11.1,30-39.34,66-109.23,83.92,0,0-102.54,31.22-150.59-77.71C989.78,769.68,1097.51,811.4,1199.4,735.78Z"/><path class="cls-8" d="M1385.17,670.47l-7.8,8.74s-2.85-141.07-12-176.44c0,0-20.9-79.64-53.28-95.26,0,0,28.48-98.08-45.94-130.63,0,0-90.27,91.14-237.74,90.49,0,0-102.67,7.81-195.7-56,0,0-22,36.46-4.13,84,0,0-59.95,63.14-67.53,140.61,0,0-3.07,101.35,1.66,127.41,0,0-5.46-2.45-26.22-24.8-16.73-18-23.6-41.24-29.37-64.58-17.84-72.21-18-182.6-2.35-241.57,0,0,23-99,43.19-106.76,0,0-45.94-140.61-36.3-176.63,0,0,27.11,68.57,117.61,60.32,0,0-38.59-52.94-29.86-109.36,0,0,68.91,50.78,142,37.32,0,0,46.43-5,76.5-16.4a214.58,214.58,0,0,1,39.34-11.14c51.41-9,161.32-18.78,214.46,47.07,0,0,42,43.62,48.92,87.56,0,0,113,79.09,118.53,217.1,0,0,9.92,100.15-3.08,188.39a283,283,0,0,1-28.74,88.55h0A155.32,155.32,0,0,1,1385.17,670.47Z"/><path class="cls-9" d="M735.75,107.63s91,319.41,422.64,204.84C1158.39,312.47,831.3,333.3,735.75,107.63Z"/><path class="cls-9" d="M826,47.81s103.53,279.62,391.77,156.63C1217.77,204.44,927.09,243.42,826,47.81Z"/><path class="cls-10" d="M919,527.58c-6.9,7.27-9.89,18.44-6.32,27.82,2.56,6.73,8.2,12,14.74,15.08s13.92,3.93,21.12,3.55c8.4-.45,16.89-2.71,23.65-7.72s11.56-13,11.44-21.44-5.26-16.43-12.28-21.21c-11.81-8-29.69-9.19-42.57-3.09A32.79,32.79,0,0,0,919,527.58Z"/><path class="cls-4" d="M952.88,523.14c-3.14-.16-6.54,1-8.14,3.72-1.74,2.91-1,6.67.42,9.76a29.33,29.33,0,0,0,11.59,13.14c3.5,2.12,7.94,3.47,11.66,1.76,3.25-1.5,5.18-5.15,5.24-8.72a15.61,15.61,0,0,0-3.76-9.81C965.8,527.89,959.59,523.49,952.88,523.14Z"/><path class="cls-10" d="M1166.86,527.58c-6.9,7.27-9.89,18.44-6.32,27.82,2.57,6.73,8.21,12,14.75,15.08s13.91,3.93,21.11,3.55c8.4-.45,16.9-2.71,23.66-7.72s11.55-13,11.43-21.44-5.26-16.43-12.27-21.21c-11.81-8-29.7-9.19-42.57-3.09A32.71,32.71,0,0,0,1166.86,527.58Z"/><path class="cls-4" d="M1200.73,523.14c-3.13-.16-6.53,1-8.14,3.72-1.74,2.91-1,6.67.42,9.76a29.38,29.38,0,0,0,11.59,13.14c3.51,2.12,8,3.47,11.67,1.76,3.24-1.5,5.17-5.15,5.23-8.72a15.61,15.61,0,0,0-3.76-9.81C1213.65,527.89,1207.44,523.49,1200.73,523.14Z"/><path class="cls-11" d="M1381.54,489.14c-1.58-6.87-5-11.16-12.82-12.16-11.3-1.43-21.5-6.43-31-12.63-22.5-14.59-46.76-24.69-73.45-28.5-24-3.43-47.57-.91-71.16,4.24-25.46,5.48-45.67,19.54-64.4,36.46-4,3.67-8,7.53-11.91,11.3-6.92,6.53-12.16,7-20.17,1.86a35,35,0,0,0-44.23,0c-8,5.19-13.25,4.67-20.16-1.86-4-3.77-7.86-7.63-11.92-11.3-18.73-16.92-38.94-31-64.39-36.46-23.59-5.15-47.14-7.67-71.16-4.24-26.69,3.81-51,13.91-73.45,28.5-9.54,6.2-19.74,11.2-31,12.63-7.86,1-11.25,5.29-12.82,12.16-.77,3.52-1.24,7.1-1.91,10.67v13.54c1.91,2.19,3.38,5.1,5.77,6.53,9.2,5.58,14.15,13.58,16.25,24a290.82,290.82,0,0,0,7.1,29c8.35,26.88,22.45,49.48,46.9,65.06,30.8,19.64,63.4,28.37,99.53,19,25.78-6.67,49-18.06,67.58-37.74,15.35-16.26,24.93-35.75,31.65-56.82,2.1-6.43,3.72-13,5.82-19.4,2.76-8.48,8.58-14.06,17.49-15.11,3.57-.38,7.24-.62,10.87-.71,3.62.09,7.29.33,10.86.71,8.92,1.05,14.73,6.63,17.5,15.11,2.09,6.44,3.72,13,5.81,19.4,6.72,21.07,16.3,40.56,31.65,56.82,18.54,19.68,41.8,31.07,67.59,37.74,36.13,9.4,68.73.67,99.52-19,24.45-15.58,38.56-38.18,46.9-65.06a288.13,288.13,0,0,0,7.11-29c2.09-10.39,7-18.39,16.25-24,2.38-1.43,3.86-4.34,5.76-6.53V499.81C1382.78,496.24,1382.3,492.66,1381.54,489.14ZM975.16,624.07c-18.78,13.35-39.85,19.55-64.49,19.78-29.7-.76-56.77-11.63-77.74-35.46-32.46-36.8-30.79-90.32,3.53-125.36,41.13-42.08,111.67-42,152.71.19C1029.59,524.79,1023.11,590.14,975.16,624.07Zm340.89-15.68c-21,23.83-48,34.7-77.74,35.46-24.64-.23-45.71-6.43-64.49-19.78-48-33.93-54.43-99.28-14-140.85,41-42.18,111.58-42.27,152.71-.19C1346.84,518.07,1348.51,571.59,1316.05,608.39Z"/><path class="cls-12" d="M975.16,624.07c-18.78,13.35-39.85,19.55-64.49,19.78-29.7-.76-56.77-11.63-77.74-35.46-32.46-36.8-30.79-90.32,3.53-125.36,41.13-42.08,111.67-42,152.71.19C1029.59,524.79,1023.11,590.14,975.16,624.07Z"/><path class="cls-12" d="M1316.05,608.39c-21,23.83-48,34.7-77.74,35.46-24.64-.23-45.71-6.43-64.49-19.78-48-33.93-54.43-99.28-14-140.85,41-42.18,111.58-42.27,152.71-.19C1346.84,518.07,1348.51,571.59,1316.05,608.39Z"/><path class="cls-13" d="M836,407.33s10.42-27.7,60.31-31.95c0,0,100.22-7.46,118,25.53l-78.55-6.52a144,144,0,0,0-18.23-.37C900.74,394.78,866.31,397.51,836,407.33Z"/><path class="cls-13" d="M1301.88,407.33s-10.42-27.7-60.31-31.95c0,0-100.22-7.46-118,25.53l78.55-6.52a144.14,144.14,0,0,1,18.24-.37C1237.19,394.78,1271.62,397.51,1301.88,407.33Z"/><polygon class="cls-14" points="1066.12 1588.71 1191.71 1432.33 1110.48 1129.84 1155.87 1031.64 1066.12 966.36 1066.12 965 1065.19 965.68 1064.25 965 1064.25 966.36 974.5 1031.64 1019.89 1129.84 938.66 1432.33 1064.25 1588.71 1064.25 1591.03 1065.19 1589.87 1066.12 1591.03 1066.12 1588.71"/></svg>