<svg id="Layer_1" data-name="Layer 1" xmlns="http://www.w3.org/2000/svg" viewBox="0 0 1361.69 1267.47"><defs><style>.cls-1{fill:#414141;opacity:0.45;}.cls-2{fill:#efcd6c;}.cls-3{fill:#ea9c3a;}</style></defs><title>quality-star</title><polygon class="cls-1" points="700.44 10.16 856.54 490.59 1361.69 490.59 953.02 787.2 1109.12 1267.46 700.44 970.47 291.77 1267.35 447.87 787.22 39.2 490.59 544.34 490.59 700.44 10.16"/><polygon class="cls-2" points="661.25 0.17 817.35 480.59 1322.49 480.59 913.82 777.2 1069.92 1257.46 661.25 960.47 252.57 1257.35 408.67 777.22 0 480.59 505.15 480.59 661.25 0.17"/><polygon class="cls-3" points="661.21 628.38 661.21 0 817.5 480.19 661.21 628.38"/><polygon class="cls-3" points="661.06 628.38 1322.49 480.19 913.82 777 661.06 628.38"/><polygon class="cls-3" points="661.06 628.38 1069.92 1257.37 661.25 960.42 661.06 628.38"/><polygon class="cls-3" points="661.06 628.38 252.57 1257.32 661.25 960.42 661.06 628.38"/><polygon class="cls-3" points="0 480.19 661.06 628.38 408.67 777 0 480.19"/></svg>