<svg id="Layer_1" data-name="Layer 1" xmlns="http://www.w3.org/2000/svg" viewBox="0 0 680.94 387.51"><defs><style>.cls-1{fill:#ffddac;}</style></defs><title>quality-left-hand</title><path class="cls-1" d="M486.94,293.71c58.16,8.85,119.22,4,172.72-20.5a147.9,147.9,0,0,1,21.17,68.15c2.15,37.58-26,37.12-54.44,40.95a574.71,574.71,0,0,1-95.36,4.9,576.78,576.78,0,0,1-184.36-36.66A556.83,556.83,0,0,1,251.38,304c-47-28.85-89.45-64.29-131.45-100.08,0,0-63.66-21.51-76.86-38.68,0,0-45.24-31.95-43-74.11,0,0-1.38-39.19,18.18-31.34,0,0,11.37-48.6,41.59-26.32,0,0,12.6-52.34,50.71-18.49,0,0,17.07-35.47,40.89,2.78,0,0,5.22,9.06,28.85,24.66,0,0,26.36,19.1,17,54.92,0,0,4.92,7.28,21.15,44.93a136,136,0,0,0,17.79,29c22.41,27.88,53.56,47.22,85.16,63.94C373.36,262.74,428.81,284.82,486.94,293.71Z"/></svg>