<svg id="Layer_1" data-name="Layer 1" xmlns="http://www.w3.org/2000/svg" viewBox="0 0 192.53 71.12"><defs><style>.cls-1{fill:#42414b;}.cls-1,.cls-2,.cls-3{fill-rule:evenodd;}.cls-2,.cls-3{fill:#fff;}.cls-2{opacity:0.6;}.cls-3{opacity:0.4;}</style></defs><title>rd-glasses</title><path class="cls-1" d="M46.74.09c11.4-.53,22.55,1.4,33.69,3.37a96.46,96.46,0,0,0,36.28-.78C132-.43,147.3-.49,162.66,1.37c8.24,1,16.45,2.39,24.64,3.84,4.32.77,4.52,1,4.85,5.44.39,5.23.38,10.5.38,15.75a3.81,3.81,0,0,1-1.2,2.89c-1.92,1.14-2.09,3-2.62,4.75-2.29,7.56-4.35,15.23-7.07,22.65-3.24,8.84-10.38,12.91-19.4,13.75-10.44,1-20.85.92-31.11-1.8-7.15-1.9-12.72-5.58-16.64-12.09-5.63-9.35-9.07-19.45-11.72-29.91-.43-1.67-.9-3.34-1.44-5-1-2.82-1.75-3.25-5.14-3.32-2.45-.05-4.26.59-5,3.24-1.71,6.11-3.14,12.35-5.42,18.26a182.64,182.64,0,0,1-8.3,17.36c-3.2,6.25-8.8,9.43-15.31,11.21A82.17,82.17,0,0,1,27.59,70c-7.85-1.2-13.95-5.52-16.69-13.24S6.11,41.2,3.63,33.44C3.18,32.06,2.1,30.9,1.4,29.59.84,28.52,0,27.37,0,26.26c.07-5.8.37-11.6.6-17.4a3.13,3.13,0,0,1,3-3.28c9.68-1.51,19.34-3.17,29.05-4.5C37.3.44,42,.4,46.74.09Zm3,8.08c-2.92.14-7.48.19-12,.62-6.49.6-13,1.53-18.88,4.52-2.64,1.34-5,3-5.71,6.19-2.73,12.87-1.49,25.27,4.6,37.06a13.2,13.2,0,0,0,9.57,7.28A76.45,76.45,0,0,0,58.19,64a23.49,23.49,0,0,0,16-11.34,71.63,71.63,0,0,0,9.57-25.39C85.31,18,83,14.52,74.17,11.51,66.79,9,59.1,8.63,49.78,8.17Zm102,57.3c2.69-.24,5.89-.58,9.1-.8,7.78-.54,12.86-4.45,15.71-11.76a57.68,57.68,0,0,0,3.77-27.23c-.41-4.08-.4-8.59-4.54-11.07a32.8,32.8,0,0,0-7.68-3.43c-9.9-2.81-20.07-3.3-30.28-2.8-7.44.36-14.81,1.11-21.83,4-5.77,2.39-8.11,5.24-7.54,11.43a62.44,62.44,0,0,0,12.85,32.85,18.2,18.2,0,0,0,9,6.11C137.17,65.06,144.18,65.64,151.8,65.47Z"/><path class="cls-2" d="M65.09,9.39c-4.71-.69-9.71-.94-15.31-1.22-2.92.14-7.48.19-12,.62-6.49.6-13,1.53-18.88,4.52-2.64,1.34-5,3-5.71,6.19-2.73,12.87-1.49,25.27,4.6,37.06a13.2,13.2,0,0,0,9.57,7.28l1.49.28A153.59,153.59,0,0,1,30.08,47.6C32.46,28.08,47.34,14.63,65.09,9.39Z"/><path class="cls-3" d="M74.17,11.51a51.24,51.24,0,0,0-9.08-2.12c-17.75,5.24-32.63,18.69-35,38.21a153.59,153.59,0,0,0-1.24,16.52A75.89,75.89,0,0,0,58.19,64a23.49,23.49,0,0,0,16-11.34,71.63,71.63,0,0,0,9.57-25.39C85.31,18,83,14.52,74.17,11.51Z"/><path class="cls-3" d="M180.38,25.68c-.41-4.08-.4-8.59-4.54-11.07a32.8,32.8,0,0,0-7.68-3.43,71.36,71.36,0,0,0-7-1.6c-11.85,2.6-22.31,10.94-29.55,20.89a62.73,62.73,0,0,0-10.76,25.59l.47.63a18.2,18.2,0,0,0,9,6.11c6.79,2.26,13.8,2.84,21.42,2.67,2.69-.24,5.89-.58,9.1-.8,7.78-.54,12.86-4.45,15.71-11.76A57.68,57.68,0,0,0,180.38,25.68Z"/><path class="cls-2" d="M161.2,9.58a103.29,103.29,0,0,0-23.32-1.2c-7.44.36-14.81,1.11-21.83,4-5.77,2.39-8.11,5.24-7.54,11.43a62.42,62.42,0,0,0,12.38,32.22,62.73,62.73,0,0,1,10.76-25.59C138.89,20.52,149.35,12.18,161.2,9.58Z"/></svg>