<svg xmlns="http://www.w3.org/2000/svg" viewBox="0 0 232.27 434.16"><defs><style>.cls-1{isolation:isolate;}.cls-2{fill:#82939a;}.cls-3{fill:#42414b;}.cls-4{fill:#d03f3e;}.cls-5{fill:#d85144;}.cls-18,.cls-6{fill:#fff;}.cls-7{fill:#d2d9dc;}.cls-8{fill:#f8ab94;}.cls-9{fill:#5e351d;}.cls-10{fill:#48250d;}.cls-11{fill:#875e44;}.cls-12{fill:#acd3db;}.cls-13{fill:#d3dee4;}.cls-14{fill:#cce4e9;}.cls-15{fill:#fdd0a2;}.cls-16{fill:#a7dad0;}.cls-17{fill:#f2725c;}.cls-18{opacity:0.6;mix-blend-mode:overlay;}</style></defs><title>p-char-Asset 2</title><g class="cls-1"><g id="Layer_2" data-name="Layer 2"><g id="Layer_1-2" data-name="Layer 1"><path class="cls-2" d="M113.73,366.62l4.49-11.28,4.27,11.3c40.48.4,68.22,7,68.22,7L176,334.29H60.39L47.63,373.6A296,296,0,0,1,113.73,366.62Z"/><path class="cls-3" d="M141,418c16.79-30.78,16.14-93.15,16.14-93.15l-19.69,1.79c13.71,29.37-3.45,74.22-9.16,87.55h0s-9.59,12.62,0,13.6c0,0,32.11,13.77,38.12.82C171.82,416.83,145.73,417.74,141,418Z"/><path class="cls-3" d="M101.06,418c-16.79-30.78-16.13-93.15-16.13-93.15l19.68,1.79c-13.7,29.37,3.46,74.22,9.17,87.55h0s9.59,12.62,0,13.6c0,0-32.12,13.77-38.12.82C70.2,416.83,96.28,417.74,101.06,418Z"/><path class="cls-4" d="M160.19,187.47c-5.74-8.92-12.39-16.63-20.09-22.48-16.76-12.73-39.39.08-39.39.08s-20.08,7.41-33.82,50.87C100.71,219.41,137.07,213.28,160.19,187.47Z"/><path class="cls-5" d="M171.09,208.1a149.67,149.67,0,0,0-10.9-20.63c-23.12,25.81-59.48,31.94-93.3,28.47-7.48,23.62-13.08,57.86-12.57,107.38,0,0,8.55,8.93,26.41,18.64s44.59,10.42,81.06,2c10.69-2.48,15.6-6,28-11.61C183,277.66,186.7,243.75,171.09,208.1Z"/><path class="cls-6" d="M100.45,176S67.56,273.28,78.31,376.5c0,0-30.81,4-44.22-8.05,0,0-4.87-128.84,50.18-192.44Z"/><path class="cls-6" d="M137.89,176S170.78,273.28,160,376.5c0,0,30.82,4,44.22-8.05,0,0,4.87-128.84-50.18-192.44Z"/><path class="cls-7" d="M100.45,178.1a33.34,33.34,0,0,0-22.14,26.81,30.12,30.12,0,0,0,6,22.79,52.27,52.27,0,0,0-11.1,26.81c-2.21,18.35,4.67,38.94,4.67,38.94Z"/><path class="cls-7" d="M137.89,178.1A33.34,33.34,0,0,1,160,204.91a30.12,30.12,0,0,1-6,22.79,52.27,52.27,0,0,1,11.1,26.81c2.21,18.35-4.67,38.94-4.67,38.94Z"/><path class="cls-6" d="M84.27,150.89s52.7,9.83,81.29-2.67c0,0-8.77,26.88-38.88,27.77S84.27,150.89,84.27,150.89Z"/><path class="cls-3" d="M159.79,120a9.08,9.08,0,1,0,9.07-9.08A9.08,9.08,0,0,0,159.79,120Z"/><path class="cls-3" d="M69.23,120a9.08,9.08,0,1,0,9.08-9.08A9.08,9.08,0,0,0,69.23,120Z"/><path class="cls-8" d="M182.12,150c-4.69.45-8.45-9,6.26-14.71S204.46,147.84,182.12,150Z"/><path class="cls-8" d="M69,150c4.68.45,8.45-9-6.26-14.71S46.66,147.84,69,150Z"/><path class="cls-9" d="M70.29,54.21S130,92,188.57,77.11c0,0,0,31,24.3,36.5L225,107.08s7.77-28.45-9.5-55.85c0,0,9.53,14.89,15.48,11.32s-7.14-48.83-68.48-50c0,0,7.36-4.17-11.21-10.13s-57.43-1.23-73,18.46c0,0-17.89-15.48-26.4-10.71S66.63,23.28,66.63,23.28s-18.47-.63-20.26,4.13,13.11,6,13.11,6S13.19,51.06,23.83,106.83l13.08,6.78s2.32,16,8.87,15.45S44,98.87,44,98.87,60.87,83.39,70.29,54.21Z"/><path class="cls-10" d="M63.68,108.07s7.25-15.4,21.23-5L88,94.7S70.93,84,58.33,103.17Z"/><path class="cls-10" d="M178.35,108.07s-7.24-15.4-21.22-5L154,94.7s17.09-10.72,29.69,8.47Z"/><rect class="cls-9" x="21.81" y="202.82" width="96.46" height="140.37" rx="7.94"/><rect class="cls-11" x="18.5" y="202.82" width="96.46" height="140.37" rx="7.94"/><path class="cls-12" d="M73.05,182.75H60.82A1.92,1.92,0,0,0,59,184.21a1.76,1.76,0,0,0-.06.46v21.6a1.91,1.91,0,0,0,1.92,1.92H73.05A1.92,1.92,0,0,0,75,206.27v-21.6A1.92,1.92,0,0,0,73.05,182.75Zm-6.12,9.67a3.26,3.26,0,1,1,3.26-3.25A3.26,3.26,0,0,1,66.93,192.42Z"/><path class="cls-13" d="M81.48,197.48a2.37,2.37,0,0,1-2.37,2.36H54.75a2.36,2.36,0,0,1-2.36-2.36h0a2.37,2.37,0,0,1,2.36-2.37H79.11a2.37,2.37,0,0,1,2.37,2.37Z"/><rect class="cls-12" x="10.85" y="232.58" width="113.41" height="80.18" transform="translate(-206.11 336.09) rotate(-89.13)"/><polygon class="cls-6" points="102.92 324.99 31.01 329.32 24.2 216.12 104.24 211.3 110.61 317.23 102.92 324.99"/><polygon class="cls-14" points="110.61 317.23 102.79 316.51 102.92 324.99 110.61 317.23"/><path class="cls-12" d="M53,210.83c5.23-13.06,19.31-9.59,31-7.73v-2.32a2.58,2.58,0,0,0-2.58-2.58h-29a2.57,2.57,0,0,0-2.58,2.58v16.43a2.58,2.58,0,0,0,1.95,2.5A21.57,21.57,0,0,1,53,210.83Z"/><path class="cls-13" d="M53,210.83a21.57,21.57,0,0,0-1.18,8.88,2.66,2.66,0,0,0,.63.09h29A2.59,2.59,0,0,0,84,217.21V203.1C72.29,201.24,58.21,197.77,53,210.83Z"/><path class="cls-15" d="M2.13,259.35c-4.43,7.71-3.56,35.1,18.46,38.45s5.06-12.64,5.06-12.64S42,287.51,42,277.31,29.54,272,29.54,272s11.28-5.25,8.81-11.48-11.15-.22-11.15-.22,12.3-12.45,3.91-14.86S10.21,245.26,2.13,259.35Z"/><path class="cls-16" d="M205.08,220.31V201.92a1.47,1.47,0,0,1,1.47-1.47h2.07c1.17,0,2.15-1.27,2.15-2.78s-1-2.77-2.15-2.77H185.51c-1.16,0-2.14,1.27-2.14,2.77s1,2.78,2.14,2.78h2.71a1.47,1.47,0,0,1,1.47,1.47v18.44C194.82,220.31,199.94,220.26,205.08,220.31Z"/><path class="cls-17" d="M189.69,220.36v82c0,3.29,3.45,6,7.69,6s7.7-2.69,7.7-6V220.31C199.94,220.26,194.82,220.31,189.69,220.36Z"/><path class="cls-6" d="M208.62,192H185.51c-2.8,0-5.09,2.57-5.09,5.72s2.29,5.73,5.09,5.73h1.23v99c0,4.92,4.78,8.93,10.64,8.93s10.65-4,10.65-8.93v-99h.59c2.81,0,5.1-2.57,5.1-5.73S211.43,192,208.62,192Zm0,8.5h-2.07a1.47,1.47,0,0,0-1.47,1.47V302.36c0,3.29-3.46,6-7.7,6s-7.69-2.69-7.69-6V201.92a1.47,1.47,0,0,0-1.47-1.47h-2.71c-1.16,0-2.14-1.27-2.14-2.78s1-2.77,2.14-2.77h23.11c1.17,0,2.15,1.27,2.15,2.77S209.79,200.45,208.62,200.45Z"/><path class="cls-18" d="M202.23,300a2.42,2.42,0,0,1-2.42,2.42h0a2.42,2.42,0,0,1-2.43-2.42V205a2.43,2.43,0,0,1,2.43-2.42h0a2.42,2.42,0,0,1,2.42,2.42Z"/><path class="cls-15" d="M224,244.28c4.43,7.71,3.56,35.11-18.46,38.46s-5.06-12.64-5.06-12.64-16.37,2.35-16.38-7.86,12.48-5.3,12.48-5.3-11.27-5.25-8.8-11.49,11.15-2.72,11.15-2.72-12.3-9.95-3.91-12.36S215.88,230.2,224,244.28Z"/></g></g></g></svg>