<svg id="Layer_1" data-name="Layer 1" xmlns="http://www.w3.org/2000/svg" viewBox="0 0 62.72 57.99"><defs><style>.cls-1{fill:#d8bd76;}.cls-2{fill:#c4aa68;}.cls-3{fill:#e7d691;}.cls-4{fill:#dfe9f2;}.cls-5{fill:#818286;}.cls-6{fill:#565759;}</style></defs><title>supply-chain-shelf</title><rect class="cls-1" x="6.25" y="2.79" width="21.21" height="18"/><rect class="cls-2" x="16.86" y="2.79" width="10.61" height="18"/><rect class="cls-3" x="5.73" y="2.51" width="22.26" height="3.19"/><rect class="cls-1" x="16.86" y="2.51" width="11.13" height="3.19"/><rect class="cls-4" x="7.47" y="7.17" width="7.23" height="3.28"/><rect class="cls-5" x="13.4" y="7.59" width="0.77" height="2.44"/><rect class="cls-5" x="12.03" y="7.59" width="0.77" height="2.44"/><rect class="cls-5" x="10.62" y="7.59" width="0.77" height="2.44"/><rect class="cls-5" x="9.32" y="7.59" width="0.77" height="2.44"/><rect class="cls-5" x="8" y="7.59" width="0.77" height="2.44"/><rect class="cls-1" x="35.3" y="2.79" width="21.21" height="18"/><rect class="cls-2" x="45.9" y="2.79" width="10.61" height="18"/><rect class="cls-3" x="34.77" y="2.51" width="22.26" height="3.19"/><rect class="cls-1" x="45.9" y="2.51" width="11.13" height="3.19"/><rect class="cls-4" x="36.52" y="7.17" width="7.23" height="3.28"/><rect class="cls-5" x="42.45" y="7.59" width="0.77" height="2.44"/><rect class="cls-5" x="41.08" y="7.59" width="0.77" height="2.44"/><rect class="cls-5" x="39.66" y="7.59" width="0.77" height="2.44"/><rect class="cls-5" x="38.36" y="7.59" width="0.77" height="2.44"/><rect class="cls-5" x="37.05" y="7.59" width="0.77" height="2.44"/><rect class="cls-1" x="35.3" y="27.1" width="21.21" height="18"/><rect class="cls-2" x="45.9" y="27.1" width="10.61" height="18"/><rect class="cls-3" x="34.77" y="26.82" width="22.26" height="3.19"/><rect class="cls-1" x="45.9" y="26.82" width="11.13" height="3.19"/><rect class="cls-4" x="36.52" y="31.48" width="7.23" height="3.28"/><rect class="cls-5" x="42.45" y="31.9" width="0.77" height="2.44"/><rect class="cls-5" x="41.08" y="31.9" width="0.77" height="2.44"/><rect class="cls-5" x="39.66" y="31.9" width="0.77" height="2.44"/><rect class="cls-5" x="38.36" y="31.9" width="0.77" height="2.44"/><rect class="cls-5" x="37.05" y="31.9" width="0.77" height="2.44"/><rect class="cls-1" x="6.25" y="27.1" width="21.21" height="18"/><rect class="cls-2" x="16.86" y="27.1" width="10.61" height="18"/><rect class="cls-3" x="5.73" y="26.82" width="22.26" height="3.19"/><rect class="cls-1" x="16.86" y="26.82" width="11.13" height="3.19"/><rect class="cls-4" x="7.47" y="31.48" width="7.23" height="3.28"/><rect class="cls-5" x="13.4" y="31.9" width="0.77" height="2.44"/><rect class="cls-5" x="12.03" y="31.9" width="0.77" height="2.44"/><rect class="cls-5" x="10.62" y="31.9" width="0.77" height="2.44"/><rect class="cls-5" x="9.32" y="31.9" width="0.77" height="2.44"/><rect class="cls-5" x="8" y="31.9" width="0.77" height="2.44"/><rect class="cls-5" x="3.6" y="45.06" width="55.52" height="3.95"/><rect class="cls-6" x="3.6" y="47.04" width="55.52" height="1.98"/><rect class="cls-5" x="3.6" y="20.7" width="55.52" height="3.95"/><rect class="cls-6" x="3.6" y="22.68" width="55.52" height="1.97"/><rect class="cls-5" width="3.95" height="57.99"/><rect class="cls-6" x="1.98" width="1.98" height="57.99"/><rect class="cls-5" x="58.77" width="3.95" height="57.99"/><rect class="cls-6" x="60.74" width="1.98" height="57.99"/><rect class="cls-5" x="29.38" width="3.95" height="57.99"/><rect class="cls-6" x="31.36" width="1.98" height="57.99"/></svg>