<svg id="Layer_1" data-name="Layer 1" xmlns="http://www.w3.org/2000/svg" viewBox="0 0 73.22 97.18"><defs><style>.cls-1,.cls-5{fill:none;stroke-linecap:round;stroke-linejoin:round;}.cls-1{stroke:#631814;}.cls-2{fill:#f03d27;}.cls-3{fill:#851f1a;}.cls-4{fill:#fff;}.cls-5{stroke:#e2342b;}.cls-6{fill:#fdb030;}.cls-7{fill:#d48b14;}.cls-8{fill:#ab7111;opacity:0.5;}</style></defs><title>supply-chain-parcel</title><line class="cls-1" x1="30.97" y1="30.9" x2="33.15" y2="62.81"/><path class="cls-2" d="M61.11,26.81c-4.72-3.58-11.74-3.89-17.93-2.53C35.05,26.05,31.57,29.67,31,30.9c-1.34-1.11-10.25-3.51-16.42-3-5.37.41-11.33,3.37-14,6-.11-.47-.2-1-.27-1.43C-1.67,20,7.45,4.54,27,.55,42.76-2.68,56.12,9,60.07,20.69A27.33,27.33,0,0,1,61.11,26.81Z"/><path class="cls-3" d="M61.11,26.81c-4.72-3.58-11.74-3.89-17.93-2.53C35.05,26.05,31.57,29.67,31,30.9c-1.34-1.11-10.25-3.51-16.42-3-5.37.41-11.33,3.37-14,6,0,0,.74-7.78,6.22-10.48S17.35,21.8,19.06,24a20,20,0,0,1,9.08-7.25c5.94-2.24,13.64.22,15.17,3.72,0,0,3.7-5.55,8.16-5.57S60,21.82,61.11,26.81Z"/><path class="cls-4" d="M43.31,20.47C43.65,12.13,37-2,26.45.62S19.06,24,19.06,24a20,20,0,0,1,9.08-7.25C34.08,14.51,41.78,17,43.31,20.47Z"/><polyline class="cls-5" points="19.06 24 33.15 62.81 43.3 20.46"/><polyline class="cls-5" points="0.52 33.85 33.15 62.81 61.11 26.81"/><polygon class="cls-6" points="5.11 64.5 54.33 58.47 58.22 92.29 10.95 97.18 5.11 64.5"/><polygon class="cls-7" points="54.33 58.47 71.56 62.1 73.22 87.91 58.22 92.29 54.33 58.47"/><polygon class="cls-8" points="60.05 59.67 60.55 64.81 67.37 65.5 67.07 61.15 60.05 59.67"/><polygon class="cls-8" points="63.71 90.69 63.16 85.21 68.6 84.36 69.17 89.09 63.71 90.69"/><line class="cls-5" x1="33.03" y1="61.07" x2="35.95" y2="94.59"/><line class="cls-1" x1="63.77" y1="61.07" x2="66.13" y2="89.98"/></svg>