<svg id="Layer_1" data-name="Layer 1" xmlns="http://www.w3.org/2000/svg" viewBox="0 0 88.16 44.41"><defs><style>.cls-1,.cls-7{fill:#ec7064;}.cls-1,.cls-3,.cls-4,.cls-5,.cls-6,.cls-8{fill-rule:evenodd;}.cls-2,.cls-4{fill:#565759;}.cls-3{fill:#444445;}.cls-5{fill:#818286;}.cls-6{fill:#d5544f;}.cls-8{fill:#dfe9f2;}.cls-9{fill:#ccd7e0;}.cls-10{fill:#b5bfc9;}</style></defs><title>supply-chain-truck</title><path class="cls-1" d="M30.6,2.07H24.29c-5.37,0-9.76,2.65-9.76,5.88v.89c0,3.24,4.39,5.89,9.76,5.89H30.6Z"/><rect class="cls-2" x="0.83" y="26.37" width="87.33" height="11.94" rx="1.31"/><path class="cls-3" d="M.83,32.34V37a1.31,1.31,0,0,0,1.31,1.31H86.85A1.31,1.31,0,0,0,88.16,37V32.34Z"/><path class="cls-1" d="M0,23.77v5.32A2.22,2.22,0,0,0,2.21,31.3H9.1L12,27.82a2,2,0,0,1,1.53-.64h17V5.61H7.53A7.55,7.55,0,0,0,0,13.13Z"/><path class="cls-4" d="M17.14,44.41a7.17,7.17,0,1,1,7.17-7.17A7.18,7.18,0,0,1,17.14,44.41Z"/><path class="cls-3" d="M17.14,30.07a7.17,7.17,0,0,0,0,14.34Z"/><path class="cls-5" d="M17.14,40.07A2.83,2.83,0,1,1,20,37.24,2.83,2.83,0,0,1,17.14,40.07Z"/><path class="cls-4" d="M17.14,34.42a2.83,2.83,0,0,0,0,5.65Z"/><polygon class="cls-5" points="26.37 38.42 26.37 32.33 26.32 32.03 26.1 31.84 21.59 28.08 21.38 27.91 21.1 27.91 13.18 27.91 12.9 27.91 12.69 28.08 8.18 31.84 7.96 32.03 7.91 32.33 7.91 38.42 9.44 38.64 9.4 32.84 13.46 29.45 20.82 29.45 24.88 32.84 24.84 38.64 26.37 38.42"/><polygon class="cls-4" points="17.14 27.91 13.18 27.91 12.9 27.91 12.69 28.08 8.18 31.84 7.96 32.03 7.91 32.33 7.91 38.42 9.44 38.64 9.4 32.84 13.46 29.45 17.14 29.45 17.14 27.91"/><path class="cls-4" d="M71.25,44.41a7.17,7.17,0,1,1,7.17-7.17A7.18,7.18,0,0,1,71.25,44.41Z"/><path class="cls-3" d="M71.25,30.07a7.17,7.17,0,0,0,0,14.34Z"/><path class="cls-5" d="M71.25,40.07a2.83,2.83,0,1,1,2.82-2.83A2.83,2.83,0,0,1,71.25,40.07Z"/><path class="cls-4" d="M71.25,34.42a2.83,2.83,0,0,0,0,5.65Z"/><polygon class="cls-5" points="80.48 38.42 80.48 32.33 80.43 32.03 80.21 31.84 75.7 28.08 75.49 27.91 75.21 27.91 67.29 27.91 67.01 27.91 66.8 28.08 62.29 31.84 62.06 32.03 62.02 32.33 62.02 38.42 63.55 38.64 63.51 32.84 67.57 29.45 74.93 29.45 78.99 32.84 78.95 38.64 80.48 38.42"/><polygon class="cls-4" points="71.25 27.91 67.29 27.91 67.01 27.91 66.8 28.08 62.29 31.84 62.06 32.03 62.02 32.33 62.02 38.42 63.55 38.64 63.51 32.84 67.57 29.45 71.25 29.45 71.25 27.91"/><path class="cls-6" d="M0,23.77v5.32A2.22,2.22,0,0,0,2.21,31.3H9.1L12,27.82a2,2,0,0,1,1.53-.64h17V18.45H0Z"/><rect class="cls-7" x="0.1" y="6.63" width="5.84" height="3.56" rx="1.18"/><path class="cls-8" d="M14.32,9.12H5.52a1,1,0,0,0-.94.94v8.35a.89.89,0,0,0,.94.94l8.8-1.55a1,1,0,0,0,.94-.94v-6.8A1,1,0,0,0,14.32,9.12Z"/><path class="cls-8" d="M2.25,10H.7A7.41,7.41,0,0,0,0,13.13v5.93l2.25-.4a1,1,0,0,0,.94-.94v-6.8A.94.94,0,0,0,2.25,10Z"/><rect class="cls-9" x="31.59" width="55.18" height="26.3"/><rect class="cls-10" x="31.59" y="13.15" width="55.18" height="13.15"/></svg>