<svg id="Layer_1" data-name="Layer 1" xmlns="http://www.w3.org/2000/svg" viewBox="0 0 65.69 61.45"><defs><style>.cls-1{fill:#d8bd76;}.cls-2{fill:#c4aa68;}.cls-3{fill:#e7d691;}.cls-4,.cls-6{fill:#dfe9f2;}.cls-5{fill:#818286;}.cls-6{fill-rule:evenodd;}.cls-7{fill:#91cebe;}.cls-8{fill:#81b1a3;}</style></defs><title>supply-chain-parcel-2</title><rect class="cls-1" x="1.45" y="5.6" width="58.91" height="49.98"/><rect class="cls-2" x="30.91" y="5.6" width="29.45" height="49.98"/><rect class="cls-3" y="4.82" width="61.82" height="8.85"/><rect class="cls-1" x="30.91" y="4.82" width="30.91" height="8.85"/><rect class="cls-4" x="4.85" y="17.76" width="20.07" height="9.1"/><rect class="cls-5" x="21.31" y="18.92" width="2.13" height="6.77"/><rect class="cls-5" x="17.5" y="18.92" width="2.13" height="6.77"/><rect class="cls-5" x="13.57" y="18.92" width="2.13" height="6.77"/><rect class="cls-5" x="9.97" y="18.92" width="2.13" height="6.77"/><rect class="cls-5" x="6.31" y="18.92" width="2.13" height="6.77"/><path class="cls-6" d="M53.8,1.16a3.25,3.25,0,0,1,3.06.57c.64.1,3.65.29,3.55.61L59.61,5c-.09.28-2.67,0-2.91.25A2.9,2.9,0,0,1,54.81,6H46a1.6,1.6,0,0,1-.39,0h-9c-2.17,0-1.68-2.12.47-2.36l8.48-.94h.08C48.14,2.24,51.26,1.67,53.8,1.16Z"/><path class="cls-6" d="M48.12,7.64l6.33-4.45a1.44,1.44,0,0,1,2,.34h0a1.43,1.43,0,0,1-.35,2L49.76,10a1.44,1.44,0,0,1-2-.35h0A1.44,1.44,0,0,1,48.12,7.64Z"/><rect class="cls-7" x="56.18" width="9.51" height="7.51"/><rect class="cls-8" x="56.18" y="3.66" width="9.51" height="3.85"/><path class="cls-6" d="M53.8,60.28a3.28,3.28,0,0,0,3.06-.56c.64-.1,3.65-.3,3.55-.61l-.8-2.62c-.09-.29-2.67,0-2.91-.26a2.94,2.94,0,0,0-1.89-.82H46a1.6,1.6,0,0,0-.39,0h-9c-2.17,0-1.68,2.11.47,2.35l8.48.95h.08C48.14,59.2,51.26,59.78,53.8,60.28Z"/><path class="cls-6" d="M48.12,53.8l6.33,4.46a1.44,1.44,0,0,0,2-.35h0a1.44,1.44,0,0,0-.35-2l-6.33-4.45a1.43,1.43,0,0,0-2,.35h0A1.43,1.43,0,0,0,48.12,53.8Z"/><rect class="cls-7" x="56.18" y="53.94" width="9.51" height="7.51"/><rect class="cls-8" x="56.18" y="53.94" width="9.51" height="3.85"/></svg>