<svg id="Layer_1" data-name="Layer 1" xmlns="http://www.w3.org/2000/svg" viewBox="0 0 176.74 74.66"><defs><style>.cls-1{fill:#cfd9db;}.cls-2{fill:#b2d8ef;}.cls-3{fill:#fff;}.cls-4{fill:#b5d7f0;}.cls-5{fill:#b0bdc6;}</style></defs><title>supply-chain-plane</title><path class="cls-1" d="M120.15,17.44,67.75.83A17.5,17.5,0,0,0,59.43.26a2.79,2.79,0,0,0-1.7.94,2.93,2.93,0,0,0,.69,4.46L87.78,23.19,116,18.3Z"/><path class="cls-1" d="M26.33,34.57l6.46-9a6.27,6.27,0,0,1,4-2.6l.45-.06a3.27,3.27,0,0,1,.54,0,1.5,1.5,0,0,1,1.36,2.23l-4.71,8.64-6.83.48Z"/><path class="cls-2" d="M173.9,22.88C164.79,29.49,63.06,44.65,32.54,49.07a55,55,0,0,1-21-.87c-5.19-1.27-9.9-3.13-9.07-5.61.72-2.17,5.7-4.82,18.26-8,0,0,103-21.56,122.55-23.16,14.52-1.19,30.29,1.41,33,6C177.27,19.05,176.66,20.88,173.9,22.88Z"/><path class="cls-3" d="M176.33,17.46c-11.16,7-116.08,22.65-147.75,27.25a57.72,57.72,0,0,1-21.95-.92c-1.45-.36-2.86-.75-4.13-1.2.72-2.17,5.7-4.82,18.26-8,0,0,103-21.56,122.55-23.16a87.56,87.56,0,0,1,17.36.31,45.53,45.53,0,0,1,11.13,2.55C174,15.2,175.62,16.26,176.33,17.46Z"/><path class="cls-4" d="M121.65,30l-54,40.55a21.55,21.55,0,0,1-9.41,4.06,3.49,3.49,0,0,1-2.35-.4,3.58,3.58,0,0,1-1-5.45L81.8,36.5l34.71-5.82Z"/><path class="cls-3" d="M116.51,30.68,64,70.43a21.53,21.53,0,0,1-8,3.78,3.58,3.58,0,0,1-1-5.45L81.8,36.5Z"/><path class="cls-3" d="M33.22,38.38,13.92,19a7,7,0,0,0-5.61-2l-7.85.76a.52.52,0,0,0-.35.83L18.4,40.94Z"/><path class="cls-4" d="M34.26,43.88l-11,11.57A9,9,0,0,1,17,58.35h-.65a6.81,6.81,0,0,1-.78-.05,2.17,2.17,0,0,1-1.49-3.46l8.46-11.36,9.84.68Z"/><path class="cls-3" d="M33.73,41.44,21.2,54.52c-1.48,1.59-3.77,3.8-5.65,3.78a2.14,2.14,0,0,1-1.49-3.46l8.46-11.36Z"/><path class="cls-5" d="M79.27,32.56h0A2,2,0,0,1,77,31l-.31-1.72A2,2,0,0,1,78.29,27h0a2,2,0,0,1,2.27,1.59l.3,1.72A2,2,0,0,1,79.27,32.56Z"/><path class="cls-5" d="M87.5,31.12h0a2,2,0,0,1-2.27-1.6l-.3-1.71a2,2,0,0,1,1.59-2.27h0a2,2,0,0,1,2.27,1.59l.3,1.72A2,2,0,0,1,87.5,31.12Z"/><path class="cls-5" d="M95.73,29.67h0a2,2,0,0,1-2.27-1.59l-.3-1.72a2,2,0,0,1,1.6-2.27h0A2,2,0,0,1,97,25.69l.3,1.71A2,2,0,0,1,95.73,29.67Z"/><path class="cls-5" d="M104,28.23h0a2,2,0,0,1-2.27-1.59l-.3-1.72A2,2,0,0,1,103,22.65h0a2,2,0,0,1,2.27,1.59l.3,1.72A2,2,0,0,1,104,28.23Z"/><path class="cls-5" d="M112.2,26.79h0a2,2,0,0,1-2.27-1.6l-.3-1.71a2,2,0,0,1,1.59-2.27h0a2,2,0,0,1,2.27,1.59l.31,1.72A2,2,0,0,1,112.2,26.79Z"/><path class="cls-5" d="M120.44,25.34h0a2,2,0,0,1-2.27-1.59L117.86,22a2,2,0,0,1,1.6-2.27h0a2,2,0,0,1,2.27,1.6l.3,1.71A2,2,0,0,1,120.44,25.34Z"/><path class="cls-5" d="M171.8,14.31c-2.21,1.09-9.6,4.34-22.7,6.13L147.87,15s7.7-1.63,12.8-3.23A45.53,45.53,0,0,1,171.8,14.31Z"/></svg>