<svg id="Layer_1" data-name="Layer 1" xmlns="http://www.w3.org/2000/svg" viewBox="0 0 131.24 37.59"><defs><style>.cls-1{fill:#958496;}.cls-2{fill:#b5d7f0;}.cls-3{fill:#8ad094;}.cls-4{fill:#7eb691;}.cls-5{fill:#f8dba3;}.cls-6{fill:#f5b35d;}.cls-7{fill:#f8c866;}.cls-8{fill:#f5a233;}.cls-9{fill:#266381;}.cls-10{fill:#101c28;}.cls-11{fill:#851f1a;}.cls-12{fill:#90c8f0;}</style></defs><title>supply-chain-ship</title><rect class="cls-1" x="58.08" y="4.27" width="7.6" height="19.35" transform="translate(0.2 -0.85) rotate(0.79)"/><rect class="cls-1" x="12.16" y="1.43" width="24.3" height="16.7" transform="translate(0.14 -0.33) rotate(0.79)"/><rect class="cls-2" x="32.8" y="0.14" width="20.25" height="9.03" transform="translate(0.07 -0.59) rotate(0.79)"/><rect class="cls-3" x="29.91" y="9.17" width="26.57" height="16.79" transform="translate(0.25 -0.59) rotate(0.79)"/><rect class="cls-4" x="56.48" y="9.4" width="6.45" height="16.79" transform="translate(0.25 -0.82) rotate(0.79)"/><rect class="cls-5" x="19.99" y="3.87" width="26.31" height="7.22" transform="translate(0.11 -0.46) rotate(0.79)"/><rect class="cls-6" x="19.84" y="11.1" width="26.31" height="14.72" transform="translate(0.26 -0.45) rotate(0.79)"/><rect class="cls-7" x="37.79" y="4" width="8.51" height="7.22" transform="translate(0.11 -0.58) rotate(0.79)"/><rect class="cls-8" x="37.64" y="11.22" width="8.51" height="14.72" transform="translate(0.26 -0.58) rotate(0.79)"/><rect class="cls-9" x="82.71" y="-8.74" width="25.93" height="55.72" transform="translate(75.24 114.52) rotate(-89.21)"/><polygon class="cls-10" points="109.05 21.86 107.47 26.85 71.87 26.36 55.67 15.69 0 14.92 14.22 36.01 128.55 37.59 131.24 22.17 109.05 21.86"/><polygon class="cls-11" points="14.22 36.01 128.55 37.59 129.18 34.11 11.85 32.49 14.22 36.01"/><rect class="cls-12" x="53.05" y="0.31" width="5.16" height="9.03" transform="translate(0.07 -0.77) rotate(0.79)"/><rect class="cls-10" x="68.01" y="4.74" width="55.72" height="1.42" transform="translate(0.08 -1.32) rotate(0.79)"/><rect class="cls-2" x="72.79" y="11.66" width="2.58" height="4.39" transform="translate(0.2 -1.02) rotate(0.79)"/><rect class="cls-2" x="79.24" y="11.75" width="2.58" height="4.39" transform="translate(0.2 -1.11) rotate(0.79)"/><rect class="cls-2" x="98.84" y="12.02" width="2.58" height="4.39" transform="translate(0.21 -1.38) rotate(0.79)"/><rect class="cls-2" x="88.67" y="19.62" width="2.58" height="4.39" transform="translate(0.31 -1.24) rotate(0.79)"/><rect class="cls-2" x="104.77" y="12.1" width="2.58" height="4.39" transform="translate(0.21 -1.46) rotate(0.79)"/><rect class="cls-2" x="110.71" y="12.19" width="2.58" height="4.39" transform="translate(0.21 -1.54) rotate(0.79)"/></svg>