<svg id="Layer_1" data-name="Layer 1" xmlns="http://www.w3.org/2000/svg" viewBox="0 0 75.12 49.35"><defs><style>.cls-1{fill:#91cebe;}.cls-1,.cls-2,.cls-3,.cls-4{fill-rule:evenodd;}.cls-2{fill:#81b1a3;}.cls-3{fill:#565759;}.cls-4{fill:#444445;}.cls-5{fill:#d8bd76;}.cls-6{fill:#c4aa68;}.cls-7{fill:#e7d691;}.cls-8{fill:#dfe9f2;}.cls-9{fill:#818286;}</style></defs><title>supply-chain-warehouse</title><polygon class="cls-1" points="75.12 13.5 75.12 49.35 0 49.35 0 13.5 37.56 0 75.12 13.5"/><polygon class="cls-2" points="75.12 13.5 75.12 49.35 37.56 49.35 37.56 0 75.12 13.5"/><polygon class="cls-3" points="4.25 14.98 37.56 3.29 70.88 14.98 70.88 49.35 4.25 49.35 4.25 14.98"/><polygon class="cls-4" points="37.56 3.29 70.88 14.98 70.88 49.35 37.56 49.35 37.56 3.29"/><rect class="cls-5" x="5.92" y="46.43" width="4.12" height="2.92"/><rect class="cls-6" x="23.54" y="46.43" width="4.12" height="2.92"/><rect class="cls-7" x="5.92" y="46.43" width="21.74" height="1.25"/><rect class="cls-5" x="16.79" y="46.43" width="10.87" height="1.25"/><rect class="cls-5" x="6.35" y="36.03" width="10.1" height="10.1"/><rect class="cls-6" x="11.4" y="36.03" width="5.05" height="10.1"/><rect class="cls-7" x="6.1" y="35.87" width="10.6" height="1.79"/><rect class="cls-5" x="11.4" y="35.87" width="5.3" height="1.79"/><rect class="cls-5" x="17.13" y="36.03" width="10.1" height="10.1"/><rect class="cls-6" x="22.18" y="36.03" width="5.05" height="10.1"/><rect class="cls-7" x="16.88" y="35.87" width="10.6" height="1.79"/><rect class="cls-5" x="22.18" y="35.87" width="5.3" height="1.79"/><rect class="cls-5" x="28.89" y="46.43" width="4.12" height="2.92"/><rect class="cls-6" x="46.5" y="46.43" width="4.12" height="2.92"/><rect class="cls-7" x="28.89" y="46.43" width="21.74" height="1.25"/><rect class="cls-5" x="39.76" y="46.43" width="10.87" height="1.25"/><rect class="cls-5" x="29.32" y="36.03" width="10.1" height="10.1"/><rect class="cls-6" x="34.37" y="36.03" width="5.05" height="10.1"/><rect class="cls-7" x="29.07" y="35.87" width="10.6" height="1.79"/><rect class="cls-5" x="34.37" y="35.87" width="5.3" height="1.79"/><rect class="cls-5" x="40.09" y="36.03" width="10.1" height="10.1"/><rect class="cls-6" x="45.14" y="36.03" width="5.05" height="10.1"/><rect class="cls-7" x="39.84" y="35.87" width="10.6" height="1.79"/><rect class="cls-5" x="45.14" y="35.87" width="5.3" height="1.79"/><rect class="cls-5" x="6.35" y="25.42" width="10.1" height="10.1"/><rect class="cls-6" x="11.4" y="25.42" width="5.05" height="10.1"/><rect class="cls-7" x="6.1" y="25.26" width="10.6" height="1.79"/><rect class="cls-5" x="11.4" y="25.26" width="5.3" height="1.79"/><rect class="cls-5" x="17.13" y="25.42" width="10.1" height="10.1"/><rect class="cls-6" x="22.18" y="25.42" width="5.05" height="10.1"/><rect class="cls-7" x="16.88" y="25.26" width="10.6" height="1.79"/><rect class="cls-5" x="22.18" y="25.26" width="5.3" height="1.79"/><rect class="cls-5" x="6.35" y="14.73" width="10.1" height="10.1"/><rect class="cls-6" x="11.4" y="14.73" width="5.05" height="10.1"/><rect class="cls-7" x="6.1" y="14.57" width="10.6" height="1.79"/><rect class="cls-5" x="11.4" y="14.57" width="5.3" height="1.79"/><rect class="cls-5" x="29.14" y="25.42" width="10.1" height="10.1"/><rect class="cls-6" x="34.19" y="25.42" width="5.05" height="10.1"/><rect class="cls-7" x="28.89" y="25.26" width="10.6" height="1.79"/><rect class="cls-5" x="34.19" y="25.26" width="5.3" height="1.79"/><rect class="cls-8" x="6.77" y="17.29" width="3.44" height="1.56"/><rect class="cls-9" x="9.59" y="17.49" width="0.37" height="1.16"/><rect class="cls-9" x="8.94" y="17.49" width="0.37" height="1.16"/><rect class="cls-9" x="8.26" y="17.49" width="0.37" height="1.16"/><rect class="cls-9" x="7.64" y="17.49" width="0.37" height="1.16"/><rect class="cls-9" x="7.02" y="17.49" width="0.37" height="1.16"/><rect class="cls-8" x="6.94" y="28.11" width="3.44" height="1.56"/><rect class="cls-9" x="9.77" y="28.31" width="0.37" height="1.16"/><rect class="cls-9" x="9.11" y="28.31" width="0.37" height="1.16"/><rect class="cls-9" x="8.44" y="28.31" width="0.37" height="1.16"/><rect class="cls-9" x="7.82" y="28.31" width="0.37" height="1.16"/><rect class="cls-9" x="7.19" y="28.31" width="0.37" height="1.16"/><rect class="cls-8" x="17.68" y="28.11" width="3.44" height="1.56"/><rect class="cls-9" x="20.5" y="28.31" width="0.37" height="1.16"/><rect class="cls-9" x="19.85" y="28.31" width="0.37" height="1.16"/><rect class="cls-9" x="19.18" y="28.31" width="0.37" height="1.16"/><rect class="cls-9" x="18.56" y="28.31" width="0.37" height="1.16"/><rect class="cls-9" x="17.93" y="28.31" width="0.37" height="1.16"/><rect class="cls-8" x="29.78" y="28.11" width="3.44" height="1.56"/><rect class="cls-9" x="32.6" y="28.31" width="0.37" height="1.16"/><rect class="cls-9" x="31.95" y="28.31" width="0.37" height="1.16"/><rect class="cls-9" x="31.27" y="28.31" width="0.37" height="1.16"/><rect class="cls-9" x="30.65" y="28.31" width="0.37" height="1.16"/><rect class="cls-9" x="30.03" y="28.31" width="0.37" height="1.16"/><rect class="cls-8" x="6.94" y="38.81" width="3.44" height="1.56"/><rect class="cls-9" x="9.77" y="39.01" width="0.37" height="1.16"/><rect class="cls-9" x="9.11" y="39.01" width="0.37" height="1.16"/><rect class="cls-9" x="8.44" y="39.01" width="0.37" height="1.16"/><rect class="cls-9" x="7.82" y="39.01" width="0.37" height="1.16"/><rect class="cls-9" x="7.19" y="39.01" width="0.37" height="1.16"/><rect class="cls-8" x="17.68" y="38.81" width="3.44" height="1.56"/><rect class="cls-9" x="20.5" y="39.01" width="0.37" height="1.16"/><rect class="cls-9" x="19.85" y="39.01" width="0.37" height="1.16"/><rect class="cls-9" x="19.18" y="39.01" width="0.37" height="1.16"/><rect class="cls-9" x="18.56" y="39.01" width="0.37" height="1.16"/><rect class="cls-9" x="17.93" y="39.01" width="0.37" height="1.16"/><rect class="cls-8" x="29.78" y="38.81" width="3.44" height="1.56"/><rect class="cls-9" x="32.6" y="39.01" width="0.37" height="1.16"/><rect class="cls-9" x="31.95" y="39.01" width="0.37" height="1.16"/><rect class="cls-9" x="31.27" y="39.01" width="0.37" height="1.16"/><rect class="cls-9" x="30.65" y="39.01" width="0.37" height="1.16"/><rect class="cls-9" x="30.03" y="39.01" width="0.37" height="1.16"/><rect class="cls-8" x="40.71" y="38.81" width="3.44" height="1.56"/><rect class="cls-9" x="43.53" y="39.01" width="0.37" height="1.16"/><rect class="cls-9" x="42.88" y="39.01" width="0.37" height="1.16"/><rect class="cls-9" x="42.21" y="39.01" width="0.37" height="1.16"/><rect class="cls-9" x="41.59" y="39.01" width="0.37" height="1.16"/><rect class="cls-9" x="40.96" y="39.01" width="0.37" height="1.16"/></svg>