<svg id="Layer_1" data-name="Layer 1" xmlns="http://www.w3.org/2000/svg" viewBox="0 0 1404.99 791.38"><defs><style>.cls-1{fill:#13afc2;}.cls-2{fill:#090b11;}.cls-3{fill:#e5e5e6;}.cls-4{fill:#babcbe;}.cls-5{fill:#af320b;}.cls-6{fill:#231f20;}.cls-7{fill:#fff;}.cls-8{fill:#d8d9d9;}</style></defs><title>tech-interface</title><rect class="cls-1" width="1404.99" height="791.38"/><rect class="cls-2" x="15.4" y="52.4" width="1339.79" height="720.45"/><rect class="cls-3" x="1355.19" y="52.4" width="49.67" height="720.45"/><rect class="cls-4" x="1369.83" y="113.4" width="20.06" height="516.75"/><polygon class="cls-4" points="1369.83 739.48 1389.89 739.48 1379.86 760.3 1369.83 739.48"/><polygon class="cls-4" points="1369.83 96.29 1389.89 96.29 1379.86 75.46 1369.83 96.29"/><path class="cls-2" d="M1315.9,36.06h-21.8V14.26h21.8Zm-20.9-.9h20v-20h-20Z"/><path class="cls-2" d="M1343.37,36.06h-21.8V14.26h21.8Zm-20.9-.9h20v-20h-20Z"/><rect class="cls-5" x="1349.49" y="14.71" width="20.9" height="20.9"/><path class="cls-6" d="M1370.83,36.06H1349V14.26h21.79Zm-20.9-.9h20v-20h-20Z"/><rect class="cls-7" x="1359.51" y="16.47" width="0.86" height="17.37" transform="matrix(0.69, -0.72, 0.72, 0.69, 402.72, 991.5)"/><rect class="cls-7" x="1351.51" y="24.73" width="16.86" height="0.86" transform="translate(328.89 912.29) rotate(-41.77)"/><path class="cls-8" d="M70,32.54l1.52.39a5.16,5.16,0,0,1-1.72,2.87,4.82,4.82,0,0,1-3,1,5.46,5.46,0,0,1-3-.76,4.71,4.71,0,0,1-1.77-2.2,7.78,7.78,0,0,1-.61-3.09A6.89,6.89,0,0,1,62,27.59a4.83,4.83,0,0,1,2-2,5.78,5.78,0,0,1,2.8-.69,4.72,4.72,0,0,1,2.91.88,4.53,4.53,0,0,1,1.65,2.48l-1.51.35a3.48,3.48,0,0,0-1.16-1.83,3.07,3.07,0,0,0-1.92-.58,3.67,3.67,0,0,0-2.22.64,3.3,3.3,0,0,0-1.26,1.71,7.44,7.44,0,0,0,.07,4.78,3.17,3.17,0,0,0,1.33,1.64,3.7,3.7,0,0,0,2,.55,3.28,3.28,0,0,0,2.17-.74A3.79,3.79,0,0,0,70,32.54Z"/><path class="cls-8" d="M72.68,32.41A4.28,4.28,0,0,1,74,29,3.85,3.85,0,0,1,76.59,28a3.77,3.77,0,0,1,2.82,1.13,4.28,4.28,0,0,1,1.09,3.12A5.58,5.58,0,0,1,80,34.83a3.41,3.41,0,0,1-1.41,1.43,4.13,4.13,0,0,1-2,.52,3.74,3.74,0,0,1-2.83-1.13A4.5,4.5,0,0,1,72.68,32.41Zm1.45,0a3.53,3.53,0,0,0,.7,2.4,2.34,2.34,0,0,0,3.52,0,3.69,3.69,0,0,0,.7-2.45A3.47,3.47,0,0,0,78.34,30a2.33,2.33,0,0,0-3.51,0A3.53,3.53,0,0,0,74.13,32.41Z"/><path class="cls-8" d="M82.16,36.59V28.23h1.27V29.4a2.83,2.83,0,0,1,1-1A2.91,2.91,0,0,1,86,28a2.7,2.7,0,0,1,1.52.39,2,2,0,0,1,.84,1.08A3,3,0,0,1,90.9,28a2.56,2.56,0,0,1,1.92.69,3,3,0,0,1,.66,2.12v5.74h-1.4V31.32a3.92,3.92,0,0,0-.14-1.22,1.17,1.17,0,0,0-.5-.6,1.59,1.59,0,0,0-.85-.23,1.92,1.92,0,0,0-1.46.59,2.56,2.56,0,0,0-.59,1.87v4.86H87.13V31.16a2.42,2.42,0,0,0-.35-1.42,1.32,1.32,0,0,0-1.13-.47,2.07,2.07,0,0,0-1.11.31,1.76,1.76,0,0,0-.73.93,4.93,4.93,0,0,0-.23,1.74v4.34Z"/><path class="cls-8" d="M95.58,39.79V28.23h1.29v1.09a3.13,3.13,0,0,1,1-1A2.83,2.83,0,0,1,99.3,28a3.38,3.38,0,0,1,1.89.55,3.44,3.44,0,0,1,1.23,1.56,6,6,0,0,1,0,4.5A3.54,3.54,0,0,1,101,36.23a3.46,3.46,0,0,1-1.84.55,2.69,2.69,0,0,1-1.28-.3,3,3,0,0,1-.92-.76v4.07Zm1.29-7.33a3.6,3.6,0,0,0,.65,2.38,2,2,0,0,0,1.58.77,2.06,2.06,0,0,0,1.62-.8,3.78,3.78,0,0,0,.67-2.47,3.66,3.66,0,0,0-.66-2.39,2,2,0,0,0-1.57-.8,2,2,0,0,0-1.6.85A3.8,3.8,0,0,0,96.87,32.46Z"/><path class="cls-8" d="M110,35.56a5.33,5.33,0,0,1-1.52.94,4.41,4.41,0,0,1-1.56.28,3,3,0,0,1-2.11-.68,2.2,2.2,0,0,1-.74-1.72,2.24,2.24,0,0,1,.28-1.12,2.12,2.12,0,0,1,.73-.81,3.4,3.4,0,0,1,1-.47,10.84,10.84,0,0,1,1.25-.21,13,13,0,0,0,2.53-.49c0-.19,0-.31,0-.37a1.61,1.61,0,0,0-.4-1.22,2.39,2.39,0,0,0-1.62-.48,2.53,2.53,0,0,0-1.47.35,2.21,2.21,0,0,0-.71,1.24l-1.38-.19a3.43,3.43,0,0,1,.62-1.43,2.66,2.66,0,0,1,1.25-.84,5.53,5.53,0,0,1,1.9-.3,5.26,5.26,0,0,1,1.74.25,2.29,2.29,0,0,1,1,.64,2.13,2.13,0,0,1,.44,1,7.73,7.73,0,0,1,.07,1.31v1.89a20.07,20.07,0,0,0,.09,2.49,3.14,3.14,0,0,0,.36,1h-1.48A3,3,0,0,1,110,35.56Zm-.12-3.17a10.53,10.53,0,0,1-2.31.54,5.38,5.38,0,0,0-1.24.28,1.28,1.28,0,0,0-.56.46,1.28,1.28,0,0,0,.23,1.62,1.88,1.88,0,0,0,1.26.38,2.93,2.93,0,0,0,1.46-.36,2.25,2.25,0,0,0,.93-1,3.45,3.45,0,0,0,.23-1.42Z"/><path class="cls-8" d="M113.49,36.59V28.23h1.27V29.5a3.38,3.38,0,0,1,.91-1.17,1.53,1.53,0,0,1,.9-.29,2.72,2.72,0,0,1,1.46.46l-.49,1.31a2,2,0,0,0-1-.3,1.37,1.37,0,0,0-.83.27,1.56,1.56,0,0,0-.53.78,5.72,5.72,0,0,0-.23,1.65v4.38Z"/><path class="cls-8" d="M124.59,33.9l1.46.18a3.54,3.54,0,0,1-1.28,2,4.34,4.34,0,0,1-5.3-.42,4.45,4.45,0,0,1-1.07-3.17,4.57,4.57,0,0,1,1.09-3.27A3.65,3.65,0,0,1,122.3,28,3.58,3.58,0,0,1,125,29.18a4.52,4.52,0,0,1,1.06,3.21c0,.09,0,.21,0,.38h-6.23a3.29,3.29,0,0,0,.78,2.11,2.32,2.32,0,0,0,1.75.73,2.19,2.19,0,0,0,1.33-.41A2.66,2.66,0,0,0,124.59,33.9Zm-4.65-2.29h4.67a2.87,2.87,0,0,0-.54-1.59,2.17,2.17,0,0,0-1.75-.81,2.22,2.22,0,0,0-1.64.65A2.59,2.59,0,0,0,119.94,31.61Z"/><path class="cls-8" d="M127.55,31a6.27,6.27,0,0,1,1.54-4.5,5.26,5.26,0,0,1,4-1.62,5.49,5.49,0,0,1,2.88.76,5,5,0,0,1,2,2.13,6.88,6.88,0,0,1,.67,3.09,6.79,6.79,0,0,1-.71,3.14,4.79,4.79,0,0,1-2,2.1,5.7,5.7,0,0,1-2.81.71,5.51,5.51,0,0,1-2.91-.78,5.11,5.11,0,0,1-1.94-2.15A6.53,6.53,0,0,1,127.55,31Zm1.57,0a4.67,4.67,0,0,0,1.12,3.29,3.91,3.91,0,0,0,5.65,0A4.93,4.93,0,0,0,137,30.83a5.87,5.87,0,0,0-.48-2.46,3.7,3.7,0,0,0-1.39-1.63,3.75,3.75,0,0,0-2.06-.58,3.88,3.88,0,0,0-2.79,1.12A5,5,0,0,0,129.12,31Z"/><path class="cls-8" d="M141.67,36.59h-1.31V25.05h1.41v4.12A2.81,2.81,0,0,1,144.06,28a3.61,3.61,0,0,1,1.46.31,3,3,0,0,1,1.14.88,4.29,4.29,0,0,1,.69,1.35,5.55,5.55,0,0,1,.25,1.7,4.76,4.76,0,0,1-1.06,3.32A3.34,3.34,0,0,1,144,36.78a2.68,2.68,0,0,1-2.32-1.24Zm0-4.24a4.39,4.39,0,0,0,.4,2.17,2,2,0,0,0,3.42.28,3.64,3.64,0,0,0,.68-2.4,3.73,3.73,0,0,0-.65-2.41,2,2,0,0,0-1.57-.78,2.06,2.06,0,0,0-1.61.8A3.57,3.57,0,0,0,141.66,32.35Z"/><path class="cls-8" d="M147.52,39.83l.27-1.21a2.6,2.6,0,0,0,.67.11.77.77,0,0,0,.65-.28,3,3,0,0,0,.21-1.44V28.23h1.41V37a4.1,4.1,0,0,1-.4,2.15,1.88,1.88,0,0,1-1.7.79A4.13,4.13,0,0,1,147.52,39.83Zm1.8-13.13V25.05h1.41V26.7Z"/><path class="cls-8" d="M158.63,33.9l1.46.18a3.59,3.59,0,0,1-1.28,2,3.89,3.89,0,0,1-2.4.71,3.81,3.81,0,0,1-2.9-1.13,4.41,4.41,0,0,1-1.08-3.17,4.61,4.61,0,0,1,1.09-3.27A3.66,3.66,0,0,1,156.34,28a3.55,3.55,0,0,1,2.73,1.14,4.53,4.53,0,0,1,1.07,3.21c0,.09,0,.21,0,.38H153.9a3.19,3.19,0,0,0,.78,2.11,2.28,2.28,0,0,0,1.74.73,2.17,2.17,0,0,0,1.33-.41A2.74,2.74,0,0,0,158.63,33.9ZM154,31.61h4.66a2.87,2.87,0,0,0-.53-1.59,2.19,2.19,0,0,0-1.76-.81,2.22,2.22,0,0,0-1.64.65A2.58,2.58,0,0,0,154,31.61Z"/><path class="cls-8" d="M167.32,33.53l1.39.18A3.57,3.57,0,0,1,167.54,36a3.4,3.4,0,0,1-2.31.82,3.57,3.57,0,0,1-2.75-1.13,4.51,4.51,0,0,1-1-3.21,5.83,5.83,0,0,1,.45-2.37,3.18,3.18,0,0,1,1.37-1.52,4,4,0,0,1,2-.51,3.47,3.47,0,0,1,2.23.69,3.18,3.18,0,0,1,1.11,2l-1.38.21a2.25,2.25,0,0,0-.7-1.27,1.79,1.79,0,0,0-1.2-.42,2.18,2.18,0,0,0-1.74.76,3.64,3.64,0,0,0-.67,2.43,3.78,3.78,0,0,0,.64,2.45,2.11,2.11,0,0,0,1.69.76,2,2,0,0,0,1.39-.51A2.56,2.56,0,0,0,167.32,33.53Z"/><path class="cls-8" d="M173,35.32l.21,1.25a5.63,5.63,0,0,1-1.07.13,2.49,2.49,0,0,1-1.2-.25,1.3,1.3,0,0,1-.59-.64,4.85,4.85,0,0,1-.18-1.67V29.33h-1v-1.1h1V26.16l1.41-.85v2.92H173v1.1h-1.42v4.89a2.45,2.45,0,0,0,.08.78.62.62,0,0,0,.24.27.9.9,0,0,0,.48.1A3.91,3.91,0,0,0,173,35.32Z"/><path class="cls-8" d="M173.83,34.09l1.4-.22a2,2,0,0,0,.66,1.29,2.29,2.29,0,0,0,1.51.45,2.15,2.15,0,0,0,1.44-.4,1.17,1.17,0,0,0,.48-.93.85.85,0,0,0-.42-.75,5.75,5.75,0,0,0-1.45-.48,14.12,14.12,0,0,1-2.16-.68,2.16,2.16,0,0,1-.91-.8,2.08,2.08,0,0,1-.31-1.12,2.12,2.12,0,0,1,.25-1,2.34,2.34,0,0,1,.7-.8,2.91,2.91,0,0,1,.9-.41,4.39,4.39,0,0,1,1.22-.17,4.78,4.78,0,0,1,1.73.29,2.3,2.3,0,0,1,1.1.76,3,3,0,0,1,.49,1.3l-1.39.19a1.51,1.51,0,0,0-.54-1,2,2,0,0,0-1.28-.36,2.31,2.31,0,0,0-1.4.32,1,1,0,0,0-.41.75.82.82,0,0,0,.17.5,1.33,1.33,0,0,0,.54.38l1.25.36a17.07,17.07,0,0,1,2.1.66,2.09,2.09,0,0,1,.93.74,2,2,0,0,1,.34,1.21,2.45,2.45,0,0,1-.41,1.34,2.66,2.66,0,0,1-1.19,1,4.33,4.33,0,0,1-1.77.35,3.94,3.94,0,0,1-2.48-.68A3.15,3.15,0,0,1,173.83,34.09Z"/><path class="cls-8" d="M182.86,36.59V35h1.61v1.62Z"/><path class="cls-8" d="M192.39,33.53l1.39.18A3.62,3.62,0,0,1,192.61,36a3.43,3.43,0,0,1-2.31.82,3.6,3.6,0,0,1-2.76-1.13,4.56,4.56,0,0,1-1-3.21,5.83,5.83,0,0,1,.45-2.37,3.16,3.16,0,0,1,1.36-1.52,4,4,0,0,1,2-.51,3.44,3.44,0,0,1,2.22.69,3.13,3.13,0,0,1,1.11,2l-1.37.21a2.3,2.3,0,0,0-.7-1.27,1.82,1.82,0,0,0-1.21-.42,2.21,2.21,0,0,0-1.74.76A3.69,3.69,0,0,0,188,32.4a3.78,3.78,0,0,0,.64,2.45,2.09,2.09,0,0,0,1.68.76,2,2,0,0,0,1.4-.51A2.56,2.56,0,0,0,192.39,33.53Z"/><path class="cls-8" d="M194.42,34.09l1.4-.22a2,2,0,0,0,.66,1.29,2.29,2.29,0,0,0,1.51.45,2.15,2.15,0,0,0,1.44-.4,1.17,1.17,0,0,0,.48-.93.85.85,0,0,0-.42-.75,5.91,5.91,0,0,0-1.45-.48,14.12,14.12,0,0,1-2.16-.68,2.16,2.16,0,0,1-.91-.8,2.08,2.08,0,0,1-.31-1.12,2.12,2.12,0,0,1,.25-1,2.34,2.34,0,0,1,.7-.8,2.91,2.91,0,0,1,.9-.41,4.39,4.39,0,0,1,1.22-.17,4.82,4.82,0,0,1,1.73.29,2.3,2.3,0,0,1,1.1.76,3.16,3.16,0,0,1,.49,1.3l-1.39.19a1.48,1.48,0,0,0-.55-1,2,2,0,0,0-1.27-.36,2.31,2.31,0,0,0-1.4.32,1,1,0,0,0-.41.75.76.76,0,0,0,.17.5,1.33,1.33,0,0,0,.54.38l1.25.36a17.68,17.68,0,0,1,2.1.66,2.09,2.09,0,0,1,.93.74,2,2,0,0,1,.34,1.21,2.45,2.45,0,0,1-.41,1.34,2.72,2.72,0,0,1-1.19,1,4.33,4.33,0,0,1-1.77.35,3.94,3.94,0,0,1-2.48-.68A3.15,3.15,0,0,1,194.42,34.09Z"/><path class="cls-8" d="M202.48,34.09l1.4-.22a2,2,0,0,0,.66,1.29,2.26,2.26,0,0,0,1.5.45,2.18,2.18,0,0,0,1.45-.4,1.18,1.18,0,0,0,.47-.93.86.86,0,0,0-.41-.75,5.91,5.91,0,0,0-1.45-.48,14.12,14.12,0,0,1-2.16-.68,2.11,2.11,0,0,1-1.23-1.92,2.13,2.13,0,0,1,.26-1,2.24,2.24,0,0,1,.7-.8,2.91,2.91,0,0,1,.9-.41,4.39,4.39,0,0,1,1.22-.17,4.82,4.82,0,0,1,1.73.29,2.27,2.27,0,0,1,1.09.76,3,3,0,0,1,.49,1.3l-1.38.19a1.52,1.52,0,0,0-.55-1,2,2,0,0,0-1.28-.36,2.28,2.28,0,0,0-1.39.32.93.93,0,0,0-.42.75.77.77,0,0,0,.18.5,1.21,1.21,0,0,0,.54.38l1.25.36a18.33,18.33,0,0,1,2.1.66,2.21,2.21,0,0,1,.93.74,2.11,2.11,0,0,1,.34,1.21,2.38,2.38,0,0,1-.42,1.34,2.61,2.61,0,0,1-1.19,1,4.29,4.29,0,0,1-1.76.35,3.92,3.92,0,0,1-2.48-.68A3.15,3.15,0,0,1,202.48,34.09Z"/><path class="cls-7" d="M41.09,38.73h-9a1.52,1.52,0,0,1-1.52-1.51V23.31a1.52,1.52,0,0,1,1.52-1.51h11a1.52,1.52,0,0,1,1.51,1.51v12.1H42a.9.9,0,0,0-.9.9ZM32.12,23a.36.36,0,0,0-.37.36V37.22a.36.36,0,0,0,.37.36h7.82V36.31A2.05,2.05,0,0,1,42,34.26h1.47V23.31A.36.36,0,0,0,43.1,23Z"/><path class="cls-7" d="M40.47,39.14V36.31A1.52,1.52,0,0,1,42,34.8h3.09ZM42,36a.37.37,0,0,0-.37.36v.16l.56-.52Z"/></svg>